<?xml version="1.0" encoding="UTF-8" standalone="no"?><!DOCTYPE svg PUBLIC "-//W3C//DTD SVG 1.1//EN" "http://www.w3.org/Graphics/SVG/1.1/DTD/svg11.dtd"><svg width="100%" height="100%" viewBox="0 0 84 84" version="1.1" xmlns="http://www.w3.org/2000/svg" xmlns:xlink="http://www.w3.org/1999/xlink" xml:space="preserve" xmlns:serif="http://www.serif.com/" style="fill-rule:evenodd;clip-rule:evenodd;stroke-linejoin:round;stroke-miterlimit:2;"><path d="M71.344,5.289l-8.831,-0l0,-1.734c0,-1.475 -1.213,-2.688 -2.688,-2.688c-1.474,-0 -2.688,1.213 -2.688,2.688l0,1.734l-30.712,-0l-0,-1.734c-0,-1.475 -1.214,-2.688 -2.688,-2.688c-1.475,-0 -2.689,1.213 -2.689,2.688l0,1.734l-9.059,-0c-6.572,-0 -11.982,5.404 -11.989,11.976l0,53.226c0.007,6.572 5.417,11.975 11.989,11.975l59.355,0c6.572,0 11.982,-5.403 11.989,-11.975l0,-53.226c-0.007,-6.572 -5.417,-11.976 -11.989,-11.976Zm-65.968,11.976c0,-3.621 2.979,-6.6 6.6,-6.6l9.059,0l-0,1.748c-0,1.474 1.213,2.688 2.688,2.688c1.475,-0 2.688,-1.214 2.688,-2.688l0,-1.748l30.726,0l0,1.748c0,1.474 1.214,2.688 2.688,2.688c1.475,-0 2.688,-1.214 2.688,-2.688l0,-1.748l8.831,0c0.005,0 0.009,0 0.014,0c3.62,0 6.599,2.979 6.599,6.6l-0,9.919l-72.581,0l0,-9.919Zm65.968,59.825l-59.355,0c-0.004,0 -0.009,0 -0.013,0c-3.621,0 -6.6,-2.979 -6.6,-6.599l0,-37.931l72.581,0l-0,37.931c-0,3.62 -2.979,6.599 -6.599,6.599c-0.005,0 -0.009,0 -0.014,0Z" style="fill:#474948;fill-rule:nonzero;"/></svg>