<?xml version="1.0" encoding="UTF-8" standalone="no"?><!DOCTYPE svg PUBLIC "-//W3C//DTD SVG 1.1//EN" "http://www.w3.org/Graphics/SVG/1.1/DTD/svg11.dtd"><svg width="100%" height="100%" viewBox="0 0 105 105" version="1.1" xmlns="http://www.w3.org/2000/svg" xmlns:xlink="http://www.w3.org/1999/xlink" xml:space="preserve" xmlns:serif="http://www.serif.com/" style="fill-rule:evenodd;clip-rule:evenodd;stroke-linejoin:round;stroke-miterlimit:2;"><g><path d="M94.362,0.036c-0.178,-0.06 -0.368,-0.107 -0.569,-0.107c-0.143,-0 -0.285,0.012 -0.439,0.024c-0.142,-0 -0.285,-0.024 -0.439,-0.024l-68.219,-0c-6.201,-0 -11.239,5.039 -11.239,11.239l-0,74.871l-11.702,-0c-0.973,-0 -1.755,0.782 -1.755,1.755l-0,5.204c-0,6.201 5.039,11.24 11.239,11.24l63.608,-0c0.13,-0 0.249,-0.012 0.367,-0.024c0.119,0 0.249,0.024 0.368,0.024c0.154,-0 0.308,-0.024 0.45,-0.059c5.644,-0.593 10.054,-5.383 10.054,-11.169l0.048,-74.61l16.278,0c0.972,0 1.755,-0.782 1.755,-1.754l-0,-5.454c-0,-5.726 -4.28,-10.445 -9.805,-11.156Zm-83.123,100.681c-4.256,-0 -7.73,-3.462 -7.73,-7.731l0,-3.438l60.845,0l0,3.45c0,3 1.186,5.715 3.095,7.73l-56.21,0l0,-0.011Zm71.338,-12.757l-0,5.026c-0,4.138 -3.272,7.517 -7.351,7.707c-4.09,-0.19 -7.35,-3.569 -7.35,-7.707l-0,-5.204c-0,-0.972 -0.783,-1.755 -1.755,-1.755l-49.155,0l-0,-74.859c-0,-4.256 3.462,-7.73 7.73,-7.73l60.975,0c-1.92,2.016 -3.094,4.731 -3.094,7.73l-0,76.626c-0.012,0.059 -0,0.106 -0,0.166Zm18.08,-73.081l-14.583,0l0,-3.699c0,-4.114 3.237,-7.481 7.292,-7.706c4.055,0.225 7.291,3.592 7.291,7.706l0,3.699Z" style="fill:#fff;fill-rule:nonzero;"/><path d="M35.426,22.728l-7.268,7.268l-3.201,-3.13c-0.688,-0.676 -1.802,-0.664 -2.478,0.023c-0.676,0.688 -0.664,1.802 0.024,2.478l4.446,4.351c0.343,0.332 0.782,0.498 1.221,0.498c0.45,0 0.901,-0.177 1.245,-0.509l8.489,-8.501c0.687,-0.688 0.687,-1.802 -0,-2.478c-0.688,-0.676 -1.791,-0.688 -2.478,-0Z" style="fill:#fff;fill-rule:nonzero;"/><path d="M35.426,44.353l-7.268,7.268l-3.201,-3.13c-0.688,-0.676 -1.802,-0.664 -2.478,0.024c-0.676,0.687 -0.664,1.802 0.024,2.478l4.446,4.351c0.343,0.332 0.782,0.498 1.221,0.498c0.45,-0 0.901,-0.178 1.245,-0.51l8.489,-8.501c0.687,-0.688 0.687,-1.802 -0,-2.478c-0.688,-0.687 -1.791,-0.687 -2.478,0Z" style="fill:#fff;fill-rule:nonzero;"/><path d="M35.426,65.979l-7.268,7.267l-3.201,-3.13c-0.688,-0.676 -1.802,-0.664 -2.478,0.024c-0.676,0.688 -0.664,1.802 0.024,2.478l4.446,4.351c0.343,0.332 0.782,0.498 1.221,0.498c0.45,-0 0.901,-0.178 1.245,-0.51l8.489,-8.501c0.687,-0.687 0.687,-1.802 -0,-2.477c-0.688,-0.688 -1.791,-0.688 -2.478,-0Z" style="fill:#fff;fill-rule:nonzero;"/><path d="M66.702,22.218l-21.637,0c-0.973,0 -1.755,0.783 -1.755,1.755c-0,0.972 0.782,1.754 1.755,1.754l21.637,0c0.972,0 1.754,-0.782 1.754,-1.754c0,-0.972 -0.782,-1.755 -1.754,-1.755Z" style="fill:#fff;fill-rule:nonzero;"/><path d="M45.065,34.228l12.946,0c0.973,0 1.755,-0.782 1.755,-1.754c0,-0.973 -0.782,-1.755 -1.755,-1.755l-12.946,-0c-0.973,-0 -1.755,0.782 -1.755,1.755c-0,0.972 0.782,1.754 1.755,1.754Z" style="fill:#fff;fill-rule:nonzero;"/><path d="M66.702,43.606l-21.637,0c-0.973,0 -1.755,0.783 -1.755,1.755c-0,0.972 0.782,1.755 1.755,1.755l21.637,-0c0.972,-0 1.754,-0.783 1.754,-1.755c0,-0.972 -0.782,-1.755 -1.754,-1.755Z" style="fill:#fff;fill-rule:nonzero;"/><path d="M45.065,55.616l12.946,0c0.973,0 1.755,-0.782 1.755,-1.754c0,-0.972 -0.782,-1.755 -1.755,-1.755l-12.946,0c-0.973,0 -1.755,0.783 -1.755,1.755c-0,0.972 0.782,1.754 1.755,1.754Z" style="fill:#fff;fill-rule:nonzero;"/><path d="M66.702,65.113l-21.637,0c-0.973,0 -1.755,0.783 -1.755,1.755c-0,0.972 0.782,1.754 1.755,1.754l21.637,0c0.972,0 1.754,-0.782 1.754,-1.754c0,-0.972 -0.782,-1.755 -1.754,-1.755Z" style="fill:#fff;fill-rule:nonzero;"/><path d="M58.011,73.614l-12.946,-0c-0.973,-0 -1.755,0.782 -1.755,1.754c-0,0.973 0.782,1.755 1.755,1.755l12.946,0c0.973,0 1.755,-0.782 1.755,-1.755c0,-0.972 -0.782,-1.754 -1.755,-1.754Z" style="fill:#fff;fill-rule:nonzero;"/></g></svg>