<?xml version="1.0" encoding="UTF-8" standalone="no"?><!DOCTYPE svg PUBLIC "-//W3C//DTD SVG 1.1//EN" "http://www.w3.org/Graphics/SVG/1.1/DTD/svg11.dtd"><svg width="100%" height="100%" viewBox="0 0 146 146" version="1.1" xmlns="http://www.w3.org/2000/svg" xmlns:xlink="http://www.w3.org/1999/xlink" xml:space="preserve" xmlns:serif="http://www.serif.com/" style="fill-rule:evenodd;clip-rule:evenodd;stroke-linejoin:round;stroke-miterlimit:2;"><g><g><path d="M145.833,57.137l-30.382,-0l0,-42.535c0,-8.376 6.816,-15.191 15.191,-15.191c8.376,0 15.191,6.815 15.191,15.191l0,42.535Zm-24.305,-6.077l18.229,0l-0,-36.458c-0,-5.026 -4.089,-9.115 -9.115,-9.115c-5.026,0 -9.114,4.089 -9.114,9.115l-0,36.458Z" style="fill:#af2b50;fill-rule:nonzero;"/></g><g><path d="M0,146.422l0,-131.82c0,-8.376 6.815,-15.191 15.191,-15.191l115.451,0l0,6.076l-115.451,0c-5.026,0 -9.115,4.089 -9.115,9.115l0,123.388l6.068,-2.023l9.236,3.038l8.995,-3.041l9.126,3.041l9.196,-3.038l9.035,3.035l9.16,-3.035l9.064,3.035l9.112,-3.035l9.116,3.038l8.92,-2.973l12.347,2.468l0,-84.401l6.077,-0l-0,91.813l-18.032,-3.608l-9.312,3.104l-9.116,-3.039l-9.118,3.042l-9.067,-3.042l-9.166,3.042l-9.038,-3.042l-9.187,3.039l-9.103,-3.036l-8.982,3.036l-9.248,-3.039l-12.159,4.053Z" style="fill:#af2b50;fill-rule:nonzero;"/></g><g><rect x="15.191" y="17.64" width="30.382" height="6.076" style="fill:#af2b50;"/></g><g><rect x="15.191" y="29.793" width="42.535" height="6.076" style="fill:#af2b50;"/></g><g><rect x="18.229" y="66.251" width="42.535" height="6.076" style="fill:#af2b50;"/></g><g><rect x="91.146" y="66.251" width="12.153" height="6.076" style="fill:#af2b50;"/></g><g><rect x="18.229" y="81.442" width="42.535" height="6.076" style="fill:#af2b50;"/></g><g><rect x="91.146" y="81.442" width="12.153" height="6.076" style="fill:#af2b50;"/></g><g><rect x="18.229" y="96.633" width="42.535" height="6.076" style="fill:#af2b50;"/></g><g><rect x="85.069" y="117.901" width="24.306" height="6.076" style="fill:#af2b50;"/></g><g><rect x="91.146" y="96.633" width="12.153" height="6.076" style="fill:#af2b50;"/></g><g><rect x="39.497" y="48.022" width="42.535" height="6.076" style="fill:#af2b50;"/></g></g></svg>