<?xml version="1.0" encoding="UTF-8" standalone="no"?><!DOCTYPE svg PUBLIC "-//W3C//DTD SVG 1.1//EN" "http://www.w3.org/Graphics/SVG/1.1/DTD/svg11.dtd"><svg width="100%" height="100%" viewBox="0 0 146 171" version="1.1" xmlns="http://www.w3.org/2000/svg" xmlns:xlink="http://www.w3.org/1999/xlink" xml:space="preserve" xmlns:serif="http://www.serif.com/" style="fill-rule:evenodd;clip-rule:evenodd;stroke-linejoin:round;stroke-miterlimit:2;"><g><path d="M129.278,20.812c-0.048,0 -0.096,-0 -0.144,-0c-9.068,-0 -16.529,7.461 -16.529,16.529c-0,3.409 1.054,6.736 3.018,9.522l-8.084,6.648c-8.07,-7.062 -18.096,-11.511 -28.746,-12.756l-0,-7.366c7.632,-1.681 13.115,-8.503 13.115,-16.318c0,-9.166 -7.542,-16.708 -16.708,-16.708c-9.166,-0 -16.709,7.542 -16.709,16.708c0,7.815 5.483,14.637 13.115,16.318l0,7.007c-12.039,0.423 -23.554,5.067 -32.518,13.115l-8.445,-7.007c1.809,-2.734 2.774,-5.941 2.774,-9.219c0,-9.166 -7.542,-16.709 -16.708,-16.709c-9.166,0 -16.709,7.543 -16.709,16.709c0,9.166 7.543,16.708 16.709,16.708c3.079,0 6.098,-0.851 8.724,-2.458l8.624,7.186c-6.959,8.124 -10.896,18.411 -11.139,29.105l-17.248,43.478l15.631,1.617l0.359,23.356l23.895,0l0,14.194l7.187,-0l-0,-21.56l-24.075,0l-0.359,-22.637l-12.576,-1.258l14.193,-35.932l-0,-0.719c0.105,-9.243 3.48,-18.157 9.522,-25.152l15.271,12.576c-1.651,3.064 -2.515,6.49 -2.515,9.971c-0,11.531 9.489,21.02 21.02,21.02c11.532,0 21.021,-9.489 21.021,-21.02c-0,-3.481 -0.865,-6.907 -2.516,-9.971l15.272,-12.576c2.989,3.496 5.304,7.517 6.827,11.857l-0,0.36c3.593,7.905 1.617,25.332 -0.18,39.346c-0.539,5.21 -1.257,10.061 -1.437,14.193l-0,41.502l7.186,-0l0,-41.323c0.36,-3.952 0.899,-8.623 1.438,-13.654c1.796,-15.63 3.952,-33.237 -0.539,-42.939c-1.752,-5.117 -4.432,-9.868 -7.905,-14.014l8.444,-7.006c2.561,1.528 5.488,2.335 8.47,2.335c9.068,0 16.529,-7.461 16.529,-16.529c0,-9.067 -7.461,-16.529 -16.529,-16.529c-0.008,0 -0.017,0 -0.026,0Zm-27.488,37.19l-14.733,12.038c-2.466,-2.215 -5.421,-3.816 -8.624,-4.671l0,-17.428c8.581,1.073 16.682,4.563 23.357,10.061Zm-33.418,-47.43c1.748,-1.726 4.108,-2.695 6.565,-2.695c5.125,-0 9.342,4.217 9.342,9.342c0,5.125 -4.217,9.343 -9.342,9.343c-2.457,-0 -4.817,-0.969 -6.565,-2.695c-1.776,-1.755 -2.778,-4.151 -2.778,-6.648c0,-2.497 1.002,-4.893 2.778,-6.647Zm3.055,37.01l-0,17.248c-4.531,0.357 -8.823,2.188 -12.217,5.21l-14.733,-12.038c7.561,-6.393 17.055,-10.064 26.95,-10.42Zm-64.319,-10.241c-0,-5.125 4.217,-9.342 9.342,-9.342c5.125,-0 9.343,4.217 9.343,9.342c-0,5.125 -4.218,9.343 -9.343,9.343c-5.125,-0 -9.342,-4.218 -9.342,-9.343Zm66.115,62.163c-7.589,0 -13.834,-6.245 -13.834,-13.834c0,-7.589 6.245,-13.834 13.834,-13.834c7.589,0 13.834,6.245 13.834,13.834c0,7.589 -6.245,13.834 -13.834,13.834Zm56.055,-52.82c-5.125,-0 -9.343,-4.218 -9.343,-9.343c0,-5.125 4.218,-9.342 9.343,-9.342c5.125,-0 9.342,4.217 9.342,9.342c0,5.125 -4.217,9.343 -9.342,9.343Z" style="fill:#af2b50;fill-rule:nonzero;"/></g></svg>