<?xml version="1.0" encoding="UTF-8" standalone="no"?><!DOCTYPE svg PUBLIC "-//W3C//DTD SVG 1.1//EN" "http://www.w3.org/Graphics/SVG/1.1/DTD/svg11.dtd"><svg width="100%" height="100%" viewBox="0 0 105 105" version="1.1" xmlns="http://www.w3.org/2000/svg" xmlns:xlink="http://www.w3.org/1999/xlink" xml:space="preserve" xmlns:serif="http://www.serif.com/" style="fill-rule:evenodd;clip-rule:evenodd;stroke-linejoin:round;stroke-miterlimit:2;"><g><path d="M74.391,26.236c-6.045,-5.995 -14.266,-9.294 -22.777,-9.142c-16.858,0.243 -30.899,14.15 -31.302,31.001c-0.256,10.562 4.768,20.584 13.384,26.698c1.141,0.797 1.828,2.099 1.842,3.491l0,6.218c0,0.591 0.487,1.078 1.078,1.078l30.939,-0c0.591,-0 1.078,-0.487 1.078,-1.078l-0,-6.22c0.008,-1.383 0.686,-2.679 1.819,-3.474c8.405,-5.953 13.413,-15.636 13.413,-25.937c-0,-8.505 -3.414,-16.664 -9.472,-22.635l-0.002,-0Zm-5.185,46.82c-1.698,1.198 -2.715,3.148 -2.724,5.226l-0,5.147l-28.795,-0l-0,-5.145c-0.015,-2.087 -1.04,-4.043 -2.748,-5.243c-8.033,-5.701 -12.718,-15.046 -12.478,-24.894c0.373,-15.711 13.459,-28.679 29.191,-28.905c0.145,-0.002 0.29,-0.003 0.435,-0.003c16.257,-0 29.634,13.377 29.634,29.633c-0,9.605 -4.67,18.634 -12.509,24.184l-0.006,0Z" style="fill:#fff;fill-rule:nonzero;"/><path d="M73.695,52.214c1.144,-1.278 1.754,-3.244 0.787,-5.8c-1.811,-4.778 -5.716,-5.965 -7.614,-6.25c-0.142,-1.738 -1.153,-3.292 -2.686,-4.125c-2.28,-1.247 -4.211,-0.836 -5.28,-0.398c-1.252,-1.27 -2.922,-1.744 -4.847,-1.319c-0.756,0.168 -1.444,0.563 -1.972,1.131c-0.527,-0.568 -1.215,-0.962 -1.972,-1.131c-1.922,-0.431 -3.594,0.049 -4.847,1.319c-1.077,-0.431 -2.997,-0.849 -5.28,0.398c-1.532,0.833 -2.543,2.387 -2.685,4.125c-1.899,0.296 -5.804,1.483 -7.614,6.25c-0.968,2.556 -0.358,4.526 0.787,5.8c-1.354,0.98 -2.636,2.877 -2.41,6.142c0.287,4.125 4.871,5.226 7.543,5.226l32.974,0c2.661,0 7.243,-1.101 7.532,-5.226c0.22,-3.257 -1.062,-5.162 -2.416,-6.142Zm-43.489,5.993c-0.234,-3.349 1.475,-4.347 2.21,-4.618c0.749,0.321 1.555,0.488 2.37,0.491c1.487,0 2.895,-0.567 3.772,-1.64c0.194,-0.201 0.303,-0.47 0.303,-0.749c-0,-0.591 -0.487,-1.078 -1.078,-1.078c-0.355,0 -0.688,0.176 -0.889,0.469c-0.802,0.981 -2.653,1.132 -4.043,0.33c-0.847,-0.489 -2.123,-1.69 -1.16,-4.235c1.384,-3.651 4.311,-4.623 5.791,-4.879c0.344,1.243 1.032,2.364 1.985,3.233c-0.621,0.76 -1.047,1.939 -0.677,3.577c0.111,0.488 0.548,0.837 1.048,0.839c0.08,-0.001 0.16,-0.009 0.239,-0.026c0.489,-0.112 0.838,-0.55 0.838,-1.051c0,-0.082 -0.009,-0.163 -0.028,-0.242c-0.245,-1.091 0.087,-1.647 0.397,-1.916c0.933,0.387 1.97,0.448 2.942,0.172c1.593,-0.478 2.885,-1.658 3.504,-3.202c0.026,-0.094 0.039,-0.191 0.039,-0.288c0,-0.591 -0.486,-1.078 -1.078,-1.078c-0.425,0 -0.812,0.252 -0.985,0.641c-0.384,0.889 -1.137,1.567 -2.06,1.858c-0.623,0.17 -1.289,0.085 -1.849,-0.237l-0.052,-0.028c-0.201,-0.113 -0.392,-0.243 -0.571,-0.388c-0.975,-0.761 -1.603,-1.885 -1.739,-3.114c0.001,-0.016 0.001,-0.032 -0,-0.047c-0.018,-0.216 -0.018,-0.432 -0,-0.647c0.07,-1.034 0.667,-1.961 1.58,-2.453c0.9,-0.534 1.974,-0.695 2.991,-0.45c-0.127,0.263 -0.242,0.539 -0.349,0.83c-0.063,0.139 -0.096,0.291 -0.096,0.444c-0,0.591 0.486,1.078 1.077,1.078c0.482,-0 0.908,-0.324 1.038,-0.787c0.793,-2.177 2.093,-3.033 3.972,-2.619c0.803,0.194 1.37,0.922 1.362,1.748l0,15.101c-4.239,1.239 -5.588,-1.905 -5.735,-2.291c-0.173,-0.386 -0.559,-0.635 -0.982,-0.635c-0.591,-0 -1.078,0.486 -1.078,1.078c0,0.101 0.015,0.203 0.043,0.301c0.326,0.792 0.801,1.513 1.401,2.125c-1.879,0.956 -2.869,2.838 -3.166,3.997c-0.143,0.569 0.203,1.154 0.769,1.304c0.089,0.024 0.18,0.035 0.272,0.035c0.485,-0.002 0.911,-0.331 1.037,-0.8c0.034,-0.121 0.816,-2.922 3.54,-2.987c0.657,0.216 1.344,0.323 2.035,0.319c0.627,-0.001 1.253,-0.073 1.864,-0.215l0,5.952l-15.416,0c-0.211,0.004 -5.166,-0.032 -5.388,-3.222Zm43.75,0c-0.216,3.192 -5.172,3.233 -5.388,3.233l-15.407,-0l-0,-5.959c0.61,0.142 1.235,0.214 1.862,0.215c0.691,0.005 1.378,-0.103 2.034,-0.319c2.729,0.08 3.507,2.856 3.541,2.987c0.125,0.471 0.553,0.801 1.039,0.802c0.091,-0 0.181,-0.011 0.269,-0.032c0.57,-0.149 0.917,-0.738 0.772,-1.308c-0.297,-1.162 -1.261,-3.056 -3.155,-4.011c0.594,-0.609 1.066,-1.326 1.39,-2.112c0.061,-0.138 0.092,-0.286 0.092,-0.437c0,-0.591 -0.486,-1.077 -1.077,-1.077c-0.477,-0 -0.9,0.317 -1.034,0.775c-0.419,0.968 -1.169,1.756 -2.117,2.22c-1.004,0.459 -2.217,0.48 -3.616,0.068l-0,-15.094c-0.008,-0.825 0.558,-1.553 1.36,-1.748c1.888,-0.414 3.181,0.442 3.974,2.619c0.178,0.376 0.558,0.616 0.974,0.616c0.591,0 1.078,-0.486 1.078,-1.077c-0,-0.094 -0.013,-0.188 -0.037,-0.279c-0.108,-0.291 -0.216,-0.566 -0.349,-0.829c1.017,-0.246 2.091,-0.084 2.991,0.45c0.912,0.491 1.51,1.419 1.58,2.453c0.127,1.39 -0.524,2.812 -1.741,3.801c-0.176,0.142 -0.363,0.27 -0.559,0.382l-0.069,0.036c-0.559,0.322 -1.224,0.406 -1.847,0.235c-0.922,-0.29 -1.674,-0.968 -2.058,-1.855c-0.173,-0.387 -0.559,-0.638 -0.983,-0.638c-0.592,0 -1.078,0.487 -1.078,1.078c0,0.095 0.013,0.19 0.038,0.282c0.619,1.543 1.909,2.723 3.502,3.202c0.399,0.112 0.811,0.169 1.226,0.17c0.592,-0 1.178,-0.117 1.724,-0.344c0.293,0.26 0.647,0.816 0.394,1.918c-0.018,0.079 -0.027,0.16 -0.027,0.242c-0,0.502 0.35,0.94 0.84,1.051c0.078,0.017 0.157,0.026 0.237,0.026c0.5,-0.002 0.936,-0.351 1.047,-0.839c0.371,-1.644 -0.058,-2.816 -0.676,-3.577c0.953,-0.869 1.641,-1.99 1.985,-3.233c1.476,0.257 4.407,1.228 5.79,4.879c0.964,2.546 -0.312,3.746 -1.159,4.235c-1.39,0.802 -3.233,0.647 -4.043,-0.33c-0.201,-0.293 -0.534,-0.469 -0.889,-0.469c-0.592,0 -1.078,0.487 -1.078,1.078c0,0.279 0.109,0.548 0.303,0.749c0.877,1.078 2.285,1.64 3.772,1.64c0.815,-0.003 1.621,-0.17 2.37,-0.491c0.731,0.269 2.442,1.265 2.207,4.614l-0.004,0.002Z" style="fill:#fff;fill-rule:nonzero;"/><path d="M67.555,90.567l-30.943,-0c-0.592,-0 -1.078,0.486 -1.078,1.077c-0,0.591 0.486,1.078 1.078,1.078l30.943,-0c0.591,-0 1.078,-0.487 1.078,-1.078c-0,-0.591 -0.487,-1.077 -1.078,-1.077Z" style="fill:#fff;fill-rule:nonzero;"/><path d="M67.555,98.7l-30.943,0c-0.592,0 -1.078,0.487 -1.078,1.078c-0,0.591 0.486,1.077 1.078,1.077l30.943,0c0.591,0 1.078,-0.486 1.078,-1.077c-0,-0.591 -0.487,-1.078 -1.078,-1.078Z" style="fill:#fff;fill-rule:nonzero;"/><path d="M52.083,14.874c0.591,-0 1.078,-0.487 1.078,-1.078l-0,-9.407c-0,-0.591 -0.487,-1.078 -1.078,-1.078c-0.591,0 -1.077,0.487 -1.077,1.078l-0,9.411c0.002,0.59 0.488,1.074 1.077,1.074Z" style="fill:#fff;fill-rule:nonzero;"/><path d="M24.189,21.755c0.205,0.231 0.499,0.364 0.807,0.364c0.591,-0 1.078,-0.487 1.078,-1.078c-0,-0.325 -0.147,-0.633 -0.4,-0.838l-7.498,-7.178c-0.195,-0.169 -0.445,-0.261 -0.703,-0.261c-0.591,-0 -1.077,0.486 -1.077,1.077c-0,0.276 0.106,0.542 0.296,0.742l7.497,7.172Z" style="fill:#fff;fill-rule:nonzero;"/><path d="M12.448,45.985c0,-0.591 -0.486,-1.077 -1.077,-1.077l-10.293,-0c-0.592,-0 -1.078,0.486 -1.078,1.077c0,0.591 0.486,1.078 1.078,1.078l10.297,-0c0.589,-0.002 1.073,-0.488 1.073,-1.078Z" style="fill:#fff;fill-rule:nonzero;"/><path d="M19.442,73.285l-8.774,7.657c-0.276,0.203 -0.44,0.526 -0.44,0.868c0,0.591 0.487,1.078 1.078,1.078c0.291,-0 0.571,-0.118 0.774,-0.328l8.773,-7.657c0.276,-0.203 0.44,-0.526 0.44,-0.868c-0,-0.591 -0.487,-1.078 -1.078,-1.078c-0.291,0 -0.571,0.118 -0.773,0.328Z" style="fill:#fff;fill-rule:nonzero;"/><path d="M79.238,22.052c0.277,0.001 0.543,-0.106 0.744,-0.297l7.491,-7.172c0.253,-0.205 0.4,-0.513 0.4,-0.838c-0,-0.591 -0.487,-1.077 -1.078,-1.077c-0.308,-0 -0.603,0.132 -0.807,0.363l-7.496,7.179c-0.208,0.203 -0.325,0.481 -0.325,0.771c0,0.587 0.48,1.072 1.067,1.078l0.004,-0.007Z" style="fill:#fff;fill-rule:nonzero;"/><path d="M103.089,44.912l-10.297,0c-0.591,0 -1.078,0.487 -1.078,1.078c0,0.591 0.487,1.077 1.078,1.077l10.297,0c0.591,0 1.078,-0.486 1.078,-1.077c-0,-0.591 -0.487,-1.078 -1.078,-1.078Z" style="fill:#fff;fill-rule:nonzero;"/><path d="M93.499,80.942l-8.774,-7.657c-0.203,-0.21 -0.482,-0.328 -0.774,-0.328c-0.591,0 -1.077,0.487 -1.077,1.078c-0,0.342 0.163,0.665 0.44,0.868l8.773,7.657c0.203,0.21 0.482,0.328 0.774,0.328c0.591,-0 1.077,-0.487 1.077,-1.078c0,-0.342 -0.163,-0.665 -0.439,-0.868Z" style="fill:#fff;fill-rule:nonzero;"/></g></svg>