<?xml version="1.0" encoding="UTF-8" standalone="no"?><!DOCTYPE svg PUBLIC "-//W3C//DTD SVG 1.1//EN" "http://www.w3.org/Graphics/SVG/1.1/DTD/svg11.dtd"><svg width="100%" height="100%" viewBox="0 0 146 146" version="1.1" xmlns="http://www.w3.org/2000/svg" xmlns:xlink="http://www.w3.org/1999/xlink" xml:space="preserve" xmlns:serif="http://www.serif.com/" style="fill-rule:evenodd;clip-rule:evenodd;stroke-linejoin:round;stroke-miterlimit:2;"><g><path d="M89.312,146.222c-3.143,0 -5.691,-2.548 -5.691,-5.691c-0,-3.142 2.548,-5.691 5.691,-5.691l29.852,0c4.206,0 8.03,-1.719 10.803,-4.484l-0.011,-0.01c2.773,-2.773 4.494,-6.596 4.494,-10.792l0,-92.495c0,-4.17 -1.706,-7.94 -4.457,-10.689c-2.807,-2.807 -6.67,-4.563 -10.896,-4.621l-29.441,-0.411c-3.13,-0.037 -5.638,-2.606 -5.601,-5.737c0.036,-3.129 2.605,-5.637 5.735,-5.601l29.441,0.412c7.341,0.102 14.007,3.105 18.811,7.91c4.806,4.807 7.791,11.415 7.791,18.737l0,92.495c0,7.338 -3,14.01 -7.829,18.84l-0.023,-0c-4.832,4.828 -11.493,7.828 -18.817,7.828l-29.852,0Zm4.435,-76.942l-0.105,-0.102l-22.731,-22.73c-2.22,-2.221 -5.826,-2.221 -8.048,0c-2.22,2.221 -2.22,5.827 0,8.048l13.12,13.119l-70.292,-0c-3.142,-0 -5.691,2.548 -5.691,5.691c-0,3.142 2.549,5.692 5.691,5.692l70.292,-0l-13.12,13.118c-2.22,2.22 -2.22,5.826 0,8.048c2.222,2.221 5.828,2.221 8.048,-0l22.731,-22.731c1.135,-1.134 1.773,-2.507 1.773,-4.127c-0,-1.515 -0.603,-2.96 -1.668,-4.026Z"/></g></svg>