<?xml version="1.0" encoding="UTF-8" standalone="no"?><!DOCTYPE svg PUBLIC "-//W3C//DTD SVG 1.1//EN" "http://www.w3.org/Graphics/SVG/1.1/DTD/svg11.dtd"><svg width="100%" height="100%" viewBox="0 0 113 80" version="1.1" xmlns="http://www.w3.org/2000/svg" xmlns:xlink="http://www.w3.org/1999/xlink" xml:space="preserve" xmlns:serif="http://www.serif.com/" style="fill-rule:evenodd;clip-rule:evenodd;stroke-linejoin:round;stroke-miterlimit:2;"><path d="M12.652,1.27c-5.864,0 -10.569,4.932 -10.569,10.858l0,54.869c0,5.926 4.705,10.899 10.569,10.899l87.196,0c5.864,0 10.569,-4.973 10.569,-10.899l-0,-54.869c-0,-5.926 -4.705,-10.858 -10.569,-10.858l-87.196,0Zm0,5.285c0,-0 87.196,-0 87.196,-0c0.782,-0 1.52,0.225 2.188,0.536l-42.524,40.378c-1.952,1.853 -4.486,1.853 -6.441,-0l-42.607,-40.378c0.668,-0.311 1.406,-0.536 2.188,-0.536Zm-5.202,4.954l30.098,28.529l-29.602,29.56c-0.371,-0.77 -0.578,-1.651 -0.578,-2.601l-0,-54.869c-0,-0.214 0.062,-0.412 0.082,-0.619l0,0Zm97.6,0c0.021,0.207 0.081,0.405 0.081,0.619l0,54.869c0,0.936 -0.217,1.798 -0.578,2.56l-29.519,-29.561l30.015,-28.487l0.001,0Zm-33.855,32.162l28.9,28.941l-87.649,-0l28.941,-28.9l8.051,7.596c3.834,3.635 9.873,3.64 13.707,0l8.05,-7.637Z" style="fill:#474948;fill-rule:nonzero;"/></svg>