<?xml version="1.0" encoding="UTF-8" standalone="no"?><!DOCTYPE svg PUBLIC "-//W3C//DTD SVG 1.1//EN" "http://www.w3.org/Graphics/SVG/1.1/DTD/svg11.dtd"><svg width="100%" height="100%" viewBox="0 0 146 167" version="1.1" xmlns="http://www.w3.org/2000/svg" xmlns:xlink="http://www.w3.org/1999/xlink" xml:space="preserve" xmlns:serif="http://www.serif.com/" style="fill-rule:evenodd;clip-rule:evenodd;stroke-linejoin:round;stroke-miterlimit:2;"><g><g><path d="M81.019,103.246c5.271,-2.147 9.37,-6.247 11.713,-11.713c2.148,-5.271 2.148,-11.128 0,-16.399c-2.147,-5.271 -6.247,-9.371 -11.713,-11.714c-5.272,-2.147 -11.128,-2.147 -16.399,0c-10.933,4.491 -16.204,17.18 -11.714,28.113c3.514,8.199 11.518,13.275 19.913,13.275c2.733,0 5.466,-0.586 8.2,-1.562Zm-22.061,-14.251c-3.124,-7.614 0.391,-16.399 8.2,-19.523c1.757,-0.781 3.709,-1.171 5.661,-1.171c1.952,-0 3.905,0.39 5.662,1.171c3.709,1.562 6.637,4.491 8.199,8.2c1.562,3.709 1.562,7.809 0,11.518c-1.562,3.709 -4.49,6.638 -8.199,8.2c-7.614,2.928 -16.399,-0.781 -19.523,-8.395Zm3.124,42.949c1.757,-0.78 3.123,-2.147 3.904,-3.904l1.367,-3.514c3.709,0.39 7.223,0.39 10.932,-0l1.367,3.514c0.781,1.757 2.147,3.124 3.904,3.904c0.977,0.391 1.757,0.586 2.734,0.586c0.976,0 1.952,-0.195 2.733,-0.586l6.247,-2.537c1.757,-0.781 3.124,-2.148 3.904,-3.905c0.781,-1.757 0.781,-3.709 0,-5.662l-1.366,-3.514c2.928,-2.147 5.466,-4.88 7.614,-7.613l3.514,1.366c1.757,0.781 3.709,0.781 5.661,0c1.757,-0.781 3.124,-2.147 3.905,-3.904l2.538,-6.248c0.781,-1.757 0.781,-3.709 -0,-5.661c-0.781,-1.757 -2.148,-3.124 -3.905,-3.905l-3.514,-1.366c0.391,-3.709 0.391,-7.223 0,-10.933l3.514,-1.366c1.757,-0.781 3.124,-2.148 3.905,-3.905c0.781,-1.757 0.781,-3.709 -0,-5.661l-2.538,-6.248c-0.781,-1.757 -2.148,-3.123 -3.905,-3.904c-1.757,-0.781 -3.709,-0.781 -5.661,-0l-3.514,1.366c-2.148,-2.928 -4.881,-5.466 -7.614,-7.613l1.366,-3.514c0.781,-1.757 0.781,-3.71 0,-5.662c-0.78,-1.757 -2.147,-3.123 -3.904,-3.904l-6.247,-2.538c-3.71,-1.562 -8.004,0.195 -9.566,3.904l-1.367,3.514c-3.709,-0.39 -7.223,-0.39 -10.932,0l-1.367,-3.514c-1.562,-3.709 -5.857,-5.466 -9.566,-3.904l-6.247,2.538c-1.757,0.781 -3.124,2.147 -3.905,3.904c-0.781,1.757 -0.781,3.709 0,5.662l1.367,3.514c-2.929,2.147 -5.467,4.88 -7.614,7.613l-3.514,-1.366c-1.757,-0.781 -3.709,-0.781 -5.662,-0c-1.757,0.781 -3.123,2.147 -3.904,3.904l-2.538,6.248c-1.562,3.709 0.195,8.004 3.904,9.566l3.515,1.366c-0.391,3.71 -0.391,7.224 -0,10.933l-3.515,1.366c-3.709,1.562 -5.466,5.857 -3.904,9.566l2.538,6.248c1.562,3.709 5.857,5.466 9.566,3.904l3.514,-1.366c2.147,2.928 4.881,5.466 7.614,7.613l-1.367,3.514c-0.781,1.758 -0.781,3.71 0,5.662c0.781,1.757 2.148,3.124 3.905,3.905l6.247,2.537c1.952,0.781 3.904,0.781 5.857,0Zm-9.957,-9.175c0,-0.195 -0.195,-0.391 0,-0.586l3.514,-8.199l-2.147,-1.562c-3.905,-2.538 -7.028,-5.857 -9.566,-9.566l-1.562,-2.148l-8.2,3.514c-0.39,0.196 -0.976,0 -0.976,-0.39l-2.538,-6.247c-0.195,-0.391 0,-0.976 0.391,-0.976l8.199,-3.514l-0.585,-2.538c-0.977,-4.491 -0.977,-9.176 -0,-13.666l0.585,-2.538l-8.199,-3.514c-0.391,-0.195 -0.586,-0.586 -0.391,-0.976l2.538,-6.247c0.196,-0.196 0.391,-0.391 0.391,-0.391c0.195,0 0.39,-0.195 0.585,0l8.2,3.514l1.562,-2.147c2.538,-3.905 5.856,-7.028 9.566,-9.566l2.147,-1.562l-3.514,-8.2c-0.195,-0.195 0,-0.39 0,-0.585c0,-0.196 0.195,-0.391 0.391,-0.391l6.247,-2.538c0.39,-0.195 0.976,0 0.976,0.391l3.514,8.199l2.538,-0.585c4.49,-0.977 9.176,-0.977 13.666,-0l2.538,0.585l3.514,-8.199c0.195,-0.391 0.585,-0.586 0.976,-0.391l6.247,2.538c0.195,0.195 0.39,0.391 0.39,0.391c0,0.195 0.196,0.39 0,0.585l-3.514,8.2l2.148,1.562c3.904,2.538 7.028,5.856 9.566,9.566l1.562,2.147l8.199,-3.514c0.195,-0.195 0.391,0 0.586,0c0.195,0 0.39,0.195 0.39,0.391l2.538,6.247c0.196,0.195 0,0.39 0,0.585c0,0.196 -0.195,0.391 -0.39,0.391l-8.2,3.514l0.586,2.538c0.976,4.49 0.976,9.175 0,13.666l-0.586,2.538l8.2,3.514c0.195,0.195 0.39,0.39 0.39,0.39c0,0.195 0.196,0.391 0,0.586l-2.538,6.247c-0.195,0.195 -0.39,0.39 -0.39,0.39c-0.195,0 -0.391,0.196 -0.586,0l-8.199,-3.514l-1.562,2.148c-2.538,3.904 -5.857,7.028 -9.566,9.566l-2.148,1.562l3.514,8.199c0.196,0.195 0,0.391 0,0.586c0,0.195 -0.195,0.39 -0.39,0.39l-6.247,2.538c-0.195,0.195 -0.391,0 -0.586,0c-0.195,0 -0.39,-0.195 -0.39,-0.39l-3.514,-8.2l-2.538,0.586c-4.49,0.976 -9.176,0.976 -13.666,-0l-2.538,-0.586l-3.514,8.2c-0.195,0.195 -0.39,0.39 -0.39,0.39c-0.196,0 -0.391,0.195 -0.586,0l-6.247,-2.538c-0.196,0 -0.391,-0.195 -0.391,-0.39Zm19.913,-112.255l-4.685,-4.685l4.685,-4.686l12.69,12.69l-12.69,12.69l-4.685,-4.686l4.685,-4.685c-36.312,0.39 -65.596,30.065 -65.596,66.377l-6.442,-0c-0,-40.217 32.212,-72.624 72.038,-73.015Zm1.757,155.009l-12.689,-12.689l12.689,-12.69l4.686,4.685l-4.686,4.686c36.312,-0.391 65.596,-30.065 65.596,-66.377l6.442,0c0,40.021 -32.212,72.429 -72.038,72.819l4.686,4.686l-4.686,4.88Z" style="fill:#af2b50;fill-rule:nonzero;"/></g></g></svg>