<?xml version="1.0" encoding="UTF-8" standalone="no"?><!DOCTYPE svg PUBLIC "-//W3C//DTD SVG 1.1//EN" "http://www.w3.org/Graphics/SVG/1.1/DTD/svg11.dtd"><svg width="100%" height="100%" viewBox="0 0 105 105" version="1.1" xmlns="http://www.w3.org/2000/svg" xmlns:xlink="http://www.w3.org/1999/xlink" xml:space="preserve" xmlns:serif="http://www.serif.com/" style="fill-rule:evenodd;clip-rule:evenodd;stroke-linejoin:round;stroke-miterlimit:2;"><g><path d="M2.445,52.083c0,0.734 -0.489,1.223 -1.222,1.223c-0.734,-0 -1.223,-0.489 -1.223,-1.223c-0,-28.731 23.352,-52.083 52.083,-52.083l2.201,-0l-5.502,-5.379c-0.489,-0.49 -0.489,-1.223 0,-1.712c0.489,-0.489 1.223,-0.489 1.712,-0l7.458,7.458c0.244,0.244 0.367,0.489 0.367,0.856c-0,0.366 -0,0.733 -0.245,0.855l-7.458,7.458c-0.244,0.245 -0.611,0.367 -0.856,0.367c-0.244,0 -0.611,-0.122 -0.855,-0.367c-0.49,-0.489 -0.49,-1.222 -0,-1.711l5.379,-5.38l-2.201,0c-27.386,0 -49.638,22.252 -49.638,49.638Zm100.499,-1.222c-0.734,-0 -1.223,0.489 -1.223,1.222c0,27.387 -22.251,49.638 -49.638,49.638l-2.2,0l5.379,-5.379c0.489,-0.489 0.489,-1.223 0,-1.712c-0.489,-0.489 -1.222,-0.489 -1.712,0l-7.457,7.458c-0.245,0.245 -0.367,0.489 -0.367,0.856c-0,0.367 0.122,0.611 0.367,0.856l7.457,7.458c0.245,0.244 0.612,0.367 0.856,0.367c0.245,-0 0.612,-0.123 0.856,-0.367c0.489,-0.489 0.489,-1.223 0,-1.712l-5.379,-5.379l2.2,-0c28.732,-0 52.084,-23.352 52.084,-52.084c-0,-0.733 -0.612,-1.222 -1.223,-1.222Zm-18.706,-4.891l-3.301,1.345c0.489,3.057 0.489,6.235 0,9.414l3.301,1.345c0.978,0.489 1.834,1.223 2.323,2.323c0.367,0.978 0.367,2.201 0,3.179l-1.956,4.646c-0.611,1.589 -2.201,2.567 -3.913,2.567c-0.611,0 -1.1,-0.122 -1.589,-0.366l-3.301,-1.345c-1.834,2.567 -4.035,4.768 -6.602,6.602l1.345,3.301c0.856,2.078 -0.122,4.646 -2.323,5.502l-4.646,1.956c-0.489,0.244 -1.1,0.367 -1.589,0.367c-1.712,-0 -3.179,-0.979 -3.913,-2.568l-1.345,-3.301c-3.056,0.489 -6.235,0.489 -9.414,0l-1.345,3.301c-0.611,1.589 -2.2,2.568 -3.912,2.568c-0.611,-0 -1.1,-0.123 -1.589,-0.367l-4.646,-1.956c-0.979,-0.489 -1.834,-1.223 -2.323,-2.323c-0.367,-0.978 -0.367,-2.201 -0,-3.179l1.344,-3.301c-2.567,-1.834 -4.768,-4.035 -6.602,-6.602l-3.301,1.345c-0.489,0.244 -1.1,0.366 -1.589,0.366c-1.712,0 -3.179,-0.978 -3.912,-2.567l-1.957,-4.646c-0.855,-2.079 0.123,-4.646 2.323,-5.502l3.301,-1.345c-0.489,-3.056 -0.489,-6.235 0,-9.414l-3.178,-1.345c-0.978,-0.489 -1.834,-1.222 -2.323,-2.323c-0.367,-0.978 -0.367,-2.2 -0,-3.178l1.956,-4.646c0.611,-1.59 2.201,-2.568 3.912,-2.568c0.611,0 1.101,0.122 1.59,0.367l3.301,1.345c1.834,-2.568 4.034,-4.768 6.602,-6.602l-1.345,-3.301c-0.856,-2.079 0.122,-4.646 2.323,-5.502l4.646,-1.956c0.489,-0.245 1.1,-0.367 1.589,-0.367c1.712,-0 3.179,0.978 3.913,2.567l1.344,3.301c3.057,-0.489 6.236,-0.489 9.415,0l1.344,-3.301c0.612,-1.589 2.201,-2.567 3.913,-2.567c0.611,-0 1.1,0.122 1.589,0.367l4.646,1.956c0.978,0.489 1.834,1.222 2.323,2.323c0.367,0.978 0.367,2.2 0,3.179l-1.345,3.301c2.568,1.834 4.768,4.034 6.602,6.602l3.301,-1.345c0.489,-0.245 1.101,-0.367 1.59,-0.367c1.711,0 3.179,0.978 3.912,2.568l1.956,4.646c0.489,0.978 0.489,2.2 0,3.178c-0.489,0.978 -1.467,1.956 -2.445,2.323Zm0,-3.179c0.122,-0.489 0.122,-0.855 0,-1.344l-1.956,-4.646c-0.367,-0.856 -1.345,-1.345 -2.323,-0.978l-4.279,1.711c-0.489,0.245 -1.101,0 -1.467,-0.489c-1.957,-2.934 -4.402,-5.379 -7.336,-7.335c-0.489,-0.367 -0.734,-0.979 -0.489,-1.468l1.712,-4.279c0.122,-0.489 0.122,-0.856 -0,-1.345c-0.123,-0.489 -0.489,-0.733 -0.979,-0.978l-4.645,-1.956c-0.856,-0.367 -1.957,0.122 -2.323,0.978l-1.468,4.524c-0.244,0.489 -0.855,0.856 -1.344,0.733c-3.424,-0.733 -6.969,-0.733 -10.393,0c-0.611,0.123 -1.1,-0.244 -1.345,-0.733l-1.711,-4.279c-0.367,-0.856 -1.345,-1.345 -2.323,-0.978l-4.646,1.956c-0.856,0.367 -1.345,1.345 -0.978,2.323l1.711,4.279c0.245,0.489 0,1.223 -0.489,1.467c-2.934,1.956 -5.379,4.401 -7.335,7.336c-0.367,0.489 -0.978,0.611 -1.467,0.489l-4.28,-1.712c-0.855,-0.367 -1.956,0.122 -2.322,0.978l-1.957,4.646c-0.122,0.489 -0.122,0.856 0,1.345c0.123,0.489 0.489,0.734 0.978,0.978l4.28,1.712c0.489,0.244 0.855,0.856 0.733,1.345c-0.733,3.423 -0.733,6.969 0,10.392c0.122,0.611 -0.244,1.1 -0.733,1.345l-4.28,1.711c-0.855,0.367 -1.344,1.345 -0.978,2.323l1.957,4.646c0.366,0.856 1.344,1.345 2.322,0.978l4.28,-1.711c0.489,-0.245 1.1,-0 1.467,0.489c1.956,2.934 4.401,5.379 7.335,7.335c0.489,0.367 0.734,0.979 0.489,1.468l-1.711,4.279c-0.122,0.489 -0.122,0.856 -0,1.345c0.122,0.489 0.489,0.733 0.978,0.978l4.646,1.956c0.856,0.367 1.956,-0.122 2.323,-0.978l1.711,-4.279c0.245,-0.489 0.734,-0.856 1.345,-0.734c3.424,0.734 6.969,0.734 10.393,0l0.244,0c0.489,0 0.978,0.245 1.1,0.734l1.712,4.279c0.367,0.856 1.345,1.345 2.323,0.978l4.646,-1.956c0.856,-0.367 1.345,-1.345 0.978,-2.323l-1.712,-4.279c-0.244,-0.489 0,-1.223 0.489,-1.468c2.935,-1.956 5.38,-4.401 7.336,-7.335c0.367,-0.489 0.978,-0.734 1.467,-0.489l4.279,1.711c0.245,0.123 0.489,0.123 0.612,0.123c0.733,-0 1.345,-0.367 1.589,-1.101l1.956,-4.646c0.123,-0.489 0.123,-0.855 0,-1.345c-0.122,-0.489 -0.489,-0.733 -0.978,-0.978l-4.401,-1.834c-0.489,-0.244 -0.856,-0.855 -0.734,-1.344c0.734,-3.424 0.734,-6.969 0,-10.393c-0.122,-0.611 0.245,-1.1 0.734,-1.345l4.279,-1.711c0.489,-0.245 0.734,-0.611 0.978,-1.101Zm-18.706,3.791c3.057,7.458 -0.489,15.894 -7.825,18.95c-1.834,0.734 -3.667,1.1 -5.501,1.1c-5.869,0 -11.126,-3.545 -13.449,-8.925c-3.057,-7.458 0.489,-15.894 7.825,-18.95c1.833,-0.734 3.667,-1.101 5.501,-1.101c5.869,-0.122 11.126,3.424 13.449,8.926Zm-2.323,0.855c-1.834,-4.523 -6.235,-7.458 -11.126,-7.458c-1.589,0 -3.178,0.367 -4.646,0.979c-6.113,2.567 -9.047,9.658 -6.479,15.771c1.833,4.524 6.235,7.458 11.125,7.458c1.59,0 3.179,-0.367 4.646,-0.978c6.113,-2.567 9.048,-9.536 6.48,-15.772Z" style="fill:#fff;fill-rule:nonzero;"/></g></svg>