<?xml version="1.0" encoding="UTF-8" standalone="no"?><!DOCTYPE svg PUBLIC "-//W3C//DTD SVG 1.1//EN" "http://www.w3.org/Graphics/SVG/1.1/DTD/svg11.dtd"><svg width="100%" height="100%" viewBox="0 0 105 105" version="1.1" xmlns="http://www.w3.org/2000/svg" xmlns:xlink="http://www.w3.org/1999/xlink" xml:space="preserve" xmlns:serif="http://www.serif.com/" style="fill-rule:evenodd;clip-rule:evenodd;stroke-linejoin:round;stroke-miterlimit:2;"><g><g><path d="M91.403,47.766l12.764,-12.764l-29.85,-29.849l-11.136,11.136c-2.317,-0.854 -4.871,-0.809 -7.156,0.128c-2.862,-1.097 -6.116,-0.41 -8.29,1.75l-0.418,0.418c-2.218,-1.586 -5.026,-2.116 -7.669,-1.447l-9.72,-10.014l-29.928,27.79l10.231,12.14c-0.536,2.997 0.43,6.074 2.583,8.227l0.275,0.275l-1.372,1.372c-1.455,1.456 -2.273,3.432 -2.273,5.491c-0,4.26 3.505,7.766 7.765,7.767c0.165,-0 0.33,-0.007 0.493,-0.018c-0.011,0.167 -0.016,0.334 -0.016,0.501c-0,4.253 3.5,7.754 7.754,7.754c0.002,-0 0.003,-0 0.005,-0c0.166,-0 0.33,-0.007 0.493,-0.017c-0.011,0.167 -0.016,0.334 -0.016,0.501c-0,4.251 3.497,7.748 7.748,7.748c0.004,0 0.008,0 0.013,0c0.162,0 0.325,-0.007 0.488,-0.017c-0.011,0.163 -0.018,0.327 -0.018,0.493c0.004,4.259 3.51,7.761 7.769,7.761c2.056,0 4.031,-0.817 5.487,-2.269l1.374,-1.374l5.492,5.493c1.456,1.454 3.432,2.272 5.49,2.272c4.26,0 7.766,-3.505 7.767,-7.765c0,-0.164 -0.007,-0.326 -0.017,-0.488c0.162,0.01 0.324,0.017 0.486,0.017c4.259,-0.001 7.764,-3.506 7.766,-7.766c-0,-0.163 -0.007,-0.325 -0.017,-0.486c0.162,0.01 0.325,0.017 0.489,0.017c0.001,-0 0.002,-0 0.004,-0c4.254,-0 7.755,-3.501 7.755,-7.756c-0,-0.167 -0.005,-0.334 -0.016,-0.501c0.164,0.011 0.328,0.018 0.493,0.018c4.26,-0 7.766,-3.506 7.766,-7.766c-0,-2.059 -0.819,-4.035 -2.275,-5.491l-4.117,-4.121l2.705,-2.704c1.719,-1.723 2.735,-4.025 2.849,-6.456Zm-74.194,18.536c-0,-0 -0,-0 -0,-0c-2.131,-0 -3.883,-1.753 -3.883,-3.883c-0,-1.029 0.409,-2.018 1.137,-2.746l6.862,-6.862c0.731,-0.728 1.722,-1.137 2.754,-1.137c0.07,-0 0.141,0.002 0.212,0.006c2.045,0.115 3.665,1.828 3.665,3.876c0,1.029 -0.409,2.017 -1.136,2.745l-6.867,6.863c-0.725,0.731 -1.714,1.141 -2.744,1.138Zm8.236,8.237c-0,0 -0.001,0 -0.001,0c-2.13,0 -3.883,-1.753 -3.883,-3.883c0,-1.03 0.41,-2.019 1.139,-2.747l6.864,-6.862l0.001,-0.001c0.73,-0.747 1.732,-1.168 2.776,-1.168c2.13,-0 3.883,1.753 3.883,3.883c0,1.044 -0.421,2.046 -1.168,2.776l-6.866,6.865c-0.726,0.73 -1.715,1.14 -2.745,1.137Zm5.492,7.101c-1.503,-1.508 -1.503,-3.984 0,-5.492l6.863,-6.865l0.002,-0.001c0.725,-0.709 1.7,-1.107 2.715,-1.107c2.13,0 3.882,1.753 3.882,3.883c0,1.014 -0.397,1.989 -1.106,2.715l-6.865,6.865c-1.508,1.503 -3.983,1.504 -5.491,0.002Zm8.237,8.235c-1.506,-1.506 -1.506,-3.984 -0,-5.49l6.865,-6.866c1.497,-1.489 3.947,-1.502 5.46,-0.029l0.071,0.07c1.47,1.512 1.453,3.96 -0.039,5.45l-4.118,4.119l-2.747,2.747c-1.508,1.503 -3.985,1.503 -5.492,-0.001Zm48.05,-20.593c-1.506,1.506 -3.984,1.506 -5.49,-0l-1.373,1.372l-1.374,1.373c0.728,0.728 1.137,1.716 1.137,2.746c0,2.131 -1.753,3.884 -3.884,3.884c-1.03,0 -2.019,-0.409 -2.747,-1.138l-1.371,1.374l-1.372,1.374c0.746,0.73 1.167,1.731 1.167,2.775c-0,2.13 -1.753,3.883 -3.883,3.883c-1.045,-0 -2.047,-0.422 -2.777,-1.169l-1.372,1.374l-1.372,1.374c0.709,0.725 1.106,1.7 1.106,2.714c0,2.13 -1.752,3.883 -3.883,3.883c-1.014,-0 -1.989,-0.398 -2.715,-1.107l-5.493,-5.49l2.746,-2.746c2.979,-2.976 3.02,-7.862 0.092,-10.889l-0.011,-0.012c-0.027,-0.028 -0.054,-0.057 -0.087,-0.09c-0.027,-0.026 -0.053,-0.051 -0.08,-0.076c-1.57,-1.52 -3.712,-2.307 -5.893,-2.165c0.011,-0.165 0.018,-0.331 0.018,-0.497c0,-0.001 0,-0.002 0,-0.003c0,-4.256 -3.502,-7.758 -7.757,-7.758c-0.166,0 -0.331,0.005 -0.497,0.016c0.011,-0.163 0.017,-0.327 0.017,-0.492c0,-0.001 0,-0.002 0,-0.003c0,-4.255 -3.501,-7.756 -7.756,-7.756c-0.166,-0 -0.331,0.005 -0.497,0.015c0.01,-0.163 0.017,-0.327 0.017,-0.492c-0,-4.098 -3.245,-7.527 -7.337,-7.753c-2.204,-0.119 -4.358,0.704 -5.921,2.262l-2.747,2.744l-0.274,-0.274c-1.417,-1.417 -1.94,-3.507 -1.357,-5.424l0.305,-1.008l-9.155,-10.862l24.433,-22.688l8.837,9.104l1.217,-0.504c1.511,-0.628 3.227,-0.539 4.664,0.242l-3.634,3.635c-1.476,1.458 -2.308,3.449 -2.308,5.524c-0,4.26 3.505,7.766 7.766,7.766c2.075,-0 4.066,-0.832 5.524,-2.308l3.794,-3.794l24.71,24.71l0.001,-0l6.863,6.863c1.503,1.507 1.504,3.983 0.002,5.491l0.001,-0Zm-1.414,-17.806l-2.706,2.704l-5.49,-5.49c-0.01,-0.01 -0.02,-0.018 -0.03,-0.027l-21.937,-21.937l-6.54,6.54c-0.731,0.747 -1.732,1.168 -2.776,1.168c-2.13,-0 -3.883,-1.753 -3.883,-3.883c-0,-1.045 0.421,-2.046 1.168,-2.776l6.863,-6.863c1.22,-1.214 3.107,-1.482 4.616,-0.656l0.933,0.516l0.935,-0.509c1.777,-0.956 3.923,-0.94 5.685,0.043l1.283,0.721l10.385,-10.384l24.36,24.359l-11.19,11.19l0.039,0.856c0.074,1.651 -0.55,3.259 -1.717,4.428l0.002,0Z" style="fill:#fff;fill-rule:nonzero;"/></g></g></svg>