<?xml version="1.0" encoding="UTF-8" standalone="no"?><!DOCTYPE svg PUBLIC "-//W3C//DTD SVG 1.1//EN" "http://www.w3.org/Graphics/SVG/1.1/DTD/svg11.dtd"><svg width="100%" height="100%" viewBox="0 0 146 167" version="1.1" xmlns="http://www.w3.org/2000/svg" xmlns:xlink="http://www.w3.org/1999/xlink" xml:space="preserve" xmlns:serif="http://www.serif.com/" style="fill-rule:evenodd;clip-rule:evenodd;stroke-linejoin:round;stroke-miterlimit:2;"><g><path d="M119.206,0.146l-92.579,0c-14.607,0 -26.627,12.02 -26.627,26.627l0,113.267c0,14.607 12.02,26.627 26.627,26.627l92.579,-0c14.608,-0 26.627,-12.02 26.627,-26.627l0,-113.267c0,-14.607 -12.019,-26.627 -26.627,-26.627Zm14.338,139.894c0,7.865 -6.472,14.337 -14.338,14.337l-92.579,0c-7.865,0 -14.338,-6.472 -14.338,-14.337l0,-113.267c0,-7.865 6.473,-14.337 14.338,-14.337l92.375,-0c7.865,-0 14.337,6.472 14.337,14.337l0.205,113.267Z" style="fill:#af2b50;fill-rule:nonzero;"/><path d="M39.735,59.34l25.398,-0c3.371,-0 6.145,-2.774 6.145,-6.145c0,-3.371 -2.774,-6.144 -6.145,-6.144l-25.398,-0c-3.37,-0 -6.144,2.773 -6.144,6.144c-0,3.371 2.774,6.145 6.144,6.145Z" style="fill:#af2b50;fill-rule:nonzero;"/><path d="M106.098,71.629l-66.363,0c-3.37,0 -6.144,2.774 -6.144,6.145c-0,3.371 2.774,6.145 6.144,6.145l66.363,-0c3.371,-0 6.145,-2.774 6.145,-6.145c-0,-3.371 -2.774,-6.145 -6.145,-6.145Z" style="fill:#af2b50;fill-rule:nonzero;"/><path d="M106.098,96.208l-66.363,-0c-3.37,-0 -6.144,2.774 -6.144,6.145c-0,3.37 2.774,6.144 6.144,6.144l66.363,0c3.371,0 6.145,-2.774 6.145,-6.144c-0,-3.371 -2.774,-6.145 -6.145,-6.145Z" style="fill:#af2b50;fill-rule:nonzero;"/><path d="M106.098,120.787l-66.363,-0c-3.37,-0 -6.144,2.773 -6.144,6.144c-0,3.371 2.774,6.145 6.144,6.145l66.363,-0c3.371,-0 6.145,-2.774 6.145,-6.145c-0,-3.371 -2.774,-6.144 -6.145,-6.144Z" style="fill:#af2b50;fill-rule:nonzero;"/></g></svg>