<?xml version="1.0" encoding="UTF-8" standalone="no"?><!DOCTYPE svg PUBLIC "-//W3C//DTD SVG 1.1//EN" "http://www.w3.org/Graphics/SVG/1.1/DTD/svg11.dtd"><svg width="100%" height="100%" viewBox="0 0 146 155" version="1.1" xmlns="http://www.w3.org/2000/svg" xmlns:xlink="http://www.w3.org/1999/xlink" xml:space="preserve" xmlns:serif="http://www.serif.com/" style="fill-rule:evenodd;clip-rule:evenodd;stroke-linejoin:round;stroke-miterlimit:2;"><g><path d="M144.716,52.009l-14.6,-24.556c-1.373,-2.593 -4.077,-4.221 -7.012,-4.221c-1.358,0 -2.694,0.349 -3.879,1.014l-13.715,6.314c-2.656,-1.836 -5.448,-3.467 -8.353,-4.878l-1.386,-15.318l-0,-0.535c-0.732,-3.971 -4.182,-6.908 -8.219,-6.999l-28.649,-0c-4.346,-0.013 -8.013,3.368 -8.352,7.701l-1.37,15.135c-2.961,1.372 -5.8,2.992 -8.486,4.844l-13.815,-6.365l-0.234,-0.1c-3.897,-1.591 -8.419,-0.067 -10.558,3.558l-14.149,24.406c-2.206,3.79 -1.166,8.692 2.389,11.259l12.445,8.787c-0.405,3.267 -0.405,6.572 0,9.839l-13.013,8.854l-0.184,0.134c-3.577,2.541 -4.635,7.453 -2.422,11.242l14.366,24.556c1.021,1.796 2.66,3.162 4.611,3.842c2.086,0.692 4.37,0.467 6.281,-0.618l13.715,-6.314c2.656,1.836 5.448,3.467 8.352,4.878l1.387,15.318l-0,0.535c0.725,3.977 4.177,6.923 8.219,7.016l28.649,-0c4.346,0.013 8.013,-3.368 8.352,-7.701l1.286,-15.168c2.961,-1.373 5.8,-2.993 8.486,-4.845l13.849,6.365l0.234,0.1c3.897,1.591 8.418,0.067 10.557,-3.558l14.199,-24.406c2.205,-3.723 1.241,-8.564 -2.221,-11.159l-11.694,-8.887c0.418,-3.328 0.418,-6.695 0,-10.023l12.546,-8.92c3.501,-2.543 4.538,-7.37 2.388,-11.126Zm-25.608,15.452l0.434,3.024c0.361,2.176 0.562,4.376 0.601,6.582c-0.045,2.206 -0.251,4.405 -0.618,6.581l-0.417,2.924l15.285,11.693l-12.796,22.001l-18.058,-8.353l-2.422,1.988c-3.482,2.723 -7.328,4.944 -11.427,6.598l-2.739,1.17l-1.754,19.628l-25.425,0l-1.821,-19.628l-2.706,-1.17c-4.112,-1.747 -7.994,-3.991 -11.56,-6.682l-2.439,-1.804l-17.874,8.253l-12.78,-22.001l14.35,-9.772l2.573,-1.788l-0.435,-3.09c-0.359,-2.165 -0.56,-4.354 -0.601,-6.548c0.045,-2.206 0.252,-4.406 0.618,-6.582l0.434,-3.024l-16.354,-11.576l12.863,-22.017l18.058,8.352l2.489,-2.021c3.452,-2.704 7.264,-4.913 11.326,-6.565l2.74,-1.17l1.787,-19.611l25.425,-0l1.787,19.611l2.74,1.17c4.112,1.746 7.994,3.99 11.56,6.682l2.389,1.787l17.941,-8.252l13.096,22.034l-16.27,11.576Z" style="fill:#af2b50;fill-rule:nonzero;"/><path d="M72.985,50.038c-14.827,0 -27.028,12.201 -27.028,27.029c-0,14.827 12.201,27.028 27.028,27.028c14.828,0 27.029,-12.201 27.029,-27.028c0.001,-0.101 0.002,-0.202 0.002,-0.303c-0,-14.662 -12.066,-26.728 -26.728,-26.728c-0.101,0 -0.202,0.001 -0.303,0.002Zm0,44.034c-9.329,0 -17.005,-7.676 -17.005,-17.005c-0,-9.329 7.676,-17.006 17.005,-17.006c9.329,0 17.006,7.677 17.006,17.006c0.001,0.061 0.001,0.123 0.001,0.184c0,9.229 -7.594,16.822 -16.822,16.822c-0.061,0 -0.123,-0 -0.185,-0.001Z" style="fill:#af2b50;fill-rule:nonzero;"/></g></svg>