<?xml version="1.0" encoding="UTF-8" standalone="no"?><!DOCTYPE svg PUBLIC "-//W3C//DTD SVG 1.1//EN" "http://www.w3.org/Graphics/SVG/1.1/DTD/svg11.dtd"><svg width="100%" height="100%" viewBox="0 0 105 105" version="1.1" xmlns="http://www.w3.org/2000/svg" xmlns:xlink="http://www.w3.org/1999/xlink" xml:space="preserve" xmlns:serif="http://www.serif.com/" style="fill-rule:evenodd;clip-rule:evenodd;stroke-linejoin:round;stroke-miterlimit:2;"><g><path d="M52.083,22.786c-16.071,0 -29.297,13.226 -29.297,29.297c0,16.072 13.226,29.297 29.297,29.297c16.072,0 29.297,-13.225 29.297,-29.297c-0.019,-16.064 -13.232,-29.278 -29.297,-29.297Zm-17.2,48.799l20.456,-20.455l4.209,4.209l-19.714,19.713c-1.779,-0.961 -3.44,-2.124 -4.951,-3.467Zm25.967,-19.547l-8.721,-8.721l10.905,-2.179l-2.184,10.9Zm-12.022,-7.419l4.209,4.209l-20.456,20.456c-1.342,-1.511 -2.506,-3.173 -3.466,-4.951l19.713,-19.714Zm3.255,33.506c-3.095,-0.006 -6.164,-0.568 -9.061,-1.659l19.978,-19.977c0.215,-0.236 0.368,-0.522 0.444,-0.831l3.255,-16.276c0.021,-0.106 0.032,-0.212 0.032,-0.32c-0,-0.893 -0.735,-1.627 -1.628,-1.627c-0.109,-0 -0.218,0.011 -0.324,0.032l-16.276,3.256c-0.311,0.075 -0.597,0.228 -0.832,0.444l-19.971,19.977c-1.072,-2.894 -1.621,-5.956 -1.621,-9.043c-0,-14.276 11.747,-26.024 26.023,-26.024c14.276,0 26.024,11.748 26.024,26.024c0,14.276 -11.748,26.024 -26.024,26.024c-0.006,0 -0.012,0 -0.019,0Zm47.826,-38.102l-9.816,-1.227l-1.739,-4.193l6.073,-7.813c1.493,-1.931 1.32,-4.7 -0.402,-6.43l-10.226,-10.218c-1.731,-1.723 -4.501,-1.895 -6.432,-0.401l-7.787,6.058l-4.212,-1.745l-1.224,-9.788c-0.305,-2.424 -2.388,-4.264 -4.831,-4.266l-14.459,-0c-2.443,0.002 -4.526,1.841 -4.831,4.264l-1.224,9.79l-4.212,1.745l-7.787,-6.058c-1.931,-1.494 -4.701,-1.322 -6.432,0.401l-10.226,10.226c-1.722,1.731 -1.894,4.5 -0.401,6.431l6.058,7.788l-1.743,4.212l-9.792,1.224c-2.421,0.309 -4.258,2.389 -4.264,4.831l-0,14.459c0.006,2.441 1.843,4.522 4.264,4.831l9.792,1.224l1.743,4.212l-6.059,7.788c-1.493,1.931 -1.32,4.701 0.402,6.431l10.226,10.226c1.731,1.722 4.501,1.895 6.432,0.4l7.803,-6.069l4.194,1.737l1.226,9.808c0.304,2.424 2.387,4.263 4.831,4.266l14.459,-0c2.443,-0.002 4.526,-1.841 4.831,-4.265l1.225,-9.809l4.195,-1.737l7.812,6.073c1.928,1.493 4.695,1.321 6.423,-0.401l10.234,-10.234c1.722,-1.727 1.895,-4.494 0.401,-6.421l-6.075,-7.812l1.739,-4.193l9.816,-1.227c2.416,-0.308 4.249,-2.385 4.253,-4.821l-0,-14.473c-0.003,-2.439 -1.838,-4.518 -4.258,-4.824Zm1.002,19.297c0,0.805 -0.606,1.493 -1.406,1.593l-10.757,1.344c-0.58,0.073 -1.078,0.453 -1.302,0.993l-2.462,5.943c-0.226,0.541 -0.142,1.165 0.219,1.627l6.654,8.557c0.491,0.635 0.434,1.546 -0.132,2.116l-10.234,10.234c-0.569,0.568 -1.481,0.625 -2.116,0.132l-8.56,-6.654c-0.462,-0.361 -1.085,-0.445 -1.627,-0.22l-5.939,2.463c-0.54,0.224 -0.919,0.722 -0.992,1.302l-1.342,10.742c-0.102,0.803 -0.792,1.412 -1.602,1.413l-14.459,-0c-0.81,-0.001 -1.5,-0.61 -1.602,-1.413l-1.343,-10.742c-0.072,-0.58 -0.451,-1.078 -0.991,-1.302l-5.944,-2.463c-0.542,-0.225 -1.165,-0.141 -1.628,0.22l-8.551,6.65c-0.639,0.497 -1.558,0.44 -2.131,-0.133l-10.219,-10.225c-0.568,-0.575 -0.626,-1.49 -0.135,-2.132l6.64,-8.535c0.361,-0.463 0.444,-1.086 0.218,-1.628l-2.467,-5.96c-0.224,-0.54 -0.722,-0.919 -1.302,-0.991l-10.731,-1.341c-0.801,-0.102 -1.409,-0.789 -1.413,-1.597l0,-14.459c0.001,-0.81 0.61,-1.5 1.413,-1.602l10.731,-1.341c0.58,-0.072 1.078,-0.452 1.302,-0.991l2.467,-5.961c0.226,-0.541 0.143,-1.164 -0.218,-1.627l-6.639,-8.531c-0.495,-0.64 -0.438,-1.558 0.134,-2.132l10.224,-10.224c0.572,-0.573 1.492,-0.63 2.131,-0.134l8.535,6.639c0.463,0.361 1.086,0.444 1.628,0.218l5.96,-2.469c0.54,-0.224 0.919,-0.722 0.991,-1.302l1.341,-10.729c0.102,-0.802 0.79,-1.41 1.599,-1.413l14.459,0c0.81,0.001 1.5,0.61 1.602,1.413l1.341,10.729c0.072,0.58 0.451,1.078 0.991,1.302l5.96,2.469c0.542,0.226 1.165,0.143 1.628,-0.218l8.535,-6.639c0.64,-0.495 1.558,-0.438 2.131,0.134l10.224,10.224c0.571,0.573 0.629,1.49 0.135,2.131l-6.655,8.551c-0.361,0.463 -0.445,1.086 -0.22,1.628l2.463,5.942c0.223,0.541 0.722,0.921 1.302,0.993l10.757,1.344c0.799,0.101 1.406,0.788 1.406,1.594l-0.002,14.468Z" style="fill:#af2b50;fill-rule:nonzero;"/></g></svg>