<svg id="Capa_1" enable-background="new 0 0 512 512" height="512" viewBox="0 0 512 512" width="512" xmlns="http://www.w3.org/2000/svg"><g><path d="m397.691 43.717c-.124-.023-.248-.04-.373-.057-.112-.015-.223-.03-.336-.039-.151-.013-.302-.019-.453-.023-.066-.002-.13-.01-.195-.01h-280.667c-.066 0-.13.008-.196.01-.15.004-.3.01-.45.023-.116.01-.23.025-.344.04-3.515.473-6.084 3.272-6.46 6.584-.01.09-.015.182-.021.273-.012.163-.023.325-.025.487 0 .028-.004.055-.004.083.333 131.096-.989 129.379 1.247 132.763 1.336 2.016 3.675 3.365 6.258 3.365.012 0 .025-.002.037-.002h280.583c.012 0 .025.002.037.002.028 0 .055-.006.083-.006 4.097-.043 7.377-3.366 7.418-7.417 0-.027.004-.053.004-.079v-128.626c0-.027-.004-.053-.004-.079-.035-3.583-2.627-6.649-6.139-7.292zm-35.726 14.871-105.965 48.563-105.966-48.563zm-238.798 4.187 114.832 52.626-114.832 52.626zm26.866 109.44 105.967-48.563 105.966 48.563zm238.8-4.187-114.831-52.626 114.831-52.626z"/><path d="m431 0h-350c-12.407 0-22.5 10.093-22.5 22.5v128.795c0 4.142 3.358 7.5 7.5 7.5s7.5-3.358 7.5-7.5v-128.795c0-4.136 3.364-7.5 7.5-7.5h350c4.136 0 7.5 3.364 7.5 7.5v467c0 4.136-3.364 7.5-7.5 7.5h-350c-4.136 0-7.5-3.364-7.5-7.5v-308.205c0-4.142-3.358-7.5-7.5-7.5s-7.5 3.358-7.5 7.5v308.205c0 12.407 10.093 22.5 22.5 22.5h350c12.406 0 22.5-10.093 22.5-22.5v-467c0-12.407-10.094-22.5-22.5-22.5z"/><path d="m108.167 309.93c0 4.142 3.358 7.5 7.5 7.5h108.697c4.142 0 7.5-3.358 7.5-7.5v-82.477c0-4.142-3.358-7.5-7.5-7.5h-108.697c-4.142 0-7.5 3.358-7.5 7.5zm15-74.977h93.697v67.477h-93.697z"/><path d="m397.17 219.953h-107.007c-4.143 0-7.5 3.358-7.5 7.5s3.357 7.5 7.5 7.5h107.007c4.143 0 7.5-3.358 7.5-7.5s-3.357-7.5-7.5-7.5z"/><path d="m397.17 261.191h-107.007c-4.143 0-7.5 3.358-7.5 7.5s3.357 7.5 7.5 7.5h107.007c4.143 0 7.5-3.358 7.5-7.5s-3.357-7.5-7.5-7.5z"/><path d="m397.17 302.43h-107.007c-4.143 0-7.5 3.358-7.5 7.5s3.357 7.5 7.5 7.5h107.007c4.143 0 7.5-3.358 7.5-7.5s-3.357-7.5-7.5-7.5z"/><path d="m397.17 366.785h-108.696c-4.143 0-7.5 3.358-7.5 7.5v82.477c0 4.142 3.357 7.5 7.5 7.5h108.696c4.143 0 7.5-3.358 7.5-7.5v-82.477c0-4.142-3.357-7.5-7.5-7.5zm-7.5 82.477h-93.696v-67.477h93.696z"/><path d="m115.667 381.785h107.007c4.142 0 7.5-3.358 7.5-7.5s-3.358-7.5-7.5-7.5h-107.007c-4.142 0-7.5 3.358-7.5 7.5s3.357 7.5 7.5 7.5z"/><path d="m115.667 423.023h107.007c4.142 0 7.5-3.358 7.5-7.5s-3.358-7.5-7.5-7.5h-107.007c-4.142 0-7.5 3.358-7.5 7.5s3.357 7.5 7.5 7.5z"/><path d="m115.667 464.262h107.007c4.142 0 7.5-3.358 7.5-7.5s-3.358-7.5-7.5-7.5h-107.007c-4.142 0-7.5 3.358-7.5 7.5s3.357 7.5 7.5 7.5z"/></g></svg>