<?xml version="1.0" encoding="UTF-8" standalone="no"?><!DOCTYPE svg PUBLIC "-//W3C//DTD SVG 1.1//EN" "http://www.w3.org/Graphics/SVG/1.1/DTD/svg11.dtd"><svg width="100%" height="100%" viewBox="0 0 80 80" version="1.1" xmlns="http://www.w3.org/2000/svg" xmlns:xlink="http://www.w3.org/1999/xlink" xml:space="preserve" xmlns:serif="http://www.serif.com/" style="fill-rule:evenodd;clip-rule:evenodd;stroke-linejoin:round;stroke-miterlimit:2;"><g><g><g><path d="M73.851,24.057c-2.011,2.429 -3.938,4.943 -5.781,7.54l0,26.557c0,6.367 -5.194,11.561 -11.561,11.561l-36.695,0c-6.367,0 -11.561,-5.194 -11.561,-11.561l0,-36.694c0,-6.367 5.194,-11.562 11.561,-11.562l33.344,0c0.838,-0.837 1.592,-1.675 2.429,-2.513c1.843,-1.843 3.77,-3.686 5.697,-5.445c-1.508,-0.419 -3.1,-0.587 -4.775,-0.587l-36.695,0c-11.058,0 -20.022,9.048 -20.022,20.107l-0,36.694c-0,11.059 8.964,20.023 20.022,20.023l36.695,-0c11.059,-0 20.023,-8.964 20.023,-20.023l-0,-37.281c-0.922,1.006 -1.76,2.095 -2.681,3.184Z" style="fill:#474948;fill-rule:nonzero;"/><path d="M78.375,2.358c-1.508,-1.675 -4.105,-1.843 -5.865,-0.335c-4.021,3.519 -7.54,7.038 -11.058,10.724c-3.519,3.686 -6.87,7.54 -10.137,11.477c-3.268,3.938 -6.367,8.043 -9.3,12.232c-1.508,2.094 -2.848,4.189 -4.272,6.367l-11.478,-14.158c-1.34,-1.592 -3.77,-2.011 -5.529,-0.838c-1.927,1.256 -2.43,3.854 -1.089,5.697l14.577,21.698c0.419,0.586 0.922,1.089 1.508,1.508c2.43,1.508 5.781,0.754 7.121,-1.592c1.341,-2.429 4.943,-8.964 7.54,-13.069c2.597,-4.105 5.362,-8.126 8.294,-11.98c2.932,-3.938 6.032,-7.708 9.216,-11.394c3.183,-3.686 6.618,-7.289 10.053,-10.556l0.084,-0.084c1.675,-1.508 1.759,-4.021 0.335,-5.697Z" style="fill:#474948;fill-rule:nonzero;"/></g></g></g></svg>