<?xml version="1.0" encoding="UTF-8" standalone="no"?><!DOCTYPE svg PUBLIC "-//W3C//DTD SVG 1.1//EN" "http://www.w3.org/Graphics/SVG/1.1/DTD/svg11.dtd"><svg width="100%" height="100%" viewBox="0 0 105 105" version="1.1" xmlns="http://www.w3.org/2000/svg" xmlns:xlink="http://www.w3.org/1999/xlink" xml:space="preserve" xmlns:serif="http://www.serif.com/" style="fill-rule:evenodd;clip-rule:evenodd;stroke-linejoin:round;stroke-miterlimit:2;"><g><path d="M52.421,-0.002l0.672,0.009l0.336,0.008l0.332,0.012l0.336,0.008l0.997,0.049l0.664,0.041l0.332,0.025l0.657,0.057l0.332,0.028l0.657,0.066l0.324,0.036l0.329,0.041l0.649,0.082l0.649,0.09l0.325,0.049l0.321,0.049l0.324,0.053l0.321,0.057l0.321,0.053l0.321,0.061l0.317,0.057l0.321,0.066l0.317,0.061l0.317,0.069l0.317,0.066l0.317,0.069l0.313,0.074l0.317,0.073l0.314,0.074l0.313,0.077l0.309,0.082l0.314,0.081l0.309,0.082l0.619,0.172l0.619,0.179l0.917,0.282l0.306,0.098l0.906,0.306l0.604,0.213l0.895,0.33l0.298,0.115l0.294,0.114l0.589,0.237l0.589,0.245l0.872,0.379l0.86,0.392l0.287,0.135l0.287,0.139l0.849,0.416l0.28,0.143l0.283,0.147l0.279,0.147l0.276,0.147l0.279,0.151l0.551,0.303l0.272,0.155l0.275,0.155l0.544,0.318l0.268,0.16l0.272,0.163l0.268,0.163l0.264,0.168l0.268,0.167l0.528,0.335l0.261,0.175l0.26,0.172l0.521,0.351l0.257,0.18l0.26,0.175l0.253,0.184l0.257,0.18l0.253,0.183l0.253,0.188l0.249,0.188l0.253,0.188l0.249,0.188l0.245,0.192l0.249,0.191l0.246,0.196l0.241,0.196l0.245,0.196l0.242,0.196l0.242,0.2l0.237,0.205l0.238,0.2l0.238,0.204l0.234,0.208l0.234,0.204l0.234,0.208l0.234,0.213l0.23,0.208l0.227,0.212l0.23,0.213l0.453,0.432l0.223,0.217l0.445,0.441l0.219,0.22l0.438,0.449l0.215,0.225l0.215,0.229l0.215,0.224l0.212,0.233l0.211,0.229l0.208,0.232l0.211,0.233l0.204,0.233l0.207,0.237l0.204,0.236l0.204,0.241l0.2,0.237l0.2,0.241l0.197,0.241l0.588,0.735l0.193,0.245l0.189,0.249l0.192,0.249l0.189,0.249l0.185,0.253l0.185,0.249l0.185,0.253l0.362,0.515l0.181,0.253l0.178,0.261l0.173,0.257l0.178,0.262l0.173,0.261l0.17,0.261l0.34,0.531l0.332,0.531l0.487,0.808l0.158,0.27l0.159,0.273l0.464,0.821l0.302,0.555l0.147,0.278l0.144,0.278l0.147,0.281l0.144,0.282l0.279,0.564l0.139,0.285l0.272,0.572l0.132,0.286l0.132,0.29l0.129,0.286l0.128,0.289l0.125,0.294l0.124,0.29l0.125,0.294l0.121,0.29l0.117,0.298l0.12,0.294l0.114,0.294l0.226,0.596l0.219,0.596l0.11,0.303l0.101,0.302l0.106,0.302l0.102,0.302l0.098,0.302l0.196,0.613l0.095,0.306l0.181,0.612l0.091,0.311l0.086,0.306l0.083,0.31l0.083,0.315l0.084,0.31l0.079,0.31l0.226,0.943l0.072,0.315l0.068,0.314l0.136,0.637l0.064,0.319l0.181,0.955l0.057,0.323l0.105,0.645l0.099,0.645l0.045,0.322l0.045,0.327l0.042,0.327l0.041,0.322l0.038,0.327l0.038,0.33l0.068,0.654l0.03,0.33l0.026,0.331l0.027,0.327l0.022,0.331l0.023,0.334l0.023,0.331l0.015,0.331l0.019,0.335l0.011,0.33l0.023,0.67l0.007,0.335l0.008,0.673l-0,0.674l-0.008,0.67l-0.007,0.335l-0.034,1.004l-0.019,0.331l-0.015,0.335l-0.068,0.992l-0.053,0.661l-0.03,0.327l-0.034,0.331l-0.034,0.326l-0.076,0.653l-0.083,0.654l-0.045,0.322l-0.045,0.327l-0.099,0.645l-0.105,0.645l-0.057,0.319l-0.06,0.322l-0.121,0.637l-0.064,0.319l-0.068,0.314l-0.068,0.318l-0.068,0.315l-0.072,0.318l-0.151,0.629l-0.075,0.31l-0.079,0.315l-0.25,0.931l-0.086,0.31l-0.091,0.306l-0.091,0.311l-0.09,0.306l-0.095,0.306l-0.098,0.306l-0.098,0.302l-0.098,0.307l-0.102,0.302l-0.106,0.302l-0.101,0.298l-0.11,0.302l-0.109,0.298l-0.11,0.302l-0.113,0.298l-0.113,0.294l-0.114,0.298l-0.12,0.294l-0.117,0.294l-0.121,0.294l-0.125,0.294l-0.249,0.58l-0.257,0.58l-0.132,0.286l-0.132,0.29l-0.272,0.571l-0.139,0.282l-0.14,0.286l-0.139,0.281l-0.144,0.282l-0.147,0.278l-0.144,0.282l-0.147,0.277l-0.151,0.278l-0.151,0.273l-0.154,0.278l-0.31,0.547l-0.159,0.27l-0.158,0.273l-0.325,0.539l-0.162,0.266l-0.166,0.269l-0.166,0.265l-0.17,0.266l-0.17,0.261l-0.17,0.266l-0.173,0.261l-0.178,0.257l-0.173,0.261l-0.178,0.258l-0.362,0.514l-0.181,0.253l-0.555,0.76l-0.189,0.249l-0.192,0.249l-0.189,0.245l-0.193,0.249l-0.392,0.49l-0.393,0.482l-0.4,0.481l-0.408,0.474l-0.207,0.237l-0.204,0.237l-0.63,0.694l-0.212,0.228l-0.43,0.458l-0.215,0.224l-0.219,0.225l-0.219,0.22l-0.219,0.225l-0.223,0.22l-0.445,0.433l-0.453,0.433l-0.23,0.212l-0.227,0.213l-0.23,0.212l-0.702,0.625l-0.234,0.204l-0.476,0.408l-0.237,0.2l-0.484,0.4l-0.245,0.196l-0.241,0.196l-0.246,0.192l-0.249,0.196l-0.245,0.188l-0.249,0.192l-0.253,0.188l-0.249,0.188l-0.506,0.367l-0.257,0.184l-0.253,0.179l-0.26,0.18l-0.257,0.18l-0.521,0.351l-0.521,0.343l-0.264,0.171l-0.264,0.168l-0.268,0.167l-0.264,0.167l-0.268,0.164l-0.272,0.159l-0.268,0.163l-0.272,0.16l-0.272,0.155l-0.275,0.159l-0.272,0.155l-0.551,0.302l-0.279,0.151l-0.276,0.147l-0.279,0.147l-0.283,0.143l-0.28,0.143l-0.283,0.143l-0.566,0.278l-0.86,0.404l-0.574,0.261l-0.581,0.253l-0.291,0.123l-0.589,0.245l-0.589,0.237l-0.294,0.114l-0.597,0.229l-0.596,0.22l-0.604,0.212l-0.604,0.205l-0.302,0.098l-0.611,0.196l-0.306,0.093l-0.306,0.09l-0.309,0.094l-0.31,0.086l-0.309,0.09l-0.31,0.081l-0.309,0.086l-0.314,0.082l-0.309,0.077l-0.627,0.156l-0.317,0.073l-0.313,0.069l-0.634,0.139l-0.634,0.131l-0.321,0.061l-0.317,0.061l-0.642,0.115l-0.321,0.053l-0.324,0.053l-0.321,0.049l-0.649,0.098l-0.325,0.045l-0.649,0.081l-0.329,0.037l-0.324,0.037l-0.329,0.037l-0.328,0.032l-0.332,0.029l-0.329,0.029l-0.328,0.024l-0.664,0.049l-0.332,0.02l-0.665,0.033l-0.332,0.012l-0.336,0.013l-0.332,0.008l-0.672,0.016l-0.336,0l-0.336,0.004l-0.339,-0.004l-0.336,0l-1.004,-0.024l-0.333,-0.013l-0.336,-0.012l-0.664,-0.033l-0.332,-0.02l-0.332,-0.024l-0.329,-0.025l-0.332,-0.024l-0.657,-0.058l-0.328,-0.032l-0.657,-0.074l-0.324,-0.037l-0.329,-0.04l-0.324,-0.041l-0.325,-0.045l-0.649,-0.098l-0.321,-0.049l-0.321,-0.053l-0.324,-0.053l-0.321,-0.057l-0.317,-0.058l-0.642,-0.122l-0.634,-0.131l-0.317,-0.069l-0.313,-0.07l-0.318,-0.069l-0.313,-0.073l-0.94,-0.233l-0.313,-0.082l-0.31,-0.086l-0.309,-0.081l-0.31,-0.09l-0.309,-0.086l-0.306,-0.094l-0.309,-0.09l-0.306,-0.093l-0.306,-0.098l-0.302,-0.098l-0.305,-0.098l-0.604,-0.205l-0.302,-0.106l-0.299,-0.106l-0.302,-0.11l-0.298,-0.11l-0.298,-0.115l-0.294,-0.114l-0.299,-0.114l-0.588,-0.237l-0.295,-0.123l-0.581,-0.245l-0.294,-0.126l-0.287,-0.127l-0.291,-0.13l-0.287,-0.131l-0.574,-0.27l-0.283,-0.134l-0.287,-0.139l-0.283,-0.139l-0.279,-0.143l-0.283,-0.143l-0.279,-0.143l-0.559,-0.294l-0.276,-0.151l-0.279,-0.151l-0.272,-0.151l-0.275,-0.155l-0.272,-0.159l-0.275,-0.155l-0.268,-0.16l-0.272,-0.163l-0.268,-0.159l-0.268,-0.164l-0.268,-0.167l-0.529,-0.335l-0.528,-0.343l-0.261,-0.171l-0.52,-0.351l-0.77,-0.539l-0.253,-0.184l-0.257,-0.184l-0.253,-0.183l-0.498,-0.376l-0.249,-0.192l-0.249,-0.188l-0.246,-0.196l-0.245,-0.192l-0.245,-0.196l-0.242,-0.196l-0.725,-0.6l-0.238,-0.204l-0.234,-0.204l-0.237,-0.204l-0.468,-0.417l-0.231,-0.208l-0.69,-0.637l-0.227,-0.216l-0.223,-0.217l-0.226,-0.216l-0.223,-0.217l-0.222,-0.22l-0.219,-0.225l-0.219,-0.22l-0.219,-0.225l-0.215,-0.224l-0.216,-0.229l-0.211,-0.229l-0.215,-0.228l-0.419,-0.462l-0.208,-0.232l-0.207,-0.237l-0.612,-0.711l-0.6,-0.722l-0.196,-0.241l-0.196,-0.245l-0.193,-0.245l-0.192,-0.249l-0.193,-0.245l-0.377,-0.498l-0.189,-0.253l-0.185,-0.254l-0.181,-0.253l-0.185,-0.253l-0.181,-0.257l-0.355,-0.515l-0.178,-0.261l-0.173,-0.257l-0.174,-0.261l-0.173,-0.266l-0.17,-0.261l-0.17,-0.266l-0.166,-0.265l-0.166,-0.269l-0.163,-0.266l-0.324,-0.539l-0.159,-0.273l-0.158,-0.27l-0.31,-0.547l-0.151,-0.278l-0.155,-0.273l-0.294,-0.555l-0.147,-0.282l-0.144,-0.278l-0.286,-0.563l-0.14,-0.286l-0.136,-0.282l-0.14,-0.286l-0.132,-0.285l-0.132,-0.29l-0.132,-0.286l-0.132,-0.29l-0.128,-0.29l-0.25,-0.58l-0.362,-0.882l-0.117,-0.294l-0.117,-0.298l-0.113,-0.294l-0.113,-0.298l-0.11,-0.302l-0.109,-0.298l-0.106,-0.302l-0.106,-0.298l-0.204,-0.604l-0.101,-0.307l-0.099,-0.302l-0.283,-0.918l-0.09,-0.311l-0.087,-0.306l-0.174,-0.621l-0.083,-0.31l-0.079,-0.31l-0.079,-0.315l-0.08,-0.31l-0.075,-0.314l-0.072,-0.315l-0.072,-0.318l-0.071,-0.315l-0.068,-0.318l-0.064,-0.314l-0.129,-0.637l-0.06,-0.319l-0.057,-0.322l-0.056,-0.319l-0.057,-0.322l-0.053,-0.323l-0.098,-0.645l-0.045,-0.327l-0.046,-0.322l-0.083,-0.654l-0.075,-0.653l-0.034,-0.326l-0.03,-0.331l-0.03,-0.327l-0.031,-0.331l-0.026,-0.33l-0.045,-0.662l-0.019,-0.33l-0.019,-0.335l-0.015,-0.331l-0.015,-0.335l-0.012,-0.335l-0.022,-1.004l-0.004,-0.335l0,-0.674l0.004,-0.334l0.015,-0.674l0.007,-0.335l0.012,-0.335l0.015,-0.33l0.015,-0.335l0.038,-0.662l0.022,-0.334l0.023,-0.331l0.026,-0.327l0.061,-0.661l0.03,-0.327l0.034,-0.327l0.038,-0.33l0.037,-0.327l0.042,-0.322l0.041,-0.327l0.046,-0.327l0.045,-0.322l0.098,-0.645l0.053,-0.323l0.113,-0.645l0.057,-0.319l0.06,-0.318l0.193,-0.955l0.068,-0.319l0.215,-0.943l0.075,-0.314l0.08,-0.315l0.158,-0.62l0.083,-0.315l0.087,-0.31l0.087,-0.306l0.087,-0.311l0.09,-0.306l0.283,-0.919l0.099,-0.306l0.305,-0.906l0.212,-0.605l0.219,-0.596l0.226,-0.596l0.234,-0.588l0.121,-0.298l0.121,-0.29l0.12,-0.294l0.125,-0.29l0.125,-0.294l0.128,-0.289l0.132,-0.286l0.132,-0.29l0.264,-0.572l0.14,-0.286l0.136,-0.285l0.14,-0.282l0.43,-0.845l0.441,-0.833l0.155,-0.278l0.151,-0.273l0.31,-0.548l0.158,-0.273l0.159,-0.27l0.487,-0.808l0.332,-0.531l0.34,-0.531l0.52,-0.784l0.178,-0.257l0.177,-0.261l0.178,-0.253l0.181,-0.257l0.185,-0.258l0.181,-0.253l0.185,-0.249l0.189,-0.253l0.377,-0.498l0.193,-0.249l0.385,-0.49l0.392,-0.49l0.4,-0.482l0.2,-0.237l0.204,-0.241l0.408,-0.473l0.623,-0.698l0.426,-0.462l0.427,-0.453l0.215,-0.225l0.438,-0.449l0.219,-0.22l0.445,-0.441l0.226,-0.217l0.223,-0.216l0.227,-0.216l0.46,-0.425l0.23,-0.208l0.231,-0.213l0.234,-0.208l0.234,-0.204l0.237,-0.208l0.234,-0.204l0.238,-0.2l0.242,-0.205l0.241,-0.2l0.484,-0.392l0.49,-0.392l0.246,-0.191l0.249,-0.192l0.747,-0.564l0.253,-0.188l0.257,-0.183l0.253,-0.18l0.256,-0.184l0.257,-0.175l0.257,-0.18l0.52,-0.351l0.261,-0.172l0.264,-0.175l0.793,-0.502l0.268,-0.168l0.536,-0.326l0.272,-0.16l0.268,-0.159l0.275,-0.159l0.272,-0.155l0.275,-0.155l0.272,-0.152l0.279,-0.151l0.276,-0.151l0.838,-0.441l0.283,-0.143l0.279,-0.138l0.283,-0.139l0.287,-0.139l0.283,-0.139l0.287,-0.135l0.574,-0.261l0.291,-0.131l0.287,-0.126l0.294,-0.127l0.291,-0.126l0.29,-0.123l0.295,-0.122l0.588,-0.237l0.299,-0.114l0.294,-0.115l0.596,-0.22l0.302,-0.11l0.299,-0.107l0.302,-0.106l0.604,-0.204l0.305,-0.102l0.302,-0.098l0.612,-0.188l0.309,-0.094l0.306,-0.09l0.309,-0.089l0.619,-0.172l0.31,-0.082l0.627,-0.163l0.313,-0.077l0.626,-0.147l0.318,-0.074l0.313,-0.069l0.317,-0.066l0.317,-0.069l0.317,-0.061l0.321,-0.066l0.321,-0.057l0.317,-0.061l0.321,-0.053l0.324,-0.057l0.321,-0.053l0.321,-0.049l0.324,-0.049l0.65,-0.09l0.324,-0.041l0.329,-0.041l0.324,-0.041l0.329,-0.036l0.656,-0.066l0.657,-0.057l0.332,-0.028l0.329,-0.025l0.664,-0.041l0.664,-0.032l0.336,-0.017l0.333,-0.008l0.335,-0.012l0.336,-0.008l0.669,-0.009l0.675,0Zm-0.649,3.647l-0.627,0.008l-0.313,0.008l-0.309,0.008l-0.314,0.012l-0.619,0.025l-0.309,0.016l-0.31,0.021l-0.306,0.02l-0.309,0.024l-0.306,0.025l-0.309,0.024l-0.612,0.058l-0.302,0.032l-0.305,0.033l-0.302,0.037l-0.306,0.036l-0.604,0.082l-0.302,0.045l-0.298,0.045l-0.302,0.045l-0.298,0.049l-0.302,0.053l-0.299,0.049l-0.294,0.057l-0.298,0.053l-0.298,0.061l-0.295,0.058l-0.294,0.061l-0.883,0.196l-0.582,0.139l-0.872,0.22l-0.287,0.078l-0.29,0.077l-0.574,0.164l-0.287,0.085l-0.283,0.086l-0.287,0.086l-0.283,0.09l-0.283,0.094l-0.283,0.089l-0.279,0.094l-0.283,0.098l-0.559,0.196l-0.276,0.102l-0.279,0.102l-0.827,0.319l-0.275,0.11l-0.272,0.11l-0.275,0.111l-0.272,0.114l-0.272,0.118l-0.268,0.119l-0.272,0.118l-0.268,0.119l-0.268,0.122l-0.264,0.123l-0.268,0.126l-0.528,0.253l-0.265,0.131l-0.26,0.131l-0.781,0.404l-0.261,0.139l-0.256,0.138l-0.257,0.143l-0.257,0.139l-0.253,0.147l-0.256,0.143l-0.506,0.294l-0.748,0.453l-0.498,0.311l-0.245,0.155l-0.491,0.318l-0.966,0.653l-0.476,0.335l-0.237,0.172l-0.235,0.171l-0.237,0.172l-0.234,0.175l-0.231,0.176l-0.234,0.175l-0.23,0.176l-0.226,0.18l-0.231,0.179l-0.679,0.552l-0.223,0.187l-0.222,0.184l-0.223,0.192l-0.219,0.188l-0.438,0.384l-0.215,0.196l-0.219,0.191l-0.211,0.196l-0.215,0.201l-0.212,0.196l-0.211,0.2l-0.212,0.204l-0.207,0.2l-0.415,0.408l-0.408,0.417l-0.2,0.208l-0.204,0.208l-0.2,0.212l-0.196,0.213l-0.2,0.212l-0.197,0.216l-0.192,0.217l-0.196,0.216l-0.193,0.217l-0.189,0.22l-0.192,0.221l-0.189,0.22l-0.185,0.225l-0.185,0.22l-0.185,0.229l-0.185,0.224l-0.362,0.458l-0.177,0.228l-0.182,0.229l-0.173,0.233l-0.178,0.232l-0.173,0.233l-0.17,0.237l-0.174,0.233l-0.17,0.236l-0.166,0.241l-0.166,0.237l-0.332,0.482l-0.162,0.245l-0.163,0.241l-0.317,0.49l-0.154,0.245l-0.159,0.249l-0.151,0.249l-0.155,0.249l-0.151,0.249l-0.147,0.249l-0.151,0.253l-0.143,0.253l-0.147,0.254l-0.144,0.257l-0.143,0.253l-0.14,0.257l-0.14,0.261l-0.271,0.515l-0.136,0.261l-0.132,0.262l-0.133,0.265l-0.128,0.261l-0.257,0.531l-0.249,0.531l-0.12,0.269l-0.121,0.266l-0.121,0.269l-0.117,0.274l-0.113,0.269l-0.117,0.274l-0.11,0.269l-0.113,0.274l-0.109,0.277l-0.106,0.274l-0.106,0.278l-0.105,0.273l-0.102,0.278l-0.102,0.282l-0.197,0.555l-0.098,0.282l-0.094,0.281l-0.091,0.282l-0.09,0.286l-0.091,0.282l-0.173,0.571l-0.167,0.572l-0.079,0.286l-0.158,0.579l-0.076,0.29l-0.072,0.29l-0.075,0.29l-0.068,0.29l-0.136,0.588l-0.128,0.588l-0.121,0.588l-0.113,0.596l-0.159,0.894l-0.049,0.298l-0.045,0.302l-0.045,0.298l-0.125,0.907l-0.038,0.306l-0.068,0.604l-0.034,0.307l-0.03,0.306l-0.079,0.919l-0.023,0.31l-0.019,0.306l-0.019,0.31l-0.015,0.311l-0.015,0.306l-0.015,0.31l-0.011,0.315l-0.015,0.62l-0.008,0.625l0,0.629l0.008,0.624l0.007,0.315l0.008,0.31l0.011,0.31l0.045,0.931l0.019,0.307l0.019,0.31l0.023,0.306l0.026,0.31l0.053,0.613l0.03,0.302l0.068,0.612l0.034,0.303l0.038,0.302l0.125,0.906l0.045,0.302l0.045,0.298l0.049,0.302l0.159,0.895l0.056,0.298l0.057,0.294l0.06,0.298l0.061,0.294l0.128,0.588l0.068,0.294l0.068,0.29l0.068,0.294l0.075,0.289l0.072,0.29l0.076,0.29l0.079,0.29l0.079,0.286l0.079,0.29l0.167,0.571l0.086,0.286l0.087,0.282l0.091,0.286l0.181,0.563l0.094,0.282l0.197,0.563l0.098,0.278l0.204,0.555l0.211,0.556l0.106,0.273l0.109,0.274l0.113,0.273l0.11,0.274l0.117,0.273l0.113,0.27l0.117,0.269l0.242,0.539l0.12,0.266l0.125,0.269l0.124,0.266l0.129,0.265l0.128,0.261l0.128,0.266l0.265,0.522l0.271,0.523l0.136,0.257l0.28,0.515l0.143,0.257l0.144,0.253l0.147,0.253l0.143,0.253l0.151,0.253l0.147,0.254l0.151,0.249l0.155,0.249l0.151,0.249l0.159,0.245l0.154,0.249l0.159,0.245l0.158,0.241l0.163,0.245l0.162,0.241l0.498,0.722l0.166,0.237l0.17,0.237l0.174,0.237l0.17,0.232l0.173,0.237l0.178,0.233l0.173,0.229l0.182,0.232l0.177,0.229l0.362,0.457l0.555,0.674l0.185,0.221l0.189,0.224l0.192,0.221l0.189,0.216l0.193,0.22l0.196,0.217l0.192,0.216l0.593,0.641l0.2,0.209l0.2,0.212l0.408,0.416l0.204,0.204l0.622,0.613l0.635,0.6l0.215,0.196l0.211,0.196l0.219,0.196l0.215,0.192l0.219,0.196l0.219,0.188l0.219,0.192l0.445,0.375l0.223,0.184l0.226,0.188l0.227,0.184l0.226,0.179l0.231,0.18l0.226,0.18l0.23,0.179l0.234,0.176l0.231,0.175l0.234,0.172l0.237,0.175l0.235,0.172l0.713,0.502l0.241,0.168l0.484,0.326l0.241,0.159l0.736,0.478l0.249,0.155l0.249,0.151l0.25,0.155l0.249,0.152l0.249,0.147l0.253,0.151l0.253,0.143l0.256,0.146l0.253,0.143l0.257,0.143l0.257,0.139l0.256,0.143l0.261,0.135l0.26,0.139l0.261,0.13l0.26,0.135l0.26,0.131l0.529,0.261l0.264,0.127l0.268,0.122l0.264,0.127l0.268,0.118l0.268,0.122l0.272,0.119l0.268,0.118l0.544,0.229l0.275,0.114l0.272,0.111l0.275,0.11l0.552,0.212l0.275,0.102l0.279,0.106l0.276,0.098l0.279,0.102l0.28,0.098l0.283,0.094l0.279,0.094l0.283,0.094l0.566,0.18l0.287,0.09l0.283,0.085l0.861,0.245l0.29,0.078l0.287,0.077l0.291,0.078l0.581,0.147l0.582,0.139l0.588,0.13l0.884,0.184l0.596,0.115l0.294,0.053l0.299,0.053l0.302,0.049l0.298,0.049l0.302,0.049l0.298,0.045l0.302,0.04l0.302,0.045l0.302,0.037l0.306,0.037l0.302,0.037l0.305,0.032l0.302,0.033l0.306,0.033l0.306,0.028l0.309,0.025l0.306,0.024l0.309,0.021l0.306,0.02l0.31,0.02l0.619,0.033l0.309,0.012l0.314,0.013l0.309,0.008l0.313,0.004l0.314,0.008l0.313,-0l0.313,0.004l0.314,-0.004l0.313,-0l0.309,-0.008l0.314,-0.004l0.313,-0.008l0.619,-0.025l0.619,-0.033l0.619,-0.04l0.306,-0.021l0.309,-0.024l0.306,-0.025l0.306,-0.028l0.611,-0.066l0.302,-0.032l0.306,-0.037l0.604,-0.074l0.302,-0.045l0.302,-0.04l0.302,-0.045l0.298,-0.049l0.302,-0.049l0.298,-0.049l0.596,-0.106l0.295,-0.058l0.298,-0.057l0.883,-0.184l0.589,-0.13l0.291,-0.07l0.294,-0.069l0.581,-0.147l0.287,-0.078l0.291,-0.077l0.287,-0.078l0.86,-0.245l0.287,-0.085l0.85,-0.27l0.283,-0.094l0.279,-0.094l0.283,-0.094l0.279,-0.098l0.28,-0.102l0.279,-0.098l0.276,-0.106l0.279,-0.102l0.551,-0.212l0.272,-0.11l0.275,-0.111l0.816,-0.343l0.268,-0.118l0.271,-0.119l0.268,-0.122l0.268,-0.118l0.268,-0.127l0.265,-0.122l0.264,-0.127l0.528,-0.261l0.261,-0.131l0.264,-0.135l0.26,-0.13l0.261,-0.139l0.256,-0.135l0.257,-0.143l0.257,-0.139l0.513,-0.286l0.253,-0.146l0.253,-0.143l0.253,-0.151l0.249,-0.147l0.253,-0.152l0.249,-0.155l0.249,-0.151l0.245,-0.155l0.736,-0.478l0.242,-0.159l0.245,-0.163l0.238,-0.163l0.242,-0.168l0.713,-0.502l0.238,-0.172l0.234,-0.175l0.234,-0.172l0.234,-0.175l0.23,-0.176l0.461,-0.359l0.453,-0.359l0.226,-0.184l0.227,-0.188l0.222,-0.184l0.446,-0.375l0.219,-0.192l0.219,-0.188l0.219,-0.196l0.218,-0.192l0.431,-0.392l0.211,-0.196l0.215,-0.2l0.208,-0.2l0.211,-0.2l0.623,-0.613l0.204,-0.204l0.408,-0.416l0.2,-0.212l0.2,-0.209l0.2,-0.212l0.196,-0.216l0.196,-0.213l0.197,-0.216l0.192,-0.217l0.193,-0.22l0.192,-0.216l0.189,-0.221l0.189,-0.224l0.188,-0.221l0.37,-0.449l0.181,-0.225l0.544,-0.686l0.177,-0.232l0.178,-0.229l0.173,-0.233l0.174,-0.237l0.174,-0.232l0.509,-0.711l0.332,-0.481l0.325,-0.482l0.162,-0.245l0.159,-0.241l0.158,-0.245l0.159,-0.249l0.155,-0.245l0.154,-0.249l0.302,-0.498l0.151,-0.254l0.295,-0.506l0.287,-0.506l0.143,-0.257l0.419,-0.772l0.136,-0.261l0.396,-0.784l0.132,-0.266l0.129,-0.261l0.249,-0.531l0.124,-0.269l0.125,-0.266l0.117,-0.269l0.121,-0.27l0.234,-0.539l0.226,-0.547l0.329,-0.82l0.105,-0.278l0.102,-0.278l0.106,-0.277l0.098,-0.278l0.102,-0.278l0.098,-0.281l0.283,-0.845l0.091,-0.282l0.087,-0.286l0.086,-0.282l0.174,-0.571l0.079,-0.286l0.083,-0.29l0.08,-0.286l0.226,-0.87l0.072,-0.289l0.068,-0.294l0.071,-0.29l0.065,-0.294l0.067,-0.294l0.061,-0.294l0.064,-0.294l0.057,-0.298l0.06,-0.294l0.053,-0.298l0.057,-0.298l0.052,-0.298l0.049,-0.299l0.05,-0.302l0.045,-0.298l0.09,-0.604l0.042,-0.302l0.113,-0.907l0.034,-0.306l0.03,-0.306l0.031,-0.302l0.03,-0.306l0.022,-0.307l0.027,-0.31l0.022,-0.306l0.019,-0.31l0.019,-0.307l0.019,-0.31l0.015,-0.31l0.023,-0.621l0.015,-0.625l0.007,-0.624l0,-0.629l-0.007,-0.625l-0.015,-0.62l-0.012,-0.315l-0.011,-0.31l-0.015,-0.306l-0.038,-0.621l-0.019,-0.306l-0.022,-0.31l-0.027,-0.307l-0.022,-0.306l-0.091,-0.919l-0.034,-0.302l-0.038,-0.302l-0.037,-0.306l-0.038,-0.302l-0.042,-0.302l-0.045,-0.303l-0.045,-0.298l-0.045,-0.302l-0.099,-0.596l-0.052,-0.298l-0.057,-0.298l-0.053,-0.298l-0.06,-0.298l-0.057,-0.294l-0.064,-0.294l-0.061,-0.294l-0.067,-0.294l-0.065,-0.294l-0.071,-0.294l-0.068,-0.29l-0.072,-0.29l-0.226,-0.869l-0.08,-0.29l-0.083,-0.286l-0.079,-0.286l-0.26,-0.857l-0.087,-0.282l-0.091,-0.286l-0.283,-0.845l-0.098,-0.278l-0.102,-0.277l-0.098,-0.282l-0.106,-0.278l-0.102,-0.273l-0.105,-0.278l-0.11,-0.274l-0.109,-0.277l-0.11,-0.274l-0.113,-0.269l-0.113,-0.274l-0.117,-0.269l-0.117,-0.274l-0.117,-0.269l-0.121,-0.266l-0.125,-0.269l-0.373,-0.796l-0.129,-0.266l-0.132,-0.261l-0.132,-0.265l-0.264,-0.523l-0.136,-0.257l-0.14,-0.258l-0.139,-0.261l-0.14,-0.257l-0.143,-0.253l-0.144,-0.257l-0.143,-0.254l-0.295,-0.506l-0.453,-0.747l-0.309,-0.498l-0.476,-0.735l-0.162,-0.241l-0.162,-0.245l-0.163,-0.241l-0.166,-0.241l-0.166,-0.237l-0.17,-0.241l-0.17,-0.236l-0.169,-0.233l-0.174,-0.237l-0.347,-0.465l-0.178,-0.233l-0.177,-0.229l-0.544,-0.686l-0.181,-0.224l-0.185,-0.229l-0.185,-0.22l-0.188,-0.225l-0.378,-0.441l-0.192,-0.22l-0.385,-0.433l-0.393,-0.433l-0.196,-0.212l-0.4,-0.425l-0.2,-0.208l-0.612,-0.625l-0.415,-0.408l-0.208,-0.2l-0.211,-0.204l-0.208,-0.2l-0.215,-0.196l-0.211,-0.201l-0.215,-0.196l-0.216,-0.191l-0.218,-0.196l-0.438,-0.384l-0.219,-0.188l-0.223,-0.192l-0.223,-0.184l-0.222,-0.187l-0.68,-0.552l-0.226,-0.179l-0.23,-0.18l-0.461,-0.351l-0.468,-0.351l-0.234,-0.172l-0.476,-0.343l-0.475,-0.335l-0.242,-0.163l-0.238,-0.163l-0.245,-0.163l-0.242,-0.164l-0.49,-0.318l-0.491,-0.311l-0.249,-0.155l-0.498,-0.302l-0.253,-0.151l-0.506,-0.294l-0.253,-0.143l-0.257,-0.147l-0.256,-0.139l-0.257,-0.143l-0.513,-0.277l-0.521,-0.27l-0.264,-0.134l-0.261,-0.131l-0.264,-0.131l-0.793,-0.379l-0.536,-0.245l-0.268,-0.119l-0.271,-0.118l-0.268,-0.119l-0.272,-0.118l-0.272,-0.114l-0.272,-0.111l-0.275,-0.11l-0.272,-0.11l-0.551,-0.212l-0.279,-0.107l-0.276,-0.102l-0.279,-0.102l-0.559,-0.196l-0.283,-0.098l-0.279,-0.094l-0.283,-0.089l-0.283,-0.094l-0.284,-0.09l-0.283,-0.086l-0.573,-0.171l-0.574,-0.164l-0.287,-0.077l-0.291,-0.078l-0.287,-0.073l-0.581,-0.147l-0.294,-0.07l-0.291,-0.069l-0.883,-0.196l-0.295,-0.061l-0.294,-0.058l-0.298,-0.061l-0.295,-0.053l-0.298,-0.057l-0.298,-0.049l-0.298,-0.053l-0.302,-0.049l-0.298,-0.045l-0.604,-0.09l-0.604,-0.082l-0.302,-0.036l-0.306,-0.037l-0.302,-0.033l-0.306,-0.032l-0.611,-0.058l-0.306,-0.024l-0.309,-0.025l-0.306,-0.024l-0.619,-0.041l-0.31,-0.016l-0.928,-0.037l-0.627,-0.016l-0.622,-0.008l-0.627,-0Z" style="fill:#af2b50;"/><path d="M52.084,30.384l0.56,0.007l0.277,0.011l0.275,0.01l0.277,0.017l0.275,0.018l0.548,0.048l0.275,0.032l0.27,0.031l0.542,0.076l0.267,0.042l0.535,0.097l0.268,0.052l0.263,0.056l0.264,0.059l0.261,0.062l0.26,0.066l0.521,0.139l0.257,0.077l0.253,0.076l0.507,0.167l0.254,0.086l0.25,0.091l0.25,0.094l0.246,0.093l0.247,0.101l0.243,0.101l0.243,0.104l0.24,0.107l0.479,0.223l0.472,0.236l0.465,0.243l0.23,0.128l0.225,0.129l0.229,0.132l0.445,0.271l0.222,0.142l0.438,0.285l0.215,0.149l0.212,0.149l0.211,0.153l0.212,0.156l0.205,0.157l0.208,0.159l0.403,0.327l0.202,0.166l0.198,0.17l0.194,0.171l0.194,0.173l0.382,0.354l0.188,0.181l0.184,0.184l0.18,0.184l0.181,0.188l0.181,0.191l0.177,0.19l0.173,0.195l0.17,0.194l0.171,0.198l0.166,0.198l0.163,0.202l0.164,0.204l0.159,0.205l0.157,0.209l0.156,0.211l0.153,0.212l0.149,0.212l0.146,0.215l0.146,0.219l0.142,0.219l0.139,0.219l0.139,0.225l0.135,0.223l0.132,0.225l0.129,0.229l0.125,0.23l0.125,0.232l0.121,0.233l0.236,0.472l0.111,0.236l0.111,0.24l0.108,0.243l0.104,0.243l0.101,0.243l0.101,0.246l0.093,0.247l0.094,0.25l0.09,0.25l0.087,0.25l0.084,0.254l0.079,0.256l0.08,0.254l0.073,0.257l0.073,0.26l0.07,0.257l0.066,0.264l0.062,0.261l0.059,0.263l0.056,0.264l0.052,0.268l0.048,0.264l0.045,0.267l0.046,0.271l0.076,0.541l0.031,0.271l0.032,0.275l0.024,0.27l0.024,0.275l0.017,0.278l0.018,0.274l0.021,0.555l0.007,0.559l-0.007,0.559l-0.021,0.556l-0.018,0.274l-0.017,0.278l-0.024,0.274l-0.024,0.271l-0.032,0.275l-0.031,0.27l-0.076,0.542l-0.046,0.267l-0.045,0.271l-0.048,0.264l-0.052,0.268l-0.056,0.263l-0.059,0.264l-0.062,0.261l-0.066,0.264l-0.07,0.257l-0.073,0.26l-0.073,0.257l-0.08,0.253l-0.079,0.257l-0.084,0.254l-0.087,0.25l-0.09,0.25l-0.094,0.25l-0.093,0.246l-0.101,0.247l-0.101,0.243l-0.104,0.243l-0.108,0.243l-0.111,0.24l-0.111,0.236l-0.236,0.472l-0.121,0.233l-0.125,0.232l-0.125,0.229l-0.129,0.23l-0.132,0.225l-0.135,0.223l-0.139,0.225l-0.139,0.219l-0.142,0.219l-0.146,0.219l-0.146,0.215l-0.149,0.212l-0.153,0.211l-0.156,0.212l-0.157,0.209l-0.159,0.204l-0.164,0.205l-0.163,0.202l-0.166,0.198l-0.171,0.198l-0.17,0.194l-0.173,0.194l-0.177,0.191l-0.181,0.191l-0.181,0.188l-0.18,0.184l-0.184,0.184l-0.188,0.18l-0.382,0.355l-0.194,0.173l-0.194,0.17l-0.198,0.171l-0.202,0.166l-0.403,0.327l-0.208,0.159l-0.205,0.157l-0.212,0.156l-0.211,0.153l-0.212,0.149l-0.215,0.146l-0.219,0.146l-0.219,0.142l-0.222,0.142l-0.445,0.271l-0.229,0.132l-0.225,0.129l-0.23,0.128l-0.465,0.243l-0.472,0.236l-0.479,0.222l-0.24,0.108l-0.243,0.104l-0.243,0.101l-0.247,0.101l-0.246,0.093l-0.25,0.094l-0.25,0.09l-0.254,0.087l-0.507,0.167l-0.253,0.076l-0.257,0.077l-0.521,0.139l-0.26,0.066l-0.261,0.062l-0.264,0.059l-0.263,0.056l-0.268,0.052l-0.535,0.097l-0.267,0.042l-0.542,0.076l-0.27,0.031l-0.275,0.031l-0.548,0.049l-0.275,0.017l-0.277,0.018l-0.275,0.01l-0.277,0.011l-0.56,0.007l-0.559,-0.007l-0.555,-0.021l-0.274,-0.018l-0.278,-0.017l-0.549,-0.049l-0.271,-0.031l-0.274,-0.031l-0.271,-0.038l-0.267,-0.038l-0.271,-0.042l-0.535,-0.097l-0.264,-0.052l-0.264,-0.056l-0.263,-0.059l-0.264,-0.062l-0.261,-0.066l-0.257,-0.07l-0.26,-0.069l-0.514,-0.153l-0.507,-0.167l-0.25,-0.087l-0.25,-0.09l-0.25,-0.094l-0.246,-0.093l-0.247,-0.101l-0.243,-0.101l-0.243,-0.104l-0.243,-0.108l-0.24,-0.111l-0.236,-0.111l-0.472,-0.236l-0.465,-0.243l-0.459,-0.257l-0.225,-0.132l-0.226,-0.135l-0.222,-0.136l-0.438,-0.284l-0.219,-0.146l-0.215,-0.146l-0.215,-0.149l-0.212,-0.153l-0.417,-0.313l-0.204,-0.159l-0.205,-0.164l-0.202,-0.163l-0.198,-0.166l-0.396,-0.341l-0.19,-0.173l-0.382,-0.355l-0.188,-0.18l-0.368,-0.368l-0.181,-0.188l-0.354,-0.382l-0.173,-0.194l-0.17,-0.194l-0.171,-0.198l-0.166,-0.198l-0.163,-0.202l-0.164,-0.205l-0.159,-0.204l-0.16,-0.209l-0.306,-0.423l-0.149,-0.212l-0.149,-0.215l-0.427,-0.657l-0.136,-0.225l-0.135,-0.223l-0.132,-0.225l-0.257,-0.459l-0.125,-0.232l-0.118,-0.233l-0.122,-0.236l-0.114,-0.236l-0.111,-0.236l-0.112,-0.24l-0.107,-0.243l-0.208,-0.486l-0.195,-0.493l-0.18,-0.5l-0.087,-0.25l-0.084,-0.254l-0.083,-0.257l-0.076,-0.253l-0.077,-0.257l-0.069,-0.26l-0.07,-0.257l-0.066,-0.264l-0.062,-0.261l-0.059,-0.264l-0.056,-0.263l-0.052,-0.268l-0.048,-0.264l-0.049,-0.271l-0.042,-0.267l-0.041,-0.271l-0.035,-0.271l-0.031,-0.27l-0.032,-0.275l-0.024,-0.271l-0.024,-0.274l-0.018,-0.278l-0.017,-0.274l-0.014,-0.278l-0.014,-0.559l0,-0.555l0.014,-0.559l0.014,-0.278l0.017,-0.274l0.018,-0.278l0.024,-0.275l0.024,-0.27l0.032,-0.275l0.031,-0.271l0.035,-0.27l0.083,-0.542l0.049,-0.267l0.048,-0.264l0.052,-0.268l0.056,-0.264l0.059,-0.263l0.062,-0.261l0.066,-0.264l0.07,-0.257l0.069,-0.26l0.077,-0.257l0.076,-0.254l0.083,-0.256l0.084,-0.254l0.087,-0.25l0.18,-0.5l0.195,-0.493l0.208,-0.486l0.107,-0.243l0.112,-0.24l0.111,-0.236l0.114,-0.236l0.122,-0.236l0.118,-0.233l0.125,-0.232l0.257,-0.459l0.132,-0.225l0.135,-0.223l0.136,-0.225l0.427,-0.657l0.149,-0.215l0.149,-0.212l0.306,-0.423l0.16,-0.209l0.159,-0.205l0.164,-0.204l0.163,-0.202l0.166,-0.198l0.171,-0.198l0.17,-0.194l0.173,-0.195l0.354,-0.381l0.181,-0.188l0.368,-0.368l0.188,-0.181l0.382,-0.354l0.19,-0.173l0.396,-0.341l0.198,-0.166l0.202,-0.164l0.205,-0.163l0.204,-0.159l0.417,-0.313l0.212,-0.153l0.43,-0.298l0.657,-0.427l0.222,-0.136l0.226,-0.135l0.225,-0.132l0.459,-0.257l0.465,-0.243l0.472,-0.236l0.236,-0.111l0.24,-0.112l0.243,-0.107l0.243,-0.104l0.243,-0.101l0.247,-0.101l0.246,-0.093l0.25,-0.094l0.25,-0.091l0.25,-0.086l0.507,-0.167l0.514,-0.153l0.26,-0.069l0.257,-0.07l0.261,-0.066l0.264,-0.062l0.263,-0.059l0.264,-0.056l0.264,-0.052l0.535,-0.097l0.271,-0.042l0.267,-0.038l0.271,-0.038l0.274,-0.031l0.271,-0.032l0.549,-0.048l0.278,-0.018l0.274,-0.017l0.555,-0.021l0.559,-0.007Zm-0.232,3.646l-0.465,0.014l-0.233,0.01l-0.458,0.028l-0.23,0.021l-0.225,0.021l-0.229,0.024l-0.226,0.028l-0.226,0.031l-0.222,0.031l-0.226,0.035l-0.222,0.038l-0.222,0.042l-0.219,0.045l-0.222,0.045l-0.219,0.049l-0.215,0.052l-0.219,0.056l-0.215,0.055l-0.216,0.059l-0.211,0.063l-0.424,0.132l-0.212,0.069l-0.208,0.073l-0.417,0.153l-0.205,0.08l-0.205,0.083l-0.201,0.083l-0.201,0.087l-0.202,0.09l-0.198,0.091l-0.198,0.093l-0.197,0.098l-0.195,0.097l-0.194,0.101l-0.382,0.208l-0.191,0.108l-0.375,0.222l-0.188,0.114l-0.184,0.118l-0.361,0.237l-0.18,0.125l-0.355,0.25l-0.173,0.128l-0.174,0.132l-0.17,0.132l-0.17,0.135l-0.5,0.417l-0.163,0.146l-0.16,0.142l-0.16,0.149l-0.156,0.146l-0.156,0.153l-0.157,0.149l-0.152,0.157l-0.299,0.312l-0.146,0.16l-0.146,0.163l-0.142,0.16l-0.417,0.5l-0.135,0.17l-0.132,0.17l-0.132,0.174l-0.128,0.173l-0.25,0.354l-0.125,0.181l-0.118,0.181l-0.122,0.184l-0.229,0.368l-0.222,0.375l-0.108,0.191l-0.208,0.382l-0.101,0.194l-0.097,0.195l-0.098,0.197l-0.187,0.396l-0.174,0.403l-0.086,0.205l-0.08,0.201l-0.08,0.209l-0.077,0.205l-0.076,0.208l-0.073,0.208l-0.069,0.212l-0.132,0.424l-0.063,0.211l-0.059,0.216l-0.055,0.215l-0.056,0.219l-0.052,0.215l-0.049,0.219l-0.045,0.222l-0.045,0.219l-0.042,0.222l-0.038,0.222l-0.034,0.226l-0.035,0.222l-0.056,0.452l-0.024,0.229l-0.024,0.225l-0.035,0.459l-0.01,0.232l-0.011,0.23l-0.014,0.465l0,0.465l0.014,0.465l0.011,0.23l0.01,0.232l0.035,0.459l0.024,0.225l0.024,0.229l0.056,0.452l0.035,0.222l0.034,0.226l0.038,0.222l0.042,0.222l0.09,0.438l0.049,0.218l0.052,0.219l0.056,0.219l0.055,0.215l0.059,0.215l0.063,0.212l0.132,0.424l0.069,0.212l0.073,0.208l0.076,0.208l0.077,0.205l0.08,0.209l0.08,0.201l0.086,0.205l0.174,0.403l0.187,0.395l0.098,0.198l0.097,0.195l0.101,0.194l0.208,0.382l0.108,0.191l0.222,0.375l0.229,0.368l0.122,0.184l0.118,0.181l0.125,0.18l0.125,0.177l0.125,0.174l0.128,0.177l0.132,0.174l0.132,0.17l0.135,0.17l0.417,0.5l0.142,0.16l0.146,0.163l0.146,0.16l0.299,0.312l0.152,0.153l0.313,0.306l0.156,0.145l0.16,0.15l0.16,0.142l0.163,0.146l0.5,0.417l0.17,0.132l0.17,0.135l0.174,0.132l0.173,0.128l0.355,0.25l0.18,0.125l0.361,0.236l0.184,0.119l0.188,0.114l0.375,0.222l0.191,0.108l0.382,0.208l0.194,0.101l0.195,0.097l0.197,0.097l0.198,0.094l0.198,0.09l0.202,0.091l0.201,0.087l0.201,0.083l0.205,0.083l0.205,0.08l0.417,0.153l0.208,0.073l0.212,0.069l0.424,0.132l0.211,0.063l0.216,0.059l0.215,0.055l0.219,0.056l0.215,0.052l0.219,0.049l0.222,0.045l0.219,0.045l0.222,0.041l0.222,0.039l0.226,0.034l0.222,0.032l0.226,0.031l0.226,0.028l0.229,0.024l0.225,0.021l0.23,0.021l0.458,0.027l0.233,0.011l0.465,0.014l0.465,-0l0.465,-0.014l0.23,-0.011l0.232,-0.013l0.229,-0.014l0.226,-0.021l0.229,-0.021l0.226,-0.024l0.229,-0.028l0.222,-0.031l0.226,-0.032l0.226,-0.034l0.222,-0.039l0.219,-0.041l0.222,-0.045l0.219,-0.045l0.218,-0.049l0.219,-0.052l0.215,-0.056l0.219,-0.055l0.212,-0.059l0.215,-0.063l0.424,-0.132l0.212,-0.069l0.208,-0.073l0.208,-0.077l0.205,-0.076l0.205,-0.08l0.41,-0.166l0.201,-0.087l0.202,-0.091l0.198,-0.09l0.197,-0.094l0.198,-0.097l0.195,-0.097l0.194,-0.101l0.382,-0.208l0.191,-0.108l0.375,-0.222l0.184,-0.114l0.368,-0.237l0.181,-0.118l0.177,-0.125l0.181,-0.125l0.173,-0.125l0.177,-0.128l0.17,-0.132l0.174,-0.135l0.17,-0.132l0.333,-0.278l0.164,-0.139l0.163,-0.146l0.163,-0.142l0.16,-0.15l0.156,-0.145l0.156,-0.153l0.306,-0.306l0.298,-0.312l0.15,-0.16l0.142,-0.163l0.142,-0.16l0.143,-0.167l0.139,-0.166l0.135,-0.167l0.271,-0.34l0.128,-0.174l0.132,-0.177l0.125,-0.174l0.125,-0.177l0.243,-0.361l0.237,-0.368l0.114,-0.184l0.222,-0.375l0.108,-0.191l0.208,-0.382l0.101,-0.194l0.097,-0.195l0.097,-0.198l0.094,-0.197l0.091,-0.198l0.09,-0.202l0.087,-0.201l0.083,-0.205l0.083,-0.201l0.08,-0.209l0.077,-0.205l0.076,-0.208l0.069,-0.208l0.073,-0.212l0.132,-0.424l0.059,-0.212l0.063,-0.215l0.055,-0.215l0.056,-0.219l0.052,-0.219l0.049,-0.218l0.09,-0.438l0.042,-0.222l0.038,-0.222l0.034,-0.226l0.032,-0.222l0.031,-0.226l0.028,-0.226l0.024,-0.229l0.021,-0.225l0.021,-0.23l0.014,-0.229l0.013,-0.232l0.011,-0.23l0.007,-0.232l0.007,-0.466l-0.007,-0.465l-0.007,-0.232l-0.011,-0.23l-0.013,-0.232l-0.014,-0.229l-0.021,-0.23l-0.021,-0.225l-0.024,-0.229l-0.028,-0.226l-0.031,-0.226l-0.032,-0.222l-0.034,-0.226l-0.038,-0.222l-0.042,-0.222l-0.045,-0.219l-0.045,-0.222l-0.049,-0.219l-0.052,-0.215l-0.056,-0.219l-0.055,-0.215l-0.063,-0.216l-0.059,-0.211l-0.132,-0.424l-0.073,-0.212l-0.069,-0.208l-0.076,-0.208l-0.077,-0.205l-0.08,-0.209l-0.083,-0.201l-0.083,-0.205l-0.087,-0.201l-0.09,-0.202l-0.091,-0.198l-0.094,-0.198l-0.097,-0.197l-0.097,-0.195l-0.101,-0.194l-0.208,-0.382l-0.108,-0.191l-0.222,-0.375l-0.114,-0.184l-0.237,-0.368l-0.243,-0.362l-0.25,-0.354l-0.132,-0.173l-0.128,-0.174l-0.271,-0.34l-0.135,-0.167l-0.139,-0.167l-0.143,-0.166l-0.142,-0.16l-0.142,-0.163l-0.15,-0.16l-0.298,-0.312l-0.153,-0.157l-0.309,-0.302l-0.156,-0.146l-0.16,-0.149l-0.163,-0.142l-0.163,-0.146l-0.164,-0.139l-0.333,-0.278l-0.17,-0.135l-0.174,-0.132l-0.17,-0.132l-0.177,-0.128l-0.173,-0.125l-0.181,-0.125l-0.177,-0.125l-0.181,-0.119l-0.368,-0.236l-0.184,-0.114l-0.375,-0.222l-0.191,-0.108l-0.382,-0.208l-0.194,-0.101l-0.195,-0.097l-0.198,-0.098l-0.197,-0.093l-0.198,-0.091l-0.202,-0.09l-0.201,-0.087l-0.41,-0.166l-0.205,-0.08l-0.205,-0.077l-0.208,-0.076l-0.208,-0.073l-0.212,-0.069l-0.424,-0.132l-0.215,-0.063l-0.212,-0.059l-0.219,-0.055l-0.215,-0.056l-0.219,-0.052l-0.218,-0.049l-0.219,-0.045l-0.222,-0.045l-0.219,-0.042l-0.222,-0.038l-0.226,-0.035l-0.226,-0.031l-0.222,-0.031l-0.229,-0.028l-0.226,-0.024l-0.229,-0.021l-0.226,-0.021l-0.229,-0.014l-0.232,-0.014l-0.23,-0.01l-0.465,-0.014l-0.465,0Z" style="fill:#af2b50;"/><path d="M51.737,70.135l0.694,-0l0.695,0.014l0.52,0.02l0.171,0.007l0.173,0.011l0.17,0.01l0.174,0.011l0.17,0.01l0.174,0.014l0.51,0.042l0.681,0.069l0.17,0.021l0.166,0.017l0.171,0.021l0.17,0.024l0.166,0.021l0.167,0.024l0.17,0.025l0.334,0.048l0.5,0.084l0.166,0.031l0.167,0.028l0.163,0.031l0.333,0.062l0.327,0.07l0.166,0.035l0.327,0.069l0.653,0.153l0.159,0.042l0.164,0.038l0.159,0.041l0.164,0.046l0.159,0.041l0.16,0.045l0.163,0.045l0.32,0.091l0.156,0.048l0.16,0.046l0.159,0.048l0.16,0.052l0.156,0.049l0.157,0.052l0.159,0.049l0.157,0.055l0.312,0.104l0.313,0.111l0.152,0.056l0.157,0.055l0.156,0.059l0.458,0.178l0.156,0.059l0.153,0.062l0.149,0.059l0.153,0.063l0.153,0.066l0.149,0.062l0.153,0.066l0.149,0.063l0.153,0.069l0.299,0.132l0.149,0.069l0.146,0.07l0.299,0.139l0.145,0.069l0.15,0.073l0.583,0.292l0.146,0.076l0.142,0.077l0.146,0.076l0.285,0.153l0.146,0.08l0.142,0.079l0.142,0.077l0.143,0.083l0.139,0.08l0.281,0.163l0.281,0.167l0.278,0.17l0.274,0.17l0.275,0.174l0.274,0.177l0.271,0.18l0.267,0.181l0.267,0.184l0.268,0.188l0.264,0.191l0.26,0.19l0.26,0.195l0.514,0.396l0.254,0.201l0.25,0.202l0.5,0.416l0.246,0.209l0.243,0.215l0.48,0.43l0.239,0.223l0.236,0.222l0.233,0.222l0.233,0.226l0.229,0.229l0.451,0.465l0.222,0.233l0.219,0.239l0.219,0.237l0.43,0.486l0.212,0.246l0.209,0.247l0.409,0.5l0.403,0.507l0.198,0.257l0.194,0.26l0.191,0.26l0.191,0.264l0.188,0.264l0.368,0.535l0.181,0.271l0.177,0.274l0.173,0.271l0.174,0.278l0.17,0.278l0.167,0.277l0.166,0.282l0.08,0.142l0.08,0.139l0.24,0.427l0.076,0.146l0.08,0.142l0.076,0.142l0.077,0.146l0.073,0.146l0.076,0.146l0.073,0.142l0.073,0.15l0.219,0.437l0.138,0.299l0.07,0.146l0.069,0.149l0.066,0.149l0.07,0.15l0.066,0.149l0.066,0.153l0.062,0.149l0.066,0.149l0.25,0.611l0.059,0.153l0.063,0.153l0.118,0.305l0.055,0.157l0.059,0.152l0.223,0.625l-0.209,0.16l-0.208,0.163l-0.212,0.16l-0.208,0.16l-0.212,0.16l-0.212,0.156l-0.215,0.156l-0.212,0.156l-0.646,0.459l-0.219,0.149l-0.218,0.153l-0.219,0.149l-0.438,0.292l-0.444,0.291l-0.444,0.285l-0.226,0.142l-0.222,0.139l-0.452,0.278l-0.229,0.136l-0.226,0.135l-0.229,0.135l-0.229,0.132l-0.233,0.136l-0.229,0.128l-0.232,0.132l-0.466,0.257l-0.232,0.125l-0.236,0.125l-0.233,0.125l-0.472,0.243l-0.24,0.122l-0.236,0.121l-0.24,0.118l-0.239,0.115l-0.24,0.118l-0.239,0.115l-0.243,0.111l-0.24,0.114l-0.243,0.111l-0.243,0.108l-0.247,0.111l-0.243,0.108l-0.246,0.104l-0.247,0.108l-0.246,0.1l-0.247,0.104l-0.246,0.101l-0.25,0.101l-0.247,0.101l-0.25,0.097l-0.25,0.093l-0.253,0.098l-0.25,0.093l-0.254,0.091l-0.253,0.093l-0.254,0.091l-0.507,0.173l-0.257,0.087l-0.253,0.087l-0.514,0.167l-0.257,0.08l-0.26,0.079l-0.257,0.077l-0.261,0.08l-0.26,0.076l-0.781,0.219l-0.264,0.069l-0.261,0.07l-0.264,0.069l-0.527,0.132l-0.264,0.063l-0.268,0.062l-0.264,0.059l-0.267,0.063l-0.267,0.059l-0.264,0.055l-0.271,0.056l-0.267,0.055l-0.268,0.052l-0.271,0.052l-0.267,0.049l-0.542,0.097l-0.27,0.045l-0.275,0.046l-0.541,0.083l-0.275,0.042l-0.548,0.076l-0.823,0.104l-0.278,0.031l-0.274,0.032l-0.278,0.027l-0.275,0.028l-0.277,0.028l-0.278,0.024l-0.278,0.021l-0.281,0.024l-0.278,0.018l-0.281,0.021l-0.278,0.017l-0.844,0.042l-0.843,0.031l-0.282,0.007l-0.569,0.007l-0.281,0.003l-0.57,0l-0.851,-0.01l-0.281,-0.007l-0.844,-0.031l-0.843,-0.042l-0.278,-0.017l-0.281,-0.021l-0.278,-0.018l-0.281,-0.024l-0.278,-0.021l-0.278,-0.024l-0.278,-0.028l-0.274,-0.028l-0.278,-0.027l-0.274,-0.032l-0.278,-0.031l-0.823,-0.104l-0.548,-0.076l-0.275,-0.042l-0.541,-0.083l-0.275,-0.046l-0.271,-0.045l-0.541,-0.097l-0.268,-0.049l-0.27,-0.052l-0.268,-0.052l-0.267,-0.055l-0.271,-0.056l-0.264,-0.055l-0.267,-0.059l-0.268,-0.063l-0.264,-0.059l-0.267,-0.062l-0.264,-0.063l-0.528,-0.132l-0.263,-0.069l-0.261,-0.07l-0.264,-0.069l-0.781,-0.219l-0.26,-0.076l-0.261,-0.08l-0.257,-0.077l-0.26,-0.079l-0.257,-0.08l-0.514,-0.167l-0.254,-0.087l-0.256,-0.087l-0.507,-0.173l-0.254,-0.091l-0.253,-0.093l-0.254,-0.091l-0.25,-0.093l-0.253,-0.098l-0.25,-0.093l-0.25,-0.097l-0.247,-0.101l-0.25,-0.101l-0.246,-0.101l-0.247,-0.104l-0.246,-0.1l-0.247,-0.108l-0.247,-0.104l-0.243,-0.108l-0.246,-0.111l-0.243,-0.108l-0.243,-0.111l-0.24,-0.114l-0.243,-0.111l-0.239,-0.115l-0.24,-0.118l-0.24,-0.115l-0.239,-0.118l-0.236,-0.121l-0.24,-0.122l-0.472,-0.243l-0.233,-0.125l-0.236,-0.125l-0.233,-0.125l-0.465,-0.257l-0.232,-0.132l-0.23,-0.128l-0.232,-0.136l-0.229,-0.132l-0.23,-0.135l-0.225,-0.135l-0.229,-0.136l-0.452,-0.278l-0.222,-0.139l-0.226,-0.142l-0.444,-0.285l-0.445,-0.291l-0.437,-0.292l-0.219,-0.149l-0.219,-0.153l-0.218,-0.149l-0.646,-0.459l-0.212,-0.156l-0.215,-0.156l-0.212,-0.156l-0.212,-0.16l-0.208,-0.16l-0.212,-0.16l-0.208,-0.163l-0.209,-0.16l0.222,-0.625l0.059,-0.152l0.056,-0.157l0.118,-0.305l0.063,-0.153l0.059,-0.153l0.25,-0.611l0.066,-0.149l0.062,-0.149l0.066,-0.153l0.066,-0.149l0.069,-0.15l0.066,-0.149l0.07,-0.149l0.069,-0.146l0.139,-0.299l0.219,-0.437l0.073,-0.15l0.073,-0.142l0.076,-0.146l0.073,-0.146l0.076,-0.146l0.077,-0.142l0.08,-0.142l0.076,-0.146l0.24,-0.427l0.08,-0.139l0.079,-0.142l0.167,-0.282l0.167,-0.277l0.17,-0.278l0.174,-0.278l0.173,-0.271l0.177,-0.274l0.181,-0.271l0.368,-0.535l0.187,-0.264l0.191,-0.264l0.191,-0.26l0.195,-0.26l0.198,-0.257l0.402,-0.507l0.41,-0.5l0.209,-0.247l0.211,-0.246l0.431,-0.486l0.219,-0.237l0.218,-0.239l0.223,-0.233l0.451,-0.465l0.229,-0.229l0.233,-0.226l0.232,-0.222l0.237,-0.222l0.239,-0.223l0.479,-0.43l0.243,-0.215l0.247,-0.209l0.5,-0.416l0.25,-0.202l0.253,-0.201l0.514,-0.396l0.261,-0.195l0.26,-0.19l0.264,-0.191l0.267,-0.188l0.268,-0.184l0.267,-0.181l0.271,-0.18l0.274,-0.177l0.275,-0.174l0.274,-0.17l0.278,-0.17l0.281,-0.167l0.281,-0.163l0.139,-0.08l0.142,-0.083l0.143,-0.077l0.142,-0.079l0.146,-0.08l0.285,-0.153l0.146,-0.076l0.142,-0.077l0.146,-0.076l0.583,-0.292l0.149,-0.073l0.146,-0.069l0.299,-0.139l0.146,-0.07l0.149,-0.069l0.299,-0.132l0.152,-0.069l0.15,-0.063l0.152,-0.066l0.15,-0.062l0.153,-0.066l0.152,-0.063l0.15,-0.059l0.152,-0.062l0.157,-0.059l0.458,-0.178l0.156,-0.059l0.156,-0.055l0.153,-0.056l0.313,-0.111l0.312,-0.104l0.157,-0.055l0.159,-0.049l0.157,-0.052l0.156,-0.049l0.159,-0.052l0.16,-0.048l0.16,-0.046l0.156,-0.048l0.32,-0.091l0.163,-0.045l0.16,-0.045l0.159,-0.041l0.163,-0.046l0.16,-0.041l0.163,-0.038l0.16,-0.042l0.653,-0.153l0.326,-0.069l0.167,-0.035l0.326,-0.07l0.334,-0.062l0.163,-0.031l0.167,-0.028l0.166,-0.031l0.5,-0.084l0.334,-0.048l0.17,-0.025l0.166,-0.024l0.167,-0.021l0.17,-0.024l0.17,-0.021l0.167,-0.017l0.17,-0.021l0.681,-0.069l0.51,-0.042l0.174,-0.014l0.17,-0.01l0.173,-0.011l0.171,-0.01l0.173,-0.011l0.344,-0.014l0.347,-0.013l0.695,-0.014Zm0.659,3.646l-0.625,-0l-0.621,0.013l-0.153,0.004l-0.465,0.021l-0.153,0.01l-0.153,0.007l-0.458,0.031l-0.153,0.014l-0.153,0.011l-0.458,0.041l-0.149,0.018l-0.306,0.034l-0.298,0.035l-0.153,0.021l-0.597,0.083l-0.747,0.122l-0.146,0.028l-0.149,0.027l-0.146,0.028l-0.149,0.028l-0.146,0.031l-0.146,0.028l-0.146,0.031l-0.149,0.031l-0.146,0.035l-0.146,0.031l-0.142,0.035l-0.438,0.104l-0.142,0.038l-0.146,0.039l-0.142,0.034l-0.143,0.042l-0.145,0.038l-0.143,0.038l-0.569,0.167l-0.139,0.045l-0.142,0.042l-0.139,0.045l-0.143,0.045l-0.139,0.045l-0.142,0.049l-0.139,0.049l-0.139,0.045l-0.139,0.048l-0.139,0.052l-0.277,0.098l-0.136,0.052l-0.278,0.104l-0.135,0.055l-0.135,0.053l-0.139,0.055l-0.542,0.222l-0.132,0.059l-0.271,0.118l-0.264,0.118l-0.135,0.063l-0.132,0.059l-0.396,0.187l-0.132,0.066l-0.128,0.063l-0.132,0.066l-0.129,0.066l-0.132,0.066l-0.128,0.066l-0.257,0.139l-0.128,0.066l-0.257,0.139l-0.129,0.073l-0.125,0.069l-0.128,0.073l-0.122,0.069l-0.253,0.15l-0.5,0.298l-0.247,0.153l-0.243,0.156l-0.486,0.32l-0.24,0.159l-0.239,0.167l-0.236,0.167l-0.236,0.17l-0.233,0.17l-0.233,0.174l-0.229,0.173l-0.229,0.181l-0.226,0.177l-0.451,0.368l-0.219,0.184l-0.222,0.191l-0.215,0.188l-0.219,0.194l-0.424,0.389l-0.212,0.198l-0.416,0.403l-0.205,0.204l-0.202,0.205l-0.201,0.209l-0.396,0.423l-0.194,0.212l-0.195,0.215l-0.191,0.219l-0.187,0.219l-0.188,0.222l-0.184,0.222l-0.541,0.677l-0.177,0.233l-0.174,0.229l-0.17,0.233l-0.17,0.236l-0.167,0.236l-0.167,0.24l-0.163,0.239l-0.16,0.24l-0.159,0.243l-0.157,0.246l-0.305,0.493l-0.149,0.25l-0.15,0.254l-0.069,0.121l-0.073,0.125l-0.073,0.129l-0.069,0.128l-0.07,0.125l-0.208,0.386l-0.066,0.128l-0.07,0.129l-0.066,0.132l-0.066,0.128l-0.066,0.132l-0.066,0.129l-0.125,0.263l-0.066,0.132l-0.062,0.132l-0.059,0.132l-0.063,0.132l-0.059,0.132l-0.062,0.136l-0,0.007l0.208,0.145l0.205,0.139l0.201,0.139l0.205,0.139l0.41,0.271l0.208,0.135l0.205,0.132l0.625,0.396l0.212,0.129l0.208,0.128l0.212,0.125l0.212,0.129l0.212,0.125l0.215,0.121l0.215,0.125l0.212,0.122l0.215,0.121l0.219,0.118l0.431,0.236l0.219,0.118l0.437,0.23l0.222,0.114l0.219,0.111l0.444,0.222l0.445,0.216l0.226,0.107l0.222,0.105l0.451,0.208l0.226,0.101l0.226,0.104l0.229,0.097l0.229,0.101l0.226,0.097l0.229,0.097l0.232,0.094l0.23,0.094l0.232,0.093l0.229,0.094l0.233,0.09l0.233,0.087l0.232,0.09l0.237,0.087l0.232,0.087l0.945,0.333l0.236,0.08l0.239,0.077l0.236,0.08l0.48,0.152l0.479,0.146l0.243,0.073l0.239,0.07l0.243,0.069l0.244,0.066l0.243,0.069l0.243,0.063l0.243,0.066l0.246,0.062l0.243,0.063l0.247,0.059l0.246,0.062l0.247,0.056l0.246,0.059l0.247,0.056l0.246,0.052l0.25,0.055l0.25,0.049l0.247,0.052l0.5,0.097l0.253,0.045l0.25,0.045l0.254,0.046l0.25,0.041l0.507,0.084l0.507,0.076l0.507,0.069l0.257,0.035l0.253,0.031l0.514,0.063l0.514,0.055l0.257,0.025l0.26,0.024l0.257,0.024l0.261,0.021l0.257,0.021l0.781,0.052l0.521,0.028l0.264,0.01l0.26,0.011l0.264,0.01l0.524,0.014l0.792,0.01l0.528,0l0.791,-0.01l0.264,-0.007l0.261,-0.007l0.264,-0.01l0.26,-0.011l0.264,-0.01l0.521,-0.028l0.781,-0.052l0.257,-0.021l0.26,-0.021l0.257,-0.024l0.261,-0.024l0.257,-0.025l0.514,-0.055l0.514,-0.063l0.253,-0.031l0.257,-0.035l0.507,-0.069l0.507,-0.076l0.507,-0.084l0.25,-0.041l0.253,-0.046l0.25,-0.045l0.254,-0.045l0.5,-0.097l0.246,-0.052l0.25,-0.049l0.25,-0.055l0.247,-0.052l0.246,-0.056l0.247,-0.059l0.246,-0.056l0.247,-0.062l0.246,-0.059l0.244,-0.063l0.246,-0.062l0.243,-0.066l0.243,-0.063l0.243,-0.069l0.243,-0.066l0.243,-0.069l0.24,-0.07l0.243,-0.073l0.479,-0.146l0.479,-0.152l0.236,-0.08l0.24,-0.077l0.236,-0.08l0.945,-0.333l0.232,-0.087l0.236,-0.087l0.233,-0.09l0.233,-0.087l0.232,-0.09l0.229,-0.094l0.233,-0.093l0.229,-0.094l0.233,-0.094l0.229,-0.097l0.226,-0.097l0.229,-0.101l0.229,-0.097l0.226,-0.104l0.226,-0.101l0.451,-0.208l0.222,-0.105l0.226,-0.107l0.444,-0.216l0.445,-0.222l0.218,-0.111l0.223,-0.114l0.437,-0.23l0.219,-0.118l0.431,-0.236l0.218,-0.118l0.216,-0.121l0.211,-0.122l0.216,-0.125l0.215,-0.121l0.212,-0.125l0.212,-0.129l0.211,-0.125l0.209,-0.128l0.211,-0.129l0.626,-0.396l0.204,-0.132l0.209,-0.135l0.409,-0.271l0.205,-0.139l0.202,-0.139l0.205,-0.139l0.201,-0.138l0.007,-0.007l-0,-0.007l-0.063,-0.136l-0.059,-0.132l-0.062,-0.132l-0.059,-0.132l-0.063,-0.132l-0.066,-0.132l-0.125,-0.263l-0.066,-0.129l-0.066,-0.132l-0.066,-0.128l-0.066,-0.132l-0.069,-0.129l-0.066,-0.128l-0.208,-0.386l-0.07,-0.125l-0.069,-0.128l-0.073,-0.129l-0.073,-0.125l-0.069,-0.121l-0.15,-0.254l-0.149,-0.25l-0.306,-0.493l-0.156,-0.246l-0.16,-0.243l-0.159,-0.24l-0.164,-0.239l-0.166,-0.24l-0.167,-0.236l-0.17,-0.236l-0.17,-0.233l-0.174,-0.229l-0.177,-0.233l-0.542,-0.677l-0.184,-0.222l-0.187,-0.222l-0.188,-0.219l-0.191,-0.219l-0.194,-0.215l-0.194,-0.212l-0.396,-0.423l-0.202,-0.209l-0.201,-0.205l-0.205,-0.204l-0.417,-0.403l-0.211,-0.198l-0.424,-0.389l-0.219,-0.194l-0.215,-0.188l-0.222,-0.191l-0.219,-0.184l-0.451,-0.368l-0.226,-0.177l-0.229,-0.181l-0.229,-0.173l-0.233,-0.174l-0.233,-0.17l-0.236,-0.17l-0.236,-0.167l-0.24,-0.167l-0.239,-0.159l-0.486,-0.32l-0.243,-0.156l-0.247,-0.153l-0.5,-0.298l-0.253,-0.15l-0.122,-0.069l-0.128,-0.073l-0.125,-0.069l-0.129,-0.073l-0.257,-0.139l-0.128,-0.066l-0.257,-0.139l-0.129,-0.066l-0.132,-0.066l-0.128,-0.066l-0.132,-0.066l-0.128,-0.063l-0.132,-0.066l-0.396,-0.187l-0.132,-0.059l-0.136,-0.063l-0.264,-0.118l-0.27,-0.118l-0.132,-0.059l-0.542,-0.222l-0.139,-0.055l-0.135,-0.053l-0.136,-0.055l-0.277,-0.104l-0.136,-0.052l-0.278,-0.098l-0.139,-0.052l-0.138,-0.048l-0.139,-0.045l-0.139,-0.049l-0.143,-0.049l-0.138,-0.045l-0.143,-0.045l-0.139,-0.045l-0.142,-0.042l-0.142,-0.045l-0.139,-0.042l-0.427,-0.125l-0.143,-0.038l-0.146,-0.038l-0.142,-0.042l-0.142,-0.034l-0.146,-0.039l-0.143,-0.038l-0.437,-0.104l-0.142,-0.035l-0.146,-0.031l-0.146,-0.035l-0.149,-0.031l-0.146,-0.031l-0.146,-0.028l-0.146,-0.031l-0.149,-0.028l-0.146,-0.028l-0.149,-0.027l-0.146,-0.028l-0.747,-0.122l-0.597,-0.083l-0.153,-0.021l-0.298,-0.035l-0.306,-0.034l-0.149,-0.018l-0.459,-0.041l-0.152,-0.011l-0.153,-0.014l-0.458,-0.031l-0.153,-0.007l-0.153,-0.01l-0.465,-0.021l-0.618,-0.014l-0.157,-0.003Z" style="fill:#af2b50;"/></g></svg>