<?xml version="1.0" encoding="UTF-8" standalone="no"?><!DOCTYPE svg PUBLIC "-//W3C//DTD SVG 1.1//EN" "http://www.w3.org/Graphics/SVG/1.1/DTD/svg11.dtd"><svg width="100%" height="100%" viewBox="0 0 150 167" version="1.1" xmlns="http://www.w3.org/2000/svg" xmlns:xlink="http://www.w3.org/1999/xlink" xml:space="preserve" xmlns:serif="http://www.serif.com/" style="fill-rule:evenodd;clip-rule:evenodd;stroke-linejoin:round;stroke-miterlimit:2;"><g><path d="M147.917,78.708c-0,14.405 -0,40.016 -0.167,55.731c-0,4.633 -1.915,9.068 -5.294,12.244c-3.373,3.181 -7.913,4.824 -12.441,4.546c-17.574,-0.686 -35.13,4.114 -52.705,14.208c-1.433,0.821 -3.2,0.821 -4.626,-0.006c-1.434,-0.828 -2.317,-2.36 -2.317,-4.009l0,-80.089c0,-1.655 0.89,-3.187 2.329,-4.015c19.823,-11.397 39.664,-16.617 59.499,-15.555l0.136,0.007c8.809,0.729 15.592,8.092 15.586,16.938Zm-16.302,-7.697c-17.34,-0.908 -34.655,3.527 -51.982,13.034l-0,69.63c16.913,-8.463 33.845,-12.367 50.845,-11.7c2.076,0.124 4.114,-0.611 5.628,-2.038c1.519,-1.427 2.378,-3.416 2.378,-5.547c0.167,-15.74 0.167,-41.302 0.167,-55.682l-0,-0.006c0.006,-4.003 -3.058,-7.339 -7.036,-7.691Z" style="fill:#af2b50;"/><path d="M2.083,78.708c0,-8.846 6.777,-16.209 15.592,-16.938l0.136,-0.007c19.835,-1.062 39.676,4.158 59.499,15.555c1.44,0.828 2.323,2.36 2.323,4.015l-0,80.089c-0,1.649 -0.877,3.181 -2.31,4.009c-1.433,0.827 -3.194,0.827 -4.627,0.006c-17.575,-10.094 -35.13,-14.894 -52.606,-14.214c-4.627,0.284 -9.167,-1.359 -12.546,-4.54c-3.373,-3.176 -5.288,-7.611 -5.288,-12.194c-0.173,-15.765 -0.173,-41.376 -0.173,-55.781Zm68.284,5.337c-17.321,-9.507 -34.636,-13.942 -51.976,-13.034c-3.984,0.352 -7.042,3.688 -7.042,7.691l0,0.006c0,14.38 0,39.942 0.173,55.731c0,2.082 0.859,4.071 2.372,5.498c1.52,1.427 3.558,2.162 5.733,2.032c16.913,-0.661 33.833,3.243 50.74,11.706l0,-69.63Zm-68.284,-5.337l0,-0Z" style="fill:#af2b50;"/><path d="M75,0.614c-16.252,0 -29.447,13.201 -29.447,29.454c-0,16.252 13.195,29.453 29.447,29.453c16.259,0 29.453,-13.201 29.453,-29.453c0,-16.253 -13.194,-29.454 -29.453,-29.454Zm-0,9.266c11.144,0 20.187,9.05 20.187,20.188c0,11.144 -9.043,20.187 -20.187,20.187c-11.138,0 -20.181,-9.043 -20.181,-20.187c-0,-11.138 9.043,-20.188 20.181,-20.188Z" style="fill:#af2b50;"/></g></svg>