<svg width="13" height="17" viewBox="0 0 13 17" fill="none" xmlns="http://www.w3.org/2000/svg">
<path d="M8.11925 5.10519L8.11935 5.10519C8.59521 5.10526 9.03788 4.86713 9.27898 4.47573L9.27899 4.47571C9.5206 4.08335 9.52123 3.59894 9.28063 3.20612C9.04056 2.81416 8.59849 2.57503 8.12264 2.574L8.12254 2.574L7.60735 2.57341L7.60778 2.243L7.60778 2.24286C7.60772 1.7906 7.35096 1.37611 6.93974 1.15266L6.93971 1.15264C6.52889 0.929606 6.0236 0.929028 5.6122 1.15112L5.61217 1.15114C5.20036 1.37364 4.94255 1.78756 4.9413 2.2398L4.9413 2.23995L4.94087 2.57036L4.42568 2.56977L4.42558 2.56977C3.94973 2.5697 3.50706 2.80783 3.26595 3.19923C3.02432 3.5915 3.02371 4.07591 3.2643 4.46882L3.2643 4.46883C3.50438 4.86079 3.94641 5.09992 4.42227 5.10096L4.42237 5.10096L8.11925 5.10519ZM8.12992 3.56574C8.29581 3.57019 8.41856 3.69664 8.41838 3.83927C8.41819 3.98434 8.29085 4.11233 8.12054 4.11213L4.42366 4.1079C4.25335 4.1077 4.12634 3.97942 4.12653 3.83436C4.12672 3.69172 4.24979 3.56556 4.4157 3.56148L4.42437 3.56149L8.12125 3.56573L8.12992 3.56574Z" fill="#BC2753" stroke="#BC2753" stroke-width="0.2"/>
<path d="M11.919 3.21469L11.9189 3.22416C12.1549 3.26879 12.3393 3.46531 12.3398 3.71073L12.3398 3.71106L12.3237 16.1095L12.3237 16.11C12.3218 16.3887 12.0827 16.6032 11.8018 16.6034L11.8016 16.6034L3.47837 16.5939C3.34199 16.5937 3.21024 16.5427 3.11215 16.4504L3.08059 16.4208L3.08059 16.4206L0.346049 13.8461L0.345994 13.846L0.414548 13.7732L11.919 3.21469ZM11.919 3.21469L11.819 3.21458M11.919 3.21469L11.819 3.21458M11.819 3.21458L10.2775 3.21281L10.1457 3.21266M11.819 3.21458L10.1457 3.21266M10.1457 3.21266L10.1811 3.33962M10.1457 3.21266L10.1811 3.33962M10.1811 3.33962C10.2266 3.50354 10.2499 3.67209 10.2503 3.84145C10.2498 4.01054 10.2257 4.17891 10.1785 4.3423L10.1417 4.46988M10.1811 3.33962L10.1417 4.46988M10.1417 4.46988L10.2745 4.47003L11.0131 4.47088M10.1417 4.46988L11.0131 4.47088M11.0131 4.47088L10.999 15.3467L4.11819 15.3389L4.12072 13.3934C4.12089 13.2599 4.06459 13.133 3.9663 13.0405L3.96624 13.0404C3.86815 12.9482 3.7364 12.8972 3.60002 12.897L1.5179 12.8946L1.52885 4.46005L2.26607 4.46089L2.39797 4.46104L2.36252 4.334C2.31681 4.17018 2.29358 4.00151 2.29334 3.83224L11.0131 4.47088Z" fill="#BC2753" stroke="#BC2753" stroke-width="0.2"/>
<path d="M3.32673 7.75943C3.92326 7.76012 4.41835 7.305 4.41909 6.73003C4.41984 6.15495 3.92595 5.69869 3.32941 5.69801C2.73286 5.69733 2.23792 6.15246 2.23717 6.72753C2.23642 7.30249 2.73019 7.75875 3.32673 7.75943Z" fill="#BC2753" stroke="#BC2753" stroke-width="0.2"/>
<path d="M3.32185 11.8777C3.91837 11.8784 4.41347 11.4234 4.41421 10.8483C4.41496 10.2732 3.92107 9.81698 3.32453 9.8163C2.72797 9.81561 2.23303 10.2707 2.23229 10.8458C2.23154 11.4209 2.72531 11.877 3.32185 11.8777Z" fill="#BC2753" stroke="#BC2753" stroke-width="0.2"/>
<path d="M5.92108 6.64561C5.65281 6.64531 5.42493 6.43934 5.42527 6.17273C5.42562 5.90609 5.65405 5.70068 5.92231 5.70099L9.80346 5.70544L9.80357 5.70544L9.80344 5.80544L5.92108 6.64561ZM5.92108 6.64561L9.80223 6.65006L5.92108 6.64561Z" fill="#BC2753" stroke="#BC2753" stroke-width="0.2"/>
<path d="M7.73551 8.50147L7.73535 8.50147L5.9187 8.49939L5.91861 8.49939L7.73551 8.50147ZM7.73551 8.50147C8.00342 8.50137 8.23119 8.296 8.23154 8.02972C8.23189 7.76339 8.00459 7.5577 7.73679 7.55683L7.73658 7.55683L5.91989 7.55475M7.73551 8.50147L5.57048 7.69028C5.66424 7.60245 5.79019 7.55448 5.91989 7.55475M5.91989 7.55475C5.91991 7.55475 5.91992 7.55475 5.91994 7.55475L5.91971 7.65475L5.91984 7.55475L5.91989 7.55475Z" fill="#BC2753" stroke="#BC2753" stroke-width="0.2"/>
<path d="M9.7989 9.8236C10.0671 9.82391 10.2949 10.0299 10.2946 10.2965C10.2942 10.5631 10.0658 10.7685 9.79767 10.7682L5.91652 10.7638L5.91641 10.7638L5.91654 10.6638C5.81129 10.6638 5.71023 10.6246 5.63593 10.5546L9.7989 9.8236ZM9.7989 9.8236L5.91769 9.81916M9.7989 9.8236L5.56738 10.6274C5.47363 10.5393 5.41974 10.4184 5.4199 10.2909C5.42007 10.1634 5.47425 10.0425 5.56831 9.95466M5.56831 9.95466C5.66207 9.86684 5.788 9.81888 5.91769 9.81916M5.56831 9.95466C5.56833 9.95464 5.56835 9.95462 5.56837 9.95461L5.63662 10.0277L5.56825 9.95471C5.56827 9.9547 5.56829 9.95468 5.56831 9.95466ZM5.91769 9.81916C5.91771 9.81916 5.91773 9.81916 5.91774 9.81916L5.91751 9.91916L5.91764 9.81916L5.91769 9.81916Z" fill="#BC2753" stroke="#BC2753" stroke-width="0.2"/>
<path d="M7.7305 12.6193L7.73035 12.6193L5.9137 12.6172L5.9136 12.6172L5.91373 12.5172C5.80848 12.5173 5.70742 12.478 5.63312 12.4081C5.55871 12.3382 5.51697 12.2433 5.51709 12.1444C5.51722 12.0456 5.55921 11.9509 5.63381 11.8811C5.70828 11.8113 5.80945 11.7723 5.9147 11.7727L7.7305 12.6193ZM7.7305 12.6193C7.99842 12.6192 8.22619 12.4138 8.22654 12.1475C8.22688 11.8813 7.9996 11.6755 7.73173 11.6748L7.73158 11.6748L5.91493 11.6727M7.7305 12.6193L5.91493 11.6727M5.91493 11.6727C5.78517 11.6723 5.65922 11.7203 5.56547 11.8081C5.56548 11.8081 5.56549 11.8081 5.5655 11.8081L5.63381 11.8811L5.56544 11.8081L5.91493 11.6727Z" fill="#BC2753" stroke="#BC2753" stroke-width="0.2"/>
</svg>
