<?xml version="1.0" encoding="UTF-8" standalone="no"?><!DOCTYPE svg PUBLIC "-//W3C//DTD SVG 1.1//EN" "http://www.w3.org/Graphics/SVG/1.1/DTD/svg11.dtd"><svg width="100%" height="100%" viewBox="0 0 146 146" version="1.1" xmlns="http://www.w3.org/2000/svg" xmlns:xlink="http://www.w3.org/1999/xlink" xml:space="preserve" xmlns:serif="http://www.serif.com/" style="fill-rule:evenodd;clip-rule:evenodd;stroke-linejoin:round;stroke-miterlimit:2;"><g><path d="M33.68,0.003c-1.281,0.129 -2.267,1.222 -2.264,2.509l0,48.545l-19.207,-0c-1.372,0.005 -2.499,1.132 -2.504,2.504l-0,87.22l-7.11,-0c-0.087,-0.005 -0.173,-0.005 -0.26,-0c-1.309,0.095 -2.335,1.198 -2.335,2.511c-0,1.381 1.137,2.518 2.518,2.518c0.026,-0 0.051,-0.001 0.077,-0.002l140.777,0c1.359,-0.029 2.461,-1.154 2.461,-2.514c0,-1.359 -1.102,-2.484 -2.461,-2.513l-7.109,-0l-0,-87.22c-0.006,-1.379 -1.145,-2.51 -2.524,-2.504l-19.202,-0l-0,-48.545c-0.003,-1.375 -1.134,-2.506 -2.509,-2.509l-78.088,0c-0.087,-0.004 -0.173,-0.004 -0.26,0l-0,0Zm2.764,5.033l73.06,0l-0,135.745l-21.805,-0l-0,-28.502c-0.003,-1.378 -1.137,-2.509 -2.514,-2.509c-0.003,-0 -0.007,-0 -0.01,-0l-24.402,-0c-1.374,0.005 -2.501,1.135 -2.504,2.509l-0,28.502l-21.825,-0l0,-135.745Zm12.732,11.632c-1.282,0.128 -2.268,1.221 -2.264,2.509l0,15.549c-0.005,1.379 1.125,2.518 2.504,2.524l16.144,-0c1.377,-0.003 2.509,-1.137 2.509,-2.514c0,-0.003 0,-0.007 -0,-0.01l-0,-15.549c-0.003,-1.376 -1.134,-2.507 -2.509,-2.509l-16.144,-0c-0.08,-0.004 -0.16,-0.004 -0.24,-0l-0,-0Zm30.971,-0c-1.281,0.128 -2.267,1.221 -2.263,2.509l-0,15.549c-0.005,1.379 1.125,2.518 2.504,2.524l16.144,-0c0.003,0 0.006,0 0.009,0c1.38,0 2.515,-1.135 2.515,-2.514c-0,-0.003 -0,-0.007 -0,-0.01l-0,-15.549c-0.003,-1.378 -1.137,-2.509 -2.515,-2.509c-0.003,-0 -0.006,-0 -0.009,-0l-16.144,-0c-0.08,-0.004 -0.16,-0.004 -0.24,-0l-0.001,-0Zm-28.207,5.032l11.096,0l0,10.522l-11.096,0l-0,-10.522Zm30.972,0l11.116,0l-0,10.522l-11.116,0l-0,-10.522Zm-33.496,25.758c-1.379,0.005 -2.509,1.144 -2.504,2.523l0,15.55c0.006,1.372 1.133,2.499 2.504,2.504l16.144,0c1.374,-0.003 2.503,-1.13 2.509,-2.504l-0,-15.55c0,-0.003 0,-0.006 0,-0.009c0,-1.377 -1.132,-2.511 -2.509,-2.514l-16.144,-0Zm30.972,-0c-1.379,0.005 -2.509,1.144 -2.504,2.523l-0,15.55c0.005,1.372 1.132,2.499 2.504,2.504l16.144,0c1.379,0.005 2.518,-1.125 2.524,-2.504l-0,-15.55c-0,-0.003 -0,-0.006 -0,-0.009c-0,-1.379 -1.135,-2.514 -2.515,-2.514c-0.003,-0 -0.006,-0 -0.009,-0l-16.144,-0Zm-28.448,5.027l11.096,0l0,10.522l-11.096,0l-0,-10.522Zm30.972,0l11.116,0l-0,10.522l-11.116,0l-0,-10.522Zm-68.179,3.599l16.683,0l0,84.697l-16.683,-0l-0,-84.697Zm99.804,0l16.698,0l0,84.697l-16.698,-0l-0,-84.697Zm-65.361,21.712c-1.28,0.128 -2.265,1.218 -2.264,2.504l0,15.555c-0.005,1.379 1.125,2.518 2.504,2.524l16.144,-0c1.377,-0.003 2.509,-1.137 2.509,-2.515c0,-0.003 0,-0.006 -0,-0.009l-0,-15.555c-0.006,-1.373 -1.135,-2.501 -2.509,-2.504l-16.144,0c-0.08,-0.004 -0.16,-0.004 -0.24,0l-0,0Zm30.971,0c-1.279,0.128 -2.264,1.218 -2.263,2.504l-0,15.555c-0.005,1.379 1.125,2.518 2.504,2.524l16.144,-0c0.003,-0 0.006,-0 0.009,-0c1.38,-0 2.515,-1.135 2.515,-2.515c-0,-0.003 -0,-0.006 -0,-0.009l-0,-15.555c-0.006,-1.379 -1.145,-2.509 -2.524,-2.504l-16.144,0c-0.08,-0.004 -0.16,-0.004 -0.24,0l-0.001,0Zm-28.207,5.013l11.096,0l0,10.537l-11.096,-0l-0,-10.537Zm30.972,0l11.116,0l-0,10.537l-11.116,-0l-0,-10.537Zm-19.615,31.993l19.374,0l0,25.979l-19.374,-0l-0,-25.979Z" style="fill:#af2b50;fill-rule:nonzero;"/></g><text x="37.5px" y="162.222px" style="font-family:'Helvetica-Bold', 'Helvetica';font-weight:700;font-size:20.833px;">Created by <tspan x="150.201px " y="162.222px ">A</tspan>lzam</text></svg>