<?xml version="1.0" encoding="UTF-8" standalone="no"?><!DOCTYPE svg PUBLIC "-//W3C//DTD SVG 1.1//EN" "http://www.w3.org/Graphics/SVG/1.1/DTD/svg11.dtd"><svg width="100%" height="100%" viewBox="0 0 150 146" version="1.1" xmlns="http://www.w3.org/2000/svg" xmlns:xlink="http://www.w3.org/1999/xlink" xml:space="preserve" xmlns:serif="http://www.serif.com/" style="fill-rule:evenodd;clip-rule:evenodd;stroke-linejoin:round;stroke-miterlimit:2;"><g><path d="M59.52,21.946c0,-3.494 2.875,-6.369 6.369,-6.369l75.659,0c3.494,0 6.369,2.875 6.369,6.369c-0,3.494 -2.875,6.369 -6.369,6.369l-75.659,-0c-3.494,-0 -6.369,-2.875 -6.369,-6.369Zm-45.853,17.195c1.174,1.567 3.009,2.508 4.967,2.548c1.959,0.01 3.817,-0.883 5.031,-2.42l21.08,-26.749c2.139,-2.745 1.651,-6.762 -1.082,-8.916c-2.73,-2.153 -6.743,-1.694 -8.916,1.019l-15.922,20.253l-4.967,-6.369c-1.162,-1.865 -3.209,-3.001 -5.406,-3.001c-3.494,-0 -6.369,2.874 -6.369,6.368c0,1.58 0.588,3.104 1.649,4.275l9.935,12.992Zm127.881,27.385l-75.659,0c-3.494,0 -6.369,2.875 -6.369,6.369c0,3.494 2.875,6.368 6.369,6.368l75.659,0c3.494,0 6.369,-2.874 6.369,-6.368c-0,-3.494 -2.875,-6.369 -6.369,-6.369Zm-106.738,-10.954l-15.985,20.252l-4.967,-6.368c-1.162,-1.865 -3.209,-3.002 -5.406,-3.002c-3.494,0 -6.369,2.875 -6.369,6.369c0,1.58 0.588,3.104 1.649,4.275l9.935,12.992c1.174,1.567 3.009,2.508 4.967,2.548c1.959,0.01 3.817,-0.884 5.031,-2.421l21.08,-26.748c2.139,-2.745 1.651,-6.762 -1.082,-8.916c-2.72,-2.111 -6.684,-1.655 -8.853,1.019Zm106.738,61.903l-75.659,0c-3.494,0 -6.369,2.875 -6.369,6.369c0,3.493 2.875,6.368 6.369,6.368l75.659,0c3.494,0 6.369,-2.875 6.369,-6.368c-0,-3.494 -2.875,-6.369 -6.369,-6.369Zm-106.738,-10.954l-15.985,20.252l-4.967,-6.368c-1.162,-1.865 -3.209,-3.002 -5.406,-3.002c-3.494,0 -6.369,2.875 -6.369,6.369c0,1.58 0.588,3.104 1.649,4.275l9.935,12.992c1.174,1.567 3.009,2.508 4.967,2.547c1.959,0.011 3.817,-0.883 5.031,-2.42l21.08,-26.748c2.139,-2.746 1.651,-6.762 -1.082,-8.916c-2.72,-2.111 -6.684,-1.655 -8.853,1.019Z" style="fill:#af2b50;fill-rule:nonzero;"/></g></svg>