<?xml version="1.0" encoding="UTF-8" standalone="no"?><!DOCTYPE svg PUBLIC "-//W3C//DTD SVG 1.1//EN" "http://www.w3.org/Graphics/SVG/1.1/DTD/svg11.dtd"><svg width="100%" height="100%" viewBox="0 0 146 146" version="1.1" xmlns="http://www.w3.org/2000/svg" xmlns:xlink="http://www.w3.org/1999/xlink" xml:space="preserve" xmlns:serif="http://www.serif.com/" style="fill-rule:evenodd;clip-rule:evenodd;stroke-linejoin:round;stroke-miterlimit:2;"><g><path d="M53.899,13.146l-0,54.337c-0,7.212 -5.935,13.146 -13.146,13.146l-27.607,0c-7.212,0 -13.146,-5.934 -13.146,-13.146l0,-54.337c0,-7.212 5.934,-13.146 13.146,-13.146l27.607,0c7.211,0 13.146,5.934 13.146,13.146Zm-13.146,77.474l-27.607,-0c-7.212,-0 -13.146,5.934 -13.146,13.146l0,28.921c0,7.212 5.934,13.146 13.146,13.146l27.607,0c7.211,0 13.146,-5.934 13.146,-13.146l-0,-28.921c-0,-7.212 -5.935,-13.146 -13.146,-13.146Zm91.934,-32.339l-55.651,-0c-7.212,-0 -13.146,5.934 -13.146,13.146l-0,61.26c-0,7.212 5.934,13.146 13.146,13.146l55.651,0c7.212,0 13.146,-5.934 13.146,-13.146l0,-61.26c0,-7.212 -5.934,-13.146 -13.146,-13.146Zm0,-58.281l-55.651,-0c-7.212,-0 -13.146,5.934 -13.146,13.146l-0,21.998c-0,7.211 5.934,13.146 13.146,13.146l55.651,-0c7.212,-0 13.146,-5.935 13.146,-13.146l0,-21.998c0,-7.212 -5.934,-13.146 -13.146,-13.146Z" style="fill:#af2b50;fill-rule:nonzero;"/></g></svg>