<?xml version="1.0" encoding="UTF-8" standalone="no"?><!DOCTYPE svg PUBLIC "-//W3C//DTD SVG 1.1//EN" "http://www.w3.org/Graphics/SVG/1.1/DTD/svg11.dtd"><svg width="100%" height="100%" viewBox="0 0 438 438" version="1.1" xmlns="http://www.w3.org/2000/svg" xmlns:xlink="http://www.w3.org/1999/xlink" xml:space="preserve" xmlns:serif="http://www.serif.com/" style="fill-rule:evenodd;clip-rule:evenodd;stroke-linejoin:round;stroke-miterlimit:2;"><path d="M229.071,198.929l204.958,0l0,233.892l-204.958,-0l-0,-233.892Zm-229.071,65.104l204.958,0l0,168.788l-204.958,-0l0,-168.788Zm243.538,-50.637l-0,204.958l176.02,0l0,-204.958l-176.021,-0Zm-229.07,65.104l-0,139.854l176.025,0l-0,-139.854l-176.025,0Zm190.491,-277.296l0,233.896l-204.958,0l0,-233.896l204.958,0Zm-14.466,14.471l-176.025,-0l-0,204.954l176.025,0l-0,-204.954Zm243.537,-14.471l0,168.792l-204.958,-0l-0,-168.792l204.958,0Zm-14.471,14.471l-176.02,-0l-0,139.85l176.02,0l0,-139.85Z" style="fill:#af2b50;fill-rule:nonzero;"/></svg>