<?xml version="1.0" encoding="UTF-8" standalone="no"?><!DOCTYPE svg PUBLIC "-//W3C//DTD SVG 1.1//EN" "http://www.w3.org/Graphics/SVG/1.1/DTD/svg11.dtd"><svg width="100%" height="100%" viewBox="0 0 13334 13334" version="1.1" xmlns="http://www.w3.org/2000/svg" xmlns:xlink="http://www.w3.org/1999/xlink" xml:space="preserve" xmlns:serif="http://www.serif.com/" style="fill-rule:evenodd;clip-rule:evenodd;stroke-linejoin:round;stroke-miterlimit:2;"><g><path d="M10940.7,3197.9l-2001.24,0l0,-2001.24l2001.24,2001.24Zm159.343,540.145l-0,8372.24c-0,148.157 -121.915,270.072 -270.073,270.072l-8642.31,0c-148.157,0 -270.072,-121.915 -270.072,-270.072l-0,-10802.9c-0,-148.157 121.915,-270.072 270.072,-270.072l6211.66,0l-0,2430.65c-0,148.157 121.915,270.072 270.072,270.072l2430.65,0Zm-1080.29,4321.16c-0,-148.158 -121.915,-270.073 -270.073,-270.073l-6481.74,0c-148.157,0 -270.072,121.915 -270.072,270.073c0,148.157 121.915,270.072 270.072,270.072l6481.74,-0c148.158,-0 270.073,-121.915 270.073,-270.072Zm-0,2160.58c-0,-148.157 -121.915,-270.072 -270.073,-270.072l-6481.74,-0c-148.157,-0 -270.072,121.915 -270.072,270.072c0,148.157 121.915,270.072 270.072,270.072l6481.74,0c148.158,0 270.073,-121.915 270.073,-270.072Zm-3510.94,1080.29c-0,-148.157 -121.915,-270.072 -270.073,-270.072l-2970.8,-0c-148.157,-0 -270.072,121.915 -270.072,270.072c0,148.157 121.915,270.072 270.072,270.072l2970.8,0c148.158,0 270.073,-121.915 270.073,-270.072Zm-3510.94,-4321.16c0,148.158 121.915,270.073 270.072,270.073l2970.8,-0c148.158,-0 270.073,-121.915 270.073,-270.073c-0,-148.157 -121.915,-270.072 -270.073,-270.072l-2970.8,0c-148.157,0 -270.072,121.915 -270.072,270.072Zm1924.3,-1627.91c983.961,0 1801.28,-960.721 1801.28,-960.721c63.928,-68.423 65.723,-181.438 2.017,-250.432c0,0 -776.92,-958.07 -1794.81,-958.07c-1017.89,0 -1794.81,958.07 -1794.81,958.07c-62.813,69.887 -63.146,183.328 1.102,251.49c-0,-0 801.267,959.663 1785.23,959.663Zm8.482,-319.003c-421.624,-0 -763.418,-342.775 -763.418,-765.608c0,-422.834 341.794,-765.609 763.418,-765.609c421.625,0 763.419,342.775 763.419,765.609c-0,422.833 -341.794,765.608 -763.419,765.608Zm0,-425.338c187.389,-0 339.297,-152.344 339.297,-340.27c0,-187.927 -151.908,-340.271 -339.297,-340.271c-187.388,0 -339.297,152.344 -339.297,340.271c0,187.926 151.909,340.27 339.297,340.27Zm-1662.71,4802.9l2970.8,0c148.158,0 270.073,-121.915 270.073,-270.072c-0,-148.157 -121.915,-270.072 -270.073,-270.072l-2970.8,-0c-148.157,-0 -270.072,121.915 -270.072,270.072c0,148.157 121.915,270.072 270.072,270.072Z" style="fill-rule:nonzero;"/></g></svg>