<svg width="16" height="20" viewBox="0 0 16 20" fill="none" xmlns="http://www.w3.org/2000/svg">
<path d="M12.3209 0.204224C12.3209 0.0371475 12.1089 -0.0970064 12.0055 0.0925321L11.5148 0.99284C11.3982 1.20607 11.044 1.20607 10.9277 0.99284L10.3948 0.0153013C10.3948 0.0153013 10.384 0.0149936 10.3745 0.0153013C10.3674 0.0153013 10.3609 0.0153013 10.3609 0.0153013L9.82769 0.992532C9.70431 1.21899 9.36431 1.21899 9.24092 0.992532L8.70769 0.0149936C8.70769 0.0149936 8.69723 0.0149936 8.68769 0.0149936C8.68062 0.0149936 8.67415 0.0149936 8.67415 0.0149936L8.14092 0.992532C8.01754 1.21899 7.67754 1.21899 7.55415 0.992532L7.02123 0.0149936C7.02123 0.0149936 7.00092 0.0149936 6.99169 0.0149936C6.98923 0.0149936 6.98738 0.0149936 6.98738 0.0149936L6.45446 0.992532C6.33815 1.20576 5.98369 1.20576 5.86769 0.992532L5.33477 0.0149936C5.33477 0.0149936 5.31415 0.0149936 5.30523 0.0149936C5.30277 0.0149936 5.30092 0.0149936 5.30092 0.0149936L4.768 0.992532C4.65169 1.20546 4.29723 1.20576 4.18123 0.992532L3.648 0.0149936C3.648 0.0149936 3.62708 0.0149936 3.61815 0.0149936C3.616 0.0149936 3.61415 0.0149936 3.61415 0.0149936L3.08 0.992532C2.95662 1.21899 2.61662 1.21899 2.49323 0.992532L1.96 0.0149936C1.96 0.0149936 1.93938 0.0149936 1.93046 0.0149936C1.928 0.0149936 1.92615 0.0149936 1.92615 0.0149936L1.39323 0.992532C1.26985 1.2193 0.929846 1.21899 0.806154 0.992532L0.315385 0.0922243C0.216308 -0.0902372 0 0.0322244 0 0.204224V18.8725C0 19.0393 0.212308 19.1741 0.315385 18.9842L0.806154 18.0839C0.922769 17.8707 1.27692 17.8707 1.39323 18.0839L1.92615 19.0615C1.92615 19.0615 1.94677 19.0615 1.95569 19.0615C1.95815 19.0615 1.96 19.0615 1.96 19.0615L2.49292 18.0839C2.60892 17.8707 2.96338 17.8704 3.07969 18.0839L3.61292 19.0615C3.61292 19.0615 3.63415 19.0615 3.64277 19.0615C3.64492 19.0615 3.64677 19.0615 3.64677 19.0615L4.18 18.0839C4.30338 17.8575 4.64338 17.8575 4.76677 18.0839L5.29969 19.0615C5.29969 19.0615 5.32031 19.0615 5.32923 19.0615C5.33169 19.0615 5.33354 19.0615 5.33354 19.0615L5.86646 18.0839C5.98277 17.8707 6.33723 17.8707 6.45323 18.0839L6.98615 19.0615C6.98615 19.0615 7.00646 19.0615 7.01569 19.0615C7.01815 19.0615 7.02 19.0615 7.02 19.0615L7.55292 18.0839C7.66892 17.8707 8.02338 17.8704 8.13969 18.0839L8.67292 19.0615C8.67292 19.0615 8.69785 19.0615 8.70462 19.0615H8.70646L9.23938 18.0839C9.35538 17.8707 9.70985 17.8704 9.82615 18.0839L10.3594 19.0615C10.3594 19.0615 10.384 19.0615 10.3914 19.0615H10.3932L10.9262 18.0839C11.0495 17.8571 11.3895 17.8575 11.5132 18.0839L12.004 18.9842C12.1034 19.1664 12.3194 19.0448 12.3194 18.8725V16.3741C11.4988 16.3061 10.7502 15.9858 10.1434 15.4953C10.1243 15.4987 10.1068 15.5067 10.0868 15.5067H2.23138C2.04738 15.5067 1.89815 15.3596 1.89815 15.1778C1.89815 14.9959 2.04738 14.8488 2.23138 14.8488H9.50308C9.02769 14.2436 8.72215 13.4993 8.65631 12.687H2.23262C2.04862 12.687 1.89938 12.5399 1.89938 12.3581C1.89938 12.1762 2.04862 12.0291 2.23262 12.0291H8.65754C8.72339 11.2168 9.02892 10.4725 9.50431 9.8673H2.23262C2.04862 9.8673 1.89938 9.72022 1.89938 9.53838C1.89938 9.35653 2.04862 9.20945 2.23262 9.20945C2.23262 9.20945 10.1255 9.21745 10.1449 9.22084C10.7517 8.73038 11.5003 8.41007 12.3209 8.34207V0.204224ZM10.0883 7.04761H2.23292C2.04892 7.04761 1.89969 6.90053 1.89969 6.71869C1.89969 6.53684 2.04892 6.38976 2.23292 6.38976H10.0883C10.2723 6.38976 10.4215 6.53684 10.4215 6.71869C10.4215 6.90053 10.2723 7.04761 10.0883 7.04761ZM10.0883 4.22792H2.23292C2.04892 4.22792 1.89969 4.08084 1.89969 3.89899C1.89969 3.71715 2.04892 3.57007 2.23292 3.57007H10.0883C10.2723 3.57007 10.4215 3.71715 10.4215 3.89899C10.4215 4.08084 10.2723 4.22792 10.0883 4.22792Z" fill="#95143B"/>
<path d="M12.6542 8.98608C10.8092 8.98608 9.3083 10.4987 9.3083 12.3581C9.3083 14.2175 10.8092 15.7301 12.6542 15.7301C14.4991 15.7301 16 14.2175 16 12.3581C16 10.4987 14.4991 8.98608 12.6542 8.98608ZM14.9837 11.3812L12.7 13.5932C12.5791 13.7107 12.3775 13.7169 12.2492 13.6076L11.0474 12.5867C10.908 12.4682 10.892 12.2605 11.0123 12.1227C11.1323 11.9852 11.3425 11.9692 11.4825 12.0879L12.452 12.9116L14.5172 10.9113C14.6483 10.7845 14.8594 10.7855 14.9886 10.9159C15.1172 11.0455 15.1154 11.2538 14.9837 11.3812Z" fill="#95143B"/>
</svg>
