<?xml version="1.0" encoding="UTF-8" standalone="no"?>
<!DOCTYPE svg PUBLIC "-//W3C//DTD SVG 1.1//EN" "http://www.w3.org/Graphics/SVG/1.1/DTD/svg11.dtd">
<svg width="100%" height="100%" viewBox="0 0 72 69" version="1.1" xmlns="http://www.w3.org/2000/svg" xmlns:xlink="http://www.w3.org/1999/xlink" xml:space="preserve" xmlns:serif="http://www.serif.com/" style="fill-rule:evenodd;clip-rule:evenodd;stroke-linejoin:round;stroke-miterlimit:2;">
    <g transform="matrix(0.0126953,1.8546e-34,1.8546e-34,-0.0126953,3.5,66.9757)">
        <path d="M2584,5101C2475,5083 2450,5042 2450,4882L2450,4773L2393,4751L2337,4729L2250,4815C2164,4899 2162,4900 2113,4900C2052,4900 2019,4878 1912,4767C1782,4632 1781,4590 1905,4461L1987,4375L1966,4323L1945,4270L1840,4270C1683,4269 1634,4242 1621,4145L1615,4105L1055,4100C747,4097 493,4093 490,4092C466,4080 24,3627 14,3603C2,3576 0,3386 0,2455C0,1380 1,1338 19,1302C42,1256 65,1235 113,1215C144,1202 229,1200 715,1200L1280,1200L1280,1146C1280,1099 1284,1089 1306,1071C1368,1022 1430,1071 1430,1166L1430,1200L1531,1200C1627,1200 1632,1199 1638,1178C1641,1165 1662,1119 1684,1075C1741,961 1854,849 1970,793C2168,696 2368,697 2568,795C2856,938 2998,1281 2895,1587C2821,1808 2636,1976 2415,2025L2340,2042L2340,2229C2340,2398 2338,2419 2322,2433C2295,2457 2237,2455 2214,2429C2197,2410 2195,2388 2192,2225L2189,2041L2134,2030C2008,2004 1909,1950 1807,1851C1689,1738 1624,1600 1612,1440L1605,1355L155,1355L152,2450L150,3545L555,3950L1609,3950L1615,3913C1624,3853 1652,3807 1690,3788C1717,3774 1750,3770 1835,3770L1945,3770L1965,3717L1986,3665L1909,3584C1778,3445 1781,3401 1931,3251C2039,3142 2088,3118 2150,3143L2189,3158L2192,2930C2195,2722 2197,2700 2214,2681C2227,2667 2245,2660 2271,2660C2339,2660 2340,2664 2340,3002C2340,3176 2344,3300 2349,3300C2354,3300 2379,3291 2404,3280L2450,3261L2450,3153C2450,3028 2464,2988 2520,2955C2551,2937 2572,2935 2700,2935C2827,2935 2849,2937 2879,2955C2936,2989 2950,3028 2950,3155L2950,3265L3003,3285L3055,3306L3141,3224C3271,3101 3320,3103 3454,3236C3558,3340 3580,3373 3580,3433C3580,3482 3579,3484 3495,3569L3410,3656L3433,3713L3455,3770L3563,3770C3722,3770 3768,3797 3780,3899L3785,3945L3848,3950C3920,3956 3940,3972 3940,4026C3940,4073 3902,4100 3835,4100L3783,4100L3777,4146C3767,4237 3709,4270 3557,4270L3453,4270L3432,4323L3412,4375L3485,4450C3571,4538 3580,4554 3580,4613C3580,4664 3547,4713 3449,4806C3361,4889 3342,4900 3291,4900C3236,4900 3218,4889 3125,4800L3055,4732L3003,4752L2950,4773L2950,4879C2950,5008 2932,5057 2877,5083C2836,5103 2663,5113 2584,5101ZM2769,4954L2800,4948L2800,4835C2800,4690 2811,4670 2925,4621C3073,4558 3112,4565 3225,4679C3258,4713 3289,4740 3296,4740C3302,4740 3335,4711 3370,4674L3433,4609L3345,4520L3258,4431L3262,4378C3269,4300 3327,4171 3369,4143C3399,4122 3415,4120 3515,4120C3645,4120 3640,4124 3640,4013C3640,3917 3643,3920 3523,3920C3410,3920 3363,3906 3338,3867C3308,3820 3260,3688 3260,3655C3260,3605 3272,3586 3356,3500L3430,3425L3290,3285L3207,3368C3101,3473 3080,3479 2958,3429C2858,3389 2833,3374 2817,3346C2810,3334 2803,3271 2800,3205L2795,3085L2698,3082L2600,3079L2600,3192C2600,3349 2592,3362 2469,3417C2408,3444 2359,3459 2331,3459C2289,3460 2284,3456 2198,3373L2110,3286L1970,3424L2039,3495C2076,3533 2115,3576 2124,3590C2148,3626 2144,3679 2109,3761C2046,3913 2047,3913 1885,3920L1765,3925L1765,4115L1887,4120C1989,4124 2013,4128 2036,4146C2073,4173 2139,4329 2140,4389C2140,4431 2136,4437 2053,4522L1966,4610L2104,4750L2185,4670C2230,4627 2278,4588 2293,4585C2336,4574 2389,4585 2475,4621C2589,4670 2600,4689 2600,4836C2600,4935 2602,4949 2618,4953C2645,4960 2734,4961 2769,4954ZM2395,1876C2632,1813 2794,1589 2776,1350C2753,1032 2458,813 2152,885C1917,941 1760,1138 1760,1379C1760,1607 1894,1794 2110,1867C2186,1893 2316,1898 2395,1876Z" style="fill:rgb(175,43,80);fill-rule:nonzero;"/>
        <path d="M2595,4538C2455,4512 2296,4391 2231,4262C2085,3973 2223,3626 2526,3519C2771,3432 3055,3549 3170,3784C3239,3924 3247,4083 3191,4213C3159,4287 3085,4299 3051,4238C3038,4215 3038,4205 3056,4149C3115,3954 3037,3764 2862,3678C2801,3648 2788,3645 2700,3645C2618,3645 2597,3649 2548,3672C2371,3755 2283,3946 2339,4126C2400,4325 2594,4435 2793,4385C2874,4365 2905,4370 2925,4409C2947,4452 2929,4494 2881,4513C2797,4547 2691,4556 2595,4538Z" style="fill:rgb(175,43,80);fill-rule:nonzero;"/>
        <path d="M2616,4235C2531,4205 2471,4116 2470,4019C2469,3816 2711,3713 2859,3853C2954,3943 2955,4086 2862,4179C2793,4247 2706,4267 2616,4235ZM2755,4075C2805,4026 2772,3940 2702,3940C2654,3940 2620,3972 2620,4017C2620,4061 2657,4100 2700,4100C2719,4100 2740,4091 2755,4075Z" style="fill:rgb(175,43,80);fill-rule:nonzero;"/>
        <path d="M2364,1459L2230,1326L2137,1417C2085,1469 2032,1512 2016,1516C1975,1526 1936,1494 1932,1446C1929,1411 1935,1403 2050,1286C2183,1150 2213,1131 2258,1149C2301,1167 2597,1469 2606,1503C2616,1545 2584,1584 2536,1588C2499,1591 2493,1586 2364,1459Z" style="fill:rgb(175,43,80);fill-rule:nonzero;"/>
        <path d="M4075,4038C4029,4013 4018,3971 4044,3922C4052,3907 4061,3879 4065,3859C4068,3839 4079,3815 4090,3805C4116,3782 4164,3782 4190,3805C4240,3850 4196,4016 4127,4039C4111,4045 4097,4050 4096,4050C4095,4050 4086,4044 4075,4038Z" style="fill:rgb(175,43,80);fill-rule:nonzero;"/>
        <path d="M4084,3659C4068,3642 4065,3622 4065,3549C4065,3471 4068,3458 4087,3439C4114,3412 4162,3410 4190,3435C4207,3451 4210,3466 4210,3547C4210,3627 4207,3643 4190,3660C4163,3687 4109,3686 4084,3659Z" style="fill:rgb(175,43,80);fill-rule:nonzero;"/>
        <path d="M606,3379C573,3353 570,3300 600,3270C620,3250 633,3250 1166,3250C1531,3250 1718,3254 1731,3261C1779,3286 1775,3366 1724,3389C1706,3397 1541,3400 1166,3400C642,3400 632,3400 606,3379Z" style="fill:rgb(175,43,80);fill-rule:nonzero;"/>
        <path d="M4084,3289C4068,3272 4065,3252 4065,3179C4065,3101 4068,3088 4087,3069C4114,3042 4162,3040 4190,3065C4207,3081 4210,3096 4210,3177C4210,3257 4207,3273 4190,3290C4163,3317 4109,3316 4084,3289Z" style="fill:rgb(175,43,80);fill-rule:nonzero;"/>
        <path d="M600,3010C575,2985 574,2939 599,2909L618,2885L1722,2885L1746,2913C1775,2947 1776,2969 1749,3004L1729,3030L1174,3030C633,3030 620,3030 600,3010Z" style="fill:rgb(175,43,80);fill-rule:nonzero;"/>
        <path d="M4084,2919C4068,2901 4065,2882 4065,2799L4065,2700L3657,2700C3209,2700 3206,2700 3175,2640C3152,2595 3153,2010 3176,1970C3212,1910 3209,1910 3654,1910L4060,1910L4060,1760L3665,1760C3227,1760 3217,1759 3180,1698C3161,1667 3160,1648 3160,1360C3160,1026 3161,1022 3219,983C3253,960 3253,960 3656,960L4060,960L4060,810L3656,810C3253,810 3253,810 3219,787C3168,753 3160,728 3160,604L3160,494L3130,472C3105,453 3100,442 3100,409C3100,375 3104,367 3130,352L3160,335L3160,220C3160,122 3163,100 3180,72C3220,8 3181,10 4140,10C5099,10 5060,8 5100,72C5119,103 5120,122 5120,408C5120,743 5118,753 5057,790C5027,809 5004,810 4618,810L4210,810L4210,960L4323,960C4423,960 4439,962 4458,980C4472,994 4480,1013 4480,1035C4480,1057 4472,1076 4458,1090C4437,1110 4426,1110 3873,1110L3310,1110L3310,1610L4970,1610L4970,1110L4852,1110C4747,1110 4731,1108 4712,1090C4682,1062 4682,1008 4712,980C4732,962 4747,960 4879,960C5006,960 5029,963 5057,980C5118,1017 5120,1027 5120,1363C5120,1663 5120,1667 5097,1701C5084,1720 5059,1740 5040,1747C5015,1755 4888,1759 4607,1759L4209,1760L4212,1833L4215,1905L4632,1910L5050,1915L5082,1948L5115,1980L5118,2290C5120,2563 5119,2604 5104,2636C5073,2700 5076,2700 4620,2700L4210,2700L4210,2800C4210,2887 4207,2903 4190,2920C4163,2947 4109,2946 4084,2919ZM4970,2550L4970,2060L3310,2060L3310,2550L4970,2550ZM4970,660L4970,160L3310,160L3310,660L4970,660Z" style="fill:rgb(175,43,80);fill-rule:nonzero;"/>
        <path d="M3547,2368C3505,2335 3510,2262 3556,2241C3574,2233 3744,2230 4144,2230C4699,2230 4708,2230 4734,2251C4768,2278 4770,2330 4738,2360C4717,2380 4706,2380 4140,2380C3695,2380 3560,2377 3547,2368Z" style="fill:rgb(175,43,80);fill-rule:nonzero;"/>
        <path d="M3565,481C3516,461 3501,398 3535,360C3553,340 3565,340 4137,340C4707,340 4720,340 4740,360C4767,387 4766,441 4739,466C4719,484 4693,485 4151,487C3840,488 3576,485 3565,481Z" style="fill:rgb(175,43,80);fill-rule:nonzero;"/>
        <path d="M600,2650C570,2620 573,2567 606,2541C632,2520 642,2520 1166,2520C1541,2520 1706,2523 1724,2531C1775,2554 1779,2634 1731,2659C1718,2666 1531,2670 1166,2670C633,2670 620,2670 600,2650Z" style="fill:rgb(175,43,80);fill-rule:nonzero;"/>
        <path d="M606,2289C573,2263 570,2210 600,2180C620,2160 633,2160 1166,2160C1531,2160 1718,2164 1731,2171C1779,2196 1775,2276 1724,2299C1706,2307 1541,2310 1166,2310C642,2310 632,2310 606,2289Z" style="fill:rgb(175,43,80);fill-rule:nonzero;"/>
        <path d="M600,1920C575,1895 574,1849 599,1819L618,1795L1152,1795L1171,1819C1196,1849 1195,1895 1170,1920C1151,1939 1137,1940 885,1940C633,1940 619,1939 600,1920Z" style="fill:rgb(175,43,80);fill-rule:nonzero;"/>
        <path d="M3539,1412C3509,1387 3509,1337 3539,1307L3561,1285L4139,1285C4694,1285 4719,1286 4739,1304C4766,1329 4767,1383 4740,1410C4720,1430 4707,1430 4141,1430C3593,1430 3561,1429 3539,1412Z" style="fill:rgb(175,43,80);fill-rule:nonzero;"/>
        <path d="M1300,930C1283,913 1280,897 1280,816C1280,726 1281,720 1306,701C1337,677 1349,675 1384,691C1415,705 1430,746 1430,815C1430,878 1414,927 1390,940C1360,956 1322,952 1300,930Z" style="fill:rgb(175,43,80);fill-rule:nonzero;"/>
        <path d="M1310,560C1271,521 1290,449 1355,392C1417,337 1482,338 1508,393C1526,430 1510,470 1470,494C1453,503 1433,524 1425,539C1402,585 1345,595 1310,560Z" style="fill:rgb(175,43,80);fill-rule:nonzero;"/>
        <path d="M1670,483C1636,470 1620,446 1620,409C1620,353 1645,340 1750,340C1855,340 1880,353 1880,409C1880,468 1854,484 1761,487C1719,488 1678,487 1670,483Z" style="fill:rgb(175,43,80);fill-rule:nonzero;"/>
        <path d="M2040,483C2006,470 1990,446 1990,409C1990,353 2015,340 2120,340C2225,340 2250,353 2250,409C2250,468 2224,484 2131,487C2089,488 2048,487 2040,483Z" style="fill:rgb(175,43,80);fill-rule:nonzero;"/>
        <path d="M2410,483C2376,470 2360,446 2360,409C2360,353 2385,340 2490,340C2595,340 2620,353 2620,409C2620,468 2594,484 2501,487C2459,488 2418,487 2410,483Z" style="fill:rgb(175,43,80);fill-rule:nonzero;"/>
        <path d="M2780,483C2746,470 2730,446 2730,409C2730,353 2755,340 2860,340C2965,340 2990,353 2990,409C2990,468 2964,484 2871,487C2829,488 2788,487 2780,483Z" style="fill:rgb(175,43,80);fill-rule:nonzero;"/>
    </g>
</svg>
