<?xml version="1.0" encoding="UTF-8" standalone="no"?><!DOCTYPE svg PUBLIC "-//W3C//DTD SVG 1.1//EN" "http://www.w3.org/Graphics/SVG/1.1/DTD/svg11.dtd"><svg width="100%" height="100%" viewBox="0 0 105 105" version="1.1" xmlns="http://www.w3.org/2000/svg" xmlns:xlink="http://www.w3.org/1999/xlink" xml:space="preserve" xmlns:serif="http://www.serif.com/" style="fill-rule:evenodd;clip-rule:evenodd;stroke-linecap:round;stroke-linejoin:round;stroke-miterlimit:10;"><g><g><path d="M81.522,49.819l-0,43.025c-0,6.253 -5.069,11.323 -11.323,11.323l-58.877,-0c-6.253,-0 -11.322,-5.07 -11.322,-11.323l0,-81.522c0,-6.253 5.069,-11.322 11.322,-11.322l81.522,0" style="fill:none;fill-rule:nonzero;stroke:#fff;stroke-width:4.53px;"/><path d="M81.522,49.819l11.322,-0c6.253,-0 11.323,-5.069 11.323,-11.323l-0,-27.174c-0,-6.253 -5.07,-11.322 -11.323,-11.322c-6.253,0 -11.322,5.069 -11.322,11.322l-0,38.497Z" style="fill:none;fill-rule:nonzero;stroke:#fff;stroke-width:4.53px;"/><path d="M13.587,38.313c-0,3.752 3.041,6.794 6.793,6.794c3.753,-0 6.794,-3.042 6.794,-6.794c0,-3.753 -3.041,-6.794 -6.794,-6.794c-3.752,0.001 -6.793,-3.041 -6.793,-6.793c-0,-3.753 3.041,-6.794 6.793,-6.794c3.753,-0 6.794,3.041 6.794,6.794" style="fill:none;fill-rule:nonzero;stroke:#fff;stroke-width:4.53px;"/><path d="M20.38,13.403l0,36.232" style="fill:none;fill-rule:nonzero;stroke:#fff;stroke-width:4.53px;"/><path d="M36.232,20.38l36.232,0" style="fill:none;fill-rule:nonzero;stroke:#fff;stroke-width:4.53px;"/><path d="M36.232,33.967l36.232,0" style="fill:none;fill-rule:nonzero;stroke:#fff;stroke-width:4.53px;"/><path d="M36.232,47.554l36.232,0" style="fill:none;fill-rule:nonzero;stroke:#fff;stroke-width:4.53px;"/><path d="M9.058,61.141l63.406,0" style="fill:none;fill-rule:nonzero;stroke:#fff;stroke-width:4.53px;"/><path d="M9.058,74.728l63.406,0" style="fill:none;fill-rule:nonzero;stroke:#fff;stroke-width:4.53px;"/><path d="M9.058,88.315l63.406,0" style="fill:none;fill-rule:nonzero;stroke:#fff;stroke-width:4.53px;"/></g></g></svg>