<?xml version="1.0" encoding="UTF-8" standalone="no"?><!DOCTYPE svg PUBLIC "-//W3C//DTD SVG 1.1//EN" "http://www.w3.org/Graphics/SVG/1.1/DTD/svg11.dtd"><svg width="100%" height="100%" viewBox="0 0 150 146" version="1.1" xmlns="http://www.w3.org/2000/svg" xmlns:xlink="http://www.w3.org/1999/xlink" xml:space="preserve" xmlns:serif="http://www.serif.com/" style="fill-rule:evenodd;clip-rule:evenodd;stroke-linejoin:round;stroke-miterlimit:2;"><g><path d="M131.09,0l-112.18,0c-9.227,0.01 -16.817,7.6 -16.827,16.827l0,112.179c0.01,9.228 7.6,16.817 16.827,16.827l112.18,0c9.227,-0.01 16.817,-7.599 16.827,-16.827l-0,-112.179c-0.01,-9.227 -7.6,-16.817 -16.827,-16.827Zm-61.699,44.872l0,22.436l-22.436,-0l0,-22.436l22.436,-0Zm33.654,-0l-0,22.436l-22.436,-0l-0,-22.436l22.436,-0Zm33.654,-0l-0,22.436l-22.436,-0l-0,-22.436l22.436,-0Zm-100.962,22.436l-22.436,-0l0,-22.436l22.436,-0l0,22.436Zm-22.436,11.218l22.436,-0l0,22.436l-22.436,-0l0,-22.436Zm33.654,-0l22.436,-0l0,22.436l-22.436,-0l0,-22.436Zm22.436,33.653l0,22.436l-22.436,0l0,-22.436l22.436,0Zm11.218,0l22.436,0l-0,22.436l-22.436,0l-0,-22.436Zm-0,-11.217l-0,-22.436l22.436,-0l-0,22.436l-22.436,-0Zm33.654,-22.436l22.436,-0l-0,22.436l-22.436,-0l-0,-22.436Zm-95.353,-67.308l112.18,-0c3.076,0.002 5.607,2.533 5.609,5.609l-0,16.827l-123.398,-0l0,-16.827c0.003,-3.076 2.533,-5.606 5.609,-5.609Zm-5.609,117.788l0,-16.827l22.436,0l0,22.436l-16.827,0c-3.076,-0.002 -5.606,-2.533 -5.609,-5.609Zm117.789,5.609l-16.827,0l-0,-22.436l22.436,0l-0,16.827c-0.002,3.077 -2.533,5.608 -5.609,5.609Z" style="fill:#af2b50;fill-rule:nonzero;"/></g></svg>