<?xml version="1.0" encoding="UTF-8" standalone="no"?><!DOCTYPE svg PUBLIC "-//W3C//DTD SVG 1.1//EN" "http://www.w3.org/Graphics/SVG/1.1/DTD/svg11.dtd"><svg width="100%" height="100%" viewBox="0 0 609 646" version="1.1" xmlns="http://www.w3.org/2000/svg" xmlns:xlink="http://www.w3.org/1999/xlink" xml:space="preserve" xmlns:serif="http://www.serif.com/" style="fill-rule:evenodd;clip-rule:evenodd;stroke-linejoin:round;stroke-miterlimit:2;"><g><path d="M286.657,130.308l0,35.02c0,9.669 -7.84,17.51 -17.51,17.51l-210.118,-0c-9.669,-0 -17.509,-7.841 -17.509,-17.51l-0,-105.059c-0,-9.67 7.84,-17.51 17.509,-17.51l210.118,0c9.67,0 17.51,7.84 17.51,17.51l0,35.02l192.607,-0c9.671,-0 17.511,7.84 17.511,17.509l0,80.295l13.882,-13.882c6.842,-6.836 17.923,-6.836 24.766,-0c6.835,6.84 6.835,17.924 -0,24.763l-43.776,43.775c-6.838,6.836 -17.923,6.836 -24.765,0l-43.772,-43.775c-6.835,-6.839 -6.835,-17.923 -0,-24.763c6.838,-6.836 17.923,-6.836 24.762,-0l13.885,13.882l-0,-62.785l-175.1,0Zm-210.118,17.51l175.099,-0l-0,-70.039l-175.099,-0l0,70.039Zm385.218,280.158l-87.551,0c-9.67,0 -17.511,-7.84 -17.511,-17.511l0,-105.058c0,-9.67 7.841,-17.51 17.511,-17.51l210.116,-0c9.671,-0 17.511,7.84 17.511,17.51l0,105.058c0,9.671 -7.84,17.511 -17.511,17.511l-87.547,0l0,105.058c0,9.671 -7.84,17.511 -17.511,17.511l-132.825,0l13.886,13.882c6.835,6.838 6.835,17.923 -0,24.762c-6.843,6.839 -17.924,6.839 -24.766,0l-43.774,-43.772c-6.836,-6.842 -6.836,-17.923 -0,-24.765l43.774,-43.776c6.842,-6.835 17.923,-6.835 24.766,0c6.835,6.842 6.835,17.927 -0,24.766l-13.886,13.881l115.318,0l-0,-87.547Zm-70.04,-105.06l0,70.039l175.098,-0l0,-70.039l-175.098,0Zm-367.707,140.078l210.118,0c9.669,0 17.51,7.841 17.51,17.511l-0,105.058c-0,9.671 -7.841,17.511 -17.51,17.511l-210.118,0c-9.67,0 -17.51,-7.84 -17.51,-17.511l0,-105.058c0,-9.67 7.84,-17.511 17.51,-17.511Zm17.51,105.059l175.098,-0l0,-70.037l-175.098,0l-0,70.037Z" style="fill:#fff;fill-rule:nonzero;"/></g></svg>