<?xml version="1.0" encoding="UTF-8" standalone="no"?><!DOCTYPE svg PUBLIC "-//W3C//DTD SVG 1.1//EN" "http://www.w3.org/Graphics/SVG/1.1/DTD/svg11.dtd"><svg width="100%" height="100%" viewBox="0 0 80 113" version="1.1" xmlns="http://www.w3.org/2000/svg" xmlns:xlink="http://www.w3.org/1999/xlink" xml:space="preserve" xmlns:serif="http://www.serif.com/" style="fill-rule:evenodd;clip-rule:evenodd;stroke-linejoin:round;stroke-miterlimit:2;"><g><g><g><path d="M48.055,98.999c-0.912,-0 -1.694,0.521 -2.346,1.173c-1.434,1.824 -3.78,2.997 -6.256,2.997c-2.476,0 -4.822,-1.173 -6.256,-2.997c-0.521,-0.652 -1.434,-1.173 -2.346,-1.173l-2.737,-0c-2.346,-0 -3.779,2.476 -2.606,4.431c2.867,4.692 7.95,7.82 13.945,7.82c5.995,-0 11.078,-3.128 13.945,-7.82c1.173,-1.955 -0.26,-4.562 -2.606,-4.431l-2.737,-0Z" style="fill:#474948;fill-rule:nonzero;"/></g><path d="M71.906,72.02l-0.261,-0.13c-0.912,-0.652 -6.777,-5.604 -6.777,-26.849c-0,-7.298 -1.173,-13.163 -3.65,-17.464c-1.303,-2.346 -4.692,-2.867 -6.516,-0.782l-0,0.13c-1.173,1.304 -1.304,3.259 -0.522,4.823c1.695,2.867 2.477,7.168 2.477,13.424c-0,26.978 8.993,32.974 11.469,34.147c2.867,1.564 2.867,2.867 2.867,3.519c0,0.521 -0.521,1.694 -0.912,2.085c-0,-0 -4.822,1.955 -30.628,1.955c-26.327,-0 -30.628,-1.955 -30.628,-1.955c-0.391,-0.391 -0.912,-1.564 -0.912,-2.085c-0,-0.652 -0,-1.955 2.867,-3.519c2.085,-1.043 10.296,-7.038 10.296,-34.147c0,-12.382 2.998,-19.42 18.377,-19.42c4.692,0 8.863,-2.737 10.818,-6.647c-3.128,-0.912 -6.778,-1.433 -10.818,-1.433c-18.116,-0 -26.457,8.732 -26.457,27.5c-0,21.896 -5.605,26.587 -5.996,26.978c-4.822,2.607 -7.168,6.256 -7.168,10.688c0,3.258 1.955,8.08 5.865,9.644c2.216,1.564 8.472,2.607 33.886,2.607c25.415,-0 31.801,-1.043 33.887,-2.607c3.779,-1.564 5.865,-6.386 5.865,-9.644c-0.131,-4.562 -2.607,-8.211 -7.429,-10.818Z" style="fill:#474948;fill-rule:nonzero;"/><path d="M39.453,9.461c2.216,-0 4.04,1.825 4.04,4.04c0,2.216 -1.824,4.04 -4.04,4.04c-2.216,0 -4.04,-1.824 -4.04,-4.04c-0,-2.215 1.824,-4.04 4.04,-4.04m0,-8.211c-6.777,0 -12.251,5.474 -12.251,12.251c-0,6.777 5.474,12.251 12.251,12.251c6.777,0 12.251,-5.474 12.251,-12.251c0,-6.777 -5.474,-12.251 -12.251,-12.251Z" style="fill:#474948;fill-rule:nonzero;"/></g></g></svg>