<?xml version="1.0" encoding="UTF-8" standalone="no"?><!DOCTYPE svg PUBLIC "-//W3C//DTD SVG 1.1//EN" "http://www.w3.org/Graphics/SVG/1.1/DTD/svg11.dtd"><svg width="100%" height="100%" viewBox="0 0 146 196" version="1.1" xmlns="http://www.w3.org/2000/svg" xmlns:xlink="http://www.w3.org/1999/xlink" xml:space="preserve" xmlns:serif="http://www.serif.com/" style="fill-rule:evenodd;clip-rule:evenodd;stroke-linejoin:round;stroke-miterlimit:2;"><g><path d="M141.782,20.208l-36.458,0l0,-4.051c0,-2.222 -1.829,-4.051 -4.051,-4.051l-12.679,0c-1.858,-7.108 -8.33,-12.106 -15.677,-12.106c-7.348,-0 -13.819,4.998 -15.677,12.106l-12.68,0c-2.222,0 -4.051,1.829 -4.051,4.051l0,4.051l-36.458,0c-2.222,0 -4.051,1.829 -4.051,4.051l-0,166.088c-0,2.222 1.829,4.051 4.051,4.051l137.731,-0c2.223,-0 4.051,-1.829 4.051,-4.051l0,-166.088c0,-2.222 -1.828,-4.051 -4.051,-4.051Zm-93.171,0l12.153,0c2.222,0 4.051,-1.829 4.051,-4.051c-0,-4.444 3.657,-8.102 8.102,-8.102c4.444,0 8.102,3.658 8.102,8.102c-0,2.222 1.828,4.051 4.05,4.051l12.153,0l0,8.102l-48.611,-0l0,-8.102Zm89.12,166.088l-129.629,0l-0,-157.986l32.407,-0l0,4.051c0,2.222 1.829,4.051 4.051,4.051l56.713,-0c2.222,-0 4.051,-1.829 4.051,-4.051l0,-4.051l32.407,-0l0,157.986Z" style="fill:#af2b50;fill-rule:nonzero;"/><path d="M48.611,141.736l-24.305,-0c-2.223,-0 -4.051,1.829 -4.051,4.051l-0,24.305c-0,2.223 1.828,4.051 4.051,4.051l24.305,0c2.222,0 4.051,-1.828 4.051,-4.051l0,-24.305c0,-2.222 -1.829,-4.051 -4.051,-4.051Zm-4.051,24.305l-16.204,0l0,-16.203l16.204,-0l0,16.203Z" style="fill:#af2b50;fill-rule:nonzero;"/><path d="M48.611,97.176l-24.305,-0c-2.223,-0 -4.051,1.828 -4.051,4.051l-0,24.305c-0,2.222 1.828,4.051 4.051,4.051l24.305,0c2.222,0 4.051,-1.829 4.051,-4.051l0,-24.305c0,-2.223 -1.829,-4.051 -4.051,-4.051Zm-4.051,24.305l-16.204,0l0,-16.203l16.204,-0l0,16.203Z" style="fill:#af2b50;fill-rule:nonzero;"/><path d="M121.528,72.87l-52.662,0c-2.223,0 -4.051,1.829 -4.051,4.051c-0,2.222 1.828,4.051 4.051,4.051l52.662,-0c2.222,-0 4.051,-1.829 4.051,-4.051c-0,-2.222 -1.829,-4.051 -4.051,-4.051Z" style="fill:#af2b50;fill-rule:nonzero;"/><path d="M68.866,56.666c-2.223,0 -4.051,1.829 -4.051,4.051c-0,2.223 1.828,4.051 4.051,4.051l52.662,0c2.222,0 4.051,-1.828 4.051,-4.051c-0,-2.222 -1.829,-4.051 -4.051,-4.051l-52.662,0Z" style="fill:#af2b50;fill-rule:nonzero;"/><path d="M121.528,117.43l-52.662,0c-2.223,0 -4.051,1.829 -4.051,4.051c-0,2.223 1.828,4.051 4.051,4.051l52.662,0c2.222,0 4.051,-1.828 4.051,-4.051c-0,-2.222 -1.829,-4.051 -4.051,-4.051Z" style="fill:#af2b50;fill-rule:nonzero;"/><path d="M121.528,101.227l-52.662,-0c-2.223,-0 -4.051,1.828 -4.051,4.051c-0,2.222 1.828,4.05 4.051,4.05l52.662,0c2.222,0 4.051,-1.828 4.051,-4.05c-0,-2.223 -1.829,-4.051 -4.051,-4.051Z" style="fill:#af2b50;fill-rule:nonzero;"/><path d="M121.528,161.991l-52.662,-0c-2.223,-0 -4.051,1.828 -4.051,4.05c-0,2.223 1.828,4.051 4.051,4.051l52.662,0c2.222,0 4.051,-1.828 4.051,-4.051c-0,-2.222 -1.829,-4.05 -4.051,-4.05Z" style="fill:#af2b50;fill-rule:nonzero;"/><path d="M121.528,145.787l-52.662,-0c-2.223,-0 -4.051,1.828 -4.051,4.051c-0,2.222 1.828,4.051 4.051,4.051l52.662,-0c2.222,-0 4.051,-1.829 4.051,-4.051c-0,-2.223 -1.829,-4.051 -4.051,-4.051Z" style="fill:#af2b50;fill-rule:nonzero;"/><path d="M45.735,57.841l-13.328,13.368l-5.225,-5.266c-0.763,-0.762 -1.798,-1.191 -2.876,-1.191c-2.232,-0 -4.068,1.836 -4.068,4.067c0,1.079 0.429,2.114 1.191,2.876c13.328,13.287 8.102,13.774 30.058,-8.101c0.763,-0.763 1.192,-1.798 1.192,-2.877c-0,-2.231 -1.837,-4.067 -4.068,-4.067c-1.078,-0 -2.114,0.429 -2.876,1.191Z" style="fill:#af2b50;fill-rule:nonzero;"/></g></svg>