<?xml version="1.0" encoding="UTF-8" standalone="no"?><!DOCTYPE svg PUBLIC "-//W3C//DTD SVG 1.1//EN" "http://www.w3.org/Graphics/SVG/1.1/DTD/svg11.dtd"><svg width="100%" height="100%" viewBox="0 0 146 209" version="1.1" xmlns="http://www.w3.org/2000/svg" xmlns:xlink="http://www.w3.org/1999/xlink" xml:space="preserve" xmlns:serif="http://www.serif.com/" style="fill-rule:evenodd;clip-rule:evenodd;stroke-linejoin:round;stroke-miterlimit:2;"><g><path d="M143.707,30.416c0,-2.301 -1.863,-4.167 -4.166,-4.167l-25.497,0l0,-8.876c0,-2.301 -1.863,-4.167 -4.166,-4.167l-20.219,-0c-2.088,-7.572 -9.733,-13.206 -18.824,-13.206c-9.09,-0 -16.74,5.634 -18.827,13.206l-20.219,-0c-2.303,-0 -4.167,1.866 -4.167,4.167l0,8.876l-25.496,0c-2.303,0 -4.167,1.866 -4.167,4.167l0,173.751c0,2.301 1.864,4.166 4.167,4.166l103.373,0c0.262,0 0.492,-0.127 0.745,-0.174c0.365,-0.07 0.743,-0.089 1.077,-0.253c0.582,-0.283 1.099,-0.694 1.499,-1.225l0.754,-0.998c0.097,-0.127 0.199,-0.26 0.297,-0.387c0.951,-1.261 1.924,-2.55 3.038,-3.951c0.186,-0.246 0.391,-0.515 0.578,-0.763c9.625,-12.556 20.699,-27.048 29.39,-38.556c0.275,-0.364 0.464,-0.768 0.605,-1.187c0.01,-0.028 0.011,-0.059 0.02,-0.088c0.117,-0.372 0.178,-0.752 0.187,-1.14c0.001,-0.038 0.018,-0.073 0.018,-0.112l0,-129.083Zm-88.098,-8.877c2.303,0 4.167,-1.865 4.167,-4.166c-0,-4.985 4.96,-9.04 11.059,-9.04c6.096,0 11.056,4.055 11.056,9.04c-0,2.301 1.863,4.166 4.167,4.166l19.653,0l-0,8.857c-0,0.007 -0.004,0.013 -0.004,0.02c-0,0.007 0.004,0.013 0.004,0.02l-0,8.329l-69.755,0l-0,-8.329c-0,-0.007 0.004,-0.013 0.004,-0.02c-0,-0.007 -0.004,-0.013 -0.004,-0.02l-0,-8.857l19.653,0Zm-49.316,13.044l21.329,-0l0,8.349c0,2.301 1.864,4.167 4.167,4.167l78.089,-0c2.303,-0 4.166,-1.866 4.166,-4.167l0,-8.349l21.33,-0l-0,120.766l-29.887,-0c-2.303,-0 -4.167,1.865 -4.167,4.166l0,40.485l-95.027,-0l-0,-165.417Zm103.361,157.26l-0,-28.161l21.479,0c-6.961,9.087 -14.568,19.037 -21.479,28.161Z" style="fill:#af2b50;fill-rule:nonzero;"/><path d="M44.497,94.234l52.673,0c2.303,0 4.167,-1.865 4.167,-4.166c-0,-2.301 -1.864,-4.167 -4.167,-4.167l-52.673,-0c-2.303,-0 -4.167,1.866 -4.167,4.167c-0,2.301 1.864,4.166 4.167,4.166Z" style="fill:#af2b50;fill-rule:nonzero;"/><path d="M44.497,68.132l52.673,-0c2.303,-0 4.167,-1.866 4.167,-4.167c-0,-2.301 -1.864,-4.167 -4.167,-4.167l-52.673,0c-2.303,0 -4.167,1.866 -4.167,4.167c-0,2.301 1.864,4.167 4.167,4.167Z" style="fill:#af2b50;fill-rule:nonzero;"/><path d="M44.497,120.337l52.673,-0c2.303,-0 4.167,-1.866 4.167,-4.167c-0,-2.301 -1.864,-4.166 -4.167,-4.166l-52.673,-0c-2.303,-0 -4.167,1.865 -4.167,4.166c-0,2.301 1.864,4.167 4.167,4.167Z" style="fill:#af2b50;fill-rule:nonzero;"/><path d="M101.337,142.273c-0,-2.301 -1.864,-4.167 -4.167,-4.167l-52.673,0c-2.303,0 -4.167,1.866 -4.167,4.167c-0,2.301 1.864,4.167 4.167,4.167l52.673,-0c2.303,-0 4.167,-1.866 4.167,-4.167Z" style="fill:#af2b50;fill-rule:nonzero;"/></g></svg>