<?xml version="1.0" encoding="UTF-8" standalone="no"?><!DOCTYPE svg PUBLIC "-//W3C//DTD SVG 1.1//EN" "http://www.w3.org/Graphics/SVG/1.1/DTD/svg11.dtd"><svg width="100%" height="100%" viewBox="0 0 105 105" version="1.1" xmlns="http://www.w3.org/2000/svg" xmlns:xlink="http://www.w3.org/1999/xlink" xml:space="preserve" xmlns:serif="http://www.serif.com/" style="fill-rule:evenodd;clip-rule:evenodd;stroke-linejoin:round;stroke-miterlimit:2;"><g><path d="M39.583,76.465l-2.269,-1.971l-7.373,8.96l-3.099,-3.015l-2.044,2.217l5.383,5.235l9.402,-11.426Z" style="fill:#af2b50;fill-rule:nonzero;"/><rect x="45.371" y="77.197" width="33.997" height="2.279" style="fill:#af2b50;"/><rect x="45.371" y="82.907" width="33.997" height="2.279" style="fill:#af2b50;"/><path d="M52.083,62.549c13.55,-0 24.576,-11.024 24.576,-24.577c-0,-13.55 -11.024,-24.575 -24.576,-24.575c-13.551,-0 -24.576,11.024 -24.576,24.575c0.001,13.553 11.025,24.577 24.576,24.577Zm0,-46.872c12.295,0 22.295,10.002 22.295,22.295c0,12.293 -10,22.298 -22.295,22.298c-12.295,0 -22.296,-10.003 -22.296,-22.298c-0,-12.295 10.003,-22.295 22.296,-22.295Z" style="fill:#af2b50;fill-rule:nonzero;"/><path d="M52.083,52.871c8.215,0 14.898,-6.683 14.898,-14.897c-0,-8.215 -6.683,-14.899 -14.898,-14.899c-8.214,-0 -14.897,6.682 -14.897,14.897c-0,8.215 6.683,14.899 14.897,14.899Zm0,-27.518c6.958,0 12.619,5.661 12.619,12.619c0,6.958 -5.659,12.619 -12.619,12.619c-6.959,-0 -12.618,-5.661 -12.618,-12.619c-0,-6.958 5.66,-12.619 12.618,-12.619Z" style="fill:#af2b50;fill-rule:nonzero;"/><path d="M20.783,104.167l62.601,-0c4.287,-0 7.762,-3.475 7.762,-7.762l-0,-88.643c-0,-4.287 -3.475,-7.762 -7.762,-7.762l-62.601,0c-4.287,0 -7.762,3.475 -7.762,7.762l-0,88.643c-0,4.287 3.475,7.762 7.762,7.762Zm-5.484,-96.405c0,-3.024 2.46,-5.483 5.484,-5.483l62.601,-0c3.024,-0 5.483,2.459 5.483,5.483l0,88.643c0,3.024 -2.459,5.483 -5.483,5.483l-62.601,0c-3.024,0 -5.484,-2.459 -5.484,-5.483l0,-88.643Z" style="fill:#af2b50;fill-rule:nonzero;"/></g></svg>