<?xml version="1.0" encoding="UTF-8" standalone="no"?><!DOCTYPE svg PUBLIC "-//W3C//DTD SVG 1.1//EN" "http://www.w3.org/Graphics/SVG/1.1/DTD/svg11.dtd"><svg width="100%" height="100%" viewBox="0 0 150 163" version="1.1" xmlns="http://www.w3.org/2000/svg" xmlns:xlink="http://www.w3.org/1999/xlink" xml:space="preserve" xmlns:serif="http://www.serif.com/" style="fill-rule:evenodd;clip-rule:evenodd;stroke-linejoin:round;stroke-miterlimit:2;"><g><g><path d="M133.804,118.884l-0,28.226c-0,7.795 -6.319,14.113 -14.113,14.113l-94.086,0c-7.795,0 -14.113,-6.318 -14.113,-14.113l-0,-23.521l-4.704,-0c-2.598,-0 -4.705,-2.106 -4.705,-4.705c0,-2.598 2.107,-4.704 4.705,-4.704l4.704,0l-0,-28.226l-4.704,0c-2.598,0 -4.705,-2.106 -4.705,-4.704c0,-2.598 2.107,-4.704 4.705,-4.704l4.704,-0l-0,-28.226l-4.704,-0c-2.598,-0 -4.705,-2.106 -4.705,-4.704c0,-2.599 2.107,-4.705 4.705,-4.705l4.704,0l-0,-23.521c-0,-7.795 6.318,-14.113 14.113,-14.113l94.086,-0c7.794,-0 14.113,6.318 14.113,14.113l-0,28.226l4.704,-0c5.196,-0 9.409,4.212 9.409,9.408l-0,56.452c-0,5.196 -4.213,9.408 -9.409,9.408l-4.704,0Zm-9.409,0l-4.704,0c-5.196,0 -9.409,-4.212 -9.409,-9.408l0,-56.452c0,-5.196 4.213,-9.408 9.409,-9.408l4.704,-0l0,-28.226c0,-2.598 -2.106,-4.705 -4.704,-4.705l-94.086,0c-2.598,0 -4.704,2.107 -4.704,4.705l-0,23.521l4.704,0c2.598,0 4.704,2.106 4.704,4.705c0,2.598 -2.106,4.704 -4.704,4.704l-4.704,-0l-0,28.226l4.704,-0c2.598,-0 4.704,2.106 4.704,4.704c0,2.598 -2.106,4.704 -4.704,4.704l-4.704,0l-0,28.226l4.704,0c2.598,0 4.704,2.106 4.704,4.704c0,2.599 -2.106,4.705 -4.704,4.705l-4.704,-0l-0,23.521c-0,2.598 2.106,4.705 4.704,4.705l94.086,-0c2.598,-0 4.704,-2.107 4.704,-4.705l0,-28.226Zm-4.704,-65.86l-0,56.452l18.817,-0l0,-56.452l-18.817,0Z" style="fill:#af2b50;fill-rule:nonzero;"/></g></g></svg>