<?xml version="1.0" encoding="UTF-8" standalone="no"?><!DOCTYPE svg PUBLIC "-//W3C//DTD SVG 1.1//EN" "http://www.w3.org/Graphics/SVG/1.1/DTD/svg11.dtd"><svg width="100%" height="100%" viewBox="0 0 146 188" version="1.1" xmlns="http://www.w3.org/2000/svg" xmlns:xlink="http://www.w3.org/1999/xlink" xml:space="preserve" xmlns:serif="http://www.serif.com/" style="fill-rule:evenodd;clip-rule:evenodd;stroke-linejoin:round;stroke-miterlimit:2;"><path d="M130.41,26.572l-24.46,0c-3.098,-7.65 -5.848,-11.803 -11.999,-12.845l-4.141,0c-1.559,-7.968 -8.59,-13.997 -17.009,-13.997c-8.418,0 -15.45,6.029 -17.013,13.997l-3.91,0c-7.6,0.842 -10.197,7.428 -11.333,12.845l-25.126,0c-8.501,0 -15.419,6.918 -15.419,15.419l0,130.36c0,8.501 6.918,15.419 15.419,15.419l114.991,-0c8.501,-0 15.423,-6.918 15.423,-15.419l0,-130.36c-0.008,-8.501 -6.922,-15.419 -15.423,-15.419Zm-78.179,-5.006l7.216,-0c1.061,-0 2.084,-0.431 2.824,-1.203c0.741,-0.771 1.132,-1.802 1.081,-5.167c-0.051,-3.365 4.212,-7.631 9.449,-7.631c5.238,0 9.5,4.262 9.449,7.627c-0.051,3.365 0.345,4.4 1.081,5.167c0.737,0.768 1.755,1.203 2.825,1.203l7.458,-0c6.742,7.059 5.395,12.771 5.731,20.347l-52.524,-0c0.971,-5.935 0.403,-18.925 5.41,-20.343Zm85.76,150.781c-0,4.18 -3.397,7.584 -7.584,7.584l-114.988,0c-4.184,0 -7.588,-3.4 -7.588,-7.584l-0,-130.356c-0,-4.176 3.4,-7.584 7.588,-7.584l24.127,0c-0.278,4.811 -1.488,9.754 -0.188,13.934c0.741,0.89 1.845,1.399 3.009,1.399l61.096,-0c1.077,-0 2.103,-0.443 2.848,-1.226c1.907,-4.266 0.756,-9.629 0.521,-14.111l23.586,0c4.18,0 7.588,3.404 7.588,7.584l0,130.364l-0.015,-0l-0,-0.004Zm-89.329,-109.93c1.536,1.531 1.536,4.007 0,5.539l-18.972,18.98c-0.736,0.736 -1.728,1.147 -2.77,1.147c-1.042,0 -2.037,-0.411 -2.769,-1.147l-8.133,-8.133c-1.531,-1.532 -1.531,-4.007 0,-5.539c1.532,-1.532 4.008,-1.532 5.539,-0l5.363,5.359l16.203,-16.206c1.532,-1.528 4.003,-1.528 5.539,-0Zm0,36.428c1.536,1.527 1.536,4.007 0,5.539l-18.972,18.98c-0.736,0.736 -1.728,1.147 -2.77,1.147c-1.042,0 -2.037,-0.411 -2.769,-1.147l-8.133,-8.133c-1.531,-1.532 -1.531,-4.007 0,-5.539c1.532,-1.532 4.008,-1.532 5.539,-0l5.363,5.363l16.203,-16.21c1.524,-1.532 4.003,-1.532 5.539,-0Zm0,36.424c1.536,1.531 1.536,4.007 0,5.539l-18.972,18.98c-0.736,0.736 -1.728,1.147 -2.77,1.147c-1.042,0 -2.037,-0.411 -2.769,-1.147l-8.133,-8.133c-1.531,-1.532 -1.531,-4.007 0,-5.539c1.532,-1.532 4.008,-1.532 5.539,-0l5.363,5.359l16.203,-16.206c1.532,-1.532 4.003,-1.532 5.539,-0Zm81.831,-70.271c-0,2.167 -1.751,3.918 -3.918,3.918l-65.162,-0c-2.162,-0 -3.917,-1.751 -3.917,-3.918c-0,-2.166 1.755,-3.917 3.917,-3.917l65.162,-0c2.167,-0 3.918,1.747 3.918,3.917Zm-72.997,15.333c-0,-2.162 1.755,-3.917 3.917,-3.917l42.171,-0c2.159,-0 3.917,1.755 3.917,3.917c0,2.166 -1.758,3.917 -3.917,3.917l-42.171,0c-2.158,0 -3.917,-1.755 -3.917,-3.917Zm72.997,23.007c-0,2.166 -1.751,3.917 -3.918,3.917l-65.162,0c-2.162,0 -3.917,-1.751 -3.917,-3.917c-0,-2.166 1.755,-3.918 3.917,-3.918l65.162,0c2.167,0 3.918,1.752 3.918,3.918Zm-0,38.34c-0,2.166 -1.751,3.917 -3.918,3.917l-65.162,-0c-2.162,-0 -3.917,-1.751 -3.917,-3.917c-0,-2.167 1.755,-3.918 3.917,-3.918l65.162,0c2.167,0 3.918,1.751 3.918,3.918Zm-72.997,-23.003c-0,-2.163 1.755,-3.918 3.917,-3.918l42.171,0c2.159,0 3.917,1.755 3.917,3.918c0,2.162 -1.758,3.917 -3.917,3.917l-42.171,-0c-2.158,-0 -3.917,-1.755 -3.917,-3.917Zm50.005,38.335c0,2.163 -1.758,3.918 -3.917,3.918l-42.171,-0c-2.162,-0 -3.917,-1.755 -3.917,-3.918c-0,-2.162 1.755,-3.917 3.917,-3.917l42.171,-0c2.159,-0 3.917,1.759 3.917,3.917Z" style="fill:#af2b50;fill-rule:nonzero;"/></svg>