<?xml version="1.0" standalone="no"?>
<!DOCTYPE svg PUBLIC "-//W3C//DTD SVG 20010904//EN"
 "http://www.w3.org/TR/2001/REC-SVG-20010904/DTD/svg10.dtd">
<svg version="1.0" xmlns="http://www.w3.org/2000/svg"
 width="1716.000000pt" height="1703.000000pt" viewBox="0 0 1716.000000 1703.000000"
 preserveAspectRatio="xMidYMid meet">

<g transform="translate(0.000000,1703.000000) scale(0.100000,-0.100000)"
fill="#000000" stroke="none">
<path d="M1075 16989 c-105 -8 -258 -45 -321 -77 -11 -5 -41 -20 -67 -33 -27
-13 -56 -29 -65 -34 -51 -31 -101 -65 -113 -77 -8 -7 -36 -33 -63 -57 -91 -82
-226 -261 -226 -300 0 -6 -4 -11 -9 -11 -5 0 -13 -15 -16 -32 -4 -18 -14 -42
-21 -53 -8 -11 -14 -29 -14 -40 0 -11 -7 -29 -15 -39 -13 -17 -15 -164 -15
-1087 0 -999 1 -1069 18 -1105 29 -65 52 -92 107 -129 51 -34 57 -35 145 -35
132 0 196 37 248 145 l32 65 0 985 c0 867 2 986 15 991 8 4 15 11 15 17 0 6
14 39 31 73 38 79 130 167 225 213 62 32 81 36 194 44 162 11 4552 24 8796 26
3278 1 3332 1 3375 -18 47 -21 149 -114 149 -136 0 -7 7 -18 15 -25 13 -11 15
-371 15 -3124 l1 -3111 33 -65 c26 -52 44 -72 91 -104 58 -40 58 -40 155 -39
95 0 98 1 152 37 31 20 59 44 62 54 3 9 17 35 31 57 l25 40 0 2945 c1 2402 3
2962 14 3040 11 79 11 110 0 194 -14 96 -32 167 -59 231 -24 55 -60 130 -68
140 -4 6 -29 39 -56 75 -83 112 -198 207 -320 265 -113 54 -141 65 -166 65
-14 0 -43 7 -66 17 -45 18 -45 18 -9102 -4 -2089 -5 -2843 -3 -2860 5 -27 14
-182 19 -302 11z"/>
<path d="M5355 15416 c-16 -7 -46 -15 -66 -19 -81 -12 -231 -100 -320 -187
-39 -38 -102 -128 -125 -179 -14 -31 -30 -65 -36 -76 -10 -18 -27 -77 -49
-175 -14 -58 -14 -372 0 -430 27 -121 42 -164 79 -239 37 -74 126 -201 141
-201 3 0 27 -19 52 -43 74 -69 195 -124 344 -158 75 -17 242 -17 315 0 67 16
183 53 190 60 3 3 27 17 54 31 27 14 57 32 66 40 8 8 33 29 54 45 80 63 207
266 222 355 3 19 13 53 21 75 23 59 22 444 -1 497 -9 21 -16 47 -16 58 0 39
-88 220 -132 271 -59 69 -74 85 -121 126 -52 46 -194 119 -248 129 -19 3 -51
12 -72 20 -50 19 -309 19 -352 0z m303 -302 c149 -64 208 -121 266 -254 31
-74 40 -137 40 -295 0 -158 -9 -221 -40 -295 -32 -73 -50 -103 -89 -144 -82
-87 -176 -126 -305 -126 -117 0 -208 33 -281 102 -35 32 -99 124 -99 141 0 7
-4 17 -9 22 -5 6 -18 47 -30 92 -28 111 -29 306 -1 410 49 186 121 272 290
347 48 21 209 22 258 0z"/>
<path d="M9980 15415 c-19 -7 -45 -14 -58 -14 -25 -1 -203 -84 -224 -104 -7
-7 -34 -30 -60 -51 -87 -70 -207 -263 -225 -361 -3 -16 -12 -50 -20 -75 -22
-66 -22 -438 0 -495 8 -22 18 -57 22 -79 3 -21 10 -46 15 -55 5 -9 21 -41 35
-71 42 -90 69 -125 168 -220 61 -60 143 -110 240 -149 61 -24 187 -44 282 -45
297 -2 556 148 668 387 41 88 46 104 49 147 l3 45 -167 3 -167 2 -14 -27 c-8
-16 -17 -40 -20 -54 -11 -42 -94 -127 -151 -153 -83 -38 -118 -46 -200 -46
-85 0 -158 19 -221 58 -46 29 -113 96 -126 126 -5 12 -13 28 -19 36 -17 27
-37 84 -54 150 -21 82 -18 325 5 410 33 120 109 234 191 286 76 49 152 67 252
61 87 -5 108 -11 194 -56 46 -24 121 -110 128 -147 3 -18 14 -46 25 -63 l19
-31 159 0 c129 0 160 3 164 14 8 21 -2 84 -20 131 -46 118 -80 172 -159 252
-68 68 -96 88 -176 127 -53 25 -108 46 -122 46 -15 0 -43 7 -63 15 -47 20
-302 20 -353 0z"/>
<path d="M1695 15389 c-3 -13 -4 -393 -3 -844 l3 -820 170 0 170 0 3 261 c2
228 4 264 19 275 12 11 73 15 242 19 276 7 334 21 462 117 86 64 143 150 183
272 25 75 25 267 0 342 -31 95 -84 190 -135 239 -28 28 -103 77 -149 97 -126
57 -116 56 -552 61 l-407 4 -6 -23z m740 -279 c67 -32 135 -91 135 -116 0 -4
7 -15 16 -25 12 -14 16 -41 16 -121 0 -113 -15 -160 -73 -217 -61 -61 -99 -72
-275 -78 -89 -3 -174 -3 -188 1 l-26 6 0 279 c0 214 3 281 13 285 6 3 89 4
182 3 122 -2 178 -7 200 -17z"/>
<path d="M3225 15389 c-3 -13 -4 -393 -3 -844 l3 -820 165 0 165 0 3 284 c1
189 6 289 13 298 9 10 45 13 140 13 l128 0 19 -27 c11 -16 43 -73 72 -128 29
-55 70 -131 91 -170 21 -38 48 -90 60 -115 13 -25 38 -71 56 -102 l34 -58 178
0 c98 0 180 3 184 6 3 4 -9 34 -27 68 -36 65 -81 149 -124 228 -15 27 -41 75
-58 106 -18 31 -45 82 -60 112 -16 30 -31 57 -34 60 -3 3 -11 18 -18 33 -16
38 -4 58 58 94 47 27 159 145 160 168 0 6 7 23 15 39 59 112 57 361 -3 478
-71 136 -173 218 -342 273 -48 16 -104 19 -462 23 l-407 4 -6 -23z m755 -284
c61 -32 97 -63 124 -109 23 -39 26 -55 26 -136 0 -88 -1 -94 -36 -145 -24 -37
-48 -60 -77 -73 -64 -31 -193 -52 -310 -52 -156 0 -147 -17 -147 278 0 177 3
241 13 251 9 10 55 12 192 9 149 -4 186 -7 215 -23z"/>
<path d="M7308 15399 c-17 -9 -18 -50 -18 -635 l0 -625 -24 -52 c-35 -77 -107
-121 -195 -119 -103 2 -188 73 -201 167 l-5 40 -172 3 c-199 3 -182 14 -162
-107 22 -132 108 -248 230 -310 64 -32 95 -41 221 -63 107 -18 274 10 379 64
65 33 199 156 199 182 0 7 7 19 15 26 8 7 15 20 15 29 0 9 8 30 18 46 16 28
17 81 17 695 l0 665 -150 2 c-90 2 -157 -1 -167 -8z"/>
<path d="M7963 15403 c-10 -4 -13 -182 -13 -844 l0 -839 570 0 571 0 -3 138
-3 137 -390 5 -390 5 -3 194 c-2 134 1 198 9 207 9 11 76 14 360 14 l349 0 5
23 c3 12 4 76 3 142 l-3 120 -360 5 -360 5 -3 199 c-2 153 1 201 10 208 7 4
185 8 396 8 l383 0 -3 138 -3 137 -555 2 c-305 1 -561 -1 -567 -4z"/>
<path d="M11104 15397 c-2 -7 -3 -69 -2 -138 l3 -124 260 -5 c143 -3 261 -7
262 -8 2 -1 4 -316 5 -699 l3 -698 165 0 165 0 5 700 5 700 258 3 258 2 -3
138 -3 137 -688 3 c-560 2 -689 0 -693 -11z"/>
<path d="M313 13243 c-17 -2 -37 -11 -43 -19 -7 -8 -17 -14 -22 -14 -17 0 -68
-60 -93 -110 l-25 -49 0 -5858 c0 -5158 2 -5868 15 -5943 8 -47 15 -99 15
-117 0 -18 6 -47 14 -65 8 -18 24 -67 36 -108 12 -41 26 -84 33 -95 6 -11 27
-51 47 -90 42 -81 78 -139 109 -175 12 -14 41 -47 64 -75 58 -68 73 -82 202
-187 69 -57 291 -178 328 -178 12 -1 33 -7 47 -15 14 -8 33 -14 43 -15 11 0
33 -6 50 -14 39 -17 227 -40 322 -40 69 1 258 24 343 42 40 9 3210 0 4422 -12
463 -4 498 -3 547 14 136 48 189 143 168 305 -6 50 -12 61 -59 108 -96 96 131
87 -2223 87 -1139 0 -2078 3 -2087 6 -22 8 -20 20 12 84 85 166 101 201 121
270 13 41 27 83 32 93 25 46 49 423 47 737 -1 211 1 253 17 300 10 30 22 62
26 70 5 8 11 21 14 28 18 45 45 93 75 132 28 37 152 160 161 160 3 0 16 9 29
20 13 11 29 20 37 20 7 0 13 4 13 10 0 5 12 13 28 16 15 4 32 10 37 14 6 5 37
18 70 30 52 18 88 21 260 25 110 2 2862 10 6115 16 5581 11 5920 10 6010 -6
52 -9 110 -23 128 -31 18 -8 39 -14 46 -14 15 0 158 -68 166 -79 3 -4 23 -18
45 -31 58 -35 61 -37 146 -123 65 -65 163 -193 178 -232 2 -5 12 -29 22 -52
11 -23 19 -48 19 -55 0 -8 4 -18 9 -24 6 -5 14 -27 20 -49 5 -22 15 -58 20
-80 16 -62 13 -352 -4 -400 -8 -22 -15 -48 -15 -58 0 -10 -9 -39 -21 -65 -11
-26 -27 -63 -35 -82 -43 -102 -105 -191 -194 -280 -97 -97 -192 -159 -340
-224 -103 -46 -262 -54 -1020 -55 -327 -1 -761 -6 -965 -11 -203 -6 -955 -14
-1671 -20 -715 -5 -1307 -12 -1315 -14 -8 -3 -630 -10 -1384 -16 -1010 -8
-1384 -14 -1425 -23 -179 -40 -276 -225 -209 -401 28 -72 69 -117 144 -157
l60 -32 605 7 c333 3 652 9 710 11 58 3 695 10 1415 15 721 5 1320 12 1333 14
12 3 444 7 960 11 515 3 1234 10 1598 17 388 6 667 7 677 2 17 -10 229 -1 367
15 47 5 117 19 155 31 39 12 86 25 105 29 56 12 252 105 328 156 30 19 56 35
59 35 15 0 149 113 229 194 81 81 194 214 194 229 0 3 14 27 32 53 41 61 128
233 128 254 0 9 4 20 9 26 17 18 58 189 82 339 16 102 6 447 -15 504 -9 24
-16 58 -16 75 0 33 -35 144 -51 160 -5 6 -9 16 -9 24 0 7 -8 32 -18 55 -10 23
-27 62 -38 87 -10 25 -22 50 -27 55 -4 6 -41 61 -82 124 -115 176 -301 356
-480 463 -113 68 -285 143 -363 159 -23 5 -50 13 -60 18 -19 10 -92 23 -242
42 -95 12 -267 6 -283 -10 -8 -8 -207 -11 -644 -11 l-633 0 -10 25 c-5 13 -15
135 -21 270 -9 188 -9 251 0 271 10 22 14 24 27 13 11 -9 49 -14 118 -14 93 0
104 2 141 26 44 29 93 79 146 149 41 54 55 72 91 113 15 18 30 40 34 50 3 9
10 17 15 17 5 0 9 5 9 10 0 6 9 23 19 38 48 68 119 183 152 247 86 163 149
296 149 314 0 5 6 22 14 38 8 15 22 48 31 73 9 25 23 60 31 78 8 18 14 64 14
102 0 105 -40 173 -155 264 -28 22 -57 47 -66 55 -24 24 -68 61 -123 105 -49
39 -57 46 -120 105 -42 39 -43 53 -25 256 15 171 15 181 0 376 -8 97 -11 187
-8 200 3 13 28 41 54 61 26 21 62 50 78 65 26 25 65 57 164 138 68 56 171 160
171 174 0 9 7 25 15 35 20 26 20 154 1 198 -8 18 -22 53 -31 78 -9 25 -23 58
-31 73 -8 16 -14 33 -14 38 0 11 -34 92 -52 124 -6 11 -42 80 -81 155 -38 74
-72 137 -76 140 -3 3 -11 14 -18 25 -23 38 -74 120 -86 139 -15 25 -23 36 -47
65 -11 13 -20 27 -20 30 0 3 -15 22 -33 42 -17 19 -54 64 -81 100 -27 35 -67
78 -90 95 -53 39 -167 72 -200 56 -13 -6 -44 -13 -69 -17 -43 -7 -46 -5 -51
16 -3 13 -7 197 -10 409 -3 252 -9 404 -17 440 -15 64 -62 128 -123 168 -35
23 -52 26 -121 27 -76 0 -83 -2 -136 -38 -43 -28 -64 -51 -88 -96 -31 -59 -31
-59 -31 -217 0 -88 5 -306 11 -487 7 -180 10 -330 7 -333 -7 -6 -60 18 -103
46 -16 11 -40 25 -52 31 -13 7 -23 16 -23 21 0 4 -4 8 -9 8 -6 0 -29 13 -53
29 -24 16 -68 41 -98 55 -30 15 -89 45 -130 67 -41 21 -82 39 -90 39 -49 0
-83 59 -99 170 -14 94 -29 181 -43 244 -6 26 -14 74 -18 105 -15 105 -52 175
-120 223 -54 40 -106 55 -225 69 -49 5 -106 15 -125 21 -51 18 -699 17 -760 0
-25 -7 -81 -17 -125 -22 -154 -17 -183 -29 -251 -95 -65 -64 -73 -81 -96 -220
-5 -33 -16 -85 -24 -116 -8 -30 -14 -71 -14 -91 0 -19 -7 -57 -15 -84 -8 -27
-15 -69 -15 -93 0 -36 -6 -49 -34 -77 -20 -20 -44 -34 -59 -34 -13 0 -30 -7
-37 -15 -7 -8 -21 -15 -31 -15 -10 0 -20 -4 -23 -9 -3 -5 -45 -28 -93 -51 -49
-24 -107 -56 -131 -71 -24 -16 -47 -29 -52 -29 -4 0 -10 -3 -12 -7 -4 -9 -65
-53 -73 -53 -3 0 -36 -23 -72 -50 -85 -64 -103 -65 -243 -10 -30 12 -66 24
-80 27 -14 3 -34 12 -45 19 -11 8 -29 14 -40 14 -11 0 -29 6 -40 14 -11 7 -31
16 -45 19 -14 3 -47 13 -75 22 -116 38 -118 38 -186 19 -84 -23 -129 -60 -235
-195 -80 -102 -234 -324 -234 -337 0 -3 -7 -13 -15 -22 -16 -18 -173 -326
-193 -380 -7 -19 -19 -48 -27 -63 -8 -16 -15 -33 -15 -39 0 -5 -6 -24 -14 -41
-48 -108 -57 -200 -29 -277 17 -47 92 -129 193 -210 30 -25 66 -55 80 -67 54
-46 77 -66 125 -106 93 -79 86 -57 80 -240 -3 -89 -8 -174 -10 -188 -2 -14 0
-119 5 -234 6 -132 6 -214 0 -226 -12 -22 -23 -32 -90 -89 -29 -25 -58 -50
-64 -55 -6 -6 -33 -28 -61 -50 -27 -21 -55 -44 -60 -49 -6 -6 -44 -41 -85 -78
-42 -36 -84 -83 -94 -105 -11 -21 -23 -46 -27 -55 -20 -41 -5 -158 31 -243 8
-17 33 -80 60 -150 32 -84 181 -368 235 -448 36 -54 65 -101 65 -103 0 -5 42
-66 50 -74 3 -3 37 -45 75 -95 155 -200 184 -220 325 -219 68 1 104 6 125 17
17 9 37 17 46 17 8 0 19 4 25 9 5 5 25 14 44 19 19 6 60 20 90 32 30 12 69 25
86 30 18 4 38 11 45 16 20 12 111 43 129 44 9 0 31 -13 50 -29 39 -32 169
-121 176 -121 5 0 65 -41 74 -50 5 -5 100 -55 225 -117 28 -14 62 -31 77 -39
14 -8 33 -14 41 -14 30 0 67 -58 67 -105 0 -24 5 -56 11 -72 6 -15 15 -64 20
-108 8 -71 7 -81 -8 -93 -14 -10 -772 -12 -3888 -12 -3459 1 -3877 -1 -3930
-15 -33 -8 -72 -15 -87 -15 -15 0 -42 -6 -60 -14 -18 -8 -53 -22 -78 -31 -64
-24 -109 -44 -155 -67 -202 -105 -451 -347 -534 -520 -12 -27 -27 -50 -32 -54
-5 -3 -9 -14 -9 -24 0 -10 -6 -25 -12 -32 -15 -16 -35 -64 -53 -133 -7 -27
-23 -86 -36 -130 -21 -75 -22 -97 -20 -374 1 -188 6 -300 12 -308 27 -32 19
-216 -14 -328 -53 -176 -193 -353 -350 -441 -60 -35 -147 -74 -162 -74 -7 0
-29 -7 -48 -15 -50 -21 -331 -21 -367 0 -14 8 -35 14 -46 15 -64 1 -221 96
-320 195 -100 100 -158 196 -203 336 l-21 66 0 5895 0 5895 -21 44 c-35 75
-45 89 -80 114 -19 13 -40 29 -47 35 -13 12 -166 21 -219 13z m11860 -4550
l136 -6 16 -40 c9 -22 20 -72 25 -111 5 -40 14 -92 19 -116 6 -25 15 -74 21
-110 7 -36 16 -87 21 -115 16 -91 74 -173 146 -209 21 -10 50 -25 65 -32 14
-8 34 -14 45 -14 10 0 27 -7 37 -15 11 -8 28 -15 39 -15 17 0 35 -8 97 -41 8
-4 51 -26 95 -48 128 -63 289 -175 414 -288 33 -30 137 -80 183 -88 43 -8 168
26 283 76 11 5 34 13 50 18 17 5 55 19 85 31 30 12 66 24 80 28 14 3 35 12 48
20 34 22 63 4 111 -68 23 -34 41 -64 41 -66 0 -3 6 -11 13 -19 37 -39 207
-367 207 -401 0 -20 -40 -58 -186 -179 -26 -22 -55 -47 -64 -55 -8 -8 -38 -33
-65 -55 -145 -118 -180 -216 -141 -395 20 -91 36 -257 36 -375 0 -118 -16
-284 -36 -375 -16 -73 -19 -206 -5 -215 5 -3 12 -18 16 -34 6 -27 97 -122 184
-193 145 -117 252 -215 258 -236 4 -17 -14 -62 -68 -168 -86 -168 -77 -153
-153 -269 -32 -50 -69 -100 -83 -111 -26 -23 -40 -21 -118 11 -17 7 -45 16
-62 19 -18 4 -35 12 -38 17 -4 5 -14 9 -23 9 -9 0 -29 6 -44 14 -15 8 -41 17
-58 21 -17 4 -43 13 -58 21 -15 8 -34 14 -43 14 -8 0 -21 6 -27 13 -9 8 -46
12 -110 12 -95 0 -98 -1 -152 -37 -30 -20 -64 -45 -75 -55 -78 -71 -282 -216
-357 -254 -141 -72 -181 -90 -300 -135 -68 -26 -131 -56 -162 -77 -42 -30 -94
-118 -105 -179 -27 -156 -33 -189 -47 -249 -8 -37 -14 -80 -14 -96 0 -16 -7
-53 -16 -82 -23 -79 -31 -81 -344 -81 -240 0 -264 2 -299 20 -32 16 -40 26
-44 57 -17 114 -30 184 -43 234 -8 30 -14 69 -14 86 0 50 -37 179 -65 222 -39
62 -93 98 -227 147 -90 33 -126 48 -168 70 -25 12 -70 35 -100 50 -91 44 -289
181 -375 259 -16 15 -55 43 -85 63 -54 36 -57 37 -152 37 -64 0 -101 -4 -110
-12 -6 -7 -18 -13 -26 -13 -8 0 -28 -6 -45 -14 -72 -30 -143 -56 -157 -56 -8
0 -24 -7 -34 -15 -11 -8 -30 -15 -42 -15 -13 0 -25 -4 -28 -9 -9 -14 -102 -34
-125 -26 -20 6 -98 116 -178 250 -40 68 -143 284 -143 300 0 11 8 27 18 36 9
8 90 76 180 152 193 165 221 192 250 250 27 53 30 172 8 258 -38 145 -38 583
0 728 22 87 19 204 -8 260 -28 56 -122 144 -395 370 -34 27 -53 51 -53 64 0
53 230 465 304 544 25 27 28 27 69 10 42 -18 93 -36 137 -49 19 -5 39 -14 44
-19 6 -5 16 -9 24 -9 8 0 28 -7 45 -15 51 -23 246 -85 270 -85 55 0 164 54
232 114 44 40 204 158 250 186 22 13 42 27 45 30 3 4 43 26 90 49 47 23 92 46
100 50 62 32 84 41 99 41 9 0 26 7 37 15 10 8 27 15 37 15 9 0 34 9 54 20 21
11 43 20 49 20 19 0 102 79 119 113 21 41 55 171 55 210 0 17 6 56 14 86 8 31
19 85 25 121 15 99 27 148 41 164 8 11 37 16 98 19 183 7 273 7 405 0z m1371
-4808 c10 -27 27 -407 24 -535 l-3 -125 -343 -3 c-392 -3 -363 -10 -343 92 7
33 18 97 25 141 16 99 32 134 65 141 14 4 85 36 156 72 182 91 189 95 200 104
21 18 117 78 125 78 5 0 10 3 12 8 5 11 51 41 64 41 7 1 14 -6 18 -14z"/>
<path d="M11911 7200 c-19 -4 -71 -11 -115 -15 -45 -4 -86 -11 -91 -16 -6 -4
-29 -12 -50 -18 -77 -18 -147 -48 -261 -109 -151 -81 -350 -279 -430 -428 -73
-135 -97 -191 -113 -264 -5 -19 -13 -46 -19 -60 -13 -34 -36 -210 -36 -285 0
-75 23 -251 36 -285 6 -14 14 -41 18 -60 22 -99 101 -260 182 -370 54 -74 212
-227 279 -272 59 -39 155 -95 179 -103 8 -4 28 -13 43 -21 16 -7 37 -14 47
-14 11 0 34 -6 52 -14 73 -31 149 -45 273 -51 190 -9 354 10 452 51 17 8 38
14 47 14 20 0 189 87 261 136 31 20 98 78 148 128 138 136 155 158 231 304 16
29 32 55 37 58 5 3 9 13 9 22 0 9 6 29 14 43 7 14 16 43 20 65 5 21 11 44 16
49 9 12 37 178 43 260 8 91 -22 354 -43 380 -4 6 -11 26 -14 45 -4 19 -11 44
-16 55 -13 32 -90 188 -103 210 -17 29 -139 187 -162 210 -37 38 -200 167
-225 178 -14 6 -27 14 -30 17 -13 13 -149 78 -177 84 -18 4 -35 12 -38 17 -4
5 -17 9 -31 9 -14 0 -35 5 -47 12 -44 24 -331 52 -386 38z m227 -566 c39 -9
75 -20 78 -25 3 -5 12 -9 21 -9 54 0 259 -174 302 -257 71 -137 83 -185 88
-329 3 -95 1 -130 -11 -159 -9 -21 -16 -45 -16 -55 0 -28 -72 -155 -120 -213
-41 -50 -107 -107 -151 -132 -71 -40 -101 -55 -113 -55 -7 0 -26 -6 -42 -14
-39 -19 -193 -29 -279 -17 -89 11 -132 27 -253 90 -15 8 -61 48 -102 90 -86
86 -147 197 -176 316 -83 339 157 710 501 773 33 7 69 14 80 16 28 7 108 -2
193 -20z"/>
<path d="M1782 12689 c-63 -30 -115 -88 -135 -151 -21 -68 -21 -97 0 -165 23
-73 80 -131 155 -158 39 -14 451 -17 4023 -25 2189 -5 4531 -12 5205 -16
l1225 -7 58 27 c32 15 70 43 84 61 29 36 62 124 63 163 0 31 -29 131 -44 150
-31 40 -72 74 -110 90 -40 18 -164 19 -3261 27 -1771 4 -3245 8 -3275 9 -30 1
-930 5 -2000 9 l-1945 7 -43 -21z"/>
<path d="M1425 11553 c-44 -12 -108 -64 -142 -116 l-24 -38 0 -902 c1 -496 4
-981 7 -1077 3 -96 9 -527 12 -956 7 -725 8 -783 25 -801 9 -11 17 -24 17 -29
1 -21 49 -64 103 -93 l57 -31 2810 0 2810 0 42 26 c52 33 84 68 110 119 20 38
20 57 19 455 -1 228 -4 453 -7 500 -3 47 -9 690 -13 1430 -7 1312 -7 1346 -26
1380 -30 52 -78 98 -127 120 -42 19 -77 20 -2848 19 -1543 -1 -2814 -4 -2825
-6z m5309 -482 c15 -17 17 -133 19 -1547 l2 -1529 -2485 0 -2485 0 -7 805 c-4
443 -12 1129 -17 1525 -9 628 -8 723 5 743 l14 22 2469 0 c2389 0 2468 -1
2485 -19z"/>
<path d="M4795 10668 c-214 -4 -396 -10 -402 -13 -10 -3 -13 -249 -13 -1184 0
-653 4 -1182 9 -1185 13 -8 2001 10 2009 19 11 11 24 247 20 385 -5 189 1
1435 7 1682 5 175 3 226 -9 260 l-14 43 -608 1 c-335 0 -784 -3 -999 -8z
m1113 -1184 c2 -617 1 -682 -14 -688 -9 -3 -238 -9 -510 -13 l-493 -6 -11 27
c-11 31 -13 1284 -1 1326 l7 25 429 5 c237 3 466 6 510 5 l80 0 3 -681z"/>
<path d="M3215 9759 c-126 -3 -427 -7 -667 -8 -291 -1 -439 -4 -443 -11 -10
-16 -8 -1441 2 -1451 10 -10 1985 5 2001 15 9 5 12 192 12 737 l0 729 -337 -2
c-186 -1 -441 -5 -568 -9z m493 -421 c9 -9 12 -93 12 -315 0 -290 -1 -304 -20
-323 -20 -20 -31 -20 -608 -18 l-587 3 -3 320 c-2 292 -1 321 15 333 24 17
1173 18 1191 0z"/>
<path d="M7989 10631 c-94 -52 -139 -127 -139 -233 0 -89 25 -144 93 -201 44
-38 45 -38 162 -47 65 -5 1131 -12 2370 -16 l2251 -7 53 29 c74 40 119 97 132
169 20 111 -14 210 -92 266 -73 51 53 49 -2459 55 -2327 5 -2335 5 -2371 -15z"/>
<path d="M8018 9692 c-26 -9 -53 -23 -60 -29 -6 -7 -17 -13 -23 -13 -6 0 -26
-24 -45 -52 -31 -48 -35 -61 -38 -135 -3 -70 -1 -88 19 -128 27 -54 63 -87
128 -118 l46 -22 1495 0 1496 0 51 38 c83 61 98 93 98 212 0 111 1 107 -77
185 -33 33 -59 49 -85 54 -35 6 -2216 26 -2738 25 -179 0 -229 -4 -267 -17z"/>
<path d="M1385 6883 c-16 -10 -45 -27 -62 -38 -18 -11 -33 -24 -33 -29 0 -5
-7 -17 -16 -27 -15 -16 -29 -57 -41 -122 -6 -32 23 -144 42 -164 7 -7 15 -16
17 -20 1 -5 21 -22 43 -39 28 -22 60 -35 105 -43 48 -9 943 -13 3465 -18 3159
-6 3401 -5 3414 10 7 10 19 17 25 17 21 0 76 61 96 108 13 29 20 66 20 107 0
102 -40 172 -129 228 l-36 22 -1045 6 c-575 4 -2123 10 -3440 13 -2306 7
-2396 6 -2425 -11z"/>
<path d="M1348 5898 c-83 -59 -111 -113 -111 -213 0 -101 39 -173 119 -220 35
-21 61 -27 127 -30 113 -6 1755 -14 4683 -22 l2461 -6 60 36 c74 45 112 108
120 198 9 96 -26 171 -109 232 l-43 32 -265 7 c-146 3 -1779 9 -3630 13
l-3365 6 -47 -33z"/>
<path d="M1404 5022 c-33 -11 -114 -65 -114 -76 0 -5 -7 -17 -16 -27 -15 -16
-29 -57 -41 -122 -5 -28 21 -141 38 -161 36 -43 59 -66 67 -66 5 0 15 -6 21
-14 7 -8 26 -16 44 -20 18 -3 525 -8 1127 -11 602 -3 1167 -7 1255 -10 88 -3
1137 -6 2332 -7 2130 -2 2173 -1 2209 18 53 27 82 53 113 99 23 36 26 50 26
130 0 87 -1 92 -37 146 -26 39 -51 62 -85 79 -47 24 -53 25 -403 31 -502 9
-6511 19 -6536 11z"/>
<path d="M1425 4022 c-30 -4 -135 -68 -135 -82 0 -5 -6 -15 -14 -22 -15 -15
-46 -114 -46 -147 0 -11 8 -46 18 -77 18 -62 79 -135 129 -156 42 -17 741 -26
2225 -27 1206 -1 1290 0 1325 17 21 9 44 23 51 30 7 6 17 12 22 12 15 0 55 75
71 134 15 55 14 64 -1 125 -14 53 -26 75 -62 111 -84 85 68 78 -1853 83 -935
2 -1713 2 -1730 -1z"/>
</g>
</svg>
