<?xml version="1.0" encoding="UTF-8" standalone="no"?><!DOCTYPE svg PUBLIC "-//W3C//DTD SVG 1.1//EN" "http://www.w3.org/Graphics/SVG/1.1/DTD/svg11.dtd"><svg width="100%" height="100%" viewBox="0 0 96 96" version="1.1" xmlns="http://www.w3.org/2000/svg" xmlns:xlink="http://www.w3.org/1999/xlink" xml:space="preserve" xmlns:serif="http://www.serif.com/" style="fill-rule:evenodd;clip-rule:evenodd;stroke-linejoin:round;stroke-miterlimit:2;"><path d="M94.726,87.762l-17.958,-17.798c13.629,-16.997 12.346,-42.01 -3.207,-57.563c-8.177,-8.178 -18.92,-12.667 -30.465,-12.667c-11.545,-0 -22.448,4.489 -30.625,12.667c-8.178,8.177 -12.667,18.92 -12.667,30.625c-0,11.705 4.489,22.448 12.667,30.626c8.177,8.017 18.92,12.667 30.625,12.667c9.781,-0 19.401,-3.368 26.938,-9.461l17.797,17.798c0.963,0.962 2.085,1.443 3.368,1.443c1.282,0 2.565,-0.481 3.367,-1.443c1.924,-1.924 1.924,-4.97 0.16,-6.894Zm-17.958,-44.736c-0,8.979 -3.528,17.478 -9.941,23.731c-6.414,6.253 -14.752,9.941 -23.731,9.941c-8.979,0 -17.477,-3.527 -23.731,-9.941c-6.253,-6.414 -9.941,-14.752 -9.941,-23.731c0,-8.979 3.528,-17.477 9.941,-23.73c6.414,-6.254 14.592,-9.942 23.731,-9.942c8.979,0 17.477,3.528 23.731,9.942c6.253,6.413 9.941,14.591 9.941,23.73Z" style="fill:#474948;fill-rule:nonzero;"/></svg>