<?xml version="1.0" encoding="UTF-8" standalone="no"?><!DOCTYPE svg PUBLIC "-//W3C//DTD SVG 1.1//EN" "http://www.w3.org/Graphics/SVG/1.1/DTD/svg11.dtd"><svg width="100%" height="100%" viewBox="0 0 150 146" version="1.1" xmlns="http://www.w3.org/2000/svg" xmlns:xlink="http://www.w3.org/1999/xlink" xml:space="preserve" xmlns:serif="http://www.serif.com/" style="fill-rule:evenodd;clip-rule:evenodd;stroke-linejoin:round;stroke-miterlimit:2;"><g><path d="M145.979,113.568c-12.417,-28.028 -40.322,-46.185 -70.977,-46.185c-30.656,-0 -58.56,18.157 -70.978,46.185c-3.096,6.932 -2.457,14.983 1.694,21.34c4.083,6.292 11.098,10.092 18.598,10.075l101.371,-0c7.503,0.014 14.519,-3.791 18.598,-10.088c4.146,-6.353 4.786,-14.399 1.694,-21.327Zm-12.532,14.272c-1.685,2.645 -4.624,4.239 -7.76,4.21l-101.371,-0c-3.136,0.029 -6.074,-1.565 -7.76,-4.21c-1.78,-2.691 -2.047,-6.12 -0.704,-9.053c10.329,-23.38 33.59,-38.533 59.15,-38.533c25.559,0 48.82,15.153 59.15,38.533c1.343,2.933 1.076,6.362 -0.705,9.053Z" style="fill:#af2b50;fill-rule:nonzero;"/><path d="M75,82.617c22.428,-0 40.883,-18.456 40.883,-40.883c0,-22.428 -18.455,-40.883 -40.883,-40.883c-22.428,-0 -40.883,18.455 -40.883,40.883c0.022,22.419 18.464,40.86 40.883,40.883Zm-0,-68.139c14.952,0 27.255,12.304 27.255,27.256c0,14.951 -12.303,27.255 -27.255,27.255c-14.952,-0 -27.255,-12.304 -27.255,-27.255c-0,-14.952 12.303,-27.256 27.255,-27.256Z" style="fill:#af2b50;fill-rule:nonzero;stroke:#fff;stroke-width:4.17px;"/></g></svg>