<?xml version="1.0" encoding="UTF-8" standalone="no"?><!DOCTYPE svg PUBLIC "-//W3C//DTD SVG 1.1//EN" "http://www.w3.org/Graphics/SVG/1.1/DTD/svg11.dtd"><svg width="100%" height="100%" viewBox="0 0 125 157" version="1.1" xmlns="http://www.w3.org/2000/svg" xmlns:xlink="http://www.w3.org/1999/xlink" xml:space="preserve" xmlns:serif="http://www.serif.com/" style="fill-rule:evenodd;clip-rule:evenodd;stroke-linejoin:round;stroke-miterlimit:2;"><g><g><path d="M62.5,140.625c34.519,-0 62.5,-27.981 62.5,-62.5c-0,-34.519 -27.981,-62.5 -62.5,-62.5c-34.519,-0 -62.5,27.981 -62.5,62.5c-0,34.519 27.981,62.5 62.5,62.5Zm-0,-120.192c31.808,-0 57.692,25.88 57.692,57.692c0,17.125 -7.543,32.486 -19.432,43.062c-4.159,-2.038 -8.452,-3.951 -11.635,-5.322c-0.5,-0.206 -5.005,-2.105 -5.005,-2.105c0,-0 -14.423,-7.298 -7.211,-14.597c2.913,-2.947 4.62,-8.298 5.653,-14.091c1.688,-0.043 3.909,-3.716 5.125,-8.635c1.294,-5.216 0.948,-9.798 -0.778,-10.225c-0.164,-0.044 -0.337,-0.01 -0.505,0.024c0.389,-4.212 0.274,-8.207 -0.928,-9.938c-3.731,-5.336 -4.048,-10.043 -9.702,-12.077c-5.639,-2.043 1.149,-9.365 1.149,-9.365c0,-0 -24.154,0.678 -29.303,9.351c-3.024,5.072 -4.49,6.745 -8.216,12.086c-1.202,1.736 -1.231,5.736 -0.712,9.947c-0.221,-0.057 -0.432,-0.081 -0.63,-0.028c-1.725,0.427 -2.072,5.009 -0.783,10.225c1.221,4.919 3.447,8.592 5.125,8.635c1.038,5.793 2.74,11.14 5.658,14.091c7.212,7.299 -7.211,14.597 -7.211,14.597c-0,-0 -4.505,1.899 -5.005,2.105c-3.178,1.371 -7.466,3.284 -11.615,5.313c-11.89,-10.577 -19.423,-25.933 -19.423,-43.053c-0,-31.812 25.884,-57.692 57.692,-57.692Z" style="fill:#9c3a53;fill-rule:nonzero;"/></g></g></svg>