<svg width="18" height="17" viewBox="0 0 18 17" fill="none" xmlns="http://www.w3.org/2000/svg">
<path d="M8.90105 2.62487V3.61781C8.90105 3.89198 8.67875 4.11428 8.40458 4.11428H2.44693C2.17276 4.11428 1.95046 3.89198 1.95046 3.61781V0.638988C1.95046 0.36482 2.17276 0.142517 2.44693 0.142517H8.40458C8.67875 0.142517 8.90105 0.36482 8.90105 0.638988V1.63193H14.3622C14.6364 1.63193 14.8587 1.85423 14.8587 2.1284V4.40507L15.2523 4.01144C15.4463 3.81762 15.7605 3.81762 15.9545 4.01144C16.1483 4.20538 16.1483 4.51966 15.9545 4.71359L14.7133 5.95477C14.5194 6.14859 14.2051 6.14859 14.0111 5.95477L12.77 4.71359C12.5762 4.51966 12.5762 4.20538 12.77 4.01144C12.9639 3.81762 13.2782 3.81762 13.4721 4.01144L13.8658 4.40507V2.62487H8.90105ZM2.9434 3.12134H7.90811V1.13546H2.9434V3.12134ZM13.8658 11.0649H11.3834C11.1092 11.0649 10.8869 10.8426 10.8869 10.5684V7.58958C10.8869 7.31541 11.1092 7.09311 11.3834 7.09311H17.341C17.6152 7.09311 17.8375 7.31541 17.8375 7.58958V10.5684C17.8375 10.8426 17.6152 11.0649 17.341 11.0649H14.8587V14.0437C14.8587 14.3179 14.6364 14.5402 14.3622 14.5402H10.5961L10.9898 14.9338C11.1836 15.1277 11.1836 15.442 10.9898 15.6359C10.7958 15.8298 10.4816 15.8298 10.2876 15.6359L9.04644 14.3948C8.85262 14.2008 8.85262 13.8866 9.04644 13.6926L10.2876 12.4514C10.4816 12.2576 10.7958 12.2576 10.9898 12.4514C11.1836 12.6454 11.1836 12.9597 10.9898 13.1536L10.5961 13.5472H13.8658V11.0649ZM11.8799 8.08605V10.0719H16.8446V8.08605H11.8799ZM1.45399 12.0578H7.41164C7.6858 12.0578 7.90811 12.2801 7.90811 12.5543V15.5331C7.90811 15.8073 7.6858 16.0296 7.41164 16.0296H1.45399C1.17982 16.0296 0.95752 15.8073 0.95752 15.5331V12.5543C0.95752 12.2801 1.17982 12.0578 1.45399 12.0578ZM1.95046 15.0366H6.91517V13.0508H1.95046V15.0366Z" fill="white"/>
</svg>
