<?xml version="1.0" encoding="UTF-8" standalone="no"?>
<!DOCTYPE svg PUBLIC "-//W3C//DTD SVG 1.1//EN" "http://www.w3.org/Graphics/SVG/1.1/DTD/svg11.dtd">
<svg width="100%" height="100%" viewBox="0 0 72 69" version="1.1" xmlns="http://www.w3.org/2000/svg" xmlns:xlink="http://www.w3.org/1999/xlink" xml:space="preserve" xmlns:serif="http://www.serif.com/" style="fill-rule:evenodd;clip-rule:evenodd;stroke-linejoin:round;stroke-miterlimit:2;">
    <g transform="matrix(0.0126953,0,0,-0.0126953,3.5,67.0159)">
        <path d="M1412,5105C1339,5084 1281,5048 1225,4989C1162,4921 1129,4846 1117,4739C1100,4595 1123,4471 1187,4360C1189,4357 1168,4346 1141,4336C1017,4292 863,4158 787,4029C722,3918 698,3826 692,3664C688,3525 688,3524 713,3494L738,3465L1660,3459L1660,3419C1660,3320 1686,3310 1941,3310L2142,3310L2176,3344C2212,3380 2218,3411 2198,3455C2177,3501 2144,3510 1995,3510L1860,3510L1860,3563C1860,3729 1969,3919 2123,4020C2195,4067 2308,4105 2398,4113L2460,4118L2460,4039C2460,3949 2474,3910 2515,3892C2549,3876 2575,3877 2609,3894C2648,3914 2660,3949 2660,4040L2660,4118L2723,4113C2868,4100 3012,4030 3107,3926C3196,3829 3260,3676 3260,3561L3260,3510L3125,3510C2976,3510 2943,3501 2922,3455C2902,3411 2908,3380 2944,3344L2978,3310L3179,3310C3434,3310 3460,3320 3460,3419L3460,3460L3908,3460C4335,3460 4356,3461 4387,3480C4405,3491 4422,3511 4426,3526C4430,3540 4430,3609 4427,3678C4422,3825 4395,3924 4333,4029C4255,4160 4105,4291 3981,4336C3953,4346 3931,4357 3933,4360C3935,4363 3949,4392 3964,4424C4021,4542 4022,4762 3967,4883C3875,5084 3634,5174 3435,5081C3345,5040 3287,4982 3242,4892C3206,4818 3205,4814 3202,4682C3198,4538 3206,4486 3246,4406C3260,4379 3269,4356 3268,4355C3266,4354 3240,4343 3210,4331C3180,4318 3128,4290 3096,4268L3037,4229L2973,4256C2938,4271 2911,4286 2912,4289C2914,4292 2931,4326 2950,4365L2985,4434L2988,4597C2991,4730 2989,4769 2974,4812C2949,4889 2916,4941 2856,4998C2687,5158 2434,5159 2265,4999C2204,4941 2171,4890 2146,4812C2131,4769 2129,4730 2132,4597C2135,4428 2139,4414 2207,4289C2209,4286 2181,4271 2146,4256L2081,4228L2048,4253C2012,4281 1878,4350 1861,4350C1846,4350 1847,4351 1874,4407C1914,4486 1922,4538 1918,4682C1915,4814 1914,4818 1878,4892C1833,4982 1774,5040 1684,5082C1605,5119 1495,5128 1412,5105ZM1616,4893C1637,4882 1669,4854 1685,4831C1714,4790 1715,4783 1718,4667C1721,4554 1719,4542 1697,4500C1630,4373 1458,4354 1366,4462C1284,4557 1293,4785 1382,4867C1441,4923 1538,4933 1616,4893ZM2655,4896C2764,4845 2790,4790 2790,4613C2790,4489 2789,4483 2760,4433C2672,4280 2448,4280 2360,4433C2331,4483 2330,4489 2330,4613C2330,4753 2340,4793 2388,4844C2426,4884 2506,4920 2560,4920C2587,4920 2626,4910 2655,4896ZM3678,4905C3759,4870 3800,4804 3807,4691C3814,4586 3798,4512 3754,4462C3662,4354 3490,4373 3423,4499C3403,4537 3400,4557 3400,4653C3400,4745 3404,4771 3421,4807C3466,4900 3582,4944 3678,4905ZM1420,4124C1420,4065 1423,4056 1449,4029C1498,3980 1577,3994 1609,4057C1615,4069 1620,4104 1620,4136L1620,4193L1680,4186C1745,4178 1833,4151 1880,4123L1910,4106L1866,4060C1782,3973 1715,3851 1683,3728L1666,3660L890,3660L890,3698C890,3719 897,3762 905,3795C962,4013 1168,4181 1388,4189L1420,4190L1420,4124ZM3500,4134C3500,4046 3535,4001 3603,4000C3632,4000 3649,4007 3671,4029C3697,4056 3700,4065 3700,4124C3700,4200 3698,4199 3806,4179C3997,4145 4165,3987 4215,3795C4223,3762 4230,3719 4230,3698L4230,3660L3454,3660L3437,3728C3405,3850 3325,3994 3246,4069L3210,4104L3238,4122C3285,4153 3397,4186 3468,4189L3500,4190L3500,4134Z" style="fill:rgb(175,43,80);fill-rule:nonzero;"/>
        <path d="M34,3526L0,3492L0,1630L28,1600C52,1574 105,1554 481,1435C716,1361 917,1300 928,1300C977,1300 1030,1347 1030,1392C1031,1425 1046,1432 1084,1414C1114,1399 1119,1393 1113,1376C1108,1364 1105,1317 1105,1270C1106,1198 1110,1177 1132,1134C1182,1038 1265,981 1393,955C1415,951 1420,944 1420,922C1420,797 1577,640 1702,640C1725,640 1729,635 1735,598C1757,462 1875,341 2004,324C2047,318 2048,316 2054,276C2070,175 2148,72 2245,28C2315,-4 2434,-4 2506,28C2571,58 2790,275 2818,339L2838,382L2936,383C3025,385 3040,388 3089,415C3118,431 3159,464 3181,488C3220,533 3260,622 3260,665C3260,685 3267,690 3310,699C3451,729 3553,832 3575,966C3581,1007 3582,1008 3639,1019C3768,1044 3864,1145 3891,1283L3903,1341L3991,1385C4078,1429 4079,1429 4085,1407C4106,1332 4138,1300 4190,1300C4202,1300 4403,1361 4638,1435C5015,1554 5068,1573 5093,1600L5120,1630L5120,3492L5086,3526C5064,3548 5042,3560 5025,3560C4994,3560 3807,2947 3773,2913C3747,2888 3743,2845 3761,2774C3767,2749 3771,2728 3769,2725C3767,2723 3581,2767 3355,2822C2997,2910 2934,2923 2855,2924C2740,2925 2661,2902 2564,2839L2491,2791L2433,2819C2310,2880 2239,2895 2075,2895L1925,2894L1643,2822C1488,2782 1358,2750 1356,2750C1353,2750 1356,2765 1361,2782C1379,2845 1372,2890 1343,2917C1299,2956 129,3559 97,3560C77,3560 57,3549 34,3526ZM682,3044C942,2909 1156,2797 1157,2797C1159,2794 859,1536 855,1532C853,1530 705,1574 526,1631L200,1734L200,2512C200,2940 202,3290 205,3290C207,3290 422,3179 682,3044ZM4920,2512L4920,1734L4594,1631C4415,1574 4267,1530 4265,1532C4261,1536 3961,2794 3963,2797C3968,2802 4906,3288 4913,3289C4917,3290 4920,2940 4920,2512ZM3353,2616C3611,2553 3823,2500 3825,2498C3828,2494 4030,1648 4030,1638C4030,1634 3986,1608 3931,1581L3833,1531L3476,1908C3280,2115 3106,2295 3088,2308C3071,2320 3047,2330 3034,2330C3022,2330 2878,2278 2716,2215C2553,2152 2402,2096 2379,2090C2310,2071 2239,2106 2203,2174C2185,2210 2190,2288 2213,2323C2226,2343 2600,2625 2693,2685C2728,2708 2803,2728 2850,2729C2869,2730 3096,2678 3353,2616ZM2224,2684C2257,2675 2291,2665 2298,2661C2306,2656 2278,2630 2217,2587C2101,2503 2059,2461 2023,2390C1998,2341 1995,2325 1995,2240C1995,2157 1998,2138 2022,2090C2096,1939 2267,1855 2420,1893C2450,1901 2592,1953 2736,2008C2880,2064 2999,2110 3002,2110C3016,2110 3677,1405 3688,1378C3704,1340 3697,1291 3669,1256C3645,1225 3583,1205 3543,1214C3524,1219 3417,1319 3220,1514C3020,1713 2916,1810 2897,1814C2854,1824 2798,1793 2784,1751C2778,1733 2775,1706 2778,1691C2781,1673 2877,1570 3079,1367L3375,1069L3375,1020C3375,960 3348,920 3297,903C3221,878 3217,881 2900,1196C2583,1511 2574,1518 2512,1486C2473,1466 2460,1442 2460,1394C2460,1357 2473,1343 2749,1065C2908,906 3043,765 3049,753C3076,700 3052,622 3000,595C2984,587 2952,580 2929,580C2888,580 2884,583 2644,820C2390,1072 2355,1099 2254,1115C2214,1121 2212,1123 2208,1165C2194,1289 2074,1411 1949,1427C1905,1433 1896,1445 1885,1507C1876,1562 1820,1646 1766,1688C1701,1737 1642,1753 1552,1748C1454,1742 1407,1718 1313,1628L1242,1558L1166,1594C1124,1613 1090,1633 1090,1637C1090,1653 1299,2522 1304,2527C1307,2530 1459,2570 1642,2616C1938,2690 1985,2699 2069,2700C2123,2700 2188,2693 2224,2684ZM1649,1525C1688,1491 1705,1441 1691,1397C1678,1358 1498,1176 1457,1160C1416,1145 1357,1163 1326,1201C1296,1236 1291,1294 1314,1338C1330,1368 1484,1521 1515,1538C1552,1559 1616,1552 1649,1525ZM1937,1225C1949,1222 1971,1205 1985,1189C2005,1165 2010,1148 2010,1107L2010,1056L1794,840L1741,840C1694,840 1684,844 1654,874C1624,904 1620,914 1620,960L1620,1013L1722,1117C1819,1215 1861,1243 1900,1235C1908,1233 1925,1229 1937,1225ZM2253,906C2296,888 2320,860 2327,817C2336,759 2324,734 2247,653C2152,552 2106,520 2061,520C1983,520 1921,593 1935,668C1940,693 1965,727 2031,795C2149,917 2185,935 2253,906ZM2581,585C2638,555 2666,479 2639,427C2623,395 2460,231 2428,214C2328,161 2211,278 2264,378C2280,408 2444,571 2475,588C2504,604 2546,602 2581,585Z" style="fill:rgb(175,43,80);fill-rule:nonzero;"/>
        <path d="M2511,3496C2481,3479 2461,3444 2460,3407C2460,3366 2517,3310 2560,3310C2601,3310 2660,3366 2660,3404C2660,3484 2580,3534 2511,3496Z" style="fill:rgb(175,43,80);fill-rule:nonzero;"/>
    </g>
</svg>
