<?xml version="1.0" encoding="UTF-8" standalone="no"?>
<!DOCTYPE svg PUBLIC "-//W3C//DTD SVG 1.1//EN" "http://www.w3.org/Graphics/SVG/1.1/DTD/svg11.dtd">
<svg width="100%" height="100%" viewBox="0 0 72 69" version="1.1" xmlns="http://www.w3.org/2000/svg" xmlns:xlink="http://www.w3.org/1999/xlink" xml:space="preserve" xmlns:serif="http://www.serif.com/" style="fill-rule:evenodd;clip-rule:evenodd;stroke-linejoin:round;stroke-miterlimit:2;">
    <g id="companies" transform="matrix(0.115897,0,0,0.115897,-4.56404,2.0983)">
        <path d="M121.76,131.52L210.002,131.52C215.092,131.52 218.486,128.126 218.486,123.036L218.486,44.126C218.486,39.036 215.092,35.641 210.002,35.641L121.76,35.641C116.67,35.641 113.276,39.036 113.276,44.126L113.276,122.188C113.276,127.277 117.518,131.52 121.76,131.52L121.76,131.52ZM130.244,52.61L201.517,52.61L201.517,113.7L130.244,113.7L130.244,52.61Z" style="fill:rgb(188,51,89);fill-rule:nonzero;"/>
        <path d="M245.64,131.52L333.882,131.52C338.972,131.52 342.366,128.126 342.366,123.036L342.366,44.126C342.366,39.036 338.972,35.641 333.882,35.641L245.64,35.641C240.55,35.641 237.156,39.036 237.156,44.126L237.156,122.188C237.156,127.277 240.55,131.52 245.64,131.52L245.64,131.52ZM254.124,52.61L325.397,52.61L325.397,113.7L254.124,113.7L254.124,52.61Z" style="fill:rgb(188,51,89);fill-rule:nonzero;"/>
        <path d="M121.76,246.06L210.002,246.06C215.092,246.06 218.486,242.666 218.486,237.576L218.486,159.514C218.486,154.424 215.092,151.029 210.002,151.029L121.76,151.029C116.67,151.029 113.276,154.424 113.276,159.514L113.276,237.573C113.276,242.666 117.518,246.061 121.76,246.061L121.76,246.06ZM130.244,167.998L201.517,167.998L201.517,229.088L130.244,229.088L130.244,167.998Z" style="fill:rgb(188,51,89);fill-rule:nonzero;"/>
        <path d="M245.64,246.06L333.882,246.06C338.972,246.06 342.366,242.666 342.366,237.576L342.366,159.514C342.366,154.424 338.972,151.029 333.882,151.029L245.64,151.029C240.55,151.029 237.156,154.424 237.156,159.514L237.156,237.573C237.156,242.666 240.55,246.061 245.64,246.061L245.64,246.06ZM254.124,167.998L325.397,167.998L325.397,229.088L254.124,229.088L254.124,167.998Z" style="fill:rgb(188,51,89);fill-rule:nonzero;"/>
        <path d="M210,359.76C215.09,359.76 218.484,356.366 218.484,351.276L218.484,273.214C218.484,268.124 215.09,264.729 210,264.729L121.758,264.729C116.668,264.729 113.274,268.124 113.274,273.214L113.274,351.276C113.274,356.365 116.668,359.76 121.758,359.76L210,359.76ZM130.242,281.698L201.515,281.698L201.515,342.788L130.242,342.792L130.242,281.698Z" style="fill:rgb(188,51,89);fill-rule:nonzero;"/>
        <path d="M245.64,359.76L333.882,359.76C338.972,359.76 342.366,356.366 342.366,351.276L342.366,273.214C342.366,268.124 338.972,264.729 333.882,264.729L245.64,264.729C240.55,264.729 237.156,268.124 237.156,273.214L237.156,351.276C237.156,356.365 240.55,359.76 245.64,359.76ZM254.124,281.698L325.397,281.698L325.397,342.788L254.124,342.788L254.124,281.698Z" style="fill:rgb(188,51,89);fill-rule:nonzero;"/>
        <path d="M621.52,284.24L385.64,284.24L385.64,8.48C385.64,3.39 382.246,-0.004 377.156,-0.004L78.486,-0.004C73.396,-0.004 70.001,3.39 70.001,8.48L70.001,551.51C70.001,556.6 73.396,559.994 78.486,559.994L621.516,559.994C626.605,559.994 630,556.6 630,551.51L630,292.72C630,287.63 626.606,284.236 621.516,284.236L621.52,284.24ZM86.97,16.97L368.67,16.97L368.67,543.03L307.58,543.03L307.58,386.91C307.58,381.82 304.186,378.426 299.096,378.426L156.556,378.426C151.466,378.426 148.071,381.82 148.071,386.91L148.071,543.03L86.977,543.03L86.97,16.97ZM165.032,543.03L165.032,395.39L290.602,395.39L290.602,543.03L165.032,543.03ZM453.512,543.03L453.512,424.24L545.149,424.24L545.149,543.03L453.512,543.03ZM613.032,543.03L562.122,543.03L562.122,415.76C562.122,410.67 558.728,407.276 553.638,407.276L445.028,407.276C439.938,407.276 436.543,410.67 436.543,415.76L436.543,543.03L385.633,543.03L385.633,301.21L613.023,301.21L613.032,543.03Z" style="fill:rgb(188,51,89);fill-rule:nonzero;"/>
        <path d="M518.85,224.85C522.245,224.85 524.788,223.155 526.487,220.608C529.034,216.366 589.276,117.088 589.276,69.578C589.276,30.547 557.881,-0.848 518.85,-0.848C479.819,-0.848 448.424,30.547 448.424,69.578C448.424,118.789 508.666,216.368 511.213,220.608C512.912,224.002 515.455,224.85 518.849,224.85L518.85,224.85ZM518.85,16.97C547.698,16.97 572.303,40.728 572.303,70.423C572.303,103.513 534.971,172.243 518.85,200.243C502.729,173.091 466.245,105.212 466.245,70.423C465.397,40.728 489.155,16.97 518.85,16.97Z" style="fill:rgb(188,51,89);fill-rule:nonzero;"/>
        <path d="M557.88,68.727C557.88,46.665 540.064,28.848 518.001,28.848C495.938,28.848 478.122,46.664 478.122,68.727C478.122,90.79 495.938,108.606 518.001,108.606C540.064,108.606 557.88,90.79 557.88,68.727ZM495.939,68.727C495.939,56 506.123,45.817 518.849,45.817C531.576,45.817 541.759,56.001 541.759,68.727C541.759,81.454 531.575,91.637 518.849,91.637C506.122,91.637 495.939,81.453 495.939,68.727Z" style="fill:rgb(188,51,89);fill-rule:nonzero;"/>
        <path d="M422.97,218.06L437.396,203.634L437.396,263.876C437.396,268.966 440.791,272.36 445.88,272.36C450.97,272.36 454.365,268.966 454.365,263.876L454.365,203.634L468.791,218.06C472.185,221.455 477.275,221.455 480.67,218.06C484.064,214.666 484.064,209.576 480.67,206.181L451.818,177.329C448.423,173.935 443.333,173.935 439.939,177.329L411.091,206.177C407.696,209.572 407.696,214.661 411.091,218.056C414.485,221.451 419.575,221.451 422.97,218.06L422.97,218.06Z" style="fill:rgb(188,51,89);fill-rule:nonzero;"/>
        <path d="M585.03,177.33L556.182,206.178C552.788,209.573 552.788,214.662 556.182,218.057C559.577,221.451 564.666,221.451 568.061,218.057L582.487,203.631L582.487,263.873C582.487,268.963 585.882,272.357 590.971,272.357C596.061,272.357 599.456,268.963 599.456,263.873L599.452,203.635L613.878,218.061C617.272,221.455 622.362,221.455 625.757,218.061C629.151,214.666 629.151,209.577 625.757,206.182L596.909,177.334C593.514,173.936 588.424,173.936 585.03,177.33L585.03,177.33Z" style="fill:rgb(188,51,89);fill-rule:nonzero;"/>
        <path d="M415.33,393.7L479.814,393.7C484.904,393.7 488.298,390.306 488.298,385.216L488.298,320.732C488.298,315.642 484.904,312.247 479.814,312.247L415.33,312.247C410.24,312.247 406.846,315.642 406.846,320.732L406.846,385.216C406.846,389.458 411.088,393.7 415.33,393.7ZM423.814,329.216L471.33,329.216L471.33,376.732L423.814,376.732L423.814,329.216Z" style="fill:rgb(188,51,89);fill-rule:nonzero;"/>
        <path d="M518.85,393.7L583.334,393.7C588.424,393.7 591.818,390.306 591.818,385.216L591.818,320.732C591.818,315.642 588.424,312.247 583.334,312.247L518.85,312.247C513.76,312.247 510.366,315.642 510.366,320.732L510.366,385.216C510.366,389.458 513.76,393.7 518.85,393.7ZM527.334,329.216L574.85,329.216L574.85,376.732L527.334,376.732L527.334,329.216Z" style="fill:rgb(188,51,89);fill-rule:nonzero;"/>
    </g>
</svg>
