<?xml version="1.0" encoding="UTF-8" standalone="no"?>
<!DOCTYPE svg PUBLIC "-//W3C//DTD SVG 1.1//EN" "http://www.w3.org/Graphics/SVG/1.1/DTD/svg11.dtd">
<svg width="100%" height="100%" viewBox="0 0 72 69" version="1.1" xmlns="http://www.w3.org/2000/svg" xmlns:xlink="http://www.w3.org/1999/xlink" xml:space="preserve" xmlns:serif="http://www.serif.com/" style="fill-rule:evenodd;clip-rule:evenodd;stroke-linejoin:round;stroke-miterlimit:2;">
    <g transform="matrix(1.00775,0,0,1.00775,-29.8564,-115.905)">
        <g transform="matrix(0.118894,0,0,0.118894,23.3871,115.709)">
            <path d="M568.75,302.14L568.75,130.55C598.387,126.28 621.25,100.792 621.25,69.999C621.25,36.233 593.773,8.749 560,8.749C526.227,8.749 498.75,36.233 498.75,69.999L78.75,69.999L78.75,419.999L341.7,419.999C346.251,493.112 407.02,551.249 481.25,551.249C558.441,551.249 621.25,488.44 621.25,411.249C621.25,367.159 600.715,327.819 568.75,302.139L568.75,302.14ZM560,26.25C584.125,26.25 603.75,45.875 603.75,70C603.75,94.125 584.125,113.75 560,113.75C535.875,113.75 516.25,94.125 516.25,70C516.25,45.875 535.875,26.25 560,26.25ZM96.25,87.5L501.33,87.5C503.42,94.484 506.748,100.914 511.018,106.617L457.501,160.133C454.072,158.489 450.291,157.5 446.247,157.5C442.204,157.5 438.423,158.488 435.005,160.133L417.372,142.5C419.009,139.074 419.997,135.293 419.997,131.25C419.997,116.777 408.22,105 393.747,105C379.274,105 367.497,116.777 367.497,131.25C367.497,135.293 368.486,139.074 370.13,142.492L326.247,186.375C322.821,184.738 319.04,183.75 314.997,183.75C300.524,183.75 288.747,195.527 288.747,210C288.747,224.473 300.524,236.25 314.997,236.25C329.47,236.25 341.247,224.473 341.247,210C341.247,205.957 340.259,202.176 338.614,198.758L382.497,154.875C385.923,156.512 389.704,157.5 393.747,157.5C397.79,157.5 401.572,156.512 404.989,154.867L422.622,172.5C420.986,175.926 419.997,179.707 419.997,183.75C419.997,198.223 431.774,210 446.247,210C460.72,210 472.497,198.223 472.497,183.75C472.497,179.707 471.509,175.926 469.865,172.508L523.388,118.992C531.396,124.996 540.896,129.062 551.247,130.558L551.247,290.198C530.622,278.218 506.763,271.245 481.247,271.245C439.423,271.245 401.919,289.776 376.247,318.96L376.247,279.995L323.747,279.995L323.747,384.995L343.802,384.995C342.716,390.71 342.06,396.561 341.692,402.495L96.242,402.495L96.25,87.5ZM446.25,175C451.07,175 455,178.922 455,183.75C455,188.578 451.07,192.5 446.25,192.5C441.43,192.5 437.5,188.578 437.5,183.75C437.5,178.922 441.43,175 446.25,175ZM385,131.25C385,126.422 388.93,122.5 393.75,122.5C398.57,122.5 402.5,126.422 402.5,131.25C402.5,136.078 398.57,140 393.75,140C388.93,140 385,136.078 385,131.25ZM323.75,210C323.75,214.828 319.82,218.75 315,218.75C310.18,218.75 306.25,214.828 306.25,210C306.25,205.172 310.18,201.25 315,201.25C319.82,201.25 323.75,205.172 323.75,210ZM481.25,481.25C442.652,481.25 411.25,449.848 411.25,411.25C411.25,372.652 442.652,341.25 481.25,341.25C519.848,341.25 551.25,372.652 551.25,411.25C551.25,449.848 519.848,481.25 481.25,481.25ZM358.75,343.62C354.559,351.179 351.094,359.167 348.348,367.499L341.25,367.499L341.25,297.499L358.75,297.499L358.75,343.62ZM472.5,289.194L472.5,324.194C428.348,328.604 393.75,365.96 393.75,411.249C393.75,424.05 396.586,436.187 401.547,447.159L371.192,464.686C363.301,448.514 358.751,430.42 358.751,411.248C358.751,346.654 409.036,293.708 472.501,289.198L472.5,289.194ZM481.25,533.744C439.129,533.744 401.906,512.369 379.86,479.889L410.337,462.291C426.243,484.322 452.064,498.744 481.255,498.744C510.446,498.744 536.267,484.322 552.173,462.291L582.65,479.889C560.599,512.369 523.377,533.744 481.26,533.744L481.25,533.744ZM591.31,464.682L560.955,447.155C565.916,436.182 568.752,424.046 568.752,411.245C568.752,365.956 534.154,328.593 490.002,324.19L490.002,289.19C553.467,293.706 603.752,346.651 603.752,411.24C603.752,430.412 599.201,448.506 591.311,464.678L591.31,464.682Z" style="fill:rgb(188,51,89);fill-rule:nonzero;"/>
        </g>
        <g transform="matrix(0.118894,0,0,0.118894,23.3871,115.709)">
            <path d="M481.25,358.75C452.297,358.75 428.75,382.297 428.75,411.25C428.75,440.203 452.297,463.75 481.25,463.75C510.203,463.75 533.75,440.203 533.75,411.25C533.75,382.297 510.203,358.75 481.25,358.75ZM481.25,446.25C461.949,446.25 446.25,430.551 446.25,411.25C446.25,391.949 461.949,376.25 481.25,376.25C500.551,376.25 516.25,391.949 516.25,411.25C516.25,430.551 500.551,446.25 481.25,446.25Z" style="fill:rgb(188,51,89);fill-rule:nonzero;"/>
        </g>
        <g transform="matrix(0.118894,0,0,0.118894,23.3871,115.709)">
            <rect x="113.75" y="105" width="17.5" height="17.5" style="fill:rgb(188,51,89);fill-rule:nonzero;"/>
        </g>
        <g transform="matrix(0.118894,0,0,0.118894,23.3871,115.709)">
            <rect x="148.75" y="105" width="122.5" height="17.5" style="fill:rgb(188,51,89);fill-rule:nonzero;"/>
        </g>
        <g transform="matrix(0.118894,0,0,0.118894,23.3871,115.709)">
            <rect x="113.75" y="140" width="17.5" height="17.5" style="fill:rgb(188,51,89);fill-rule:nonzero;"/>
        </g>
        <g transform="matrix(0.118894,0,0,0.118894,23.3871,115.709)">
            <rect x="148.75" y="140" width="122.5" height="17.5" style="fill:rgb(188,51,89);fill-rule:nonzero;"/>
        </g>
        <g transform="matrix(0.118894,0,0,0.118894,23.3871,115.709)">
            <rect x="113.75" y="175" width="17.5" height="17.5" style="fill:rgb(188,51,89);fill-rule:nonzero;"/>
        </g>
        <g transform="matrix(0.118894,0,0,0.118894,23.3871,115.709)">
            <rect x="148.75" y="175" width="122.5" height="17.5" style="fill:rgb(188,51,89);fill-rule:nonzero;"/>
        </g>
        <g transform="matrix(0.118894,0,0,0.118894,23.3871,115.709)">
            <rect x="113.75" y="210" width="17.5" height="17.5" style="fill:rgb(188,51,89);fill-rule:nonzero;"/>
        </g>
        <g transform="matrix(0.118894,0,0,0.118894,23.3871,115.709)">
            <rect x="148.75" y="210" width="122.5" height="17.5" style="fill:rgb(188,51,89);fill-rule:nonzero;"/>
        </g>
        <g transform="matrix(0.118894,0,0,0.118894,23.3871,115.709)">
            <path d="M113.75,385L166.25,385L166.25,297.5L113.75,297.5L113.75,385ZM131.25,315L148.75,315L148.75,367.5L131.25,367.5L131.25,315Z" style="fill:rgb(188,51,89);fill-rule:nonzero;"/>
        </g>
        <g transform="matrix(0.118894,0,0,0.118894,23.3871,115.709)">
            <path d="M183.75,385L236.25,385L236.25,315L183.75,315L183.75,385ZM201.25,332.5L218.75,332.5L218.75,367.5L201.25,367.5L201.25,332.5Z" style="fill:rgb(188,51,89);fill-rule:nonzero;"/>
        </g>
        <g transform="matrix(0.118894,0,0,0.118894,23.3871,115.709)">
            <path d="M253.75,385L306.25,385L306.25,245L253.75,245L253.75,385ZM271.25,262.5L288.75,262.5L288.75,367.5L271.25,367.5L271.25,262.5Z" style="fill:rgb(188,51,89);fill-rule:nonzero;"/>
        </g>
    </g>
</svg>
