<?xml version="1.0" encoding="UTF-8" standalone="no"?><!DOCTYPE svg PUBLIC "-//W3C//DTD SVG 1.1//EN" "http://www.w3.org/Graphics/SVG/1.1/DTD/svg11.dtd"><svg width="100%" height="100%" viewBox="0 0 13334 13334" version="1.1" xmlns="http://www.w3.org/2000/svg" xmlns:xlink="http://www.w3.org/1999/xlink" xml:space="preserve" xmlns:serif="http://www.serif.com/" style="fill-rule:evenodd;clip-rule:evenodd;stroke-linejoin:round;stroke-miterlimit:2;"><g><path d="M10940.7,3197.9l-2001.24,0l0,-2001.24l2001.24,2001.24Zm-1478.24,-216.242l151.192,0l0,-329.309l354.856,0l0,-137.622l-354.856,0l0,-326.851l-151.192,0l0,326.851l-354.856,0l0,137.622l354.856,0l0,329.309Zm1637.59,756.387l-0,8372.24c-0,148.157 -121.915,270.072 -270.073,270.072l-8642.31,0c-148.157,0 -270.072,-121.915 -270.072,-270.072l-0,-10802.9c-0,-148.157 121.915,-270.072 270.072,-270.072l6211.66,0l-0,2430.65c-0,148.157 121.915,270.072 270.072,270.072l2430.65,0Zm-5401.45,810.217c-0,148.157 -121.915,270.072 -270.072,270.072c-148.158,0 -270.073,-121.915 -270.073,-270.072c0,-148.157 -121.915,-270.072 -270.072,-270.072c-148.157,-0 -270.072,121.915 -270.072,270.072c0.96,341.7 217.985,647.705 540.144,761.604l0,318.685c0,148.157 121.915,270.072 270.073,270.072c148.157,0 270.072,-121.915 270.072,-270.072l-0,-318.685c319.709,-116.007 533.859,-421.523 533.859,-761.629c-0,-442.097 -361.848,-806.762 -803.931,-810.192c-148.158,0 -270.073,-121.915 -270.073,-270.072c0,-148.158 121.915,-270.073 270.073,-270.073c148.157,0 270.072,121.915 270.072,270.073c-0,148.157 121.915,270.072 270.072,270.072c148.157,0 270.072,-121.915 270.072,-270.072c-0.96,-341.7 -217.985,-647.705 -540.144,-761.604l-0,-318.685c-0,-148.158 -121.915,-270.073 -270.072,-270.073c-148.158,0 -270.073,121.915 -270.073,270.073l0,318.685c-319.709,116.007 -533.858,421.523 -533.858,761.628c-0,442.097 361.847,806.763 803.931,810.193c148.157,-0 270.072,121.915 270.072,270.072Zm4321.16,3510.94c-0,-148.158 -121.915,-270.073 -270.073,-270.073l-6481.74,0c-148.157,0 -270.072,121.915 -270.072,270.073c0,148.157 121.915,270.072 270.072,270.072l6481.74,-0c148.158,-0 270.073,-121.915 270.073,-270.072Zm-0,2160.58c-0,-148.157 -121.915,-270.072 -270.073,-270.072l-6481.74,-0c-148.157,-0 -270.072,121.915 -270.072,270.072c0,148.157 121.915,270.072 270.072,270.072l6481.74,0c148.158,0 270.073,-121.915 270.073,-270.072Zm-7021.88,-3240.87c0,148.158 121.915,270.073 270.072,270.073l2970.8,-0c148.158,-0 270.073,-121.915 270.073,-270.073c-0,-148.157 -121.915,-270.072 -270.073,-270.072l-2970.8,0c-148.157,0 -270.072,121.915 -270.072,270.072Zm270.072,2430.65l2970.8,0c148.158,0 270.073,-121.915 270.073,-270.072c-0,-148.157 -121.915,-270.072 -270.073,-270.072l-2970.8,-0c-148.157,-0 -270.072,121.915 -270.072,270.072c0,148.157 121.915,270.072 270.072,270.072Zm3240.87,1890.51c-0,-148.157 -121.915,-270.072 -270.073,-270.072l-2970.8,-0c-148.157,-0 -270.072,121.915 -270.072,270.072c0,148.157 121.915,270.072 270.072,270.072l2970.8,0c148.158,0 270.073,-121.915 270.073,-270.072Z" style="fill-rule:nonzero;"/></g></svg>