<?xml version="1.0" encoding="UTF-8" standalone="no"?>
<!DOCTYPE svg PUBLIC "-//W3C//DTD SVG 1.1//EN" "http://www.w3.org/Graphics/SVG/1.1/DTD/svg11.dtd">
<svg width="100%" height="100%" viewBox="0 0 72 69" version="1.1" xmlns="http://www.w3.org/2000/svg" xmlns:xlink="http://www.w3.org/1999/xlink" xml:space="preserve" xmlns:serif="http://www.serif.com/" style="fill-rule:evenodd;clip-rule:evenodd;stroke-linejoin:round;stroke-miterlimit:2;">
    <g id="Enquiries" transform="matrix(0.123807,0,0,0.123807,-7.33189,-0.165697)">
        <path d="M586.25,17.5L420,17.5C405.125,17.5 393.75,28.875 393.75,43.75L393.75,124.25C393.75,126.875 392.875,128.625 391.125,130.375L367.5,154L367.5,175L586.25,175C601.125,175 612.5,163.625 612.5,148.75L612.5,43.75C612.5,28.875 601.125,17.5 586.25,17.5ZM595,148.75C595,154 591.5,157.5 586.25,157.5L388.5,157.5L403.375,142.625C408.625,137.375 411.25,131.25 411.25,124.25L411.25,43.75C411.25,38.5 414.75,35 420,35L586.25,35C591.5,35 595,38.5 595,43.75L595,148.75Z" style="fill:rgb(188,51,89);fill-rule:nonzero;"/>
        <path d="M576.62,380.62L524.995,356.995C541.62,342.995 551.245,321.995 551.245,300.12L551.245,192.5L446.245,192.5C421.745,192.5 402.495,211.75 402.495,236.25L402.495,300.125C402.495,322 412.12,343 428.745,357L384.995,377.125L384.995,326.375C384.995,300.125 368.37,276.5 342.995,268.625L279.995,247.625L279.995,227.5L307.12,227.5C331.62,227.5 350.87,208.25 350.87,183.75C350.87,181.125 350.87,177.625 349.995,175L338.62,119.875C328.12,68.25 277.37,35.875 225.74,46.375C188.99,54.25 160.115,83.125 152.24,119.875L139.99,175C134.74,198.625 150.49,222.25 174.115,226.625C176.74,227.5 180.24,227.5 182.865,227.5L209.99,227.5L209.99,247.625L146.99,268.625C121.615,277.375 104.99,300.125 104.99,326.375L104.99,437.495L87.49,437.495L87.49,542.495L323.74,542.495L323.74,524.995L104.99,524.995L104.99,454.995L341.24,454.995L341.24,542.495L612.49,542.495L612.49,436.615C612.49,412.115 598.49,390.24 576.615,380.615L576.62,380.62ZM420,300.12L420,236.245C420,221.37 431.375,209.995 446.25,209.995L533.75,209.995L533.75,300.12C533.75,331.62 508.375,356.995 476.875,356.995C445.375,356.995 420,331.62 420,300.12ZM216.12,189L205.62,182C202.995,180.25 202.12,177.625 202.12,175L202.12,126C213.495,119.875 227.495,120.75 238.87,126.875C253.745,135.625 272.995,137.375 288.745,130.375L289.62,130.375L289.62,175C289.62,177.625 287.87,180.25 286.12,182L275.62,189C268.62,194.25 264.245,202.125 264.245,210.875L264.245,245L229.245,245L229.245,210.875C227.495,202.125 223.12,193.375 216.12,189ZM236.245,262.5L236.245,275.625L210.87,294.875L188.995,273L220.495,262.5L236.245,262.5ZM253.745,262.5L269.495,262.5L300.995,273L279.12,294.875L253.745,275.625L253.745,262.5ZM327.245,200.375C321.995,206.5 314.995,210 307.12,210L279.995,210C279.995,207.375 281.745,204.75 283.495,203L293.995,196C300.995,190.75 305.37,182.875 305.37,174.125L305.37,121.625L318.495,116.375C319.37,118.125 319.37,120.75 320.245,122.5L331.62,177.625C334.245,186.375 332.495,194.25 327.245,200.375ZM244.995,61.255C272.995,61.255 298.37,76.13 312.37,100.63L280.87,113.755C269.495,118.13 257.245,117.255 246.745,111.13C229.245,100.63 208.245,100.63 190.745,110.255L168.87,122.505L168.87,121.63C176.745,86.63 208.245,61.255 244.995,61.255ZM162.745,200.375C157.495,194.25 155.745,186.375 157.495,178.5L164.495,146.125L183.745,134.75L183.745,174.125C183.745,182.875 188.12,190.75 195.12,196L205.62,203C208.245,204.75 209.12,207.375 209.12,210L181.995,210C174.995,210 167.995,206.5 162.745,200.375ZM122.495,326.375C122.495,307.125 134.745,290.5 152.245,285.25L170.62,279.125L209.12,317.625L236.245,297.5L236.245,437.5L183.745,437.5L183.745,332.5L166.245,332.5L166.245,437.5L122.495,437.5L122.495,326.375ZM323.745,437.495L323.745,367.495L306.245,367.495L306.245,437.495L253.745,437.495L253.745,297.495L280.87,317.62L319.37,279.12L337.745,285.245C355.245,291.37 367.495,307.995 367.495,326.37L367.495,385.87C350.87,397.245 341.245,415.62 341.245,435.745L341.245,437.495L323.745,437.495ZM594.995,524.995L358.745,524.995L358.745,436.62C358.745,419.12 368.37,404.245 384.12,396.37L446.245,368.37C465.495,377.12 487.37,377.12 505.745,368.37L567.87,396.37C583.62,403.37 593.245,419.12 593.245,436.62L593.245,524.995L594.995,524.995Z" style="fill:rgb(188,51,89);fill-rule:nonzero;"/>
        <rect x="201.25" y="481.25" width="87.5" height="17.5" style="fill:rgb(188,51,89);fill-rule:nonzero;"/>
        <rect x="428.75" y="52.5" width="148.75" height="17.5" style="fill:rgb(188,51,89);fill-rule:nonzero;"/>
        <rect x="428.75" y="87.5" width="148.75" height="17.5" style="fill:rgb(188,51,89);fill-rule:nonzero;"/>
        <rect x="428.75" y="122.5" width="113.75" height="17.5" style="fill:rgb(188,51,89);fill-rule:nonzero;"/>
        <rect x="271.25" y="332.5" width="52.5" height="17.5" style="fill:rgb(188,51,89);fill-rule:nonzero;"/>
    </g>
</svg>
