<?xml version="1.0" encoding="UTF-8" standalone="no"?>
<!DOCTYPE svg PUBLIC "-//W3C//DTD SVG 1.1//EN" "http://www.w3.org/Graphics/SVG/1.1/DTD/svg11.dtd">
<svg width="100%" height="100%" viewBox="0 0 572 558" version="1.1" xmlns="http://www.w3.org/2000/svg" xmlns:xlink="http://www.w3.org/1999/xlink" xml:space="preserve" xmlns:serif="http://www.serif.com/" style="fill-rule:evenodd;clip-rule:evenodd;stroke-linejoin:round;stroke-miterlimit:2;">
    <g transform="matrix(1,0,0,1,-63,-2)">
        <path d="M507.5,393.75C517.152,393.75 525,401.598 525,411.25C525,416.078 528.91,420 533.75,420C538.59,420 542.5,416.078 542.5,411.25C542.5,394.992 531.309,381.402 516.25,377.492L516.25,367.5C516.25,362.672 512.34,358.75 507.5,358.75C502.66,358.75 498.75,362.672 498.75,367.5L498.75,377.492C483.691,381.402 472.5,394.992 472.5,411.25C472.5,430.551 488.199,446.25 507.5,446.25C517.152,446.25 525,454.098 525,463.75C525,473.402 517.152,481.25 507.5,481.25C497.848,481.25 490,473.402 490,463.75C490,458.922 486.09,455 481.25,455C476.41,455 472.5,458.922 472.5,463.75C472.5,480.008 483.691,493.598 498.75,497.508L498.75,507.5C498.75,512.328 502.66,516.25 507.5,516.25C512.34,516.25 516.25,512.328 516.25,507.5L516.25,497.508C531.309,493.598 542.5,480.008 542.5,463.75C542.5,444.449 526.801,428.75 507.5,428.75C497.848,428.75 490,420.902 490,411.25C490,401.598 497.848,393.75 507.5,393.75Z" style="fill:rgb(188,51,89);fill-rule:nonzero;stroke:rgb(188,51,89);stroke-width:1px;"/>
        <path d="M586.25,437.5C586.25,442.332 582.332,446.25 577.5,446.25C572.668,446.25 568.75,442.332 568.75,437.5C568.75,432.668 572.668,428.75 577.5,428.75C582.332,428.75 586.25,432.668 586.25,437.5" style="fill:rgb(188,51,89);fill-rule:nonzero;stroke:rgb(188,51,89);stroke-width:1px;"/>
        <path d="M446.25,437.5C446.25,442.332 442.332,446.25 437.5,446.25C432.668,446.25 428.75,442.332 428.75,437.5C428.75,432.668 432.668,428.75 437.5,428.75C442.332,428.75 446.25,432.668 446.25,437.5" style="fill:rgb(188,51,89);fill-rule:nonzero;stroke:rgb(188,51,89);stroke-width:1px;"/>
        <path d="M131.25,192.5C131.25,197.332 127.332,201.25 122.5,201.25C117.668,201.25 113.75,197.332 113.75,192.5C113.75,187.668 117.668,183.75 122.5,183.75C127.332,183.75 131.25,187.668 131.25,192.5" style="fill:rgb(188,51,89);fill-rule:nonzero;stroke:rgb(188,51,89);stroke-width:1px;"/>
        <path d="M507.5,323.75C504.543,323.75 501.645,323.969 498.75,324.195L498.75,17.495C498.75,12.667 494.84,8.745 490,8.745L183.75,8.745C182.516,8.745 181.344,9.015 180.285,9.472C180.039,9.577 179.856,9.796 179.621,9.917C178.832,10.355 178.074,10.82 177.461,11.464C177.418,11.507 177.355,11.527 177.313,11.57L81.063,116.57C80.66,117.007 80.441,117.558 80.137,118.058C79.902,118.445 79.594,118.777 79.43,119.202C78.996,120.257 78.75,121.359 78.75,122.495L78.75,472.495C78.75,477.323 82.66,481.245 87.5,481.245L402.5,481.245C402.508,481.245 402.516,481.238 402.527,481.238C419.703,522.308 460.277,551.246 507.497,551.246C531.192,551.246 553.97,543.949 573.341,530.141C577.279,527.34 578.197,521.871 575.388,517.934C572.587,514.004 567.127,513.078 563.181,515.887C546.786,527.571 527.536,533.746 507.497,533.746C454.427,533.746 411.247,490.566 411.247,437.496C411.247,384.426 454.427,341.246 507.497,341.246C560.567,341.246 603.747,384.426 603.747,437.496C603.747,457.523 597.571,476.785 585.888,493.199C583.087,497.136 583.998,502.597 587.935,505.406C591.873,508.214 597.326,507.288 600.142,503.359C613.951,483.957 621.247,461.183 621.247,437.496C621.247,374.777 570.216,323.746 507.497,323.746L507.5,323.75ZM175,113.75L107.391,113.75L175,39.988L175,113.75ZM131.25,131.25L183.75,131.25C188.59,131.25 192.5,127.328 192.5,122.5L192.5,61.25L446.25,61.25L446.25,148.75L131.25,148.75L131.25,131.25ZM393.75,437.5C393.75,446.547 394.922,455.305 396.926,463.75L96.246,463.75L96.246,131.25L113.746,131.25L113.746,157.5C113.746,162.328 117.656,166.25 122.496,166.25L454.996,166.25C459.836,166.25 463.746,162.328 463.746,157.5L463.746,52.5C463.746,47.672 459.836,43.75 454.996,43.75L192.496,43.75L192.496,26.25L481.246,26.25L481.246,326.93C431.16,338.832 393.746,383.832 393.746,437.5L393.75,437.5Z" style="fill:rgb(188,51,89);fill-rule:nonzero;stroke:rgb(188,51,89);stroke-width:1px;"/>
        <path d="M245,323.75L122.5,323.75C117.66,323.75 113.75,327.672 113.75,332.5L113.75,437.5C113.75,442.328 117.66,446.25 122.5,446.25L245,446.25C249.84,446.25 253.75,442.328 253.75,437.5L253.75,332.5C253.75,327.672 249.84,323.75 245,323.75ZM236.25,428.75L131.25,428.75L131.25,341.25L236.25,341.25L236.25,428.75Z" style="fill:rgb(188,51,89);fill-rule:nonzero;stroke:rgb(188,51,89);stroke-width:1px;"/>
        <path d="M367.5,428.75L280,428.75C275.16,428.75 271.25,432.672 271.25,437.5C271.25,442.328 275.16,446.25 280,446.25L367.5,446.25C372.34,446.25 376.25,442.328 376.25,437.5C376.25,432.672 372.34,428.75 367.5,428.75Z" style="fill:rgb(188,51,89);fill-rule:nonzero;stroke:rgb(188,51,89);stroke-width:1px;"/>
        <path d="M367.5,393.75L280,393.75C275.16,393.75 271.25,397.672 271.25,402.5C271.25,407.328 275.16,411.25 280,411.25L367.5,411.25C372.34,411.25 376.25,407.328 376.25,402.5C376.25,397.672 372.34,393.75 367.5,393.75Z" style="fill:rgb(188,51,89);fill-rule:nonzero;stroke:rgb(188,51,89);stroke-width:1px;"/>
        <path d="M367.5,358.75L280,358.75C275.16,358.75 271.25,362.672 271.25,367.5C271.25,372.328 275.16,376.25 280,376.25L367.5,376.25C372.34,376.25 376.25,372.328 376.25,367.5C376.25,362.672 372.34,358.75 367.5,358.75Z" style="fill:rgb(188,51,89);fill-rule:nonzero;stroke:rgb(188,51,89);stroke-width:1px;"/>
        <path d="M376.25,323.75L280,323.75C275.16,323.75 271.25,327.672 271.25,332.5C271.25,337.328 275.16,341.25 280,341.25L376.25,341.25C381.09,341.25 385,337.328 385,332.5C385,327.672 381.09,323.75 376.25,323.75Z" style="fill:rgb(188,51,89);fill-rule:nonzero;stroke:rgb(188,51,89);stroke-width:1px;"/>
        <path d="M455,183.75L157.5,183.75C152.66,183.75 148.75,187.672 148.75,192.5C148.75,197.328 152.66,201.25 157.5,201.25L455,201.25C459.84,201.25 463.75,197.328 463.75,192.5C463.75,187.672 459.84,183.75 455,183.75Z" style="fill:rgb(188,51,89);fill-rule:nonzero;stroke:rgb(188,51,89);stroke-width:1px;"/>
        <path d="M463.75,297.5C463.75,302.332 459.832,306.25 455,306.25C450.168,306.25 446.25,302.332 446.25,297.5C446.25,292.668 450.168,288.75 455,288.75C459.832,288.75 463.75,292.668 463.75,297.5" style="fill:rgb(188,51,89);fill-rule:nonzero;stroke:rgb(188,51,89);stroke-width:1px;"/>
        <path d="M420,288.75L122.5,288.75C117.66,288.75 113.75,292.672 113.75,297.5C113.75,302.328 117.66,306.25 122.5,306.25L420,306.25C424.84,306.25 428.75,302.328 428.75,297.5C428.75,292.672 424.84,288.75 420,288.75Z" style="fill:rgb(188,51,89);fill-rule:nonzero;stroke:rgb(188,51,89);stroke-width:1px;"/>
        <path d="M455,218.75L122.5,218.75C117.66,218.75 113.75,222.672 113.75,227.5C113.75,232.328 117.66,236.25 122.5,236.25L455,236.25C459.84,236.25 463.75,232.328 463.75,227.5C463.75,222.672 459.84,218.75 455,218.75Z" style="fill:rgb(188,51,89);fill-rule:nonzero;stroke:rgb(188,51,89);stroke-width:1px;"/>
        <path d="M455,253.75L122.5,253.75C117.66,253.75 113.75,257.672 113.75,262.5C113.75,267.328 117.66,271.25 122.5,271.25L455,271.25C459.84,271.25 463.75,267.328 463.75,262.5C463.75,257.672 459.84,253.75 455,253.75Z" style="fill:rgb(188,51,89);fill-rule:nonzero;stroke:rgb(188,51,89);stroke-width:1px;"/>
    </g>
</svg>
