<?xml version="1.0" encoding="UTF-8" standalone="no"?>
<!DOCTYPE svg PUBLIC "-//W3C//DTD SVG 1.1//EN" "http://www.w3.org/Graphics/SVG/1.1/DTD/svg11.dtd">
<svg width="100%" height="100%" viewBox="0 0 72 69" version="1.1" xmlns="http://www.w3.org/2000/svg" xmlns:xlink="http://www.w3.org/1999/xlink" xml:space="preserve" xmlns:serif="http://www.serif.com/" style="fill-rule:evenodd;clip-rule:evenodd;stroke-linejoin:round;stroke-miterlimit:2;">
    <g id="invoice-details" serif:id="invoice details" transform="matrix(0.116072,0,0,0.116072,-4.6249,2.0007)">
        <path d="M494.52,541.93L151.29,541.93L151.29,108.38L223.548,108.38C233.509,108.38 241.614,100.278 241.614,90.314L241.614,18.06L494.514,18.06L494.514,325.16L512.58,325.16L512.58,18.06C512.58,8.099 504.478,-0.006 494.514,-0.006L227.284,-0.006C222.46,-0.006 217.925,1.873 214.511,5.287L138.515,81.283C135.101,84.697 133.222,89.232 133.222,94.056L133.222,541.926C133.222,551.887 141.324,559.992 151.288,559.992L494.518,559.992C504.479,559.992 512.584,551.89 512.584,541.926L512.584,524.61L494.518,524.61L494.52,541.93ZM223.55,21.8L223.55,90.32L155.034,90.32L223.55,21.8Z" style="fill:rgb(188,51,89);fill-rule:nonzero;"/>
        <rect x="350" y="433.55" width="72.258" height="18.066" style="fill:rgb(188,51,89);fill-rule:nonzero;"/>
        <rect x="350" y="469.68" width="72.258" height="18.066" style="fill:rgb(188,51,89);fill-rule:nonzero;"/>
        <rect x="350" y="505.8" width="72.258" height="18.066" style="fill:rgb(188,51,89);fill-rule:nonzero;"/>
        <path d="M295.79,460.52C289.36,461.469 284.083,465.641 281.673,471.676L275.333,487.528L269.993,480.411C265.665,474.637 258.614,472.04 251.548,473.637C244.501,475.235 239.247,480.63 237.829,487.707L234.642,503.641C234.173,506.036 230.224,506.278 229.447,503.958L216.728,465.798C213.896,457.313 205.982,451.614 197.033,451.614C187.169,451.614 178.607,458.633 176.681,468.298L169.536,504.036L187.247,507.587L194.399,471.845C194.888,469.462 198.825,469.216 199.595,471.528L212.314,509.688C215.142,518.173 223.052,523.872 232.005,523.872C241.868,523.872 250.431,516.853 252.357,507.188L255.544,491.254L260.884,498.371C264.806,503.59 271.228,506.321 277.712,505.434C284.169,504.575 289.689,500.285 292.11,494.235L298.45,478.383L324.895,511.442L339.004,500.161L312.559,467.102C308.481,462.028 302.211,459.571 295.789,460.52L295.79,460.52Z" style="fill:rgb(188,51,89);fill-rule:nonzero;"/>
        <path d="M566.77,415.48L566.77,406.449C566.77,384.644 551.227,366.398 530.641,362.199L530.641,343.222L512.575,343.222L512.575,361.288L476.446,361.288L476.446,388.386C476.446,413.288 496.704,433.546 521.606,433.546C536.544,433.546 548.704,445.702 548.704,460.644L548.704,469.675L521.606,469.675C506.668,469.675 494.508,457.519 494.508,442.577L494.508,433.546L476.442,433.546L476.442,442.577C476.442,464.382 491.985,482.628 512.571,486.827L512.579,505.8L530.645,505.8L530.645,487.734L566.774,487.734L566.774,460.636C566.774,435.734 546.516,415.476 521.614,415.476C506.676,415.476 494.516,403.32 494.516,388.378L494.516,379.347L521.614,379.347C536.552,379.347 548.712,391.503 548.712,406.445L548.712,415.476L566.77,415.48Z" style="fill:rgb(188,51,89);fill-rule:nonzero;"/>
        <rect x="331.93" y="54.195" width="18.066" height="18.066" style="fill:rgb(188,51,89);fill-rule:nonzero;"/>
        <rect x="368.07" y="54.195" width="18.066" height="18.066" style="fill:rgb(188,51,89);fill-rule:nonzero;"/>
        <rect x="404.2" y="54.195" width="18.066" height="18.066" style="fill:rgb(188,51,89);fill-rule:nonzero;"/>
        <rect x="295.8" y="90.324" width="162.58" height="18.066" style="fill:rgb(188,51,89);fill-rule:nonzero;"/>
        <rect x="187.42" y="144.52" width="162.58" height="18.066" style="fill:rgb(188,51,89);fill-rule:nonzero;"/>
        <rect x="368.07" y="144.52" width="36.129" height="18.066" style="fill:rgb(188,51,89);fill-rule:nonzero;"/>
        <rect x="422.26" y="144.52" width="36.129" height="18.066" style="fill:rgb(188,51,89);fill-rule:nonzero;"/>
        <rect x="187.42" y="180.64" width="180.64" height="18.066" style="fill:rgb(188,51,89);fill-rule:nonzero;"/>
        <path d="M458.39,397.42L458.39,234.84C458.39,224.879 450.288,216.774 440.324,216.774L205.484,216.774C195.523,216.774 187.418,224.876 187.418,234.84L187.418,397.42C187.418,407.381 195.52,415.486 205.484,415.486L440.324,415.486C450.285,415.482 458.386,407.381 458.386,397.416L458.39,397.42ZM368.07,397.42L368.07,280L440.328,280L440.336,397.42L368.07,397.42ZM350.004,397.42L277.746,397.42L277.746,280L350.004,280L350.004,397.42ZM440.328,261.94L277.748,261.94L277.748,234.842L440.328,234.842L440.328,261.94ZM259.678,234.846L259.678,261.944L205.487,261.94L205.487,234.842L259.678,234.846ZM205.487,280.006L259.682,280.006L259.682,397.426L205.487,397.426L205.487,280.006Z" style="fill:rgb(188,51,89);fill-rule:nonzero;"/>
    </g>
</svg>
