<?xml version="1.0" encoding="UTF-8" standalone="no"?>
<!DOCTYPE svg PUBLIC "-//W3C//DTD SVG 1.1//EN" "http://www.w3.org/Graphics/SVG/1.1/DTD/svg11.dtd">
<svg width="100%" height="100%" viewBox="0 0 400 384" version="1.1" xmlns="http://www.w3.org/2000/svg" xmlns:xlink="http://www.w3.org/1999/xlink" xml:space="preserve" xmlns:serif="http://www.serif.com/" style="fill-rule:evenodd;clip-rule:evenodd;stroke-linejoin:round;stroke-miterlimit:2;">
    <g transform="matrix(0.0728211,0,0,-0.0728211,13.6187,377.987)">
        <g transform="matrix(78.5314,0,0,-78.5314,46.4327,5071.6)">
            <path d="M24,1L24,63C24,63 24,63 24,63C24,63.549 23.549,64 23,64C22.893,64 22.788,63.983 22.686,63.95L0.686,56.683C0.278,56.548 -0,56.164 0,55.733L0,8.267C-0,7.836 0.278,7.452 0.686,7.317L22.687,0.05C22.788,0.017 22.893,-0 23,-0C23.549,-0 24,0.451 24,1C24,1 24,1 24,1ZM20,32C20,30.354 18.646,29 17,29C15.354,29 14,30.354 14,32C14,33.646 15.354,35 17,35C18.645,34.998 19.998,33.645 20,32Z" style="fill:none;fill-rule:nonzero;stroke:rgb(175,43,80);stroke-width:1.75px;"/>
        </g>
        <g transform="matrix(78.5314,0,0,-78.5314,128.826,5071.6)">
            <path d="M63.707,32.707L54.707,41.707C54.52,41.895 54.265,42 54,42C53.735,42 53.48,41.895 53.293,41.707L50.293,38.707C50.105,38.52 50,38.265 50,38C50,37.735 50.105,37.48 50.293,37.293L52.586,35L36,35C35.451,35 35,34.549 35,34L35,30C35,29.451 35.451,29 36,29L52.586,29L50.293,26.707C50.105,26.52 50,26.265 50,26C50,25.735 50.105,25.48 50.293,25.293L53.293,22.293C53.48,22.105 53.735,22 54,22C54.265,22 54.52,22.105 54.707,22.293L63.707,31.293C63.895,31.48 64,31.735 64,32C64,32.265 63.895,32.52 63.707,32.707ZM33,34L33,30C33.005,28.356 34.356,27.005 36,27L46,27L46,7C45.998,6.452 45.548,6.002 45,6L26,6L26,58L45,58C45.548,57.998 45.998,57.548 46,57L46,37L36,37C34.356,36.995 33.005,35.644 33,34Z" style="fill:none;fill-rule:nonzero;stroke:rgb(175,43,80);stroke-width:1.75px;"/>
        </g>
    </g>
</svg>
