<?xml version="1.0" encoding="UTF-8" standalone="no"?>
<!DOCTYPE svg PUBLIC "-//W3C//DTD SVG 1.1//EN" "http://www.w3.org/Graphics/SVG/1.1/DTD/svg11.dtd">
<svg width="100%" height="100%" viewBox="0 0 72 69" version="1.1" xmlns="http://www.w3.org/2000/svg" xmlns:xlink="http://www.w3.org/1999/xlink" xml:space="preserve" xmlns:serif="http://www.serif.com/" style="fill-rule:evenodd;clip-rule:evenodd;stroke-linejoin:round;stroke-miterlimit:2;">
    <g transform="matrix(0.14072,0,0,0.14072,-13.5046,-4.90077)">
        <path d="M120.84,450.36L348.34,500.934L348.34,59.054L120.84,109.628L120.84,450.36ZM138.34,123.72L330.84,80.931L330.84,479.051L138.34,436.262L138.34,123.72Z" style="fill:rgb(188,51,89);fill-rule:nonzero;"/>
        <path d="M292.95,262.5C288.309,262.5 283.86,264.344 280.575,267.625C277.294,270.906 275.45,275.359 275.45,280C275.45,284.641 277.294,289.094 280.575,292.375C283.86,295.656 288.309,297.5 292.95,297.5C297.591,297.5 302.044,295.656 305.325,292.375C308.606,289.094 310.45,284.641 310.45,280C310.45,275.359 308.606,270.906 305.325,267.625C302.044,264.344 297.591,262.5 292.95,262.5Z" style="fill:rgb(188,51,89);fill-rule:nonzero;"/>
        <path d="M582.75,280L558.336,255.5L558.336,93.62C558.336,85.034 554.926,76.8 548.856,70.725C542.785,64.655 534.551,61.245 525.961,61.245L365.841,61.245L365.841,78.745L525.961,78.745C529.906,78.745 533.691,80.311 536.481,83.1C539.27,85.889 540.836,89.674 540.836,93.62L540.836,237.64L492.102,188.992L492.102,245.953L372.402,245.953L372.402,315.953L491.492,315.953L491.492,371.078L541.105,321.379L541.105,465.759C541.128,469.888 539.492,473.857 536.562,476.767C533.632,479.681 529.66,481.294 525.527,481.248L365.837,481.248L365.837,498.748L525.527,498.748C534.23,498.748 542.578,495.291 548.73,489.138C554.882,482.982 558.339,474.638 558.339,465.935L558.339,304.055L582.75,280ZM390.25,298.988L390.25,263.988L509.25,263.988L509.25,231.527L558.074,280L508.898,329.086L508.898,298.984L390.25,298.988Z" style="fill:rgb(188,51,89);fill-rule:nonzero;"/>
    </g>
</svg>
