<?xml version="1.0" encoding="UTF-8" standalone="no"?>
<!DOCTYPE svg PUBLIC "-//W3C//DTD SVG 1.1//EN" "http://www.w3.org/Graphics/SVG/1.1/DTD/svg11.dtd">
<svg width="100%" height="100%" viewBox="0 0 400 384" version="1.1" xmlns="http://www.w3.org/2000/svg" xmlns:xlink="http://www.w3.org/1999/xlink" xml:space="preserve" xmlns:serif="http://www.serif.com/" style="fill-rule:evenodd;clip-rule:evenodd;stroke-linejoin:round;stroke-miterlimit:2;">
    <g transform="matrix(12.1999,0,0,12.1999,-385.597,-393.928)">
        <g>
            <g>
                <path d="M59.586,47L42,47C41.448,47 41,47.448 41,48C41,48.552 41.448,49 42,49L59.586,49L55.293,53.293C54.903,53.683 54.903,54.317 55.293,54.707C55.683,55.097 56.317,55.097 56.707,54.707L62.707,48.707C63.098,48.317 63.098,47.683 62.707,47.293L56.707,41.293C56.317,40.903 55.683,40.903 55.293,41.293C54.903,41.683 54.903,42.317 55.293,42.707L59.586,47Z" style="fill:rgb(175,43,80);"/>
                <path d="M51,40L51,36C51,34.343 49.657,33 48,33L36,33C34.343,33 33,34.343 33,36L33,60C33,61.657 34.343,63 36,63L48,63C49.657,63 51,61.657 51,60L51,56C51,55.448 50.552,55 50,55C49.448,55 49,55.448 49,56L49,60C49,60.552 48.552,61 48,61L36,61C35.448,61 35,60.552 35,60L35,36C35,35.448 35.448,35 36,35L48,35C48.552,35 49,35.448 49,36L49,40C49,40.552 49.448,41 50,41C50.552,41 51,40.552 51,40Z" style="fill:rgb(175,43,80);"/>
            </g>
        </g>
    </g>
</svg>
