<?xml version="1.0" encoding="UTF-8" standalone="no"?>
<!DOCTYPE svg PUBLIC "-//W3C//DTD SVG 1.1//EN" "http://www.w3.org/Graphics/SVG/1.1/DTD/svg11.dtd">
<svg width="100%" height="100%" viewBox="0 0 400 384" version="1.1" xmlns="http://www.w3.org/2000/svg" xmlns:xlink="http://www.w3.org/1999/xlink" xml:space="preserve" xmlns:serif="http://www.serif.com/" style="fill-rule:evenodd;clip-rule:evenodd;stroke-linejoin:round;stroke-miterlimit:2;">
    <g transform="matrix(0.888781,0,0,0.888781,-22.6396,-30.7952)">
        <path d="M419.4,258.8C422.7,258.8 425.4,261.5 425.4,264.8C425.4,268.1 422.7,270.8 419.4,270.8L336.3,270.8C333,270.8 330.3,268.1 330.3,264.8C330.3,261.5 333,258.8 336.3,258.8L419.4,258.8ZM419.4,346.4C422.7,346.4 425.4,349.1 425.4,352.4C425.4,355.7 422.7,358.4 419.4,358.4L336.3,358.4C333,358.4 330.3,355.7 330.3,352.4C330.3,349.1 333,346.4 336.3,346.4L419.4,346.4ZM419.4,371.6C422.7,371.6 425.4,374.3 425.4,377.6C425.4,380.9 422.7,383.6 419.4,383.6L336.3,383.6C333,383.6 330.3,380.9 330.3,377.6C330.3,374.3 333,371.6 336.3,371.6L419.4,371.6ZM419.4,315.2C422.7,315.2 425.4,317.9 425.4,321.2C425.4,324.5 422.7,327.2 419.4,327.2L357.4,327.2C354.1,327.2 351.4,324.5 351.4,321.2C351.4,317.9 354.1,315.2 357.4,315.2L419.4,315.2ZM419.4,284C422.7,284 425.4,286.7 425.4,290C425.4,293.3 422.7,296 419.4,296L336.3,296C333,296 330.3,293.3 330.3,290C330.3,286.7 333,284 336.3,284L419.4,284ZM305.4,222.6L409.5,222.6L409.5,92.7L276.3,92.7L276.3,266L299.3,266L299.3,228.5C299.3,225.3 302,222.6 305.4,222.6ZM421.4,222.6L450.4,222.6C453.7,222.6 456.4,225.3 456.4,228.6L456.4,413.9C456.4,417.2 453.7,419.9 450.4,419.9L305.4,419.9C302.1,419.9 299.4,417.2 299.4,413.9L299.4,278.1L270.4,278.1C267.1,278.1 264.4,275.4 264.4,272.1L264.4,86.7C264.4,83.4 267.1,80.7 270.4,80.7L415.5,80.7C418.8,80.7 421.5,83.4 421.5,86.7L421.5,222.6L421.4,222.6ZM444.5,234.5L311.3,234.5L311.3,407.8L444.4,407.8L444.4,234.5L444.5,234.5ZM384.4,117C387.7,117 390.4,119.7 390.4,123C390.4,126.3 387.7,129 384.4,129L301.3,129C298,129 295.3,126.3 295.3,123C295.3,119.7 298,117 301.3,117L384.4,117ZM384.4,180.7C387.7,180.7 390.4,183.4 390.4,186.7C390.4,190 387.7,192.7 384.4,192.7L322.4,192.7C319.1,192.7 316.4,190 316.4,186.7C316.4,183.4 319.1,180.7 322.4,180.7L384.4,180.7ZM384.4,145.5C387.7,145.5 390.4,148.2 390.4,151.5C390.4,154.8 387.7,157.5 384.4,157.5L301.3,157.5C298,157.5 295.3,154.8 295.3,151.5C295.3,148.2 298,145.5 301.3,145.5L384.4,145.5ZM283.8,324.5C287.1,324.5 289.8,327.2 289.8,330.5C289.8,333.8 287.1,336.5 283.8,336.5L251.3,336.5L257.1,339.8C260,341.4 261,345.1 259.3,347.9C257.7,350.8 254,351.8 251.1,350.1L225.7,335.5C221.7,333.2 221.7,327.4 225.8,325.1L238.4,317.8L251.1,310.5C254,308.8 257.6,309.8 259.3,312.7C260.9,315.5 260,319.2 257.1,320.9L250.8,324.5L283.8,324.5ZM239.5,113.1C242.8,113.1 245.5,115.8 245.5,119.1C245.5,122.4 242.8,125.1 239.5,125.1L156.7,125.1C137.8,125.1 139,134.1 139,149.3L142.6,143C144.2,140.1 147.9,139.1 150.8,140.8C153.7,142.4 154.7,146.1 153,149L138.3,174.3C136,178.3 130.2,178.3 128,174.3L113.4,149C111.8,146.1 112.7,142.5 115.6,140.8C118.5,139.2 122.1,140.1 123.8,143L127.1,148.7C127.1,138 126.6,128.1 134.1,120.6C139,115.7 146.3,113.2 156.7,113.2L239.5,113.2L239.5,113.1ZM201.3,322.2C201.6,321.9 201.9,321.7 202.3,321.5L202.3,289C168.2,309.2 90.6,309.2 56.5,289L56.5,321.5C56.8,321.7 57.2,321.9 57.5,322.2C63,327.1 72.8,331.4 85.3,334.4C111.8,340.9 147,340.9 173.6,334.4C186,331.4 195.8,327.1 201.3,322.2ZM202.3,336.1C168.2,356.3 90.6,356.3 56.5,336.1L56.5,367.6C56.5,372.8 63.8,378.1 75.7,382.5C105.2,393.3 153.7,393.3 183.2,382.5C195,378.2 202.4,372.8 202.4,367.6L202.4,336.1L202.3,336.1ZM201.3,275.1C201.6,274.8 201.9,274.6 202.3,274.4L202.3,241.2C170.6,263 88.1,263 56.5,241.2L56.5,274.4C56.8,274.6 57.2,274.8 57.5,275.1C63,280 72.8,284.3 85.3,287.3C111.8,293.8 147,293.8 173.6,287.3C186,284.3 195.8,280 201.3,275.1ZM129.4,187.6C151.9,187.6 172.3,191 187.3,196.5C204,202.6 214.3,211.8 214.3,222.6L214.3,367.6C214.3,378.4 204,387.6 187.3,393.7C155.1,405.5 103.7,405.5 71.6,393.7C54.9,387.5 44.6,378.4 44.6,367.6L44.6,222.6C44.6,211.8 55,202.6 71.6,196.5C86.4,191 106.9,187.6 129.4,187.6ZM183.1,207.8C153.6,197 105.1,197 75.6,207.8C50.1,217.2 50.1,228.2 75.6,237.6C105.1,248.4 153.6,248.4 183.1,237.6C208.6,228.1 208.6,217.1 183.1,207.8Z" style="fill:rgb(175,43,80);fill-rule:nonzero;"/>
    </g>
</svg>
