<?xml version="1.0" encoding="UTF-8" standalone="no"?>
<!DOCTYPE svg PUBLIC "-//W3C//DTD SVG 1.1//EN" "http://www.w3.org/Graphics/SVG/1.1/DTD/svg11.dtd">
<svg width="100%" height="100%" viewBox="0 0 72 69" version="1.1" xmlns="http://www.w3.org/2000/svg" xmlns:xlink="http://www.w3.org/1999/xlink" xml:space="preserve" xmlns:serif="http://www.serif.com/" style="fill-rule:evenodd;clip-rule:evenodd;stroke-linecap:round;stroke-linejoin:round;stroke-miterlimit:1.5;">
    <g transform="matrix(0.939377,0,0,0.939377,-412.553,-550.703)">
        <g transform="matrix(0.814979,0,0,0.814979,-65.6305,140.533)">
            <circle cx="683" cy="592" r="3.379" style="fill:white;stroke:rgb(188,51,89);stroke-width:2.61px;"/>
        </g>
        <g transform="matrix(0.764706,0,0,0.764706,104.706,138.824)">
            <g transform="matrix(1.78571,0,0,0.96,-632.5,62.96)">
                <path d="M651,555.165C651,551.762 649.515,549 647.686,549L626.314,549C624.485,549 623,551.762 623,555.165L623,567.835C623,571.238 624.485,574 626.314,574L647.686,574C649.515,574 651,571.238 651,567.835L651,555.165Z" style="fill:none;stroke:rgb(188,51,89);stroke-width:1.94px;"/>
            </g>
            <g transform="matrix(1.39208,0,0,1.39208,437.385,585.087)">
                <path d="M38,31L38,26.06L34.686,26.06C32.438,26.06 30.612,27.885 30.612,30.134L30.612,38.507C30.612,40.756 32.438,42.582 34.686,42.582L38,42.582L38,39L37,39L37,31L38,31ZM57,31L58,31L58,39L57,39L57,42.582L62.456,42.582C64.704,42.582 66.53,40.756 66.53,38.507L66.53,30.134C66.53,27.885 64.704,26.06 62.456,26.06L57,26.06L57,31Z" style="fill:none;stroke:rgb(188,51,89);stroke-width:2px;"/>
            </g>
            <g transform="matrix(1,0,0,1,-179,41)">
                <path d="M651,592L659,592" style="fill:none;stroke:rgb(188,51,89);stroke-width:3.85px;"/>
            </g>
            <g transform="matrix(1,0,0,1,-179,71.7237)">
                <path d="M651,592L659,592" style="fill:none;stroke:rgb(188,51,89);stroke-width:3.85px;"/>
            </g>
            <g transform="matrix(1,0,0,1,-179,10.6603)">
                <path d="M651,592L659,592" style="fill:none;stroke:rgb(188,51,89);stroke-width:3.85px;"/>
            </g>
            <g transform="matrix(1.78571,0,0,0.92,-632.5,147.392)">
                <path d="M651,555.165C651,551.762 649.577,549 647.824,549L626.176,549C624.423,549 623,551.762 623,555.165L623,567.835C623,571.238 624.423,574 626.176,574L647.824,574C649.577,574 651,571.238 651,567.835L651,555.165Z" style="fill:none;stroke:rgb(188,51,89);stroke-width:1.96px;"/>
            </g>
            <g transform="matrix(1,0,0,1,-179,102.255)">
                <g transform="matrix(0.928571,0,0,1,45.5,0)">
                    <path d="M651,555.165C651,551.762 648.025,549 644.361,549L629.639,549C625.975,549 623,551.762 623,555.165L623,567.835C623,571.238 625.975,574 629.639,574L644.361,574C648.025,574 651,571.238 651,567.835L651,555.165Z" style="fill:none;stroke:rgb(188,51,89);stroke-width:2.89px;"/>
                </g>
                <path d="M624,556.268L650,556.268" style="fill:none;stroke:rgb(188,51,89);stroke-width:2.78px;"/>
                <path d="M629,562L646,562" style="fill:none;stroke:rgb(188,51,89);stroke-width:2.78px;"/>
                <g transform="matrix(1,0,0,1,0,4.9158)">
                    <path d="M629,562L646,562" style="fill:none;stroke:rgb(188,51,89);stroke-width:2.78px;"/>
                </g>
            </g>
            <g transform="matrix(1,0,0,1,-179,72.1136)">
                <g transform="matrix(0.928571,0,0,1,45.5,0)">
                    <path d="M651,555.165C651,551.762 648.025,549 644.361,549L629.639,549C625.975,549 623,551.762 623,555.165L623,567.835C623,571.238 625.975,574 629.639,574L644.361,574C648.025,574 651,571.238 651,567.835L651,555.165Z" style="fill:none;stroke:rgb(188,51,89);stroke-width:2.89px;"/>
                </g>
                <path d="M624,556.268L650,556.268" style="fill:none;stroke:rgb(188,51,89);stroke-width:2.78px;"/>
                <path d="M629,562L646,562" style="fill:none;stroke:rgb(188,51,89);stroke-width:2.78px;"/>
                <g transform="matrix(1,0,0,1,0,4.9158)">
                    <path d="M629,562L646,562" style="fill:none;stroke:rgb(188,51,89);stroke-width:2.78px;"/>
                </g>
            </g>
            <g transform="matrix(1,0,0,1,-179,40.9719)">
                <g transform="matrix(0.928571,0,0,1,45.5,0)">
                    <path d="M651,555.165C651,551.762 648.025,549 644.361,549L629.639,549C625.975,549 623,551.762 623,555.165L623,567.835C623,571.238 625.975,574 629.639,574L644.361,574C648.025,574 651,571.238 651,567.835L651,555.165Z" style="fill:none;stroke:rgb(188,51,89);stroke-width:2.89px;"/>
                </g>
                <path d="M624,556.268L650,556.268" style="fill:none;stroke:rgb(188,51,89);stroke-width:2.78px;"/>
                <path d="M629,562L646,562" style="fill:none;stroke:rgb(188,51,89);stroke-width:2.78px;"/>
                <g transform="matrix(1,0,0,1,0,4.9158)">
                    <path d="M629,562L646,562" style="fill:none;stroke:rgb(188,51,89);stroke-width:2.78px;"/>
                </g>
            </g>
        </g>
        <g>
            <rect x="476" y="593" width="2" height="2" style="fill:rgb(188,51,89);"/>
            <g transform="matrix(1,0,0,1,0,2.99067)">
                <rect x="476" y="593" width="2" height="2" style="fill:rgb(188,51,89);"/>
            </g>
            <g transform="matrix(1,0,0,1,3.07863,0)">
                <rect x="476" y="593" width="2" height="2" style="fill:rgb(188,51,89);"/>
            </g>
            <g transform="matrix(1,0,0,1,3.07863,2.99067)">
                <rect x="476" y="593" width="2" height="2" style="fill:rgb(188,51,89);"/>
            </g>
            <g transform="matrix(1,0,0,1,6.11328,0)">
                <rect x="476" y="593" width="2" height="2" style="fill:rgb(188,51,89);"/>
            </g>
            <g transform="matrix(1,0,0,1,6.11328,2.99067)">
                <rect x="476" y="593" width="2" height="2" style="fill:rgb(188,51,89);"/>
            </g>
        </g>
        <g transform="matrix(1,0,0,1,0,49.1774)">
            <rect x="476" y="593" width="2" height="2" style="fill:rgb(188,51,89);"/>
            <g transform="matrix(1,0,0,1,0,2.99067)">
                <rect x="476" y="593" width="2" height="2" style="fill:rgb(188,51,89);"/>
            </g>
            <g transform="matrix(1,0,0,1,3.07863,0)">
                <rect x="476" y="593" width="2" height="2" style="fill:rgb(188,51,89);"/>
            </g>
            <g transform="matrix(1,0,0,1,3.07863,2.99067)">
                <rect x="476" y="593" width="2" height="2" style="fill:rgb(188,51,89);"/>
            </g>
            <g transform="matrix(1,0,0,1,6.11328,0)">
                <rect x="476" y="593" width="2" height="2" style="fill:rgb(188,51,89);"/>
            </g>
            <g transform="matrix(1,0,0,1,6.11328,2.99067)">
                <rect x="476" y="593" width="2" height="2" style="fill:rgb(188,51,89);"/>
            </g>
        </g>
        <g transform="matrix(0.814979,0,0,0.814979,-65.6305,140.533)">
            <path d="M685.148,577.324C683.723,577.115 682.277,577.115 680.852,577.324L680.153,579.718C678.8,580.031 677.507,580.567 676.328,581.302L674.141,580.104C672.986,580.963 671.963,581.986 671.104,583.141L672.302,585.328C671.567,586.507 671.031,587.8 670.718,589.153L668.324,589.852C668.115,591.277 668.115,592.723 668.324,594.148L670.718,594.847C671.031,596.2 671.567,597.493 672.302,598.672L671.104,600.859C671.963,602.014 672.986,603.037 674.141,603.896L676.328,602.698C677.507,603.433 678.8,603.969 680.153,604.282L680.852,606.676C682.277,606.885 683.723,606.885 685.148,606.676L685.847,604.282C687.2,603.969 688.493,603.433 689.672,602.698L691.859,603.896C693.014,603.037 694.037,602.014 694.896,600.859L693.698,598.672C694.433,597.493 694.969,596.2 695.282,594.847L697.676,594.148C697.885,592.723 697.885,591.277 697.676,589.852L695.282,589.153C694.969,587.8 694.433,586.507 693.698,585.328L694.896,583.141C694.037,581.986 693.014,580.963 691.859,580.104L689.672,581.302C688.493,580.567 687.2,580.031 685.847,579.718L685.148,577.324ZM683,583.272C687.817,583.272 691.728,587.183 691.728,592C691.728,596.817 687.817,600.728 683,600.728C678.183,600.728 674.272,596.817 674.272,592C674.272,587.183 678.183,583.272 683,583.272Z" style="fill:none;stroke:rgb(188,51,89);stroke-width:2.61px;"/>
        </g>
    </g>
</svg>
