<?xml version="1.0" encoding="UTF-8" standalone="no"?>
<!DOCTYPE svg PUBLIC "-//W3C//DTD SVG 1.1//EN" "http://www.w3.org/Graphics/SVG/1.1/DTD/svg11.dtd">
<svg width="100%" height="100%" viewBox="0 0 72 69" version="1.1" xmlns="http://www.w3.org/2000/svg" xmlns:xlink="http://www.w3.org/1999/xlink" xml:space="preserve" xmlns:serif="http://www.serif.com/" style="fill-rule:evenodd;clip-rule:evenodd;stroke-linejoin:round;stroke-miterlimit:2;">
    <g transform="matrix(0.0131078,0,0,-0.0131078,2.45137,68.0376)">
        <path d="M270,5111C192,5087 113,5012 92,4942C84,4915 80,4794 80,4562L80,4221L106,4201C149,4167 192,4175 215,4221C227,4244 230,4308 230,4574L230,4900L259,4932L288,4965L4112,4965L4141,4932L4170,4900L4170,2998L4200,2968C4225,2944 4236,2939 4258,2945C4273,2948 4293,2959 4302,2967C4319,2982 4320,3041 4320,3943C4320,4650 4317,4913 4308,4942C4293,4992 4230,5064 4176,5093L4135,5115L2215,5117C1159,5118 284,5115 270,5111Z" style="fill:rgb(175,43,80);fill-rule:nonzero;"/>
        <path d="M433,4660C421,4655 407,4642 401,4631C394,4618 390,4506 390,4315L390,4019L415,3995C428,3981 451,3970 465,3970C479,3970 502,3981 515,3995C538,4017 540,4027 540,4115L540,4210L596,4210C681,4210 729,4228 780,4280C854,4354 870,4446 824,4538C776,4634 699,4670 546,4669C496,4669 445,4665 433,4660ZM669,4494C708,4461 710,4420 675,4385C655,4364 641,4360 595,4360L540,4360L540,4520L589,4520C628,4520 645,4514 669,4494Z" style="fill:rgb(175,43,80);fill-rule:nonzero;"/>
        <path d="M955,4645L930,4621L930,4011L956,3991C989,3965 1021,3964 1051,3989C1071,4005 1075,4019 1080,4090L1085,4173L1154,4094C1249,3985 1267,3970 1299,3970C1335,3970 1370,4008 1370,4047C1370,4070 1354,4095 1300,4156C1262,4199 1230,4238 1230,4242C1230,4246 1238,4251 1248,4254C1276,4263 1329,4319 1351,4362C1374,4406 1376,4486 1356,4534C1335,4585 1273,4638 1217,4655C1188,4664 1127,4670 1073,4670C987,4670 977,4668 955,4645ZM1194,4499C1252,4453 1209,4380 1124,4380L1080,4380L1080,4520L1124,4520C1153,4520 1176,4513 1194,4499Z" style="fill:rgb(175,43,80);fill-rule:nonzero;"/>
        <path d="M1680,4654C1468,4598 1362,4363 1459,4166C1602,3875 2026,3923 2106,4239C2151,4419 2037,4607 1853,4655C1783,4673 1751,4673 1680,4654ZM1825,4509C1880,4494 1945,4427 1960,4371C1995,4240 1884,4109 1749,4122C1685,4129 1625,4170 1592,4230C1547,4314 1577,4432 1656,4480C1719,4519 1761,4526 1825,4509Z" style="fill:rgb(175,43,80);fill-rule:nonzero;"/>
        <path d="M2364,4658C2324,4639 2320,4610 2320,4364C2320,4101 2321,4104 2251,4141C2215,4159 2205,4161 2181,4150C2164,4143 2146,4125 2139,4108C2123,4070 2139,4036 2189,4003C2278,3943 2394,3971 2447,4065C2469,4104 2470,4114 2470,4363L2470,4621L2445,4645C2419,4672 2398,4675 2364,4658Z" style="fill:rgb(175,43,80);fill-rule:nonzero;"/>
        <path d="M3264,4656C3161,4630 3078,4561 3028,4461C2996,4396 2995,4247 3027,4178C3057,4112 3129,4039 3197,4005C3247,3980 3267,3976 3340,3975C3413,3975 3433,3979 3482,4003C3586,4054 3622,4133 3564,4179C3527,4208 3510,4206 3457,4164C3321,4058 3136,4166 3152,4341C3166,4478 3311,4554 3442,4492C3500,4465 3511,4465 3544,4491C3575,4515 3580,4569 3553,4596C3498,4651 3358,4680 3264,4656Z" style="fill:rgb(175,43,80);fill-rule:nonzero;"/>
        <path d="M3667,4650C3647,4634 3640,4620 3640,4594C3640,4542 3668,4520 3735,4520L3790,4520L3790,4011L3816,3991C3849,3965 3881,3964 3911,3989C3935,4008 3935,4009 3938,4264L3941,4520L3995,4520C4041,4520 4051,4524 4069,4546C4095,4579 4096,4611 4071,4641C4052,4664 4047,4665 3873,4668C3703,4671 3693,4670 3667,4650Z" style="fill:rgb(175,43,80);fill-rule:nonzero;"/>
        <path d="M2617,4648C2608,4641 2596,4622 2590,4607C2577,4569 2576,4061 2590,4024C2609,3975 2624,3971 2776,3970C2910,3970 2917,3971 2938,3993C2969,4026 2967,4073 2934,4099C2911,4117 2893,4120 2819,4120L2730,4120L2730,4240L2805,4240C2891,4240 2924,4252 2940,4289C2952,4319 2941,4362 2918,4377C2911,4381 2867,4387 2820,4390L2735,4395L2732,4453L2729,4510L2818,4510C2893,4510 2911,4513 2934,4531C2967,4557 2970,4610 2940,4640C2922,4658 2907,4660 2777,4660C2678,4660 2629,4656 2617,4648Z" style="fill:rgb(175,43,80);fill-rule:nonzero;"/>
        <path d="M102,3957L80,3933L82,2129L85,325L117,257C155,178 231,94 298,57C405,-1 385,0 1353,0L2241,0L2265,25C2297,56 2297,94 2265,125L2241,150L840,150L870,197C929,289 942,342 948,504C953,649 953,654 981,684L1008,715L4832,715L4862,681L4892,648L4888,496C4885,352 4884,343 4858,298C4821,236 4761,187 4699,167C4653,152 4546,150 3593,150L2539,150L2515,125C2483,94 2483,56 2515,25L2539,0L3597,0C4752,0 4714,-2 4822,57C4889,94 4965,178 5003,257C5034,323 5035,329 5038,484C5042,671 5034,711 4977,776C4901,863 4893,865 4588,868L4320,871L4320,986L4383,982C4496,975 4547,1019 4650,1213C4684,1276 4691,1300 4691,1344C4691,1433 4649,1496 4552,1550L4514,1572L4514,1818L4552,1840C4650,1895 4690,1955 4690,2046C4690,2093 4683,2115 4649,2179C4547,2370 4496,2415 4383,2408L4320,2404L4320,2552C4320,2687 4318,2702 4300,2720C4273,2747 4219,2746 4194,2719C4177,2700 4175,2679 4172,2534C4170,2444 4167,2370 4166,2370C4164,2370 4136,2386 4104,2405C4071,2425 4035,2443 4023,2446C4002,2452 4000,2458 4000,2514C4000,2596 3985,2643 3947,2687C3894,2748 3854,2760 3704,2760C3630,2760 3558,2755 3539,2748C3446,2716 3400,2645 3400,2532L3400,2460L3338,2429C3303,2412 3256,2384 3232,2368L3189,2338L3120,2374C3069,2401 3040,2410 3004,2410C2946,2410 2885,2384 2849,2344C2811,2303 2711,2122 2704,2082C2687,1993 2732,1907 2823,1854L2885,1817L2885,1573L2823,1536C2732,1483 2687,1397 2704,1308C2711,1268 2811,1087 2849,1046C2885,1006 2946,980 3004,980C3040,980 3069,989 3120,1016L3189,1052L3232,1022C3256,1006 3303,978 3338,961C3393,933 3400,926 3400,900L3400,870L2193,868L985,865L944,843C899,819 835,753 818,712C812,697 804,615 800,529C795,386 792,369 766,317C663,105 382,95 262,298L235,345L230,2143L225,3942L201,3961C169,3987 128,3985 102,3957ZM3834,2588C3846,2571 3850,2540 3850,2470C3850,2383 3852,2372 3873,2353C3885,2342 3906,2329 3920,2325C3967,2311 4075,2250 4124,2210C4150,2188 4181,2170 4192,2170C4203,2170 4251,2191 4299,2217C4414,2278 4420,2276 4488,2160C4563,2033 4560,2020 4452,1955C4406,1928 4364,1897 4358,1887C4352,1875 4352,1841 4360,1783C4368,1718 4368,1674 4360,1608C4346,1499 4347,1496 4455,1432C4560,1369 4562,1356 4488,1230C4420,1114 4414,1112 4299,1173C4251,1199 4203,1220 4192,1220C4181,1220 4150,1202 4124,1179C4097,1157 4032,1118 3980,1093C3848,1029 3850,1031 3850,943L3850,870L3550,870L3550,933C3550,1022 3538,1038 3445,1077C3401,1095 3332,1135 3291,1165C3250,1195 3208,1220 3197,1220C3186,1220 3142,1199 3099,1174C2988,1109 2979,1112 2908,1230C2876,1282 2850,1334 2850,1346C2850,1372 2878,1397 2962,1445C3039,1489 3052,1513 3039,1581C3035,1605 3031,1657 3031,1695C3031,1734 3035,1785 3039,1809C3052,1877 3039,1901 2962,1945C2878,1993 2850,2018 2850,2044C2850,2056 2876,2108 2908,2160C2979,2278 2986,2280 3098,2216C3141,2191 3186,2170 3197,2170C3208,2170 3250,2195 3291,2225C3332,2255 3401,2295 3445,2313C3499,2336 3529,2355 3537,2371C3544,2385 3550,2433 3550,2484C3550,2609 3551,2610 3701,2610C3811,2610 3820,2609 3834,2588ZM4170,945L4170,870L4000,870L4000,903C4000,931 4005,937 4043,953C4067,962 4102,981 4121,995C4139,1008 4158,1019 4163,1020C4167,1020 4170,986 4170,945Z" style="fill:rgb(175,43,80);fill-rule:nonzero;"/>
        <path d="M3559,2057C3457,2014 3386,1947 3341,1851C3319,1802 3315,1782 3315,1695C3315,1602 3317,1590 3347,1529C3386,1449 3458,1379 3538,1342C3588,1318 3607,1315 3700,1315C3796,1315 3810,1318 3865,1344C3980,1401 4058,1507 4081,1638C4109,1797 4016,1972 3865,2045C3815,2069 3790,2074 3710,2077C3628,2080 3607,2077 3559,2057ZM3795,1911C3883,1871 3933,1792 3933,1695C3933,1560 3833,1461 3697,1460C3599,1460 3525,1506 3484,1595C3427,1716 3483,1863 3605,1916C3649,1935 3748,1933 3795,1911Z" style="fill:rgb(175,43,80);fill-rule:nonzero;"/>
        <path d="M585,3795C571,3782 560,3759 560,3745C560,3731 571,3708 585,3695L609,3670L3791,3670L3815,3695C3847,3726 3847,3764 3815,3795L3791,3820L609,3820L585,3795Z" style="fill:rgb(175,43,80);fill-rule:nonzero;"/>
        <path d="M617,3466C527,3433 454,3358 430,3270C424,3250 420,3072 420,2853C420,2495 421,2467 440,2417C464,2354 523,2291 588,2258L635,2235L2025,2235L2082,2263C2114,2279 2155,2309 2174,2332C2239,2407 2240,2418 2240,2864C2240,3264 2240,3265 2216,3315C2186,3380 2112,3446 2047,3465C1976,3486 676,3487 617,3466ZM2015,3316C2034,3308 2059,3286 2070,3268C2089,3236 2090,3218 2090,2856C2090,2492 2089,2476 2070,2444C2029,2378 2040,2379 1315,2382C591,2385 633,2381 590,2453C571,2483 570,2506 570,2855C570,3269 571,3274 641,3312C673,3329 714,3330 1328,3330C1873,3330 1986,3328 2015,3316Z" style="fill:rgb(175,43,80);fill-rule:nonzero;"/>
        <path d="M1413,3190C1401,3185 1387,3172 1381,3161C1374,3148 1370,3032 1370,2832C1370,2542 1371,2521 1389,2499C1408,2475 1409,2475 1661,2472C1931,2469 1959,2473 1979,2516C1994,2550 1994,3119 1979,3153C1973,3167 1957,3183 1943,3189C1914,3202 1446,3203 1413,3190ZM1840,3050L1840,2620L1520,2620L1520,3050L1840,3050Z" style="fill:rgb(175,43,80);fill-rule:nonzero;"/>
        <path d="M700,2900C681,2881 680,2867 680,2696L680,2511L706,2491C731,2471 745,2470 985,2470C1225,2470 1239,2471 1264,2491L1290,2511L1290,2696C1290,2867 1289,2881 1270,2900C1251,2919 1237,2920 985,2920C733,2920 719,2919 700,2900ZM1140,2770L1140,2620L830,2620L830,2770L1140,2770Z" style="fill:rgb(175,43,80);fill-rule:nonzero;"/>
        <path d="M2472,3183C2465,3180 2453,3166 2445,3150C2426,3114 2441,3067 2476,3051C2494,3043 2703,3040 3216,3040L3931,3040L3955,3065C3969,3078 3980,3101 3980,3115C3980,3129 3969,3152 3955,3165L3931,3190L3208,3189C2810,3189 2479,3186 2472,3183Z" style="fill:rgb(175,43,80);fill-rule:nonzero;"/>
        <path d="M2459,2882C2426,2855 2429,2804 2464,2773L2491,2750L3391,2750L3415,2775C3447,2806 3448,2849 3417,2878C3394,2900 3392,2900 2938,2900C2510,2900 2481,2899 2459,2882Z" style="fill:rgb(175,43,80);fill-rule:nonzero;"/>
        <path d="M440,2018C401,1976 424,1909 482,1895C495,1892 962,1891 1521,1892C2505,1895 2539,1896 2559,1914C2586,1939 2587,1993 2560,2020C2540,2040 2527,2040 1500,2040L461,2040L440,2018Z" style="fill:rgb(175,43,80);fill-rule:nonzero;"/>
        <path d="M440,1730C397,1687 426,1617 492,1605C510,1602 1008,1600 1598,1602L2672,1605L2691,1629C2716,1659 2715,1705 2690,1730C2670,1750 2657,1750 1565,1750C473,1750 460,1750 440,1730Z" style="fill:rgb(175,43,80);fill-rule:nonzero;"/>
        <path d="M464,1456C416,1435 404,1376 440,1340C460,1320 473,1320 1504,1320L2549,1320L2564,1342C2587,1374 2584,1423 2559,1446C2539,1464 2505,1465 1516,1467C674,1469 490,1467 464,1456Z" style="fill:rgb(175,43,80);fill-rule:nonzero;"/>
        <path d="M463,1160C417,1141 406,1077 443,1042C466,1020 466,1020 977,1020C1449,1020 1489,1021 1508,1038C1520,1047 1532,1067 1536,1082C1541,1104 1536,1115 1512,1140L1482,1170L983,1169C709,1169 475,1165 463,1160Z" style="fill:rgb(175,43,80);fill-rule:nonzero;"/>
    </g>
</svg>
