<?xml version="1.0" encoding="UTF-8" standalone="no"?>
<!DOCTYPE svg PUBLIC "-//W3C//DTD SVG 1.1//EN" "http://www.w3.org/Graphics/SVG/1.1/DTD/svg11.dtd">
<svg width="100%" height="100%" viewBox="0 0 72 69" version="1.1" xmlns="http://www.w3.org/2000/svg" xmlns:xlink="http://www.w3.org/1999/xlink" xml:space="preserve" xmlns:serif="http://www.serif.com/" style="fill-rule:evenodd;clip-rule:evenodd;stroke-linejoin:round;stroke-miterlimit:2;">
    <g transform="matrix(0.0126947,0,0,-0.0126947,3.49229,66.9873)">
        <path d="M740,5107C691,5091 607,5005 592,4954C585,4931 580,4883 580,4847L580,4781L538,4758C455,4712 400,4600 416,4511C430,4435 489,4355 551,4330L580,4318L580,3679L605,3655C618,3641 641,3630 655,3630C669,3630 692,3641 705,3655L730,3679L730,4310L924,4310C1108,4310 1119,4311 1150,4333C1217,4378 1225,4399 1228,4533C1231,4644 1229,4659 1208,4700C1193,4729 1171,4753 1145,4767C1108,4788 1093,4790 918,4790L730,4790L730,4851C730,4905 733,4915 759,4941L788,4970L3999,4970L4055,4922L4058,2815L4060,709L4031,679L4002,650L782,650L730,712L730,3431L705,3455C674,3487 636,3487 604,3455L580,3431L582,2047L585,663L615,614C634,584 664,554 694,535C743,505 746,505 909,500L1075,495L1080,329C1085,166 1085,163 1115,114C1134,84 1164,54 1194,35L1243,5L2387,2L3531,0L3555,24C3587,56 3587,94 3555,125L3531,150L1292,150L1230,202L1230,500L2628,500C3959,500 4027,501 4065,519C4113,541 4162,589 4187,639C4204,673 4205,770 4208,2573L4210,4470L4351,4470C4432,4470 4500,4465 4512,4459C4562,4432 4560,4533 4560,2312C4560,823 4557,234 4549,211C4528,151 4518,150 4130,150L3779,150L3755,125C3723,94 3723,56 3755,24L3780,-1L4158,2L4537,5L4585,35C4648,74 4687,130 4700,200C4707,237 4709,966 4708,2345L4705,4435L4684,4480C4661,4530 4604,4585 4554,4606C4530,4616 4475,4620 4366,4620L4212,4620L4208,4783C4205,4926 4202,4950 4183,4985C4155,5037 4116,5074 4060,5099C4015,5119 4004,5120 2395,5119C1244,5118 765,5115 740,5107ZM1080,4640L1080,4460L847,4460C618,4460 613,4460 593,4483C582,4495 569,4515 566,4527C557,4557 584,4618 612,4630C625,4635 735,4639 858,4639L1080,4640Z" style="fill:rgb(175,43,80);fill-rule:nonzero;"/>
        <path d="M1495,4275C1119,4193 861,3823 919,3450C946,3278 1004,3166 1135,3035C1278,2891 1412,2832 1611,2823C1794,2814 1934,2854 2075,2954C2360,3158 2464,3539 2320,3856C2245,4021 2103,4162 1942,4231C1815,4286 1628,4304 1495,4275ZM1570,3960C1570,3781 1570,3779 1547,3771C1505,3755 1457,3706 1434,3655C1371,3521 1442,3366 1585,3324C1640,3309 1650,3308 1702,3322L1759,3336L1882,3213C2022,3072 2020,3086 1908,3029C1826,2988 1749,2970 1650,2970C1485,2970 1358,3023 1239,3140C1053,3324 1010,3583 1126,3820C1197,3962 1354,4087 1512,4126C1541,4133 1566,4139 1568,4139C1569,4140 1570,4059 1570,3960ZM1835,4110C2071,4029 2231,3810 2233,3565C2234,3516 2228,3450 2221,3420C2206,3359 2161,3258 2130,3220L2111,3195L1989,3316L1868,3437L1880,3492C1905,3604 1863,3706 1770,3757L1720,3785L1720,4130L1748,4130C1764,4130 1803,4121 1835,4110ZM1708,3620C1782,3551 1700,3428 1611,3475C1525,3519 1552,3640 1648,3640C1673,3640 1694,3633 1708,3620Z" style="fill:rgb(175,43,80);fill-rule:nonzero;"/>
        <path d="M2652,4273C2587,4241 2575,4211 2572,4063C2569,3941 2570,3927 2591,3890C2606,3864 2628,3843 2656,3830C2696,3810 2713,3809 2988,3812C3263,3815 3280,3816 3306,3836C3368,3882 3375,3900 3378,4040C3381,4160 3380,4172 3358,4211C3315,4287 3302,4290 2973,4290C2728,4290 2680,4287 2652,4273ZM3230,4140L3230,3960L2720,3960L2720,4140L3230,4140Z" style="fill:rgb(175,43,80);fill-rule:nonzero;"/>
        <path d="M2596,3609C2562,3582 2560,3532 2593,3502L2616,3480L3221,3480C3878,3480 3860,3479 3874,3535C3881,3564 3859,3614 3835,3624C3826,3627 3549,3630 3221,3630C2631,3630 2622,3630 2596,3609Z" style="fill:rgb(175,43,80);fill-rule:nonzero;"/>
        <path d="M2595,3275C2563,3244 2562,3201 2593,3172L2616,3150L3831,3150L3855,3175C3869,3188 3880,3206 3880,3214C3880,3242 3858,3278 3833,3289C3816,3297 3629,3300 3214,3300L2619,3300L2595,3275Z" style="fill:rgb(175,43,80);fill-rule:nonzero;"/>
        <path d="M2613,2960C2569,2942 2556,2874 2590,2840C2609,2821 2623,2820 2973,2820L3337,2820L3358,2843C3394,2881 3386,2931 3339,2955C3316,2967 3251,2970 2973,2969C2787,2969 2625,2965 2613,2960Z" style="fill:rgb(175,43,80);fill-rule:nonzero;"/>
        <path d="M990,2281C970,2270 946,2245 932,2219C911,2178 909,2165 912,2049C915,1930 916,1922 942,1888C992,1823 1018,1819 1337,1822C1605,1825 1620,1826 1647,1846C1662,1857 1685,1882 1698,1900C1718,1930 1720,1945 1720,2064C1720,2211 1709,2242 1648,2280C1617,2299 1597,2300 1320,2300C1051,2300 1022,2298 990,2281ZM1570,2150L1570,1970L1060,1970L1060,2150L1570,2150Z" style="fill:rgb(175,43,80);fill-rule:nonzero;"/>
        <path d="M3750,2280C3733,2263 3730,2247 3730,2178L3730,2095L3288,1653L3049,1732C2917,1775 2801,1809 2792,1806C2761,1796 2400,1425 2400,1403C2400,1366 2438,1330 2478,1330C2511,1330 2526,1343 2672,1487L2830,1645L3063,1567C3191,1525 3304,1490 3315,1490C3326,1490 3413,1568 3532,1687L3731,1885L3728,1457L3725,1028L3669,980L3072,980C2744,980 2465,977 2452,974C2429,967 2400,924 2400,895C2400,886 2411,868 2425,855L2449,830L3061,830C3496,830 3684,833 3711,842C3762,857 3825,911 3853,964C3875,1005 3875,1007 3878,1626C3881,2244 3881,2247 3860,2273C3833,2307 3780,2310 3750,2280Z" style="fill:rgb(175,43,80);fill-rule:nonzero;"/>
        <path d="M935,1615C921,1602 910,1579 910,1565C910,1551 921,1528 935,1515L959,1490L2171,1490L2195,1515C2227,1546 2227,1584 2195,1615L2171,1640L959,1640L935,1615Z" style="fill:rgb(175,43,80);fill-rule:nonzero;"/>
        <path d="M935,1285C921,1272 910,1249 910,1235C910,1221 921,1198 935,1185L959,1160L2171,1160L2195,1185C2227,1216 2227,1254 2195,1285L2171,1310L959,1310L935,1285Z" style="fill:rgb(175,43,80);fill-rule:nonzero;"/>
        <path d="M935,955C921,942 910,919 910,905C910,891 921,868 935,855L959,830L1320,830C1667,830 1681,831 1700,850C1730,880 1727,933 1694,959C1668,979 1656,980 1313,980L959,980L935,955Z" style="fill:rgb(175,43,80);fill-rule:nonzero;"/>
    </g>
</svg>
