<?xml version="1.0" encoding="UTF-8" standalone="no"?>
<!DOCTYPE svg PUBLIC "-//W3C//DTD SVG 1.1//EN" "http://www.w3.org/Graphics/SVG/1.1/DTD/svg11.dtd">
<svg width="100%" height="100%" viewBox="0 0 72 69" version="1.1" xmlns="http://www.w3.org/2000/svg" xmlns:xlink="http://www.w3.org/1999/xlink" xml:space="preserve" xmlns:serif="http://www.serif.com/" style="fill-rule:evenodd;clip-rule:evenodd;stroke-linecap:round;stroke-linejoin:round;stroke-miterlimit:1.5;">
    <g transform="matrix(1,0,0,1,-473.529,-826.474)">
        <path d="M501.888,851.262C499.973,850.981 498.027,850.981 496.112,851.262L495.171,854.482C493.351,854.904 491.613,855.623 490.027,856.612L487.085,855C485.533,856.157 484.157,857.533 483,859.085L484.612,862.027C483.623,863.613 482.904,865.351 482.482,867.171L479.262,868.112C478.981,870.027 478.981,871.973 479.262,873.888L482.482,874.829C482.904,876.649 483.623,878.387 484.612,879.973L483,882.915C484.157,884.467 485.533,885.843 487.085,887L490.027,885.388C491.613,886.377 493.351,887.096 495.171,887.518L496.112,890.738C498.027,891.019 499.973,891.019 501.888,890.738L502.829,887.518C504.649,887.096 506.387,886.377 507.973,885.388L510.915,887C512.467,885.843 513.843,884.467 515,882.915L513.388,879.973C514.377,878.387 515.096,876.649 515.518,874.829L518.738,873.888C519.019,871.973 519.019,870.027 518.738,868.112L515.518,867.171C515.096,865.351 514.377,863.613 513.388,862.027L515,859.085C513.843,857.533 512.467,856.157 510.915,855L507.973,856.612C506.387,855.623 504.649,854.904 502.829,854.482L501.888,851.262ZM499,862.732C503.563,862.732 507.268,866.437 507.268,871C507.268,875.563 503.563,879.268 499,879.268C494.437,879.268 490.732,875.563 490.732,871C490.732,866.437 494.437,862.732 499,862.732Z" style="fill:none;stroke:rgb(188,51,89);stroke-width:2px;"/>
        <path d="M522.504,865.504C524.76,863.249 526.027,860.19 526.027,857C526.027,850.362 520.638,844.973 514,844.973C509.927,844.973 506.131,847.035 503.913,850.451L506.025,851.822C507.779,849.122 510.78,847.492 514,847.492C519.248,847.492 523.508,851.752 523.508,857C523.508,859.522 522.506,861.94 520.723,863.723L522.504,865.504Z" style="fill:rgb(190,59,95);"/>
        <path d="M495,848L490.651,843.651C490.323,843.232 490.328,842.843 490.529,842.471L496.31,836.69C496.729,836.24 497.163,836.172 497.613,836.613L502,841L507,838L507.871,831.902C507.986,831.37 508.358,831.051 509.049,831L516.882,831C517.603,831.095 517.951,831.403 518,831.882L518,838L523,842L528.186,836.814C528.774,836.359 529.297,836.379 529.77,836.77L534.215,841.215C534.774,841.771 534.783,842.326 534.266,842.881L530,848L533,854L538.409,854C539.518,854.163 540.017,854.681 540,855.5L540,861.335C540.081,862.609 539.464,863.133 538.232,863L534,863L531,869L534.218,873.023C534.916,873.761 534.863,874.453 534.059,875.098L529.912,879.936C529.359,880.649 528.572,880.658 527.55,879.964L522,876" style="fill:none;stroke:rgb(188,51,89);stroke-width:2px;"/>
    </g>
</svg>
