<?xml version="1.0" encoding="UTF-8" standalone="no"?>
<!DOCTYPE svg PUBLIC "-//W3C//DTD SVG 1.1//EN" "http://www.w3.org/Graphics/SVG/1.1/DTD/svg11.dtd">
<svg width="100%" height="100%" viewBox="0 0 400 384" version="1.1" xmlns="http://www.w3.org/2000/svg" xmlns:xlink="http://www.w3.org/1999/xlink" xml:space="preserve" xmlns:serif="http://www.serif.com/" style="fill-rule:evenodd;clip-rule:evenodd;stroke-linejoin:round;stroke-miterlimit:2;">
    <g transform="matrix(1,0,0,1,5.55702,-2.77892)">
        <g>
            <g transform="matrix(5.55556,0,0,5.55556,0,0)">
                <path d="M50.46,19.54C49.631,18.717 48.508,18.255 47.34,18.255C44.915,18.255 42.918,20.245 42.91,22.67C42.921,25.091 44.909,27.079 47.33,27.09C49.755,27.082 51.745,25.085 51.745,22.66C51.745,21.492 51.283,20.369 50.46,19.54ZM49,24.38C48.546,24.833 47.931,25.088 47.29,25.088C45.963,25.088 44.871,23.997 44.87,22.67C44.886,22.036 45.157,21.434 45.62,21C46.033,20.7 46.531,20.539 47.041,20.539C48.369,20.539 49.461,21.631 49.461,22.959C49.461,23.469 49.3,23.967 49,24.38Z" style="fill:rgb(175,43,80);fill-rule:nonzero;"/>
            </g>
            <g transform="matrix(5.55556,0,0,5.55556,0,0)">
                <path d="M47.33,12.22C41.598,12.221 36.881,16.938 36.881,22.67C36.881,28.403 41.599,33.12 47.331,33.12C53.064,33.12 57.781,28.403 57.781,22.67C57.781,19.899 56.679,17.239 54.72,15.28C52.767,13.312 50.103,12.209 47.33,12.22ZM53.33,28.65C51.741,30.244 49.581,31.142 47.33,31.142C42.684,31.142 38.86,27.318 38.86,22.672C38.86,18.025 42.684,14.202 47.33,14.202C51.968,14.202 55.788,18.012 55.8,22.65C55.805,24.901 54.908,27.064 53.31,28.65L53.33,28.65Z" style="fill:rgb(175,43,80);fill-rule:nonzero;"/>
            </g>
            <g transform="matrix(5.55556,0,0,5.55556,0,0)">
                <path d="M66.17,18.36L64.54,17.87C64.346,17.807 64.199,17.648 64.15,17.45C63.83,16.414 63.415,15.41 62.91,14.45C62.816,14.272 62.816,14.058 62.91,13.88L63.72,12.37C64.244,11.383 64.061,10.16 63.27,9.37L60.64,6.75C59.85,5.959 58.627,5.776 57.64,6.3L56.13,7.11C55.952,7.204 55.738,7.204 55.56,7.11C54.598,6.61 53.594,6.195 52.56,5.87C52.365,5.822 52.208,5.679 52.14,5.49L51.65,3.85C51.33,2.752 50.313,1.994 49.17,2L45.49,2C44.348,1.987 43.329,2.737 43,3.83L42.51,5.47C42.444,5.662 42.286,5.808 42.09,5.86C41.054,6.177 40.05,6.589 39.09,7.09C38.912,7.184 38.698,7.184 38.52,7.09L37.05,6.3C36.063,5.776 34.84,5.959 34.05,6.75L31.41,9.36C30.619,10.15 30.436,11.373 30.96,12.36L31.77,13.87C31.864,14.048 31.864,14.262 31.77,14.44C31.269,15.4 30.857,16.404 30.54,17.44C30.485,17.634 30.34,17.791 30.15,17.86L28.51,18.35C27.424,18.677 26.676,19.686 26.68,20.82L26.68,24.5C26.663,25.639 27.403,26.66 28.49,27L30.12,27.49C30.316,27.552 30.468,27.711 30.52,27.91C30.837,28.946 31.249,29.95 31.75,30.91C31.844,31.088 31.844,31.302 31.75,31.48L31,33C30.476,33.987 30.659,35.21 31.45,36L34,38.59C34.79,39.381 36.013,39.564 37,39.04L38.51,38.23C38.688,38.136 38.902,38.136 39.08,38.23C40.039,38.733 41.044,39.145 42.08,39.46C42.276,39.512 42.434,39.658 42.5,39.85L43,41.51C43.327,42.596 44.336,43.344 45.47,43.34L49.15,43.34C50.284,43.344 51.293,42.596 51.62,41.51L52.11,39.87C52.179,39.683 52.33,39.539 52.52,39.48C53.557,39.166 54.561,38.754 55.52,38.25C55.698,38.156 55.912,38.156 56.09,38.25L57.6,39.06C58.587,39.584 59.81,39.401 60.6,38.61L63.25,36C64.041,35.21 64.224,33.987 63.7,33L62.89,31.49C62.796,31.312 62.796,31.098 62.89,30.92C63.396,29.961 63.811,28.956 64.13,27.92C64.18,27.725 64.328,27.57 64.52,27.51L66.17,27C67.261,26.668 68.009,25.651 68,24.51L68,20.83C68.004,19.696 67.256,18.687 66.17,18.36ZM66,24.51C66.001,24.764 65.833,24.989 65.59,25.06L64,25.55C63.171,25.807 62.522,26.46 62.27,27.29C61.99,28.205 61.625,29.093 61.18,29.94C60.77,30.704 60.77,31.626 61.18,32.39L61.98,33.89C62.106,34.112 62.064,34.393 61.88,34.57L59.28,37.17C59.102,37.351 58.823,37.392 58.6,37.27L57.1,36.47C56.336,36.06 55.414,36.06 54.65,36.47C53.803,36.918 52.916,37.287 52,37.57C51.171,37.821 50.521,38.471 50.27,39.3L49.77,40.93C49.699,41.173 49.474,41.341 49.22,41.34L45.49,41.34C45.236,41.341 45.011,41.173 44.94,40.93L44.45,39.29C44.188,38.466 43.537,37.822 42.71,37.57C41.795,37.29 40.907,36.925 40.06,36.48C39.679,36.276 39.253,36.169 38.82,36.17C38.398,36.17 37.983,36.273 37.61,36.47L36.11,37.27C35.886,37.389 35.61,37.348 35.43,37.17L32.83,34.57C32.649,34.392 32.608,34.113 32.73,33.89L33.53,32.39C33.94,31.626 33.94,30.704 33.53,29.94C33.087,29.095 32.722,28.211 32.44,27.3C32.192,26.465 31.542,25.808 30.71,25.55L29.08,25.06C28.837,24.989 28.669,24.764 28.67,24.51L28.67,20.83C28.672,20.578 28.839,20.354 29.08,20.28L30.71,19.78C31.548,19.519 32.198,18.847 32.43,18C32.712,17.089 33.077,16.205 33.52,15.36C33.93,14.596 33.93,13.674 33.52,12.91L32.72,11.41C32.598,11.187 32.639,10.908 32.82,10.73L35.42,8.12C35.604,7.95 35.875,7.911 36.1,8.02L37.6,8.83C38.366,9.235 39.284,9.235 40.05,8.83C40.897,8.385 41.785,8.02 42.7,7.74C43.535,7.49 44.19,6.835 44.44,6L44.94,4.37C45.023,4.14 45.246,3.99 45.49,4L49.17,4C49.425,3.995 49.652,4.165 49.72,4.41L50.22,6C50.468,6.856 51.142,7.526 52,7.77C52.898,8.053 53.769,8.418 54.6,8.86C55.364,9.27 56.286,9.27 57.05,8.86L58.55,8.06C58.771,7.935 59.049,7.972 59.23,8.15L61.83,10.76C62.018,10.934 62.063,11.216 61.94,11.44L61.13,13C60.72,13.764 60.72,14.686 61.13,15.45C61.572,16.266 61.94,17.119 62.23,18C62.472,18.859 63.143,19.533 64,19.78L65.63,20.28C65.871,20.354 66.038,20.578 66.04,20.83L66,24.51Z" style="fill:rgb(175,43,80);fill-rule:nonzero;"/>
            </g>
            <g transform="matrix(5.55556,0,0,5.55556,0,0)">
                <path d="M16.09,48.62C15.389,49.321 14.995,50.273 14.995,51.264C14.995,53.316 16.683,55.004 18.735,55.004C20.787,55.004 22.475,53.316 22.475,51.264C22.475,50.273 22.081,49.321 21.38,48.62C19.924,47.179 17.546,47.179 16.09,48.62ZM20,52.49C19.675,52.807 19.239,52.985 18.784,52.985C17.83,52.985 17.044,52.2 17.044,51.245C17.044,50.29 17.83,49.505 18.784,49.505C19.239,49.505 19.675,49.683 20,50C20.338,50.326 20.529,50.776 20.529,51.245C20.529,51.714 20.338,52.164 20,52.49Z" style="fill:rgb(175,43,80);fill-rule:nonzero;"/>
            </g>
            <g transform="matrix(5.55556,0,0,5.55556,0,0)">
                <path d="M18.74,42.7C18.737,42.7 18.733,42.7 18.73,42.7C14.029,42.7 10.16,46.569 10.16,51.27C10.16,55.971 14.029,59.84 18.73,59.84C23.432,59.84 27.3,55.971 27.3,51.27C27.3,48.998 26.397,46.817 24.79,45.21C23.19,43.6 21.01,42.696 18.74,42.7ZM23.38,55.91C22.138,57.247 20.393,58.007 18.568,58.007C14.964,58.007 11.998,55.041 11.998,51.437C11.998,49.61 12.76,47.863 14.1,46.62C16.647,44.079 20.833,44.079 23.38,46.62C25.912,49.176 25.912,53.354 23.38,55.91Z" style="fill:rgb(175,43,80);fill-rule:nonzero;"/>
            </g>
            <g transform="matrix(5.55556,0,0,5.55556,0,0)">
                <path d="M33.64,47.56L32.72,47.28C32.551,47.237 32.413,47.113 32.35,46.95C32.105,46.172 31.794,45.415 31.42,44.69C31.335,44.534 31.335,44.346 31.42,44.19L31.87,43.34C32.394,42.354 32.215,41.134 31.43,40.34L29.67,38.58C28.876,37.795 27.656,37.616 26.67,38.14L25.82,38.59C25.664,38.675 25.476,38.675 25.32,38.59C24.593,38.219 23.838,37.908 23.06,37.66C22.897,37.597 22.773,37.459 22.73,37.29L22.45,36.37C22.135,35.283 21.132,34.53 20,34.53L17.5,34.53C16.353,34.506 15.324,35.259 15,36.36L14.72,37.28C14.677,37.449 14.553,37.587 14.39,37.65C13.612,37.898 12.857,38.209 12.13,38.58C11.974,38.663 11.786,38.663 11.63,38.58L10.78,38.13C9.794,37.606 8.574,37.785 7.78,38.57L6,40.31C5.215,41.104 5.036,42.324 5.56,43.31L6.01,44.16C6.095,44.316 6.095,44.504 6.01,44.66C5.648,45.414 5.35,46.196 5.12,47C5.057,47.163 4.919,47.287 4.75,47.33L3.83,47.61C2.769,47.925 2.028,48.894 2,50L2,52.49C1.975,53.64 2.727,54.672 3.83,55L4.75,55.28C4.919,55.323 5.057,55.447 5.12,55.61C5.368,56.388 5.679,57.143 6.05,57.87C6.133,58.026 6.133,58.214 6.05,58.37L5.6,59.22C5.076,60.206 5.255,61.426 6.04,62.22L7.78,64C8.569,64.794 9.793,64.978 10.78,64.45L11.63,64C11.786,63.917 11.974,63.917 12.13,64C12.857,64.371 13.612,64.682 14.39,64.93C14.551,64.991 14.674,65.124 14.72,65.29L15,66.22C15.348,67.297 16.368,68.024 17.5,68L20,68C21.132,68.003 22.137,67.255 22.46,66.17L22.74,65.25C22.783,65.081 22.907,64.943 23.07,64.88C23.839,64.648 24.588,64.353 25.31,64C25.466,63.915 25.654,63.915 25.81,64L26.66,64.45C27.646,64.974 28.866,64.795 29.66,64.01L31.42,62.25C32.205,61.456 32.384,60.236 31.86,59.25L31.41,58.4C31.327,58.244 31.327,58.056 31.41,57.9C31.784,57.175 32.095,56.418 32.34,55.64C32.403,55.477 32.541,55.353 32.71,55.31L33.63,55.03C34.715,54.707 35.463,53.702 35.46,52.57L35.46,50C35.455,48.878 34.714,47.884 33.64,47.56ZM33.47,52.51C33.47,52.761 33.302,52.983 33.06,53.05L32.14,53.33C31.333,53.571 30.695,54.197 30.44,55C30.23,55.668 29.962,56.318 29.64,56.94C29.251,57.678 29.251,58.562 29.64,59.3L30.09,60.15C30.212,60.373 30.171,60.652 29.99,60.83L28.24,62.58C28.062,62.761 27.783,62.802 27.56,62.68L26.71,62.23C25.972,61.841 25.088,61.841 24.35,62.23C23.728,62.552 23.078,62.82 22.41,63.03C21.615,63.291 20.997,63.927 20.76,64.73L20.49,65.65C20.405,65.849 20.216,65.984 20,66L17.5,66C17.245,66.005 17.018,65.835 16.95,65.59L16.67,64.66C16.416,63.869 15.793,63.249 15,63C14.332,62.79 13.682,62.522 13.06,62.2C12.707,62.021 12.316,61.928 11.92,61.93C11.494,61.929 11.074,62.036 10.7,62.24L9.85,62.69C9.627,62.812 9.348,62.771 9.17,62.59L7.44,60.81C7.259,60.632 7.218,60.353 7.34,60.13L7.79,59.29C8.179,58.549 8.179,57.661 7.79,56.92C7.473,56.304 7.208,55.661 7,55C6.739,54.205 6.103,53.587 5.3,53.35L4.38,53.07C4.143,52.99 3.987,52.76 4,52.51L4,50C4,49.749 4.168,49.527 4.41,49.46L5.33,49.18C6.117,48.938 6.739,48.33 7,47.55C7.21,46.882 7.478,46.232 7.8,45.61C8.189,44.869 8.189,43.981 7.8,43.24L7.35,42.4C7.228,42.177 7.269,41.898 7.45,41.72L9.19,40C9.37,39.822 9.646,39.781 9.87,39.9L10.72,40.35C11.458,40.739 12.342,40.739 13.08,40.35C13.702,40.028 14.352,39.76 15.02,39.55C15.815,39.289 16.433,38.653 16.67,37.85L16.95,36.93C17.018,36.685 17.245,36.515 17.5,36.52L20,36.52C20.251,36.52 20.473,36.688 20.54,36.93L20.82,37.85C21.057,38.653 21.675,39.289 22.47,39.55C23.138,39.76 23.788,40.028 24.41,40.35C25.151,40.739 26.039,40.739 26.78,40.35L27.62,39.9C27.843,39.778 28.122,39.819 28.3,40L30,41.72C30.181,41.898 30.222,42.177 30.1,42.4L29.65,43.24C29.261,43.981 29.261,44.869 29.65,45.61C29.97,46.233 30.238,46.882 30.45,47.55C30.711,48.345 31.347,48.963 32.15,49.2L33.07,49.48C33.312,49.547 33.48,49.769 33.48,50.02L33.47,52.51Z" style="fill:rgb(175,43,80);fill-rule:nonzero;"/>
            </g>
        </g>
    </g>
</svg>
