<?xml version="1.0" encoding="UTF-8" standalone="no"?>
<!DOCTYPE svg PUBLIC "-//W3C//DTD SVG 1.1//EN" "http://www.w3.org/Graphics/SVG/1.1/DTD/svg11.dtd">
<svg width="100%" height="100%" viewBox="0 0 72 69" version="1.1" xmlns="http://www.w3.org/2000/svg" xmlns:xlink="http://www.w3.org/1999/xlink" xml:space="preserve" xmlns:serif="http://www.serif.com/" style="fill-rule:evenodd;clip-rule:evenodd;stroke-miterlimit:10;">
    <g transform="matrix(0.851448,0,0,0.851448,-115.813,-303.355)">
        <g>
            <circle cx="178.14" cy="392.98" r="6.93" style="fill:none;stroke:rgb(190,59,95);stroke-width:2px;"/>
            <path d="M169.68,434.22C165.26,434.22 161.68,430.64 161.68,426.22L161.68,411.31C161.68,406.89 165.26,403.31 169.68,403.31L186.84,403.31C191.26,403.31 194.84,406.89 194.84,411.31L194.84,426.22C194.84,430.64 191.26,434.22 186.84,434.22" style="fill:none;fill-rule:nonzero;stroke:rgb(190,59,95);stroke-width:2px;"/>
            <path d="M169.69,413.58L169.68,435.18" style="fill:none;fill-rule:nonzero;stroke:rgb(190,59,95);stroke-width:2px;"/>
            <path d="M186.41,413.51L186.41,435.21" style="fill:none;fill-rule:nonzero;stroke:rgb(190,59,95);stroke-width:2px;"/>
            <path d="M172.15,434.33L184.18,434.33" style="fill:none;fill-rule:nonzero;stroke:rgb(190,59,95);stroke-width:2px;"/>
        </g>
        <g>
            <circle cx="154.36" cy="398.16" r="6.93" style="fill:none;stroke:rgb(190,59,95);stroke-width:2px;"/>
            <path d="M145.91,434.41C141.49,434.41 137.91,430.83 137.91,426.41L137.91,416.5C137.91,412.08 141.49,408.5 145.91,408.5L163.07,408.5" style="fill:none;fill-rule:nonzero;stroke:rgb(190,59,95);stroke-width:2px;"/>
            <path d="M145.92,418.76L145.91,435.37" style="fill:none;fill-rule:nonzero;stroke:rgb(190,59,95);stroke-width:2px;"/>
            <path d="M146.38,434.51L160.41,434.51" style="fill:none;fill-rule:nonzero;stroke:rgb(190,59,95);stroke-width:2px;"/>
        </g>
        <g>
            <circle cx="202.23" cy="398.16" r="6.93" style="fill:none;stroke:rgb(190,59,95);stroke-width:2px;"/>
            <path d="M210.69,434.41C215.11,434.41 218.69,430.83 218.69,426.41L218.69,416.5C218.69,412.08 215.11,408.5 210.69,408.5L193.53,408.5" style="fill:none;fill-rule:nonzero;stroke:rgb(190,59,95);stroke-width:2px;"/>
            <path d="M210.67,418.76L210.69,435.37" style="fill:none;fill-rule:nonzero;stroke:rgb(190,59,95);stroke-width:2px;"/>
            <path d="M210.22,434.51L196.18,434.51" style="fill:none;fill-rule:nonzero;stroke:rgb(190,59,95);stroke-width:2px;"/>
        </g>
        <g>
            <path d="M213.31,396.43L213.31,390.24C213.31,387.95 211.45,386.1 209.17,386.1C207.66,386.1 205.87,386.1 204.48,386.09C203.61,386.09 202.83,385.54 202.55,384.72L202.48,384.6L202.5,384.58C202.2,383.76 201.87,382.97 201.51,382.23C201.13,381.44 201.29,380.5 201.9,379.89L205.22,376.57C205.99,375.8 206.43,374.73 206.43,373.64C206.43,372.53 206,371.49 205.22,370.71L200.84,366.33C200.07,365.56 199,365.12 197.91,365.12C196.8,365.12 195.76,365.55 194.98,366.33L194.72,366.59C193.71,367.6 192.56,368.75 191.65,369.64C191.03,370.26 190.1,370.42 189.32,370.04L189.23,369.99C188.48,369.64 187.64,369.3 186.82,369.02C185.99,368.73 185.44,367.96 185.44,367.08L185.44,362.38C185.44,360.09 183.58,358.23 181.3,358.23L175.11,358.23C172.82,358.23 170.97,360.09 170.97,362.38C170.97,363.89 170.97,365.68 170.96,367.07C170.96,367.94 170.41,368.72 169.59,369L169.47,369.07L169.45,369.05C168.63,369.35 167.84,369.68 167.1,370.04C166.31,370.42 165.37,370.26 164.76,369.65L161.44,366.33C160.67,365.56 159.6,365.12 158.51,365.12C157.42,365.12 156.35,365.56 155.58,366.33L151.2,370.71C150.43,371.48 149.99,372.55 149.99,373.64C149.99,374.73 150.43,375.8 151.2,376.57L151.39,376.76C152.42,377.79 153.59,378.96 154.51,379.89C155.13,380.51 155.29,381.44 154.91,382.22L154.87,382.3C154.48,383.11 154.15,383.93 153.88,384.72C153.59,385.54 152.82,386.1 151.94,386.1L147.24,386.1C144.95,386.1 143.1,387.96 143.1,390.24L143.1,396.43C143.1,398.72 144.96,400.57 147.24,400.57L147.82,400.57L147.82,398.47L147.24,398.47C146.11,398.47 145.19,397.55 145.19,396.42L145.19,390.23C145.19,389.1 146.11,388.18 147.24,388.18L151.94,388.18C153.7,388.18 155.27,387.06 155.85,385.4L155.89,385.29C156.14,384.58 156.44,383.85 156.79,383.12C157.56,381.54 157.23,379.64 155.99,378.4C155.02,377.41 153.75,376.14 152.68,375.07C152.3,374.69 152.08,374.16 152.08,373.62C152.08,373.07 152.29,372.56 152.68,372.17L157.06,367.79C157.83,367.02 159.2,367.02 159.96,367.79L163.28,371.11C164.5,372.33 166.35,372.66 167.91,371.96L167.99,371.86L168.13,371.86C168.81,371.53 169.53,371.23 170.3,370.96C171.96,370.38 173.07,368.82 173.07,367.06C173.08,365.68 173.08,363.88 173.08,362.36C173.08,361.23 174,360.31 175.13,360.31L181.32,360.31C182.45,360.31 183.37,361.23 183.37,362.36L183.37,367.06C183.37,368.82 184.49,370.39 186.15,370.97L186.26,371.01C186.97,371.26 187.7,371.56 188.43,371.91C190.01,372.68 191.91,372.35 193.15,371.11C194.13,370.14 195.41,368.87 196.48,367.8C197.24,367.03 198.61,367.03 199.38,367.8L203.76,372.18C204.15,372.57 204.36,373.08 204.36,373.63C204.36,374.17 204.14,374.7 203.76,375.08L200.44,378.4C199.21,379.63 198.88,381.49 199.61,383.07L199.69,383.16L199.69,383.26C200.02,383.94 200.32,384.67 200.59,385.43C201.17,387.09 202.73,388.2 204.49,388.2C205.87,388.21 207.67,388.21 209.19,388.21C210.32,388.21 211.24,389.13 211.24,390.26L211.24,396.45C211.24,397.58 210.32,398.5 209.19,398.5L209.06,398.5L209.06,400.6L209.19,400.6C211.45,400.58 213.31,398.72 213.31,396.43Z" style="fill:rgb(190,59,95);fill-rule:nonzero;"/>
        </g>
        <path d="M163.05,391.38C163.05,382.95 169.88,376.12 178.31,376.12C186.74,376.12 193.57,382.95 193.57,391.38" style="fill:none;fill-rule:nonzero;stroke:rgb(190,59,95);stroke-width:2px;"/>
    </g>
</svg>
