<?xml version="1.0" encoding="UTF-8" standalone="no"?>
<!DOCTYPE svg PUBLIC "-//W3C//DTD SVG 1.1//EN" "http://www.w3.org/Graphics/SVG/1.1/DTD/svg11.dtd">
<svg width="100%" height="100%" viewBox="0 0 400 384" version="1.1" xmlns="http://www.w3.org/2000/svg" xmlns:xlink="http://www.w3.org/1999/xlink" xml:space="preserve" xmlns:serif="http://www.serif.com/" style="fill-rule:evenodd;clip-rule:evenodd;stroke-linejoin:round;stroke-miterlimit:2;">
    <g transform="matrix(3.85669,0,0,3.85669,6.77977,-0.975061)">
        <g>
            <g>
                <g>
                    <g>
                        <path d="M80.5,46.1C81.8,46.2 83,46.6 84.1,47.1C80.9,39.1 74.9,32.5 67.4,28.4C68,29.7 68.4,31.1 68.7,32.6C73.8,35.9 77.9,40.6 80.5,46.1Z" style="fill:rgb(175,43,80);fill-rule:nonzero;"/>
                        <path d="M50,94.5C44.6,94.5 39.6,93.2 35.1,91L29.3,91C35.2,95.1 42.4,97.4 50,97.4C57.7,97.4 64.9,95 70.8,91L65,91C60.4,93.3 55.3,94.5 50,94.5Z" style="fill:rgb(175,43,80);fill-rule:nonzero;"/>
                        <path d="M31.3,32.5C31.6,31 32,29.6 32.6,28.3C25,32.4 19.1,39 15.8,47C16.9,46.5 18.2,46.2 19.4,46C22.1,40.6 26.2,35.9 31.3,32.5Z" style="fill:rgb(175,43,80);fill-rule:nonzero;"/>
                        <path d="M35.9,61.2C35.9,69 42.2,75.3 50,75.3C57.8,75.3 64.1,69 64.1,61.2C64.1,53.4 57.8,47.1 50,47.1C42.2,47.1 35.9,53.4 35.9,61.2ZM61.2,61.2C61.2,67.4 56.2,72.4 50,72.4C43.8,72.4 38.8,67.4 38.8,61.2C38.8,55 43.8,50 50,50C56.2,50 61.2,55.1 61.2,61.2Z" style="fill:rgb(175,43,80);fill-rule:nonzero;"/>
                        <path d="M45.9,60.8C45.3,60.2 44.4,60.2 43.8,60.8C43.2,61.4 43.2,62.3 43.8,62.9L47.2,66.3C47.5,66.6 47.9,66.7 48.2,66.7C48.5,66.7 49,66.5 49.2,66.3L56.1,59.4C56.7,58.8 56.7,57.9 56.1,57.3C55.5,56.7 54.6,56.7 54,57.3L48.2,63.1L45.9,60.8Z" style="fill:rgb(175,43,80);fill-rule:nonzero;"/>
                        <path d="M35.4,41.7L64.6,41.7C65.4,41.7 66.1,41 66.1,40.2L66.1,36C66.1,29.2 61.8,23.3 55.8,21C58.4,19.2 60.2,16.1 60.2,12.7C60.1,7 55.6,2.5 50,2.5C44.4,2.5 39.9,7 39.9,12.6C39.9,16 41.6,19.1 44.3,20.9C38.3,23.2 34,29.1 34,35.9L34,40.1C33.9,41 34.6,41.7 35.4,41.7ZM42.8,12.6C42.8,8.6 46,5.4 50,5.4C54,5.4 57.2,8.6 57.2,12.6C57.2,16.6 54,19.8 50,19.8C46,19.8 42.8,16.6 42.8,12.6ZM36.9,36C36.9,28.8 42.8,22.9 50,22.9C57.2,22.9 63.1,28.7 63.1,36L63.1,38.8L59.6,38.8L59.6,34.4C59.6,33.6 58.9,32.9 58.1,32.9C57.3,32.9 56.6,33.6 56.6,34.4L56.6,38.8L43.3,38.8L43.3,34.4C43.3,33.6 42.6,32.9 41.8,32.9C41,32.9 40.3,33.6 40.3,34.4L40.3,38.8L36.8,38.8L36.8,36L36.9,36Z" style="fill:rgb(175,43,80);fill-rule:nonzero;"/>
                        <path d="M84.8,67.4C87.4,65.6 89.2,62.5 89.2,59.1C89.2,53.5 84.6,49 79,49C73.4,49 68.9,53.5 68.9,59.1C68.9,62.5 70.6,65.6 73.3,67.4C67.3,69.7 63,75.6 63,82.4L63,86.6C63,87.4 63.7,88.1 64.5,88.1L93.7,88.1C94.5,88.1 95.2,87.4 95.2,86.6L95.2,82.4C95.1,75.6 90.8,69.8 84.8,67.4ZM71.8,59.1C71.8,55.1 75,51.9 79,51.9C83,51.9 86.2,55.1 86.2,59.1C86.2,63.1 83,66.3 79,66.3C75,66.3 71.8,63.1 71.8,59.1ZM92.2,85.2L88.7,85.2L88.7,80.8C88.7,80 88,79.3 87.2,79.3C86.4,79.3 85.7,80 85.7,80.8L85.7,85.2L72.4,85.2L72.4,80.8C72.4,80 71.7,79.3 70.9,79.3C70.1,79.3 69.4,80 69.4,80.8L69.4,85.2L65.9,85.2L65.9,82.4C65.9,75.2 71.8,69.3 79,69.3C86.2,69.3 92.1,75.2 92.1,82.4L92.1,85.2L92.2,85.2Z" style="fill:rgb(175,43,80);fill-rule:nonzero;"/>
                        <path d="M37,86.6L37,82.4C37,75.6 32.7,69.7 26.7,67.4C29.3,65.6 31.1,62.5 31.1,59.1C31.1,53.5 26.6,49 21,49C15.4,49 10.9,53.5 10.9,59.1C10.9,62.5 12.6,65.6 15.3,67.4C9.3,69.7 5,75.6 5,82.4L5,86.6C5,87.4 5.7,88.1 6.5,88.1L35.7,88.1C36.4,88.1 37,87.5 37,86.6ZM13.8,59.1C13.8,55.1 17,51.9 21,51.9C25,51.9 28.2,55.1 28.2,59.1C28.2,63.1 25,66.3 21,66.3C17,66.3 13.8,63.1 13.8,59.1ZM34.1,85.2L30.6,85.2L30.6,80.8C30.6,80 29.9,79.3 29.1,79.3C28.3,79.3 27.6,80 27.6,80.8L27.6,85.2L14.3,85.2L14.3,80.8C14.3,80 13.6,79.3 12.8,79.3C12,79.3 11.3,80 11.3,80.8L11.3,85.2L7.8,85.2L7.8,82.4C7.8,75.2 13.7,69.3 20.9,69.3C28.1,69.3 34,75.2 34,82.4L34,85.2L34.1,85.2Z" style="fill:rgb(175,43,80);fill-rule:nonzero;"/>
                    </g>
                </g>
            </g>
        </g>
    </g>
</svg>
