<?xml version="1.0" encoding="UTF-8" standalone="no"?>
<!DOCTYPE svg PUBLIC "-//W3C//DTD SVG 1.1//EN" "http://www.w3.org/Graphics/SVG/1.1/DTD/svg11.dtd">
<svg width="100%" height="100%" viewBox="0 0 400 384" version="1.1" xmlns="http://www.w3.org/2000/svg" xmlns:xlink="http://www.w3.org/1999/xlink" xml:space="preserve" xmlns:serif="http://www.serif.com/" style="fill-rule:evenodd;clip-rule:evenodd;stroke-linejoin:round;stroke-miterlimit:2;">
    <g transform="matrix(7.625,0,0,7.625,-2.0625,-10.3958)">
        <g>
            <path d="M3.301,30.536L8.18,31.527C8.593,33.058 9.196,34.53 9.979,35.918L7.223,40.059C6.958,40.456 7.011,40.985 7.349,41.321L11.688,45.647C12.026,45.985 12.554,46.034 12.95,45.769L17.069,43.008C18.456,43.814 19.931,44.425 21.467,44.832L22.443,49.703C22.537,50.17 22.947,50.507 23.424,50.507L29.563,50.507C30.04,50.507 30.45,50.17 30.544,49.703L31.521,44.832C33.067,44.424 34.546,43.812 35.931,43.008L40.05,45.769C40.446,46.035 40.976,45.985 41.313,45.646L45.64,41.32C45.977,40.983 46.029,40.455 45.765,40.059L43.008,35.918C43.802,34.513 44.409,33.041 44.821,31.527L49.699,30.536C50.165,30.442 50.5,30.032 50.5,29.556L50.5,23.444C50.5,22.968 50.165,22.558 49.699,22.464L44.82,21.473C44.406,19.954 43.799,18.482 43.009,17.083L45.765,12.956C46.029,12.559 45.977,12.03 45.639,11.693L41.313,7.38C40.976,7.044 40.451,6.992 40.055,7.254L35.906,9.996C34.529,9.201 33.06,8.59 31.521,8.173L30.544,3.297C30.45,2.83 30.04,2.493 29.563,2.493L23.424,2.493C22.947,2.493 22.537,2.83 22.443,3.297L21.466,8.173C19.929,8.59 18.459,9.201 17.082,9.996L12.946,7.254C12.551,6.992 12.026,7.044 11.688,7.379L7.35,11.692C7.011,12.029 6.958,12.558 7.223,12.956L9.979,17.083C9.2,18.466 8.597,19.937 8.181,21.473L3.301,22.464C2.835,22.558 2.5,22.968 2.5,23.444L2.5,29.556C2.5,30.032 2.835,30.442 3.301,30.536ZM4.5,24.261L9.194,23.308C9.576,23.231 9.879,22.938 9.969,22.558C10.385,20.791 11.072,19.113 12.013,17.569C12.215,17.236 12.206,16.817 11.99,16.493L9.344,12.53L12.521,9.371L16.503,12.011C16.832,12.229 17.255,12.233 17.586,12.026C19.117,11.069 20.787,10.374 22.55,9.962C22.932,9.872 23.226,9.569 23.303,9.185L24.243,4.493L28.744,4.493L29.685,9.185C29.762,9.569 30.056,9.872 30.438,9.962C32.2,10.374 33.87,11.069 35.401,12.026C35.733,12.233 36.158,12.229 36.483,12.012L40.478,9.371L43.645,12.529L40.997,16.493C40.781,16.817 40.772,17.236 40.975,17.568C41.93,19.139 42.622,20.818 43.032,22.558C43.122,22.938 43.425,23.231 43.807,23.308L48.5,24.261L48.5,28.739L43.807,29.692C43.424,29.769 43.121,30.063 43.032,30.444C42.627,32.175 41.935,33.853 40.975,35.432C40.772,35.763 40.781,36.182 40.997,36.506L43.646,40.485L40.48,43.65L36.515,40.991C36.188,40.772 35.76,40.765 35.425,40.976C33.889,41.945 32.213,42.637 30.445,43.036C30.06,43.123 29.762,43.428 29.685,43.815L28.744,48.507L24.243,48.507L23.303,43.815C23.226,43.428 22.927,43.123 22.542,43.036C20.787,42.641 19.116,41.948 17.575,40.976C17.24,40.765 16.812,40.772 16.485,40.991L12.519,43.651L9.342,40.484L11.99,36.506C12.206,36.182 12.215,35.763 12.013,35.431C11.067,33.88 10.38,32.202 9.969,30.444C9.88,30.063 9.577,29.769 9.194,29.692L4.5,28.739L4.5,24.261Z" style="fill:rgb(175,43,80);fill-rule:nonzero;"/>
            <path d="M26.5,40.344C34.075,40.344 40.344,34.174 40.344,26.5C40.344,18.866 34.134,12.656 26.5,12.656C18.866,12.656 12.656,18.866 12.656,26.5C12.656,34.3 19.051,40.344 26.5,40.344ZM26.5,38.344C23.81,38.344 21.007,37.405 18.698,35.375C19.765,31.987 22.893,29.668 26.5,29.668C30.107,29.668 33.236,31.987 34.303,35.375C32.064,37.344 29.321,38.344 26.5,38.344ZM22.832,23.996C22.832,21.975 24.477,20.331 26.498,20.331C28.519,20.331 30.163,21.975 30.163,23.996C30.163,26.017 28.519,27.661 26.498,27.661C24.477,27.661 22.832,26.017 22.832,23.996ZM26.5,14.656C33.03,14.656 38.344,19.969 38.344,26.5C38.344,29.169 37.453,31.69 35.83,33.76C34.729,31.233 32.662,29.297 30.131,28.337C31.372,27.297 32.163,25.738 32.163,23.996C32.163,20.872 29.622,18.331 26.498,18.331C23.374,18.331 20.832,20.872 20.832,23.996C20.832,25.738 21.624,27.298 22.866,28.339C20.337,29.298 18.271,31.234 17.171,33.76C15.547,31.69 14.656,29.17 14.656,26.5C14.656,19.969 19.97,14.656 26.5,14.656Z" style="fill:rgb(175,43,80);fill-rule:nonzero;"/>
        </g>
    </g>
</svg>
