<?xml version="1.0" encoding="UTF-8" standalone="no"?>
<!DOCTYPE svg PUBLIC "-//W3C//DTD SVG 1.1//EN" "http://www.w3.org/Graphics/SVG/1.1/DTD/svg11.dtd">
<svg width="100%" height="100%" viewBox="0 0 400 384" version="1.1" xmlns="http://www.w3.org/2000/svg" xmlns:xlink="http://www.w3.org/1999/xlink" xml:space="preserve" xmlns:serif="http://www.serif.com/" style="fill-rule:evenodd;clip-rule:evenodd;stroke-linejoin:round;stroke-miterlimit:2;">
    <g transform="matrix(3.32709,0,0,3.32709,-12.9438,-21.2671)">
        <path d="M41.81,78.5L37.98,78.5C36,78.5 36,75.5 37.98,75.5L41.81,75.5C43.79,75.5 43.79,78.5 41.81,78.5ZM57.36,44.04L61.18,44.04C63.16,44.04 63.16,41.04 61.18,41.04L57.36,41.04C55.38,41.04 55.38,44.04 57.36,44.04ZM116.06,91C116.02,91.18 116.12,91.19 117.35,91.9C118.89,92.79 119.43,94.79 118.55,96.34L115.03,102.44C114.14,103.99 112.15,104.53 110.59,103.64L109.42,102.96C108.96,102.69 107.63,104.94 102.72,106.72C102.44,106.82 102.5,106.83 102.5,108.33C102.5,110.13 101.04,111.59 99.24,111.59L92.22,111.59C90.42,111.59 88.96,110.13 88.96,108.33L88.96,106.98C88.96,106.42 86.37,106.43 82.37,103.03C82.13,102.83 82.1,102.93 80.87,103.64C79.31,104.53 77.32,103.99 76.43,102.44L74.14,98.46L10.5,98.46C9.67,98.46 9,97.79 9,96.96L9,86.85C9,86.02 9.67,85.35 10.5,85.35L19.58,85.35L19.58,52.38C19.58,51.55 20.25,50.88 21.08,50.88L38.68,50.88L38.68,17.91C38.68,17.08 39.35,16.41 40.18,16.41L78.38,16.41C79.21,16.41 79.88,17.08 79.88,17.91L79.88,50.88L97.48,50.88C98.31,50.88 98.98,51.55 98.98,52.38L98.98,62.84C101.27,62.84 102.51,64.43 102.51,66.1C102.51,67.53 102.44,67.6 102.72,67.7C107.66,69.49 108.95,71.73 109.43,71.46L110.59,70.78C112.14,69.88 114.14,70.41 115.04,71.97C118.67,78.28 119.35,78.81 118.87,80.56C118.46,82.05 117.46,82.46 116.2,83.19C115.68,83.49 117.07,85.58 116.07,90.99L116.06,91ZM114.68,93.82C113.49,93.15 112.85,91.79 113.11,90.44C113.53,88.17 113.51,86.08 113.11,83.99C112.87,82.64 113.5,81.29 114.69,80.6C115.81,79.95 116.12,79.87 115.95,79.57C112.22,73.1 112.41,73.2 112.09,73.38L110.93,74.05C109.75,74.74 108.23,74.59 107.15,73.68C105.53,72.31 103.7,71.25 101.7,70.52C100.39,70.06 99.5,68.82 99.5,67.44C99.5,66.06 99.58,65.83 99.24,65.83L92.22,65.83C91.89,65.83 91.96,66.06 91.96,67.44C91.96,68.82 91.07,70.05 89.75,70.52C87.76,71.24 85.93,72.3 84.31,73.67C83.24,74.58 81.72,74.73 80.53,74.04L79.37,73.37C79.06,73.19 79.21,73.14 76.14,78.48C75.23,80.07 75.13,79.63 76.78,80.59C77.98,81.28 78.61,82.64 78.35,83.98C77.96,86.07 77.95,88.28 78.35,90.44C78.61,91.77 77.97,93.13 76.76,93.82L75.6,94.49C75.28,94.67 75.48,94.81 77.59,98.46C79.09,101.07 79.07,101.21 79.37,101.04C84.34,98.17 83.12,101.5 89.76,103.9C91.07,104.36 91.96,105.6 91.96,106.98L91.96,108.33C91.96,108.7 91.9,108.59 99.24,108.59C99.57,108.59 99.5,108.36 99.5,106.98C99.5,105.6 100.39,104.37 101.71,103.9C103.7,103.18 105.54,102.12 107.15,100.75C108.22,99.84 109.74,99.69 110.93,100.38L112.09,101.05C112.4,101.22 112.23,101.31 115.95,94.85C116.12,94.54 115.78,94.45 114.69,93.81L114.68,93.82ZM72.58,95.47C72.26,94.11 72.83,92.64 74.1,91.91L75.27,91.23C75.58,91.06 75.25,91.09 75.1,88.36L12,88.36L12,95.47L72.59,95.47L72.58,95.47ZM22.57,85.36L57.77,85.36L57.77,53.88L22.58,53.88L22.58,85.36L22.57,85.36ZM76.88,19.41L41.68,19.41L41.68,50.87L76.88,50.87L76.88,19.41ZM95.97,53.87L60.77,53.87L60.77,85.35L75.13,85.35C75.37,82.78 75.9,83.55 74.1,82.52C72.54,81.62 72.01,79.62 72.91,78.07C76.55,71.76 76.67,70.91 78.41,70.45C79.92,70.05 80.8,70.74 82.03,71.46C82.51,71.73 83.77,69.5 88.73,67.7C89.01,67.6 88.95,67.59 88.95,66.09C88.95,64.29 90.41,62.83 92.21,62.83L95.95,62.83L95.95,53.87L95.97,53.87ZM108.05,90.69C105.31,100.56 92.56,103.46 85.91,95.46C78.03,85.99 86.95,71.7 98.97,74.87C105.77,76.66 109.99,83.73 108.05,90.7L108.05,90.69ZM98.97,77.99C93.35,76.01 87.28,79.5 86.13,85.35C84.45,93.87 93.88,100.25 101.12,95.46C107.9,90.97 106.59,80.68 98.98,78L98.97,77.99Z" style="fill:rgb(175,43,80);fill-rule:nonzero;"/>
    </g>
</svg>
