<?xml version="1.0" encoding="UTF-8" standalone="no"?>
<!DOCTYPE svg PUBLIC "-//W3C//DTD SVG 1.1//EN" "http://www.w3.org/Graphics/SVG/1.1/DTD/svg11.dtd">
<svg width="100%" height="100%" viewBox="0 0 72 69" version="1.1" xmlns="http://www.w3.org/2000/svg" xmlns:xlink="http://www.w3.org/1999/xlink" xml:space="preserve" xmlns:serif="http://www.serif.com/" style="fill-rule:evenodd;clip-rule:evenodd;stroke-linejoin:round;stroke-miterlimit:2;">
    <g transform="matrix(0.119643,0,0,0.119643,-7.44436,1.00007)">
        <g id="vendor-details" serif:id="vendor details">
            <g>
                <path d="M446.25,30.625L384.727,30.625C383.293,19.25 376.379,9.297 366.219,3.984C356.059,-1.329 343.942,-1.328 333.781,3.984C323.62,9.297 316.707,19.25 315.273,30.625L253.75,30.625C249.109,30.629 244.66,32.477 241.379,35.754C238.102,39.035 236.254,43.484 236.25,48.125L236.25,61.25L184.18,61.25C177.106,61.258 170.325,64.07 165.325,69.074C160.321,74.074 157.509,80.855 157.501,87.929L157.501,533.319C157.509,540.393 160.321,547.174 165.325,552.174C170.325,557.178 177.106,559.991 184.18,559.998L499.63,559.998L482.13,542.498L184.18,542.498C179.114,542.494 175.004,538.385 175,533.319L175,87.929C175.004,82.862 179.114,78.753 184.18,78.749L236.25,78.749L236.25,91.874C236.254,96.514 238.102,100.964 241.379,104.245C244.66,107.522 249.11,109.37 253.75,109.374L446.25,109.374C450.891,109.37 455.34,107.522 458.621,104.245C461.898,100.964 463.746,96.514 463.75,91.874L463.75,78.749L515.82,78.749C520.886,78.753 524.996,82.862 525,87.929L525,447.129L542.5,464.629L542.5,87.929C542.492,80.854 539.679,74.074 534.675,69.074C529.675,64.07 522.894,61.257 515.82,61.249L463.75,61.249L463.75,48.124C463.746,43.484 461.899,39.035 458.621,35.753C455.34,32.476 450.891,30.628 446.251,30.624L446.25,30.625ZM446.25,91.875L253.75,91.875L253.75,48.125L324.145,48.125C326.743,48.125 329.211,46.969 330.872,44.969C332.532,42.969 333.219,40.332 332.743,37.777C332.583,36.859 332.501,35.93 332.501,35C332.501,28.746 335.836,22.969 341.251,19.844C346.665,16.719 353.337,16.719 358.751,19.844C364.165,22.969 367.501,28.746 367.501,35C367.501,35.93 367.418,36.86 367.258,37.777C366.782,40.332 367.469,42.969 369.129,44.969C370.79,46.969 373.258,48.125 375.856,48.125L446.251,48.113L446.25,91.875Z" style="fill:rgb(188,51,89);fill-rule:nonzero;"/>
                <path d="M231.88,476.88L253.755,476.88C258.587,476.88 262.505,472.962 262.505,468.13C262.505,463.298 258.587,459.38 253.755,459.38L231.88,459.38C227.048,459.38 223.13,463.298 223.13,468.13C223.13,472.962 227.048,476.88 231.88,476.88Z" style="fill:rgb(188,51,89);fill-rule:nonzero;"/>
                <path d="M370.63,459.38C365.798,459.38 361.88,463.298 361.88,468.13C361.88,472.962 365.798,476.88 370.63,476.88L405.001,476.88C409.833,476.88 413.751,472.962 413.751,468.13C413.751,463.298 409.833,459.38 405.001,459.38L370.63,459.38Z" style="fill:rgb(188,51,89);fill-rule:nonzero;"/>
                <path d="M295,459.38C290.168,459.38 286.25,463.298 286.25,468.13C286.25,472.962 290.168,476.88 295,476.88L329.375,476.88C334.211,476.88 338.125,472.962 338.125,468.13C338.125,463.298 334.211,459.38 329.375,459.38L295,459.38Z" style="fill:rgb(188,51,89);fill-rule:nonzero;"/>
                <path d="M231.88,192.5L253.755,192.5C258.587,192.5 262.505,188.582 262.505,183.75C262.505,178.918 258.587,175 253.755,175L231.88,175C227.048,175 223.13,178.918 223.13,183.75C223.13,188.582 227.048,192.5 231.88,192.5Z" style="fill:rgb(188,51,89);fill-rule:nonzero;"/>
                <path d="M405,192.5C409.832,192.5 413.75,188.582 413.75,183.75C413.75,178.918 409.832,175 405,175L370.629,175C365.797,175 361.879,178.918 361.879,183.75C361.879,188.582 365.797,192.5 370.629,192.5L405,192.5Z" style="fill:rgb(188,51,89);fill-rule:nonzero;"/>
                <path d="M329.38,192.5C334.216,192.5 338.13,188.582 338.13,183.75C338.13,178.918 334.216,175 329.38,175L295.005,175C290.173,175 286.255,178.918 286.255,183.75C286.255,188.582 290.173,192.5 295.005,192.5L329.38,192.5Z" style="fill:rgb(188,51,89);fill-rule:nonzero;"/>
                <path d="M446.25,192.5L468.125,192.5C472.957,192.5 476.875,188.582 476.875,183.75C476.875,178.918 472.957,175 468.125,175L446.25,175C441.418,175 437.5,178.918 437.5,183.75C437.5,188.582 441.418,192.5 446.25,192.5Z" style="fill:rgb(188,51,89);fill-rule:nonzero;"/>
                <path d="M231.88,253.75L253.755,253.75C258.587,253.75 262.505,249.832 262.505,245C262.505,240.168 258.587,236.25 253.755,236.25L231.88,236.25C227.048,236.25 223.13,240.168 223.13,245C223.13,249.832 227.048,253.75 231.88,253.75Z" style="fill:rgb(188,51,89);fill-rule:nonzero;"/>
                <path d="M446.25,253.75L468.125,253.75C472.957,253.75 476.875,249.832 476.875,245C476.875,240.168 472.957,236.25 468.125,236.25L446.25,236.25C441.418,236.25 437.5,240.168 437.5,245C437.5,249.832 441.418,253.75 446.25,253.75Z" style="fill:rgb(188,51,89);fill-rule:nonzero;"/>
                <path d="M230.07,314.81C231.281,308.923 232.933,303.138 235.011,297.498L231.871,297.498C227.39,297.498 223.632,300.885 223.168,305.342C222.703,309.799 225.683,313.889 230.07,314.811L230.07,314.81Z" style="fill:rgb(188,51,89);fill-rule:nonzero;"/>
                <path d="M468.12,358.75L466.976,358.75C466.018,364.68 464.616,370.531 462.78,376.25L468.12,376.25C472.952,376.25 476.87,372.332 476.87,367.5C476.87,362.668 472.952,358.75 468.12,358.75Z" style="fill:rgb(188,51,89);fill-rule:nonzero;"/>
                <path d="M468.12,297.5L461.132,297.5C463.233,303.199 464.901,309.047 466.116,315L468.12,315C472.952,315 476.87,311.082 476.87,306.25C476.87,301.418 472.952,297.5 468.12,297.5Z" style="fill:rgb(188,51,89);fill-rule:nonzero;"/>
                <path d="M467.18,502.81L515.18,550.81L515.184,550.81C521.071,556.685 529.051,559.982 537.368,559.986C545.688,559.986 553.665,556.689 559.556,550.814L559.56,550.81C565.435,544.919 568.732,536.943 568.732,528.622C568.732,520.306 565.431,512.325 559.556,506.438L511.556,458.438L511.556,458.434C509.915,456.793 507.689,455.872 505.368,455.872C503.048,455.872 500.825,456.793 499.185,458.434L497.536,460.082L433.806,396.352C452.888,367.704 456.404,331.422 443.185,299.645C429.962,267.864 401.747,244.786 367.978,238.125C334.208,231.469 299.345,242.11 275.048,266.492C250.755,290.875 240.239,325.777 247.021,359.523C253.803,393.269 276.982,421.398 308.81,434.507C340.638,447.612 376.908,443.961 405.482,424.773L469.162,488.457L467.182,490.438C465.541,492.078 464.619,494.301 464.619,496.621C464.619,498.941 465.541,501.168 467.182,502.809L467.18,502.81ZM547.18,518.81L547.184,518.81C552.602,524.232 552.602,533.017 547.184,538.439C541.762,543.857 532.977,543.857 527.555,538.439L485.739,496.623L505.368,476.994L547.18,518.81ZM287.54,399.77L287.544,399.77C271.501,383.727 262.489,361.973 262.489,339.286C262.489,316.602 271.501,294.845 287.544,278.806C303.583,262.763 325.341,253.751 348.024,253.751C370.712,253.751 392.465,262.763 408.508,278.806C424.551,294.845 433.563,316.603 433.563,339.286C433.563,361.974 424.551,383.727 408.508,399.77C392.453,415.786 370.703,424.782 348.024,424.782C325.348,424.782 303.598,415.786 287.544,399.77L287.54,399.77ZM419.15,413.708C419.716,413.169 420.326,412.7 420.881,412.145C421.548,411.478 422.115,410.747 422.759,410.063L485.157,472.461L481.529,476.09L419.15,413.708Z" style="fill:rgb(188,51,89);fill-rule:nonzero;"/>
                <g transform="matrix(0.338419,0,0,0.338419,256.619,253.394)">
                    <path d="M327.99,286.44C272.381,286.44 227.13,241.194 227.13,185.58L227.13,134.451C227.13,78.842 272.376,33.591 327.99,33.591C383.599,33.591 428.85,78.837 428.85,134.451L428.85,185.58C428.85,241.189 383.604,286.44 327.99,286.44ZM327.99,55.39C284.424,55.39 248.92,90.839 248.92,134.46L248.92,185.589C248.92,229.155 284.369,264.659 327.99,264.659C371.615,264.659 407.06,229.21 407.06,185.589L407.06,134.46C407.06,90.894 371.611,55.39 327.99,55.39Z" style="fill:rgb(188,51,89);fill-rule:nonzero;"/>
                    <path d="M326.76,352.63C294.615,352.63 268.408,326.478 268.408,294.278L268.408,262.524C268.408,256.477 273.279,251.602 279.33,251.602C285.377,251.602 290.252,256.473 290.252,262.524L290.252,294.278C290.252,314.438 306.658,330.79 326.764,330.79C332.811,330.79 337.686,335.661 337.686,341.712C337.686,347.759 332.815,352.634 326.764,352.634L326.76,352.63Z" style="fill:rgb(188,51,89);fill-rule:nonzero;"/>
                    <path d="M326.76,480.26L150.08,480.26C144.033,480.26 139.158,475.389 139.158,469.338L139.158,412.611C139.158,346.025 193.365,291.821 259.948,291.821L279.323,291.821C285.37,291.821 290.245,296.692 290.245,302.743C290.245,308.79 285.374,313.665 279.323,313.665L259.948,313.665C205.346,313.665 160.94,358.071 160.94,412.673L160.94,458.482L326.76,458.482C332.807,458.482 337.682,463.353 337.682,469.404C337.682,475.451 332.811,480.326 326.76,480.326L326.76,480.26Z" style="fill:rgb(188,51,89);fill-rule:nonzero;"/>
                    <path d="M219.35,478.97C213.303,478.97 208.428,474.099 208.428,468.048L208.428,406.224C208.428,400.177 213.299,395.302 219.35,395.302C225.397,395.302 230.272,400.173 230.272,406.224L230.272,468.048C230.272,474.095 225.401,478.97 219.35,478.97Z" style="fill:rgb(188,51,89);fill-rule:nonzero;"/>
                    <path d="M415.51,126.95L240.85,126.95C234.803,126.95 229.928,122.079 229.928,116.028C229.928,109.981 234.799,105.106 240.85,105.106L415.51,105.106C421.557,105.106 426.432,109.977 426.432,116.028C426.432,122.075 421.561,126.95 415.51,126.95Z" style="fill:rgb(188,51,89);fill-rule:nonzero;"/>
                    <path d="M368.82,182.73L286.445,182.73C270.879,182.73 256.039,176.906 244.613,166.265L231.062,153.609C226.636,149.519 226.414,142.578 230.503,138.211C234.593,133.785 241.534,133.563 245.901,137.652L259.452,150.308C266.788,157.14 276.362,160.949 286.39,160.949L368.765,160.949C378.788,160.949 388.367,157.196 395.703,150.308L408.078,138.773C412.504,134.684 419.39,134.91 423.476,139.332C427.566,143.758 427.34,150.644 422.918,154.73L410.543,166.265C399.117,176.906 384.277,182.73 368.711,182.73L368.82,182.73Z" style="fill:rgb(188,51,89);fill-rule:nonzero;"/>
                    <path d="M330.01,352.63C323.963,352.63 319.088,347.759 319.088,341.708C319.088,335.661 323.959,330.786 330.01,330.786C350.17,330.786 366.522,314.38 366.522,294.274L366.522,262.52C366.522,256.473 371.393,251.598 377.444,251.598C383.491,251.598 388.366,256.469 388.366,262.52L388.366,294.274C388.366,326.473 362.214,352.626 330.014,352.626L330.01,352.63Z" style="fill:rgb(188,51,89);fill-rule:nonzero;"/>
                    <path d="M489.55,364.45C485.964,364.45 482.437,362.657 480.366,359.411C462.054,330.739 430.862,313.602 396.87,313.602L376.597,312.649C370.605,312.368 365.956,307.274 366.238,301.223C366.52,295.231 371.613,290.582 377.664,290.864L397.434,291.817C438.372,291.817 476.45,312.704 498.794,347.704C502.041,352.802 500.529,359.52 495.49,362.766C493.697,363.942 491.626,364.5 489.611,364.5L489.55,364.45Z" style="fill:rgb(188,51,89);fill-rule:nonzero;"/>
                    <path d="M402.64,480.26L330.007,480.26C323.96,480.26 319.085,475.389 319.085,469.338C319.085,463.291 323.956,458.416 330.007,458.416L402.64,458.416C408.687,458.416 413.562,463.287 413.562,469.338C413.562,475.385 408.691,480.26 402.64,480.26Z" style="fill:rgb(188,51,89);fill-rule:nonzero;"/>
                </g>
                <path d="M540.04,520.62C542.985,523.565 542.985,528.343 540.04,531.288C537.095,534.233 532.317,534.233 529.372,531.288C526.427,528.343 526.427,523.565 529.372,520.62C532.317,517.675 537.095,517.675 540.04,520.62" style="fill:rgb(188,51,89);fill-rule:nonzero;"/>
                <path d="M231.88,376.25L233.364,376.25C231.579,370.676 230.2,364.977 229.239,359.199C225.126,360.492 222.571,364.597 223.232,368.859C223.892,373.121 227.568,376.262 231.88,376.25L231.88,376.25Z" style="fill:rgb(188,51,89);fill-rule:nonzero;"/>
                <path d="M231.88,424.38L253.755,424.38C256.149,424.38 258.435,423.392 260.079,421.65C255.759,417.044 251.806,412.107 248.259,406.88L231.88,406.88C227.048,406.88 223.13,410.798 223.13,415.63C223.13,420.462 227.048,424.38 231.88,424.38L231.88,424.38Z" style="fill:rgb(188,51,89);fill-rule:nonzero;"/>
            </g>
        </g>
    </g>
</svg>
