<?xml version="1.0" encoding="UTF-8" standalone="no"?>
<!DOCTYPE svg PUBLIC "-//W3C//DTD SVG 1.1//EN" "http://www.w3.org/Graphics/SVG/1.1/DTD/svg11.dtd">
<svg width="100%" height="100%" viewBox="0 0 30 30" version="1.1" xmlns="http://www.w3.org/2000/svg" xmlns:xlink="http://www.w3.org/1999/xlink" xml:space="preserve" xmlns:serif="http://www.serif.com/" style="fill-rule:evenodd;clip-rule:evenodd;stroke-linejoin:round;stroke-miterlimit:2;">
    <g transform="matrix(0.424242,0,0,0.424242,0.575758,0.575758)">
        <g>
            <path d="M53.3,61.6C52.7,61.6 52.3,62 52.3,62.6L52.3,65L3,65L3,3L36.5,3L36.5,19.1C36.5,19.7 36.9,20.1 37.5,20.1L52.4,20.1L52.4,29.5C52.4,30.1 52.8,30.5 53.4,30.5C54,30.5 54.4,30.1 54.4,29.5L54.4,19.1C54.4,18.9 54.3,18.6 54.1,18.4L38.2,1.3C38,1.1 37.7,1 37.4,1L2,1C1.4,1 1,1.4 1,2L1,66C1,66.6 1.4,67 2,67L53.3,67C53.9,67 54.3,66.6 54.3,66L54.3,62.6C54.3,62.1 53.9,61.6 53.3,61.6ZM38.5,18.1L38.5,4.5L51,18.1L38.5,18.1Z" style="fill:url(#_Linear1);fill-rule:nonzero;"/>
        </g>
        <g>
            <path d="M7.2,44.4L33.2,44.4C33.8,44.4 34.2,44 34.2,43.4C34.2,42.8 33.8,42.4 33.2,42.4L7.2,42.4C6.6,42.4 6.2,42.8 6.2,43.4C6.2,43.9 6.6,44.4 7.2,44.4Z" style="fill:url(#_Linear2);fill-rule:nonzero;"/>
        </g>
        <g>
            <path d="M7.2,51.6L34.2,51.6C34.8,51.6 35.2,51.2 35.2,50.6C35.2,50 34.8,49.6 34.2,49.6L7.2,49.6C6.6,49.6 6.2,50 6.2,50.6C6.2,51.2 6.6,51.6 7.2,51.6Z" style="fill:url(#_Linear3);fill-rule:nonzero;"/>
        </g>
        <g>
            <path d="M7.2,58.8L37.2,58.8C37.8,58.8 38.2,58.4 38.2,57.8C38.2,57.2 37.8,56.8 37.2,56.8L7.2,56.8C6.6,56.8 6.2,57.2 6.2,57.8C6.2,58.4 6.6,58.8 7.2,58.8Z" style="fill:url(#_Linear4);fill-rule:nonzero;"/>
        </g>
        <g>
            <path d="M42.2,28.4C42.2,27.8 41.8,27.4 41.2,27.4L7.2,27.4C6.6,27.4 6.2,27.8 6.2,28.4C6.2,29 6.6,29.4 7.2,29.4L41.2,29.4C41.8,29.4 42.2,28.9 42.2,28.4Z" style="fill:url(#_Linear5);fill-rule:nonzero;"/>
        </g>
        <g>
            <path d="M7.2,36.6L35.2,36.6C35.8,36.6 36.2,36.2 36.2,35.6C36.2,35 35.8,34.6 35.2,34.6L7.2,34.6C6.6,34.6 6.2,35 6.2,35.6C6.2,36.2 6.6,36.6 7.2,36.6Z" style="fill:url(#_Linear6);fill-rule:nonzero;"/>
        </g>
        <g>
            <path d="M66.7,45.1L64.2,42.7L65.1,39.4C65.2,38.9 64.9,38.3 64.4,38.2L61.4,37.4L60.7,34.4C60.6,34.1 60.5,33.9 60.3,33.8C60.1,33.7 59.8,33.6 59.5,33.7L55.7,34.5L52.9,31.8C52.7,31.6 52.4,31.5 52.2,31.5C51.9,31.5 51.7,31.6 51.5,31.8L49,34.2L45.7,33.3C45.4,33.2 45.2,33.3 44.9,33.4C44.7,33.5 44.5,33.8 44.4,34L43.6,37L40.6,37.7C40.1,37.8 39.7,38.4 39.8,38.9L40.6,42.8L38,45.6C37.6,46 37.6,46.6 38,47L40.5,49.4L39.6,52.7C39.5,53.2 39.8,53.8 40.3,53.9L43.3,54.7L44,57.7C44.1,58 44.2,58.2 44.4,58.3C44.6,58.4 44.9,58.5 45.2,58.4L49,57.6L51.8,60.3C52,60.5 52.2,60.6 52.5,60.6C52.8,60.6 53,60.5 53.2,60.3L55.6,57.8L58.9,58.7C59.2,58.8 59.4,58.7 59.7,58.6C59.9,58.5 60.1,58.2 60.2,58L61,55L64,54.3C64.5,54.2 64.9,53.6 64.8,53.1L64,49.3L66.7,46.5C67.1,46.1 67.1,45.5 66.7,45.1ZM62.2,48.3C62,48.5 61.9,48.9 61.9,49.2L62.6,52.6L60,53.2C59.6,53.3 59.3,53.6 59.2,53.9L58.5,56.5L55.6,55.7C55.3,55.6 54.9,55.7 54.6,56L52.5,58.2L50,55.8C49.8,55.6 49.6,55.5 49.3,55.5L49.1,55.5L45.7,56.2L45.1,53.5C45,53.1 44.7,52.8 44.4,52.7L41.8,52L42.6,49.1C42.7,48.8 42.6,48.4 42.3,48.1L40.1,46L42.5,43.5C42.7,43.3 42.8,42.9 42.8,42.6L42,39.5L44.6,38.9C45,38.8 45.3,38.5 45.4,38.2L46.1,35.6L49,36.4C49.3,36.5 49.7,36.4 50,36.1L52.1,33.9L54.6,36.3C54.8,36.5 55.2,36.6 55.5,36.6L58.9,35.9L59.5,38.6C59.6,39 59.9,39.3 60.2,39.4L62.8,40.1L62,43C61.9,43.3 62,43.7 62.3,44L64.5,46.1L62.2,48.3Z" style="fill:url(#_Linear7);fill-rule:nonzero;"/>
        </g>
        <g>
            <path d="M58.6,41.6L50.7,49.1L47.6,45.4C47.3,45 46.6,44.9 46.2,45.3C45.8,45.7 45.7,46.3 46.1,46.7L49.9,51.3C50.1,51.5 50.3,51.6 50.6,51.7L50.7,51.7C51,51.7 51.2,51.6 51.4,51.4L60.1,43.1C60.5,42.7 60.5,42.1 60.1,41.7C59.6,41.3 59,41.2 58.6,41.6Z" style="fill:url(#_Linear8);fill-rule:nonzero;"/>
        </g>
        <g>
            <path d="M30.7,20.4C31.3,20.4 31.7,20 31.7,19.4L31.7,9.6C31.7,9 31.3,8.6 30.7,8.6L7.7,8.6C7.1,8.6 6.7,9 6.7,9.6L6.7,19.3C6.7,19.9 7.1,20.3 7.7,20.3L30.7,20.3L30.7,20.4ZM8.7,10.6L29.7,10.6L29.7,18.3L8.7,18.3L8.7,10.6Z" style="fill:url(#_Linear9);fill-rule:nonzero;"/>
        </g>
    </g>
    <defs>
        <linearGradient id="_Linear1" x1="0" y1="0" x2="1" y2="0" gradientUnits="userSpaceOnUse" gradientTransform="matrix(65.6257,0,0,65.6257,1.37431,34)"><stop offset="0" style="stop-color:rgb(202,32,18);stop-opacity:1"/><stop offset="1" style="stop-color:rgb(112,0,0);stop-opacity:1"/></linearGradient>
        <linearGradient id="_Linear2" x1="0" y1="0" x2="1" y2="0" gradientUnits="userSpaceOnUse" gradientTransform="matrix(65.6257,0,0,65.6257,1.37431,34)"><stop offset="0" style="stop-color:rgb(202,32,18);stop-opacity:1"/><stop offset="1" style="stop-color:rgb(112,0,0);stop-opacity:1"/></linearGradient>
        <linearGradient id="_Linear3" x1="0" y1="0" x2="1" y2="0" gradientUnits="userSpaceOnUse" gradientTransform="matrix(65.6257,0,0,65.6257,1.37431,34)"><stop offset="0" style="stop-color:rgb(202,32,18);stop-opacity:1"/><stop offset="1" style="stop-color:rgb(112,0,0);stop-opacity:1"/></linearGradient>
        <linearGradient id="_Linear4" x1="0" y1="0" x2="1" y2="0" gradientUnits="userSpaceOnUse" gradientTransform="matrix(65.6257,0,0,65.6257,1.37431,34)"><stop offset="0" style="stop-color:rgb(202,32,18);stop-opacity:1"/><stop offset="1" style="stop-color:rgb(112,0,0);stop-opacity:1"/></linearGradient>
        <linearGradient id="_Linear5" x1="0" y1="0" x2="1" y2="0" gradientUnits="userSpaceOnUse" gradientTransform="matrix(65.6257,0,0,65.6257,1.37431,34)"><stop offset="0" style="stop-color:rgb(202,32,18);stop-opacity:1"/><stop offset="1" style="stop-color:rgb(112,0,0);stop-opacity:1"/></linearGradient>
        <linearGradient id="_Linear6" x1="0" y1="0" x2="1" y2="0" gradientUnits="userSpaceOnUse" gradientTransform="matrix(65.6257,0,0,65.6257,1.37431,34)"><stop offset="0" style="stop-color:rgb(202,32,18);stop-opacity:1"/><stop offset="1" style="stop-color:rgb(112,0,0);stop-opacity:1"/></linearGradient>
        <linearGradient id="_Linear7" x1="0" y1="0" x2="1" y2="0" gradientUnits="userSpaceOnUse" gradientTransform="matrix(65.6257,0,0,65.6257,1.37431,34)"><stop offset="0" style="stop-color:rgb(202,32,18);stop-opacity:1"/><stop offset="1" style="stop-color:rgb(112,0,0);stop-opacity:1"/></linearGradient>
        <linearGradient id="_Linear8" x1="0" y1="0" x2="1" y2="0" gradientUnits="userSpaceOnUse" gradientTransform="matrix(65.6257,0,0,65.6257,1.37431,34)"><stop offset="0" style="stop-color:rgb(202,32,18);stop-opacity:1"/><stop offset="1" style="stop-color:rgb(112,0,0);stop-opacity:1"/></linearGradient>
        <linearGradient id="_Linear9" x1="0" y1="0" x2="1" y2="0" gradientUnits="userSpaceOnUse" gradientTransform="matrix(65.6257,0,0,65.6257,1.37431,34)"><stop offset="0" style="stop-color:rgb(202,32,18);stop-opacity:1"/><stop offset="1" style="stop-color:rgb(112,0,0);stop-opacity:1"/></linearGradient>
    </defs>
</svg>
