<?xml version="1.0" encoding="UTF-8" standalone="no"?>
<!DOCTYPE svg PUBLIC "-//W3C//DTD SVG 1.1//EN" "http://www.w3.org/Graphics/SVG/1.1/DTD/svg11.dtd">
<svg width="100%" height="100%" viewBox="0 0 400 384" version="1.1" xmlns="http://www.w3.org/2000/svg" xmlns:xlink="http://www.w3.org/1999/xlink" xml:space="preserve" xmlns:serif="http://www.serif.com/" style="fill-rule:evenodd;clip-rule:evenodd;stroke-linejoin:round;stroke-miterlimit:2;">
    <g transform="matrix(0.801724,0,0,0.801724,-5.24138,-13.5747)">
        <path d="M361.233,445L361.233,481C361.233,484.866 358.099,488 354.233,488L44.233,488C40.367,488 37.233,484.866 37.233,481L37.233,59C37.233,55.134 40.367,52 44.233,52L86.567,52L86.567,31C86.567,27.134 89.701,24 93.567,24L329.567,24C331.482,24.012 333.195,24.73 334.564,26.099C341.881,33.416 408.25,99.513 409.305,100.991C410.117,102.128 410.567,103.581 410.567,105.001L410.567,276.255C446.767,279.788 474.767,310.319 474.767,347.113C474.767,383.908 446.767,414.438 410.567,417.971L410.567,438C410.567,441.866 407.433,445 403.567,445L361.233,445ZM137.39,398.606L294.285,398.606C298.151,398.606 301.285,395.472 301.285,391.606C301.285,387.74 298.151,384.606 294.285,384.606L137.39,384.606C133.524,384.606 130.39,387.74 130.39,391.606C130.39,395.472 133.524,398.606 137.39,398.606ZM137.39,369.257L294.285,369.257C298.151,369.257 301.285,366.123 301.285,362.257C301.285,358.391 298.151,355.257 294.285,355.257L137.39,355.257C133.524,355.257 130.39,358.391 130.39,362.257C130.39,366.123 133.524,369.257 137.39,369.257ZM156.792,298.234L163.909,303.708C166.959,306.064 171.342,305.501 173.698,302.45L186.243,286.164C188.599,283.114 188.036,278.731 184.985,276.375C181.935,274.019 177.552,274.582 175.196,277.633L166.901,288.401L165.323,287.187C162.273,284.831 157.89,285.394 155.534,288.445C153.179,291.496 153.742,295.879 156.792,298.234ZM143.536,249.543C136.292,249.543 130.39,255.445 130.39,262.689L130.39,317.394C130.39,321.016 131.867,324.305 134.246,326.684L134.26,326.67C136.655,329.058 139.939,330.54 143.536,330.54L198.241,330.54C205.447,330.54 211.387,324.6 211.387,317.394L211.387,262.69C211.387,259.092 209.905,255.808 207.517,253.414L207.531,253.4C205.152,251.021 201.863,249.544 198.241,249.544L143.536,249.544L143.536,249.543ZM197.388,263.543L144.39,263.543L144.39,316.541L197.388,316.541L197.388,263.543ZM156.792,191.875L163.909,197.349C166.959,199.705 171.342,199.142 173.698,196.091L186.243,179.805C188.599,176.755 188.036,172.372 184.985,170.016C181.935,167.661 177.552,168.223 175.196,171.274L166.902,182.042L165.324,180.828C162.274,178.473 157.891,179.035 155.535,182.086C153.179,185.136 153.742,189.519 156.792,191.875ZM143.536,143.184C136.292,143.184 130.39,149.086 130.39,156.33L130.39,211.035C130.39,216.95 134.246,220.198 134.246,220.325C136.625,222.704 139.914,224.181 143.536,224.181L198.241,224.181C205.447,224.181 211.387,218.241 211.387,211.035L211.387,156.33C211.387,152.733 209.905,149.448 207.517,147.054L207.531,147.04C205.152,144.661 201.863,143.184 198.241,143.184L143.536,143.184ZM197.388,157.183L144.39,157.183L144.39,210.181L197.388,210.181L197.388,157.183ZM241.112,302.561L324.636,302.561C328.502,302.561 331.636,299.427 331.636,295.561C331.636,291.695 328.502,288.561 324.636,288.561L241.112,288.561C237.246,288.561 234.112,291.695 234.112,295.561C234.112,299.427 237.246,302.561 241.112,302.561ZM241.112,273.212L324.636,273.212C328.502,273.212 331.636,270.078 331.636,266.212C331.636,262.346 328.502,259.212 324.636,259.212L241.112,259.212C237.246,259.212 234.112,262.346 234.112,266.212C234.112,270.078 237.246,273.212 241.112,273.212ZM241.112,243.862L324.636,243.862C328.502,243.862 331.636,240.728 331.636,236.862C331.636,232.996 328.502,229.862 324.636,229.862L241.112,229.862C237.246,229.862 234.112,232.996 234.112,236.862C234.112,240.728 237.246,243.862 241.112,243.862ZM241.112,214.513L324.636,214.513C328.502,214.513 331.636,211.379 331.636,207.513C331.636,203.647 328.502,200.513 324.636,200.513L241.112,200.513C237.246,200.513 234.112,203.647 234.112,207.513C234.112,211.379 237.246,214.513 241.112,214.513ZM241.112,185.163L324.636,185.163C328.502,185.163 331.636,182.029 331.636,178.163C331.636,174.297 328.502,171.163 324.636,171.163L241.112,171.163C237.246,171.163 234.112,174.297 234.112,178.163C234.112,182.029 237.246,185.163 241.112,185.163ZM375.545,359.085L392.742,372.314C395.792,374.67 400.175,374.107 402.531,371.056L432.846,331.7C435.202,328.65 434.639,324.267 431.588,321.911C428.538,319.555 424.155,320.118 421.799,323.169L395.734,357.007L384.075,348.038C381.025,345.683 376.642,346.245 374.286,349.296C371.932,352.346 372.495,356.729 375.545,359.085ZM403.567,289.912C371.975,289.912 346.367,315.52 346.367,347.112C346.367,378.704 371.975,404.312 403.567,404.312C435.159,404.312 460.766,378.704 460.766,347.112C460.767,315.52 435.159,289.912 403.567,289.912ZM396.567,276.254L396.567,112L329.567,112C325.701,112 322.567,108.866 322.567,105L322.567,38L100.567,38L100.567,431L396.567,431L396.567,417.97C360.367,414.437 332.368,383.906 332.368,347.112C332.368,310.318 360.367,279.787 396.567,276.254ZM137.389,113.05L229.199,113.05C233.065,113.05 236.199,109.916 236.199,106.05C236.199,102.184 233.065,99.05 229.199,99.05L137.389,99.05C133.523,99.05 130.389,102.184 130.389,106.05C130.389,109.916 133.523,113.05 137.389,113.05ZM386.669,98L336.567,47.898L336.567,98L386.669,98ZM86.568,66L51.233,66L51.233,474L347.233,474L347.233,445L93.567,445C89.701,445 86.567,441.866 86.567,438L86.567,66L86.568,66Z" style="fill:rgb(175,43,80);"/>
    </g>
</svg>
